%TF.GenerationSoftware,KiCad,Pcbnew,9.0.6-9.0.6~ubuntu22.04.1*%
%TF.CreationDate,2025-11-27T22:46:04+02:00*%
%TF.ProjectId,pico,7069636f-2e6b-4696-9361-645f70636258,1*%
%TF.SameCoordinates,Original*%
%TF.FileFunction,Soldermask,Top*%
%TF.FilePolarity,Negative*%
%FSLAX46Y46*%
G04 Gerber Fmt 4.6, Leading zero omitted, Abs format (unit mm)*
G04 Created by KiCad (PCBNEW 9.0.6-9.0.6~ubuntu22.04.1) date 2025-11-27 22:46:04*
%MOMM*%
%LPD*%
G01*
G04 APERTURE LIST*
G04 Aperture macros list*
%AMRoundRect*
0 Rectangle with rounded corners*
0 $1 Rounding radius*
0 $2 $3 $4 $5 $6 $7 $8 $9 X,Y pos of 4 corners*
0 Add a 4 corners polygon primitive as box body*
4,1,4,$2,$3,$4,$5,$6,$7,$8,$9,$2,$3,0*
0 Add four circle primitives for the rounded corners*
1,1,$1+$1,$2,$3*
1,1,$1+$1,$4,$5*
1,1,$1+$1,$6,$7*
1,1,$1+$1,$8,$9*
0 Add four rect primitives between the rounded corners*
20,1,$1+$1,$2,$3,$4,$5,0*
20,1,$1+$1,$4,$5,$6,$7,0*
20,1,$1+$1,$6,$7,$8,$9,0*
20,1,$1+$1,$8,$9,$2,$3,0*%
%AMFreePoly0*
4,1,37,0.800000,0.796148,0.878414,0.796148,1.032228,0.765552,1.177117,0.705537,1.307515,0.618408,1.418408,0.507515,1.505537,0.377117,1.565552,0.232228,1.596148,0.078414,1.596148,-0.078414,1.565552,-0.232228,1.505537,-0.377117,1.418408,-0.507515,1.307515,-0.618408,1.177117,-0.705537,1.032228,-0.765552,0.878414,-0.796148,0.800000,-0.796148,0.800000,-0.800000,-1.400000,-0.800000,
-1.403843,-0.796157,-1.439018,-0.796157,-1.511114,-0.766294,-1.566294,-0.711114,-1.596157,-0.639018,-1.596157,-0.603843,-1.600000,-0.600000,-1.600000,0.600000,-1.596157,0.603843,-1.596157,0.639018,-1.566294,0.711114,-1.511114,0.766294,-1.439018,0.796157,-1.403843,0.796157,-1.400000,0.800000,0.800000,0.800000,0.800000,0.796148,0.800000,0.796148,$1*%
%AMFreePoly1*
4,1,37,1.403843,0.796157,1.439018,0.796157,1.511114,0.766294,1.566294,0.711114,1.596157,0.639018,1.596157,0.603843,1.600000,0.600000,1.600000,-0.600000,1.596157,-0.603843,1.596157,-0.639018,1.566294,-0.711114,1.511114,-0.766294,1.439018,-0.796157,1.403843,-0.796157,1.400000,-0.800000,-0.800000,-0.800000,-0.800000,-0.796148,-0.878414,-0.796148,-1.032228,-0.765552,-1.177117,-0.705537,
-1.307515,-0.618408,-1.418408,-0.507515,-1.505537,-0.377117,-1.565552,-0.232228,-1.596148,-0.078414,-1.596148,0.078414,-1.565552,0.232228,-1.505537,0.377117,-1.418408,0.507515,-1.307515,0.618408,-1.177117,0.705537,-1.032228,0.765552,-0.878414,0.796148,-0.800000,0.796148,-0.800000,0.800000,1.400000,0.800000,1.403843,0.796157,1.403843,0.796157,$1*%
G04 Aperture macros list end*
%ADD10RoundRect,0.250000X-0.350000X-0.625000X0.350000X-0.625000X0.350000X0.625000X-0.350000X0.625000X0*%
%ADD11O,1.200000X1.750000*%
%ADD12C,2.200000*%
%ADD13C,1.850000*%
%ADD14FreePoly0,0.000000*%
%ADD15RoundRect,0.800000X-0.800000X-0.000010X0.800000X-0.000010X0.800000X0.000010X-0.800000X0.000010X0*%
%ADD16FreePoly1,0.000000*%
%ADD17RoundRect,0.250000X-0.250000X-0.475000X0.250000X-0.475000X0.250000X0.475000X-0.250000X0.475000X0*%
%ADD18RoundRect,0.250000X-0.550000X-0.550000X0.550000X-0.550000X0.550000X0.550000X-0.550000X0.550000X0*%
%ADD19C,1.600000*%
%ADD20RoundRect,0.062500X-0.375000X-0.062500X0.375000X-0.062500X0.375000X0.062500X-0.375000X0.062500X0*%
%ADD21RoundRect,0.062500X-0.062500X-0.375000X0.062500X-0.375000X0.062500X0.375000X-0.062500X0.375000X0*%
%ADD22R,2.100000X2.100000*%
%ADD23RoundRect,0.250000X0.350000X0.625000X-0.350000X0.625000X-0.350000X-0.625000X0.350000X-0.625000X0*%
%ADD24RoundRect,0.250000X0.250000X0.475000X-0.250000X0.475000X-0.250000X-0.475000X0.250000X-0.475000X0*%
%ADD25R,1.700000X1.700000*%
%ADD26C,1.700000*%
%ADD27R,4.000000X2.000000*%
%ADD28O,3.300000X2.000000*%
%ADD29O,2.000000X3.500000*%
G04 APERTURE END LIST*
D10*
%TO.C,J2*%
X131000000Y-118000000D03*
D11*
X133000000Y-118000000D03*
X135000000Y-118000000D03*
%TD*%
D12*
%TO.C,A1*%
X112350000Y-53130000D03*
D13*
X112650000Y-56160000D03*
X117500000Y-56160000D03*
D12*
X117800000Y-53130000D03*
D14*
X105385000Y-53000000D03*
D15*
X105385000Y-55540000D03*
D16*
X105385000Y-58080000D03*
D15*
X105385000Y-60620000D03*
X105385000Y-63160000D03*
X105385000Y-65700000D03*
X105385000Y-68240000D03*
D16*
X105385000Y-70780000D03*
D15*
X105385000Y-73320000D03*
X105385000Y-75860000D03*
X105385000Y-78400000D03*
X105385000Y-80940000D03*
D16*
X105385000Y-83480000D03*
D15*
X105385000Y-86020000D03*
X105385000Y-88560000D03*
X105385000Y-91100000D03*
X105385000Y-93640000D03*
D16*
X105385000Y-96180000D03*
D15*
X105385000Y-98720000D03*
X105385000Y-101260000D03*
X124765000Y-101260000D03*
X124765000Y-98720000D03*
D14*
X124765000Y-96180000D03*
D15*
X124765000Y-93640000D03*
X124765000Y-91100000D03*
X124765000Y-88560000D03*
X124765000Y-86020000D03*
D14*
X124765000Y-83480000D03*
D15*
X124765000Y-80940000D03*
X124765000Y-78400000D03*
X124765000Y-75860000D03*
X124765000Y-73320000D03*
D14*
X124765000Y-70780000D03*
D15*
X124765000Y-68240000D03*
X124765000Y-65700000D03*
X124765000Y-63160000D03*
X124765000Y-60620000D03*
D14*
X124765000Y-58080000D03*
D15*
X124765000Y-55540000D03*
X124765000Y-53000000D03*
%TD*%
D17*
%TO.C,R1*%
X133250000Y-87587500D03*
X135150000Y-87587500D03*
%TD*%
%TO.C,C2*%
X133250000Y-78557500D03*
X135150000Y-78557500D03*
%TD*%
%TO.C,C4*%
X133250000Y-84577500D03*
X135150000Y-84577500D03*
%TD*%
D18*
%TO.C,C6*%
X120000000Y-115000000D03*
D19*
X122500000Y-115000000D03*
%TD*%
D20*
%TO.C,U1*%
X132062500Y-68050000D03*
X132062500Y-68550000D03*
X132062500Y-69050000D03*
X132062500Y-69550000D03*
X132062500Y-70050000D03*
X132062500Y-70550000D03*
D21*
X132750000Y-71237500D03*
X133250000Y-71237500D03*
X133750000Y-71237500D03*
X134250000Y-71237500D03*
X134750000Y-71237500D03*
X135250000Y-71237500D03*
D20*
X135937500Y-70550000D03*
X135937500Y-70050000D03*
X135937500Y-69550000D03*
X135937500Y-69050000D03*
X135937500Y-68550000D03*
X135937500Y-68050000D03*
D21*
X135250000Y-67362500D03*
X134750000Y-67362500D03*
X134250000Y-67362500D03*
X133750000Y-67362500D03*
X133250000Y-67362500D03*
X132750000Y-67362500D03*
D22*
X134000000Y-69300000D03*
%TD*%
D17*
%TO.C,C1*%
X133250000Y-75547500D03*
X135150000Y-75547500D03*
%TD*%
D23*
%TO.C,J3*%
X136500000Y-56950000D03*
D11*
X134500000Y-56950000D03*
X132500000Y-56950000D03*
X130500000Y-56950000D03*
%TD*%
D24*
%TO.C,R3*%
X135450000Y-60500000D03*
X133550000Y-60500000D03*
%TD*%
D25*
%TO.C,J4*%
X134000000Y-93500000D03*
D26*
X134000000Y-96040000D03*
%TD*%
D17*
%TO.C,C3*%
X133250000Y-81567500D03*
X135150000Y-81567500D03*
%TD*%
D19*
%TO.C,J1*%
X107500000Y-121500000D03*
D27*
X107500000Y-112500000D03*
D28*
X107500000Y-118500000D03*
D29*
X103000000Y-119500000D03*
X112000000Y-119500000D03*
%TD*%
D24*
%TO.C,R2*%
X135400000Y-63500000D03*
X133500000Y-63500000D03*
%TD*%
M02*
