%TF.GenerationSoftware,KiCad,Pcbnew,9.0.6-9.0.6~ubuntu22.04.1*%
%TF.CreationDate,2025-11-25T23:32:39+02:00*%
%TF.ProjectId,pico,7069636f-2e6b-4696-9361-645f70636258,1*%
%TF.SameCoordinates,Original*%
%TF.FileFunction,Copper,L1,Top*%
%TF.FilePolarity,Positive*%
%FSLAX46Y46*%
G04 Gerber Fmt 4.6, Leading zero omitted, Abs format (unit mm)*
G04 Created by KiCad (PCBNEW 9.0.6-9.0.6~ubuntu22.04.1) date 2025-11-25 23:32:39*
%MOMM*%
%LPD*%
G01*
G04 APERTURE LIST*
G04 Aperture macros list*
%AMRoundRect*
0 Rectangle with rounded corners*
0 $1 Rounding radius*
0 $2 $3 $4 $5 $6 $7 $8 $9 X,Y pos of 4 corners*
0 Add a 4 corners polygon primitive as box body*
4,1,4,$2,$3,$4,$5,$6,$7,$8,$9,$2,$3,0*
0 Add four circle primitives for the rounded corners*
1,1,$1+$1,$2,$3*
1,1,$1+$1,$4,$5*
1,1,$1+$1,$6,$7*
1,1,$1+$1,$8,$9*
0 Add four rect primitives between the rounded corners*
20,1,$1+$1,$2,$3,$4,$5,0*
20,1,$1+$1,$4,$5,$6,$7,0*
20,1,$1+$1,$6,$7,$8,$9,0*
20,1,$1+$1,$8,$9,$2,$3,0*%
%AMFreePoly0*
4,1,37,0.800000,0.796148,0.878414,0.796148,1.032228,0.765552,1.177117,0.705537,1.307515,0.618408,1.418408,0.507515,1.505537,0.377117,1.565552,0.232228,1.596148,0.078414,1.596148,-0.078414,1.565552,-0.232228,1.505537,-0.377117,1.418408,-0.507515,1.307515,-0.618408,1.177117,-0.705537,1.032228,-0.765552,0.878414,-0.796148,0.800000,-0.796148,0.800000,-0.800000,-1.400000,-0.800000,
-1.403843,-0.796157,-1.439018,-0.796157,-1.511114,-0.766294,-1.566294,-0.711114,-1.596157,-0.639018,-1.596157,-0.603843,-1.600000,-0.600000,-1.600000,0.600000,-1.596157,0.603843,-1.596157,0.639018,-1.566294,0.711114,-1.511114,0.766294,-1.439018,0.796157,-1.403843,0.796157,-1.400000,0.800000,0.800000,0.800000,0.800000,0.796148,0.800000,0.796148,$1*%
%AMFreePoly1*
4,1,37,1.403843,0.796157,1.439018,0.796157,1.511114,0.766294,1.566294,0.711114,1.596157,0.639018,1.596157,0.603843,1.600000,0.600000,1.600000,-0.600000,1.596157,-0.603843,1.596157,-0.639018,1.566294,-0.711114,1.511114,-0.766294,1.439018,-0.796157,1.403843,-0.796157,1.400000,-0.800000,-0.800000,-0.800000,-0.800000,-0.796148,-0.878414,-0.796148,-1.032228,-0.765552,-1.177117,-0.705537,
-1.307515,-0.618408,-1.418408,-0.507515,-1.505537,-0.377117,-1.565552,-0.232228,-1.596148,-0.078414,-1.596148,0.078414,-1.565552,0.232228,-1.505537,0.377117,-1.418408,0.507515,-1.307515,0.618408,-1.177117,0.705537,-1.032228,0.765552,-0.878414,0.796148,-0.800000,0.796148,-0.800000,0.800000,1.400000,0.800000,1.403843,0.796157,1.403843,0.796157,$1*%
G04 Aperture macros list end*
%TA.AperFunction,ComponentPad*%
%ADD10RoundRect,0.250000X-0.350000X-0.625000X0.350000X-0.625000X0.350000X0.625000X-0.350000X0.625000X0*%
%TD*%
%TA.AperFunction,ComponentPad*%
%ADD11O,1.200000X1.750000*%
%TD*%
%TA.AperFunction,SMDPad,CuDef*%
%ADD12FreePoly0,0.000000*%
%TD*%
%TA.AperFunction,SMDPad,CuDef*%
%ADD13RoundRect,0.800000X-0.800000X-0.000010X0.800000X-0.000010X0.800000X0.000010X-0.800000X0.000010X0*%
%TD*%
%TA.AperFunction,SMDPad,CuDef*%
%ADD14FreePoly1,0.000000*%
%TD*%
%TA.AperFunction,SMDPad,CuDef*%
%ADD15RoundRect,0.250000X-0.250000X-0.475000X0.250000X-0.475000X0.250000X0.475000X-0.250000X0.475000X0*%
%TD*%
%TA.AperFunction,ComponentPad*%
%ADD16RoundRect,0.250000X-0.550000X-0.550000X0.550000X-0.550000X0.550000X0.550000X-0.550000X0.550000X0*%
%TD*%
%TA.AperFunction,ComponentPad*%
%ADD17C,1.600000*%
%TD*%
%TA.AperFunction,SMDPad,CuDef*%
%ADD18RoundRect,0.062500X-0.375000X-0.062500X0.375000X-0.062500X0.375000X0.062500X-0.375000X0.062500X0*%
%TD*%
%TA.AperFunction,SMDPad,CuDef*%
%ADD19RoundRect,0.062500X-0.062500X-0.375000X0.062500X-0.375000X0.062500X0.375000X-0.062500X0.375000X0*%
%TD*%
%TA.AperFunction,HeatsinkPad*%
%ADD20R,2.100000X2.100000*%
%TD*%
%TA.AperFunction,SMDPad,CuDef*%
%ADD21RoundRect,0.250000X0.250000X0.475000X-0.250000X0.475000X-0.250000X-0.475000X0.250000X-0.475000X0*%
%TD*%
%TA.AperFunction,ComponentPad*%
%ADD22R,1.700000X1.700000*%
%TD*%
%TA.AperFunction,ComponentPad*%
%ADD23C,1.700000*%
%TD*%
%TA.AperFunction,ComponentPad*%
%ADD24R,4.000000X2.000000*%
%TD*%
%TA.AperFunction,ComponentPad*%
%ADD25O,3.300000X2.000000*%
%TD*%
%TA.AperFunction,ComponentPad*%
%ADD26O,2.000000X3.500000*%
%TD*%
%TA.AperFunction,ComponentPad*%
%ADD27RoundRect,0.250000X0.350000X0.625000X-0.350000X0.625000X-0.350000X-0.625000X0.350000X-0.625000X0*%
%TD*%
%TA.AperFunction,ViaPad*%
%ADD28C,0.600000*%
%TD*%
%TA.AperFunction,Conductor*%
%ADD29C,0.200000*%
%TD*%
%TA.AperFunction,Conductor*%
%ADD30C,2.000000*%
%TD*%
G04 APERTURE END LIST*
D10*
%TO.P,J2,1,Pin_1*%
%TO.N,Net-(A1-VBUS)*%
X131000000Y-118000000D03*
D11*
%TO.P,J2,2,Pin_2*%
%TO.N,Net-(J2-Pin_2)*%
X133000000Y-118000000D03*
%TO.P,J2,3,Pin_3*%
%TO.N,Net-(J2-Pin_3)*%
X135000000Y-118000000D03*
%TD*%
D12*
%TO.P,A1,1,GPIO0*%
%TO.N,unconnected-(A1-GPIO0-Pad1)*%
X105385000Y-53000000D03*
D13*
%TO.P,A1,2,GPIO1*%
%TO.N,unconnected-(A1-GPIO1-Pad2)*%
X105385000Y-55540000D03*
D14*
%TO.P,A1,3,GND*%
%TO.N,Net-(J2-Pin_3)*%
X105385000Y-58080000D03*
D13*
%TO.P,A1,4,GPIO2*%
%TO.N,unconnected-(A1-GPIO2-Pad4)*%
X105385000Y-60620000D03*
%TO.P,A1,5,GPIO3*%
%TO.N,Net-(A1-GPIO3)*%
X105385000Y-63160000D03*
%TO.P,A1,6,GPIO4*%
%TO.N,Net-(A1-GPIO4)*%
X105385000Y-65700000D03*
%TO.P,A1,7,GPIO5*%
%TO.N,unconnected-(A1-GPIO5-Pad7)*%
X105385000Y-68240000D03*
D14*
%TO.P,A1,8,GND*%
%TO.N,Net-(J2-Pin_3)*%
X105385000Y-70780000D03*
D13*
%TO.P,A1,9,GPIO6*%
%TO.N,unconnected-(A1-GPIO6-Pad9)*%
X105385000Y-73320000D03*
%TO.P,A1,10,GPIO7*%
%TO.N,unconnected-(A1-GPIO7-Pad10)*%
X105385000Y-75860000D03*
%TO.P,A1,11,GPIO8*%
%TO.N,unconnected-(A1-GPIO8-Pad11)*%
X105385000Y-78400000D03*
%TO.P,A1,12,GPIO9*%
%TO.N,unconnected-(A1-GPIO9-Pad12)*%
X105385000Y-80940000D03*
D14*
%TO.P,A1,13,GND*%
%TO.N,Net-(J2-Pin_3)*%
X105385000Y-83480000D03*
D13*
%TO.P,A1,14,GPIO10*%
%TO.N,unconnected-(A1-GPIO10-Pad14)*%
X105385000Y-86020000D03*
%TO.P,A1,15,GPIO11*%
%TO.N,unconnected-(A1-GPIO11-Pad15)*%
X105385000Y-88560000D03*
%TO.P,A1,16,GPIO12*%
%TO.N,unconnected-(A1-GPIO12-Pad16)*%
X105385000Y-91100000D03*
%TO.P,A1,17,GPIO13*%
%TO.N,unconnected-(A1-GPIO13-Pad17)*%
X105385000Y-93640000D03*
D14*
%TO.P,A1,18,GND*%
%TO.N,Net-(J2-Pin_3)*%
X105385000Y-96180000D03*
D13*
%TO.P,A1,19,GPIO14*%
%TO.N,unconnected-(A1-GPIO14-Pad19)*%
X105385000Y-98720000D03*
%TO.P,A1,20,GPIO15*%
%TO.N,unconnected-(A1-GPIO15-Pad20)*%
X105385000Y-101260000D03*
%TO.P,A1,21,GPIO16*%
%TO.N,unconnected-(A1-GPIO16-Pad21)*%
X124765000Y-101260000D03*
%TO.P,A1,22,GPIO17*%
%TO.N,unconnected-(A1-GPIO17-Pad22)*%
X124765000Y-98720000D03*
D12*
%TO.P,A1,23,GND*%
%TO.N,Net-(J2-Pin_3)*%
X124765000Y-96180000D03*
D13*
%TO.P,A1,24,GPIO18*%
%TO.N,unconnected-(A1-GPIO18-Pad24)*%
X124765000Y-93640000D03*
%TO.P,A1,25,GPIO19*%
%TO.N,unconnected-(A1-GPIO19-Pad25)*%
X124765000Y-91100000D03*
%TO.P,A1,26,GPIO20*%
%TO.N,unconnected-(A1-GPIO20-Pad26)*%
X124765000Y-88560000D03*
%TO.P,A1,27,GPIO21*%
%TO.N,unconnected-(A1-GPIO21-Pad27)*%
X124765000Y-86020000D03*
D12*
%TO.P,A1,28,GND*%
%TO.N,Net-(J2-Pin_3)*%
X124765000Y-83480000D03*
D13*
%TO.P,A1,29,GPIO22*%
%TO.N,Net-(A1-GPIO22)*%
X124765000Y-80940000D03*
%TO.P,A1,30,RUN*%
%TO.N,unconnected-(A1-RUN-Pad30)*%
X124765000Y-78400000D03*
%TO.P,A1,31,GPIO26_ADC0*%
%TO.N,unconnected-(A1-GPIO26_ADC0-Pad31)*%
X124765000Y-75860000D03*
%TO.P,A1,32,GPIO27_ADC1*%
%TO.N,unconnected-(A1-GPIO27_ADC1-Pad32)*%
X124765000Y-73320000D03*
D12*
%TO.P,A1,33,AGND*%
%TO.N,GNDREF*%
X124765000Y-70780000D03*
D13*
%TO.P,A1,34,GPIO28_ADC2*%
%TO.N,unconnected-(A1-GPIO28_ADC2-Pad34)*%
X124765000Y-68240000D03*
%TO.P,A1,35,ADC_VREF*%
%TO.N,unconnected-(A1-ADC_VREF-Pad35)*%
X124765000Y-65700000D03*
%TO.P,A1,36,3V3*%
%TO.N,3.3VDC*%
X124765000Y-63160000D03*
%TO.P,A1,37,3V3_EN*%
%TO.N,unconnected-(A1-3V3_EN-Pad37)*%
X124765000Y-60620000D03*
D12*
%TO.P,A1,38,GND*%
%TO.N,Net-(J2-Pin_3)*%
X124765000Y-58080000D03*
D13*
%TO.P,A1,39,VSYS*%
%TO.N,unconnected-(A1-VSYS-Pad39)*%
X124765000Y-55540000D03*
%TO.P,A1,40,VBUS*%
%TO.N,Net-(A1-VBUS)*%
X124765000Y-53000000D03*
%TD*%
D15*
%TO.P,R1,1*%
%TO.N,Net-(A1-GPIO22)*%
X133250000Y-87587500D03*
%TO.P,R1,2*%
%TO.N,Net-(J2-Pin_2)*%
X135150000Y-87587500D03*
%TD*%
%TO.P,C2,1*%
%TO.N,GNDREF*%
X133250000Y-78557500D03*
%TO.P,C2,2*%
%TO.N,3.3VDC*%
X135150000Y-78557500D03*
%TD*%
%TO.P,C4,1*%
%TO.N,GNDREF*%
X133250000Y-84577500D03*
%TO.P,C4,2*%
%TO.N,Net-(U1-CPOUT)*%
X135150000Y-84577500D03*
%TD*%
D16*
%TO.P,C6,1*%
%TO.N,Net-(A1-VBUS)*%
X120000000Y-115000000D03*
D17*
%TO.P,C6,2*%
%TO.N,Net-(J2-Pin_3)*%
X122500000Y-115000000D03*
%TD*%
D18*
%TO.P,U1,1,CLKIN*%
%TO.N,GNDREF*%
X132062500Y-68050000D03*
%TO.P,U1,2,NC*%
%TO.N,unconnected-(U1-NC-Pad2)*%
X132062500Y-68550000D03*
%TO.P,U1,3,NC*%
%TO.N,unconnected-(U1-NC-Pad3)*%
X132062500Y-69050000D03*
%TO.P,U1,4,NC*%
%TO.N,unconnected-(U1-NC-Pad4)*%
X132062500Y-69550000D03*
%TO.P,U1,5,NC*%
%TO.N,unconnected-(U1-NC-Pad5)*%
X132062500Y-70050000D03*
%TO.P,U1,6,AUX_DA*%
%TO.N,unconnected-(U1-AUX_DA-Pad6)*%
X132062500Y-70550000D03*
D19*
%TO.P,U1,7,AUX_CL*%
%TO.N,unconnected-(U1-AUX_CL-Pad7)*%
X132750000Y-71237500D03*
%TO.P,U1,8,VLOGIC*%
%TO.N,Net-(U1-VLOGIC)*%
X133250000Y-71237500D03*
%TO.P,U1,9,AD0*%
%TO.N,Net-(J4-Pin_1)*%
X133750000Y-71237500D03*
%TO.P,U1,10,REGOUT*%
%TO.N,Net-(U1-REGOUT)*%
X134250000Y-71237500D03*
%TO.P,U1,11,FSYNC*%
%TO.N,GNDREF*%
X134750000Y-71237500D03*
%TO.P,U1,12,INT*%
%TO.N,unconnected-(U1-INT-Pad12)*%
X135250000Y-71237500D03*
D18*
%TO.P,U1,13,VDD*%
%TO.N,3.3VDC*%
X135937500Y-70550000D03*
%TO.P,U1,14,NC*%
%TO.N,unconnected-(U1-NC-Pad14)*%
X135937500Y-70050000D03*
%TO.P,U1,15,NC*%
%TO.N,unconnected-(U1-NC-Pad15)*%
X135937500Y-69550000D03*
%TO.P,U1,16,NC*%
%TO.N,unconnected-(U1-NC-Pad16)*%
X135937500Y-69050000D03*
%TO.P,U1,17,NC*%
%TO.N,unconnected-(U1-NC-Pad17)*%
X135937500Y-68550000D03*
%TO.P,U1,18,GND*%
%TO.N,GNDREF*%
X135937500Y-68050000D03*
D19*
%TO.P,U1,19,RESV*%
%TO.N,unconnected-(U1-RESV-Pad19)*%
X135250000Y-67362500D03*
%TO.P,U1,20,CPOUT*%
%TO.N,Net-(U1-CPOUT)*%
X134750000Y-67362500D03*
%TO.P,U1,21,RESV*%
%TO.N,unconnected-(U1-RESV-Pad21)*%
X134250000Y-67362500D03*
%TO.P,U1,22,RESV*%
%TO.N,unconnected-(U1-RESV-Pad22)*%
X133750000Y-67362500D03*
%TO.P,U1,23,SCL*%
%TO.N,Net-(A1-GPIO3)*%
X133250000Y-67362500D03*
%TO.P,U1,24,SDA*%
%TO.N,Net-(A1-GPIO4)*%
X132750000Y-67362500D03*
D20*
%TO.P,U1,25*%
%TO.N,N/C*%
X134000000Y-69300000D03*
%TD*%
D15*
%TO.P,C1,1*%
%TO.N,GNDREF*%
X133250000Y-75547500D03*
%TO.P,C1,2*%
%TO.N,Net-(U1-VLOGIC)*%
X135150000Y-75547500D03*
%TD*%
D21*
%TO.P,R3,1*%
%TO.N,3.3VDC*%
X135450000Y-60500000D03*
%TO.P,R3,2*%
%TO.N,Net-(A1-GPIO4)*%
X133550000Y-60500000D03*
%TD*%
D22*
%TO.P,J4,1,Pin_1*%
%TO.N,Net-(J4-Pin_1)*%
X134000000Y-93500000D03*
D23*
%TO.P,J4,2,Pin_2*%
%TO.N,GNDREF*%
X134000000Y-96040000D03*
%TD*%
D15*
%TO.P,C3,1*%
%TO.N,GNDREF*%
X133250000Y-81567500D03*
%TO.P,C3,2*%
%TO.N,Net-(U1-REGOUT)*%
X135150000Y-81567500D03*
%TD*%
D24*
%TO.P,J1,1*%
%TO.N,Net-(A1-VBUS)*%
X107500000Y-112500000D03*
D25*
%TO.P,J1,2*%
%TO.N,Net-(J2-Pin_3)*%
X107500000Y-118500000D03*
D26*
%TO.P,J1,MP,MountPin*%
%TO.N,unconnected-(J1-MountPin-PadMP)*%
X103000000Y-119500000D03*
X112000000Y-119500000D03*
%TD*%
D21*
%TO.P,R2,1*%
%TO.N,3.3VDC*%
X135400000Y-63500000D03*
%TO.P,R2,2*%
%TO.N,Net-(A1-GPIO3)*%
X133500000Y-63500000D03*
%TD*%
D27*
%TO.P,J3,1,Pin_1*%
%TO.N,3.3VDC*%
X136500000Y-56950000D03*
D11*
%TO.P,J3,2,Pin_2*%
%TO.N,Net-(A1-GPIO4)*%
X134500000Y-56950000D03*
%TO.P,J3,3,Pin_3*%
%TO.N,Net-(A1-GPIO3)*%
X132500000Y-56950000D03*
%TO.P,J3,4,Pin_4*%
%TO.N,Net-(J2-Pin_3)*%
X130500000Y-56950000D03*
%TD*%
D28*
%TO.N,GNDREF*%
X131253200Y-63452400D03*
X136087600Y-71410200D03*
X135723600Y-65881700D03*
X132853100Y-86082500D03*
%TO.N,Net-(A1-GPIO4)*%
X109950300Y-60016000D03*
%TO.N,3.3VDC*%
X127659900Y-63074800D03*
%TO.N,Net-(A1-GPIO3)*%
X107751300Y-62906400D03*
%TO.N,Net-(J4-Pin_1)*%
X133924700Y-73718200D03*
%TD*%
D29*
%TO.N,GNDREF*%
X124765000Y-70780000D02*
X131271800Y-70780000D01*
X133250000Y-79587300D02*
X133250000Y-81567500D01*
X133250000Y-84577500D02*
X133250000Y-81567500D01*
X131253200Y-63452400D02*
X131253200Y-67760700D01*
X131271800Y-68320700D02*
X131542500Y-68050000D01*
X135520900Y-71976900D02*
X136087600Y-71410200D01*
X133250000Y-76214300D02*
X133250000Y-76173000D01*
X136087600Y-71410200D02*
X135910500Y-71587300D01*
X134750000Y-71237500D02*
X134750000Y-71704600D01*
X135910500Y-71587300D02*
X136087600Y-71410200D01*
X131271800Y-70780000D02*
X131271800Y-68320700D01*
X131542500Y-68050000D02*
X132062500Y-68050000D01*
X134750000Y-71704600D02*
X135022300Y-71976900D01*
X135022300Y-71976900D02*
X135520900Y-71976900D01*
X133250000Y-75547500D02*
X131271800Y-73569300D01*
X132853100Y-86082500D02*
X133250000Y-85685600D01*
X133250000Y-78557500D02*
X133250000Y-79587300D01*
X131271800Y-73569300D02*
X131271800Y-70780000D01*
X133250000Y-76616100D02*
X133250000Y-76255600D01*
X133250000Y-76636500D02*
X133250000Y-76616100D01*
X135937500Y-66095600D02*
X135723600Y-65881700D01*
X133250000Y-76255600D02*
X133250000Y-76214300D01*
X133250000Y-85685600D02*
X133250000Y-84577500D01*
X133250000Y-78557500D02*
X133250000Y-76636500D01*
X131253200Y-67760700D02*
X131542500Y-68050000D01*
X135937500Y-68050000D02*
X135937500Y-66095600D01*
X133250000Y-76173000D02*
X133250000Y-75547500D01*
%TO.N,Net-(A1-GPIO4)*%
X132750000Y-67362500D02*
X131854900Y-66467400D01*
X133550000Y-60500000D02*
X133598300Y-60451700D01*
X132139700Y-55730400D02*
X132865300Y-55730400D01*
X131568100Y-62916400D02*
X131568100Y-56302000D01*
X134500000Y-56950000D02*
X133598300Y-56950000D01*
X133598300Y-60451700D02*
X133598300Y-56950000D01*
X109950300Y-61630500D02*
X109950300Y-60016000D01*
X131854900Y-66467400D02*
X131854900Y-63203200D01*
X105880800Y-65700000D02*
X109950300Y-61630500D01*
X131854900Y-63203200D02*
X131568100Y-62916400D01*
X131568100Y-56302000D02*
X132139700Y-55730400D01*
X132865300Y-55730400D02*
X133598300Y-56463400D01*
X105385000Y-65700000D02*
X105880800Y-65700000D01*
X133598300Y-56463400D02*
X133598300Y-56950000D01*
%TO.N,3.3VDC*%
X136697200Y-70273100D02*
X136697200Y-64797200D01*
X135150000Y-78557500D02*
X136689300Y-77018200D01*
X136689300Y-70819000D02*
X136420300Y-70550000D01*
X136500000Y-56950000D02*
X136500000Y-59450000D01*
X136689300Y-77018200D02*
X136689300Y-70819000D01*
X124765000Y-63160000D02*
X127574700Y-63160000D01*
X135400100Y-60549900D02*
X135450000Y-60500000D01*
X136697200Y-64797200D02*
X135400000Y-63500000D01*
X136500000Y-59450000D02*
X135450000Y-60500000D01*
X135400000Y-60549900D02*
X135400100Y-60549900D01*
X136420300Y-70550000D02*
X136697200Y-70273100D01*
X136379000Y-70550000D02*
X136420300Y-70550000D01*
X127574700Y-63160000D02*
X127659900Y-63074800D01*
X135937500Y-70550000D02*
X136379000Y-70550000D01*
X135400000Y-63500000D02*
X135400000Y-60549900D01*
D30*
%TO.N,Net-(A1-VBUS)*%
X109467500Y-112500000D02*
X117500000Y-112500000D01*
D29*
X107658400Y-74620700D02*
X120689100Y-61590000D01*
D30*
X107500000Y-112500000D02*
X109467500Y-112500000D01*
D29*
X107658400Y-110690900D02*
X107658400Y-74620700D01*
X120689100Y-61590000D02*
X120689100Y-57075900D01*
D30*
X122200000Y-118000000D02*
X131000000Y-118000000D01*
D29*
X120689100Y-57075900D02*
X124765000Y-53000000D01*
X109467500Y-112500000D02*
X107658400Y-110690900D01*
D30*
X117500000Y-112500000D02*
X120000000Y-115000000D01*
X120000000Y-115800000D02*
X122200000Y-118000000D01*
X120000000Y-115000000D02*
X120000000Y-115800000D01*
D29*
%TO.N,Net-(A1-GPIO3)*%
X133250000Y-63750000D02*
X133500000Y-63500000D01*
X132500000Y-62500000D02*
X132500000Y-56950000D01*
X133250000Y-67362500D02*
X133250000Y-63750000D01*
X105385000Y-63160000D02*
X107497700Y-63160000D01*
X107497700Y-63160000D02*
X107751300Y-62906400D01*
X133500000Y-63500000D02*
X132500000Y-62500000D01*
%TO.N,Net-(A1-GPIO22)*%
X131412500Y-87587500D02*
X133250000Y-87587500D01*
X124765000Y-80940000D02*
X131412500Y-87587500D01*
%TO.N,Net-(J4-Pin_1)*%
X133924700Y-73718200D02*
X133750000Y-73543500D01*
X133924700Y-73718200D02*
X133859200Y-73652700D01*
X133859200Y-73652700D02*
X133924700Y-73718200D01*
X133750000Y-73543500D02*
X133750000Y-71237500D01*
%TO.N,Net-(U1-REGOUT)*%
X135150000Y-81567500D02*
X134297400Y-80714900D01*
X134297400Y-77846600D02*
X135324800Y-76819200D01*
X135978800Y-76297100D02*
X135978800Y-74297900D01*
X134250000Y-72569100D02*
X134250000Y-71237500D01*
X134297400Y-80714900D02*
X134297400Y-77846600D01*
X135324800Y-76819200D02*
X135456700Y-76819200D01*
X135978800Y-74297900D02*
X134250000Y-72569100D01*
X135456700Y-76819200D02*
X135978800Y-76297100D01*
%TO.N,Net-(U1-CPOUT)*%
X135431700Y-57694300D02*
X135431700Y-56220700D01*
X137043100Y-55726000D02*
X137438000Y-56120900D01*
X137438000Y-56120900D02*
X137438000Y-82289500D01*
X135926400Y-55726000D02*
X137043100Y-55726000D01*
X134597300Y-64324500D02*
X134597300Y-58528700D01*
X134750000Y-67362500D02*
X134750000Y-64477200D01*
X134597300Y-58528700D02*
X135431700Y-57694300D01*
X134750000Y-64477200D02*
X134597300Y-64324500D01*
X137438000Y-82289500D02*
X135150000Y-84577500D01*
X135431700Y-56220700D02*
X135926400Y-55726000D01*
%TO.N,Net-(U1-VLOGIC)*%
X133250000Y-71237500D02*
X133250000Y-73894300D01*
X134903200Y-75547500D02*
X135150000Y-75547500D01*
X133250000Y-73894300D02*
X134903200Y-75547500D01*
%TO.N,Net-(J2-Pin_3)*%
X105385000Y-70780000D02*
X103437900Y-72727100D01*
X103437900Y-83480000D02*
X103437900Y-96180000D01*
X122860300Y-83480000D02*
X124765000Y-83480000D01*
X122500000Y-98445000D02*
X124765000Y-96180000D01*
X103437900Y-96180000D02*
X103437900Y-116389600D01*
X103480300Y-68875300D02*
X105385000Y-70780000D01*
X122500000Y-115000000D02*
X122500000Y-98445000D01*
X103437900Y-72727100D02*
X103437900Y-83480000D01*
X122860300Y-59984700D02*
X122860300Y-83480000D01*
X128468300Y-58080000D02*
X129598300Y-56950000D01*
X105385000Y-83480000D02*
X103437900Y-83480000D01*
X103480300Y-59984700D02*
X103480300Y-68875300D01*
X122860300Y-94275300D02*
X124765000Y-96180000D01*
X124765000Y-58080000D02*
X122860300Y-59984700D01*
X122860300Y-83480000D02*
X122860300Y-94275300D01*
X103437900Y-116389600D02*
X105548300Y-118500000D01*
X124765000Y-58080000D02*
X128468300Y-58080000D01*
X105385000Y-58080000D02*
X103480300Y-59984700D01*
X107500000Y-118500000D02*
X105548300Y-118500000D01*
X130500000Y-56950000D02*
X129598300Y-56950000D01*
X103437900Y-96180000D02*
X105385000Y-96180000D01*
%TO.N,Net-(J2-Pin_2)*%
X135153200Y-91112700D02*
X135153200Y-87590700D01*
X135318000Y-115682000D02*
X135318000Y-91277500D01*
X135318000Y-91277500D02*
X135153200Y-91112700D01*
X133901700Y-118000000D02*
X133901700Y-117098300D01*
X135153200Y-87590700D02*
X135150000Y-87587500D01*
X133901700Y-117098300D02*
X135318000Y-115682000D01*
X135318000Y-91277500D02*
X135153200Y-91112700D01*
X133000000Y-118000000D02*
X133901700Y-118000000D01*
%TD*%
%TA.AperFunction,Conductor*%
%TO.N,GNDREF*%
G36*
X126931899Y-83961582D02*
G01*
X126956308Y-83980543D01*
X131043784Y-88068020D01*
X131043786Y-88068021D01*
X131043790Y-88068024D01*
X131122565Y-88113504D01*
X131180716Y-88147077D01*
X131333443Y-88188001D01*
X131333445Y-88188001D01*
X131499154Y-88188001D01*
X131499170Y-88188000D01*
X132161415Y-88188000D01*
X132228454Y-88207685D01*
X132274209Y-88260489D01*
X132279118Y-88272989D01*
X132315186Y-88381834D01*
X132407288Y-88531156D01*
X132531344Y-88655212D01*
X132680666Y-88747314D01*
X132847203Y-88802499D01*
X132949991Y-88813000D01*
X133550008Y-88812999D01*
X133550016Y-88812998D01*
X133550019Y-88812998D01*
X133606302Y-88807248D01*
X133652797Y-88802499D01*
X133819334Y-88747314D01*
X133968656Y-88655212D01*
X134092712Y-88531156D01*
X134094461Y-88528319D01*
X134096169Y-88526783D01*
X134097193Y-88525489D01*
X134097414Y-88525663D01*
X134146406Y-88481596D01*
X134215368Y-88470372D01*
X134279451Y-88498213D01*
X134305537Y-88528317D01*
X134307288Y-88531156D01*
X134307289Y-88531157D01*
X134307290Y-88531158D01*
X134431345Y-88655213D01*
X134456168Y-88670523D01*
X134493796Y-88693732D01*
X134540521Y-88745678D01*
X134552700Y-88799270D01*
X134552700Y-91026030D01*
X134552699Y-91026048D01*
X134552699Y-91191751D01*
X134552698Y-91191754D01*
X134569994Y-91256302D01*
X134593623Y-91344485D01*
X134600593Y-91356557D01*
X134672680Y-91481416D01*
X134690988Y-91499724D01*
X134698386Y-91511455D01*
X134704301Y-91532258D01*
X134714666Y-91551240D01*
X134717500Y-91577598D01*
X134717500Y-92025500D01*
X134697815Y-92092539D01*
X134645011Y-92138294D01*
X134593500Y-92149500D01*
X133102129Y-92149500D01*
X133102123Y-92149501D01*
X133042516Y-92155908D01*
X132907671Y-92206202D01*
X132907664Y-92206206D01*
X132792455Y-92292452D01*
X132792452Y-92292455D01*
X132706206Y-92407664D01*
X132706202Y-92407671D01*
X132655908Y-92542517D01*
X132649501Y-92602116D01*
X132649500Y-92602135D01*
X132649500Y-94397870D01*
X132649501Y-94397876D01*
X132655908Y-94457483D01*
X132706202Y-94592328D01*
X132706206Y-94592335D01*
X132792452Y-94707544D01*
X132792455Y-94707547D01*
X132907664Y-94793793D01*
X132907671Y-94793797D01*
X132952618Y-94810561D01*
X133042517Y-94844091D01*
X133102127Y-94850500D01*
X133112685Y-94850499D01*
X133179723Y-94870179D01*
X133200372Y-94886818D01*
X133870591Y-95557037D01*
X133807007Y-95574075D01*
X133692993Y-95639901D01*
X133599901Y-95732993D01*
X133534075Y-95847007D01*
X133517037Y-95910591D01*
X132884728Y-95278282D01*
X132884727Y-95278282D01*
X132845380Y-95332439D01*
X132748904Y-95521782D01*
X132683242Y-95723869D01*
X132683242Y-95723872D01*
X132650000Y-95933753D01*
X132650000Y-96146246D01*
X132683242Y-96356127D01*
X132683242Y-96356130D01*
X132748904Y-96558217D01*
X132845375Y-96747550D01*
X132884728Y-96801716D01*
X133517037Y-96169408D01*
X133534075Y-96232993D01*
X133599901Y-96347007D01*
X133692993Y-96440099D01*
X133807007Y-96505925D01*
X133870589Y-96522962D01*
X133238282Y-97155269D01*
X133238282Y-97155270D01*
X133292449Y-97194624D01*
X133481782Y-97291095D01*
X133683870Y-97356757D01*
X133893754Y-97390000D01*
X134106246Y-97390000D01*
X134316127Y-97356757D01*
X134316130Y-97356757D01*
X134518218Y-97291095D01*
X134537202Y-97281422D01*
X134605871Y-97268524D01*
X134670612Y-97294798D01*
X134710871Y-97351904D01*
X134717500Y-97391905D01*
X134717500Y-115381902D01*
X134697815Y-115448941D01*
X134681181Y-115469583D01*
X133532984Y-116617780D01*
X133493677Y-116657085D01*
X133475670Y-116666916D01*
X133432355Y-116690569D01*
X133432353Y-116690568D01*
X133432353Y-116690569D01*
X133432348Y-116690568D01*
X133367681Y-116687333D01*
X133257701Y-116651598D01*
X133257699Y-116651597D01*
X133257698Y-116651597D01*
X133126271Y-116630781D01*
X133086611Y-116624500D01*
X132913389Y-116624500D01*
X132881192Y-116629599D01*
X132742301Y-116651597D01*
X132742302Y-116651597D01*
X132577552Y-116705128D01*
X132423211Y-116783768D01*
X132343256Y-116841859D01*
X132283072Y-116885586D01*
X132283070Y-116885588D01*
X132283068Y-116885589D01*
X132233022Y-116935635D01*
X132171699Y-116969119D01*
X132102007Y-116964134D01*
X132057661Y-116935634D01*
X131977512Y-116855485D01*
X131977510Y-116855483D01*
X131786433Y-116716657D01*
X131763804Y-116705127D01*
X131575996Y-116609433D01*
X131351368Y-116536446D01*
X131118097Y-116499500D01*
X131118092Y-116499500D01*
X122876425Y-116499500D01*
X122809386Y-116479815D01*
X122763631Y-116427011D01*
X122753687Y-116357853D01*
X122782712Y-116294297D01*
X122838106Y-116257569D01*
X122874669Y-116245688D01*
X122999219Y-116205220D01*
X123181610Y-116112287D01*
X123274590Y-116044732D01*
X123347213Y-115991971D01*
X123347215Y-115991968D01*
X123347219Y-115991966D01*
X123491966Y-115847219D01*
X123491968Y-115847215D01*
X123491971Y-115847213D01*
X123612070Y-115681908D01*
X123612287Y-115681610D01*
X123705220Y-115499219D01*
X123768477Y-115304534D01*
X123800500Y-115102352D01*
X123800500Y-114897648D01*
X123768477Y-114695466D01*
X123705220Y-114500781D01*
X123705218Y-114500778D01*
X123705218Y-114500776D01*
X123671503Y-114434607D01*
X123612287Y-114318390D01*
X123604556Y-114307749D01*
X123491971Y-114152786D01*
X123347213Y-114008028D01*
X123181610Y-113887712D01*
X123168200Y-113880879D01*
X123117406Y-113832903D01*
X123100500Y-113770397D01*
X123100500Y-102480489D01*
X123120185Y-102413450D01*
X123172989Y-102367695D01*
X123242147Y-102357751D01*
X123295619Y-102378912D01*
X123312266Y-102390568D01*
X123518504Y-102486739D01*
X123738308Y-102545635D01*
X123908214Y-102560499D01*
X123908215Y-102560500D01*
X123908216Y-102560500D01*
X125621785Y-102560500D01*
X125621785Y-102560499D01*
X125791692Y-102545635D01*
X126011496Y-102486739D01*
X126217734Y-102390568D01*
X126404139Y-102260047D01*
X126565047Y-102099139D01*
X126695568Y-101912734D01*
X126791739Y-101706496D01*
X126850635Y-101486692D01*
X126865500Y-101316784D01*
X126865500Y-101203216D01*
X126850635Y-101033308D01*
X126791739Y-100813504D01*
X126695568Y-100607266D01*
X126565047Y-100420861D01*
X126565045Y-100420858D01*
X126404141Y-100259954D01*
X126217734Y-100129432D01*
X126217728Y-100129429D01*
X126159725Y-100102382D01*
X126107285Y-100056210D01*
X126088133Y-99989017D01*
X126108348Y-99922135D01*
X126159725Y-99877618D01*
X126217734Y-99850568D01*
X126404139Y-99720047D01*
X126565047Y-99559139D01*
X126695568Y-99372734D01*
X126791739Y-99166496D01*
X126850635Y-98946692D01*
X126865500Y-98776784D01*
X126865500Y-98663216D01*
X126850635Y-98493308D01*
X126791739Y-98273504D01*
X126695568Y-98067266D01*
X126565047Y-97880861D01*
X126565045Y-97880858D01*
X126404141Y-97719954D01*
X126217734Y-97589432D01*
X126217732Y-97589431D01*
X126166343Y-97565468D01*
X126113904Y-97519295D01*
X126094752Y-97452102D01*
X126114968Y-97385221D01*
X126160293Y-97343729D01*
X126224783Y-97309259D01*
X126355811Y-97221709D01*
X126432412Y-97158843D01*
X126543843Y-97047412D01*
X126606709Y-96970811D01*
X126694259Y-96839783D01*
X126740972Y-96752389D01*
X126801278Y-96606798D01*
X126830044Y-96511968D01*
X126860787Y-96357410D01*
X126870500Y-96258793D01*
X126870500Y-96101207D01*
X126860787Y-96002590D01*
X126850506Y-95950904D01*
X126830048Y-95848051D01*
X126830045Y-95848039D01*
X126830044Y-95848032D01*
X126801278Y-95753202D01*
X126740972Y-95607611D01*
X126694259Y-95520217D01*
X126694248Y-95520200D01*
X126606721Y-95389206D01*
X126606712Y-95389194D01*
X126606709Y-95389189D01*
X126543843Y-95312588D01*
X126432412Y-95201157D01*
X126355811Y-95138291D01*
X126355804Y-95138286D01*
X126355793Y-95138278D01*
X126224799Y-95050751D01*
X126224788Y-95050744D01*
X126224783Y-95050741D01*
X126160293Y-95016270D01*
X126110450Y-94967308D01*
X126094990Y-94899171D01*
X126118822Y-94833491D01*
X126166341Y-94794532D01*
X126217734Y-94770568D01*
X126404139Y-94640047D01*
X126565047Y-94479139D01*
X126695568Y-94292734D01*
X126791739Y-94086496D01*
X126850635Y-93866692D01*
X126865500Y-93696784D01*
X126865500Y-93583216D01*
X126850635Y-93413308D01*
X126791739Y-93193504D01*
X126695568Y-92987266D01*
X126565047Y-92800861D01*
X126565045Y-92800858D01*
X126404141Y-92639954D01*
X126217734Y-92509432D01*
X126217728Y-92509429D01*
X126159725Y-92482382D01*
X126107285Y-92436210D01*
X126088133Y-92369017D01*
X126108348Y-92302135D01*
X126159725Y-92257618D01*
X126217734Y-92230568D01*
X126404139Y-92100047D01*
X126565047Y-91939139D01*
X126695568Y-91752734D01*
X126791739Y-91546496D01*
X126850635Y-91326692D01*
X126865500Y-91156784D01*
X126865500Y-91043216D01*
X126850635Y-90873308D01*
X126791739Y-90653504D01*
X126695568Y-90447266D01*
X126565047Y-90260861D01*
X126565045Y-90260858D01*
X126404141Y-90099954D01*
X126217734Y-89969432D01*
X126217728Y-89969429D01*
X126159725Y-89942382D01*
X126107285Y-89896210D01*
X126088133Y-89829017D01*
X126108348Y-89762135D01*
X126159725Y-89717618D01*
X126217734Y-89690568D01*
X126404139Y-89560047D01*
X126565047Y-89399139D01*
X126695568Y-89212734D01*
X126791739Y-89006496D01*
X126850635Y-88786692D01*
X126865500Y-88616784D01*
X126865500Y-88503216D01*
X126850635Y-88333308D01*
X126791739Y-88113504D01*
X126695568Y-87907266D01*
X126565047Y-87720861D01*
X126565045Y-87720858D01*
X126404141Y-87559954D01*
X126217734Y-87429432D01*
X126217728Y-87429429D01*
X126159725Y-87402382D01*
X126107285Y-87356210D01*
X126088133Y-87289017D01*
X126108348Y-87222135D01*
X126159725Y-87177618D01*
X126217734Y-87150568D01*
X126404139Y-87020047D01*
X126565047Y-86859139D01*
X126695568Y-86672734D01*
X126791739Y-86466496D01*
X126850635Y-86246692D01*
X126865500Y-86076784D01*
X126865500Y-85963216D01*
X126850635Y-85793308D01*
X126791739Y-85573504D01*
X126695568Y-85367266D01*
X126565047Y-85180861D01*
X126565045Y-85180858D01*
X126404141Y-85019954D01*
X126217734Y-84889432D01*
X126217732Y-84889431D01*
X126166343Y-84865468D01*
X126113904Y-84819295D01*
X126094752Y-84752102D01*
X126114968Y-84685221D01*
X126160293Y-84643729D01*
X126224783Y-84609259D01*
X126355811Y-84521709D01*
X126432412Y-84458843D01*
X126543843Y-84347412D01*
X126606709Y-84270811D01*
X126694259Y-84139783D01*
X126740972Y-84052389D01*
X126754068Y-84020772D01*
X126797906Y-83966371D01*
X126864199Y-83944304D01*
X126931899Y-83961582D01*
G37*
%TD.AperFunction*%
%TA.AperFunction,Conductor*%
G36*
X136028073Y-71726283D02*
G01*
X136075684Y-71777420D01*
X136088800Y-71832925D01*
X136088800Y-73259303D01*
X136069115Y-73326342D01*
X136016311Y-73372097D01*
X135947153Y-73382041D01*
X135883597Y-73353016D01*
X135877119Y-73346984D01*
X134899304Y-72369169D01*
X134865819Y-72307846D01*
X134870803Y-72238154D01*
X134912675Y-72182221D01*
X134954903Y-72161710D01*
X134967205Y-72158415D01*
X134968202Y-72162139D01*
X135019383Y-72155796D01*
X135032507Y-72159537D01*
X135032677Y-72158905D01*
X135040526Y-72161008D01*
X135040528Y-72161009D01*
X135150599Y-72175500D01*
X135349400Y-72175499D01*
X135349403Y-72175499D01*
X135459463Y-72161011D01*
X135459467Y-72161009D01*
X135459472Y-72161009D01*
X135596429Y-72104279D01*
X135714036Y-72014036D01*
X135804279Y-71896429D01*
X135850239Y-71785471D01*
X135894080Y-71731069D01*
X135960374Y-71709004D01*
X136028073Y-71726283D01*
G37*
%TD.AperFunction*%
%TA.AperFunction,Conductor*%
G36*
X135750474Y-64731835D02*
G01*
X135779268Y-64737187D01*
X135785843Y-64741954D01*
X135789496Y-64743000D01*
X135793379Y-64747419D01*
X135810861Y-64760096D01*
X136060381Y-65009616D01*
X136093866Y-65070939D01*
X136096700Y-65097297D01*
X136096700Y-66786146D01*
X136077015Y-66853185D01*
X136024211Y-66898940D01*
X135955053Y-66908884D01*
X135891497Y-66879859D01*
X135858139Y-66833599D01*
X135804280Y-66703574D01*
X135804279Y-66703571D01*
X135714036Y-66585964D01*
X135596429Y-66495721D01*
X135596425Y-66495719D01*
X135499999Y-66455778D01*
X135459472Y-66438991D01*
X135459471Y-66438990D01*
X135459469Y-66438990D01*
X135458306Y-66438837D01*
X135457396Y-66438434D01*
X135451621Y-66436887D01*
X135451862Y-66435985D01*
X135394411Y-66410566D01*
X135355944Y-66352238D01*
X135350500Y-66315899D01*
X135350500Y-64849499D01*
X135352928Y-64841226D01*
X135351643Y-64832702D01*
X135362624Y-64808209D01*
X135370185Y-64782460D01*
X135376699Y-64776815D01*
X135380227Y-64768947D01*
X135402708Y-64754278D01*
X135422989Y-64736705D01*
X135433052Y-64734479D01*
X135438742Y-64730767D01*
X135471968Y-64725872D01*
X135473641Y-64725502D01*
X135474074Y-64725499D01*
X135700008Y-64725499D01*
X135716436Y-64723820D01*
X135722321Y-64723780D01*
X135750474Y-64731835D01*
G37*
%TD.AperFunction*%
%TA.AperFunction,Conductor*%
G36*
X139442539Y-50520185D02*
G01*
X139488294Y-50572989D01*
X139499500Y-50624500D01*
X139499500Y-124325500D01*
X139479815Y-124392539D01*
X139427011Y-124438294D01*
X139375500Y-124449500D01*
X100624500Y-124449500D01*
X100557461Y-124429815D01*
X100511706Y-124377011D01*
X100500500Y-124325500D01*
X100500500Y-118631902D01*
X101499500Y-118631902D01*
X101499500Y-120368097D01*
X101536446Y-120601368D01*
X101609433Y-120825996D01*
X101699317Y-121002402D01*
X101716657Y-121036433D01*
X101855483Y-121227510D01*
X102022490Y-121394517D01*
X102213567Y-121533343D01*
X102312991Y-121584002D01*
X102424003Y-121640566D01*
X102424005Y-121640566D01*
X102424008Y-121640568D01*
X102544412Y-121679689D01*
X102648631Y-121713553D01*
X102881903Y-121750500D01*
X102881908Y-121750500D01*
X103118097Y-121750500D01*
X103351368Y-121713553D01*
X103575992Y-121640568D01*
X103786433Y-121533343D01*
X103974739Y-121396530D01*
X106449500Y-121396530D01*
X106449500Y-121603469D01*
X106489868Y-121806412D01*
X106489870Y-121806420D01*
X106569058Y-121997596D01*
X106684024Y-122169657D01*
X106830342Y-122315975D01*
X106830345Y-122315977D01*
X107002402Y-122430941D01*
X107193580Y-122510130D01*
X107396530Y-122550499D01*
X107396534Y-122550500D01*
X107396535Y-122550500D01*
X107603466Y-122550500D01*
X107603467Y-122550499D01*
X107806420Y-122510130D01*
X107997598Y-122430941D01*
X108169655Y-122315977D01*
X108315977Y-122169655D01*
X108430941Y-121997598D01*
X108510130Y-121806420D01*
X108550500Y-121603465D01*
X108550500Y-121396535D01*
X108510130Y-121193580D01*
X108430941Y-121002402D01*
X108315977Y-120830345D01*
X108315975Y-120830342D01*
X108169657Y-120684024D01*
X108045952Y-120601368D01*
X107997598Y-120569059D01*
X107806420Y-120489870D01*
X107806412Y-120489868D01*
X107603469Y-120449500D01*
X107603465Y-120449500D01*
X107396535Y-120449500D01*
X107396530Y-120449500D01*
X107193587Y-120489868D01*
X107193579Y-120489870D01*
X107002403Y-120569058D01*
X106830342Y-120684024D01*
X106684024Y-120830342D01*
X106569058Y-121002403D01*
X106489870Y-121193579D01*
X106489868Y-121193587D01*
X106449500Y-121396530D01*
X103974739Y-121396530D01*
X103977510Y-121394517D01*
X104144517Y-121227510D01*
X104283343Y-121036433D01*
X104390568Y-120825992D01*
X104463553Y-120601368D01*
X104468670Y-120569058D01*
X104500500Y-120368097D01*
X104500500Y-118631905D01*
X104498009Y-118616179D01*
X104506963Y-118546885D01*
X104551958Y-118493432D01*
X104618710Y-118472792D01*
X104686024Y-118491516D01*
X104708163Y-118509098D01*
X105063439Y-118864374D01*
X105063449Y-118864385D01*
X105067779Y-118868715D01*
X105067780Y-118868716D01*
X105179584Y-118980520D01*
X105266395Y-119030639D01*
X105316515Y-119059577D01*
X105424927Y-119088626D01*
X105430651Y-119090783D01*
X105453856Y-119108278D01*
X105478675Y-119123406D01*
X105483841Y-119130885D01*
X105486441Y-119132845D01*
X105487870Y-119136716D01*
X105497406Y-119150521D01*
X105566657Y-119286433D01*
X105705483Y-119477510D01*
X105872490Y-119644517D01*
X106063567Y-119783343D01*
X106162991Y-119834002D01*
X106274003Y-119890566D01*
X106274005Y-119890566D01*
X106274008Y-119890568D01*
X106394412Y-119929689D01*
X106498631Y-119963553D01*
X106731903Y-120000500D01*
X106731908Y-120000500D01*
X108268097Y-120000500D01*
X108501368Y-119963553D01*
X108725992Y-119890568D01*
X108936433Y-119783343D01*
X109127510Y-119644517D01*
X109294517Y-119477510D01*
X109433343Y-119286433D01*
X109540568Y-119075992D01*
X109613553Y-118851368D01*
X109648313Y-118631902D01*
X110499500Y-118631902D01*
X110499500Y-120368097D01*
X110536446Y-120601368D01*
X110609433Y-120825996D01*
X110699317Y-121002402D01*
X110716657Y-121036433D01*
X110855483Y-121227510D01*
X111022490Y-121394517D01*
X111213567Y-121533343D01*
X111312991Y-121584002D01*
X111424003Y-121640566D01*
X111424005Y-121640566D01*
X111424008Y-121640568D01*
X111544412Y-121679689D01*
X111648631Y-121713553D01*
X111881903Y-121750500D01*
X111881908Y-121750500D01*
X112118097Y-121750500D01*
X112351368Y-121713553D01*
X112575992Y-121640568D01*
X112786433Y-121533343D01*
X112977510Y-121394517D01*
X113144517Y-121227510D01*
X113283343Y-121036433D01*
X113390568Y-120825992D01*
X113463553Y-120601368D01*
X113468670Y-120569058D01*
X113500500Y-120368097D01*
X113500500Y-118631902D01*
X113463553Y-118398631D01*
X113390566Y-118174003D01*
X113283342Y-117963566D01*
X113144517Y-117772490D01*
X112977510Y-117605483D01*
X112786433Y-117466657D01*
X112575996Y-117359433D01*
X112351368Y-117286446D01*
X112118097Y-117249500D01*
X112118092Y-117249500D01*
X111881908Y-117249500D01*
X111881903Y-117249500D01*
X111648631Y-117286446D01*
X111424003Y-117359433D01*
X111213566Y-117466657D01*
X111104550Y-117545862D01*
X111022490Y-117605483D01*
X111022488Y-117605485D01*
X111022487Y-117605485D01*
X110855485Y-117772487D01*
X110855485Y-117772488D01*
X110855483Y-117772490D01*
X110795862Y-117854550D01*
X110716657Y-117963566D01*
X110609433Y-118174003D01*
X110536446Y-118398631D01*
X110499500Y-118631902D01*
X109648313Y-118631902D01*
X109650500Y-118618092D01*
X109650500Y-118381908D01*
X109650500Y-118381902D01*
X109613553Y-118148631D01*
X109579689Y-118044412D01*
X109540568Y-117924008D01*
X109540566Y-117924005D01*
X109540566Y-117924003D01*
X109433342Y-117713566D01*
X109294517Y-117522490D01*
X109127510Y-117355483D01*
X108936433Y-117216657D01*
X108725996Y-117109433D01*
X108501368Y-117036446D01*
X108268097Y-116999500D01*
X108268092Y-116999500D01*
X106731908Y-116999500D01*
X106731903Y-116999500D01*
X106498631Y-117036446D01*
X106274003Y-117109433D01*
X106063566Y-117216657D01*
X105954550Y-117295862D01*
X105872490Y-117355483D01*
X105872488Y-117355485D01*
X105872487Y-117355485D01*
X105705482Y-117522490D01*
X105670696Y-117570369D01*
X105615365Y-117613034D01*
X105545752Y-117619012D01*
X105483957Y-117586405D01*
X105482698Y-117585163D01*
X104074719Y-116177184D01*
X104041234Y-116115861D01*
X104038400Y-116089503D01*
X104038400Y-102621516D01*
X104058085Y-102554477D01*
X104110889Y-102508722D01*
X104180047Y-102498778D01*
X104194490Y-102501740D01*
X104358308Y-102545635D01*
X104528214Y-102560499D01*
X104528215Y-102560500D01*
X104528216Y-102560500D01*
X106241785Y-102560500D01*
X106241785Y-102560499D01*
X106411692Y-102545635D01*
X106631496Y-102486739D01*
X106837734Y-102390568D01*
X106862777Y-102373032D01*
X106928982Y-102350705D01*
X106996749Y-102367715D01*
X107044563Y-102418662D01*
X107057900Y-102474607D01*
X107057900Y-110604230D01*
X107057899Y-110604248D01*
X107057899Y-110769956D01*
X107077580Y-110843407D01*
X107075917Y-110913257D01*
X107036754Y-110971119D01*
X106972526Y-110998623D01*
X106957805Y-110999500D01*
X105452129Y-110999500D01*
X105452123Y-110999501D01*
X105392516Y-111005908D01*
X105257671Y-111056202D01*
X105257664Y-111056206D01*
X105142455Y-111142452D01*
X105142452Y-111142455D01*
X105056206Y-111257664D01*
X105056202Y-111257671D01*
X105005908Y-111392517D01*
X104999501Y-111452116D01*
X104999500Y-111452135D01*
X104999500Y-113547870D01*
X104999501Y-113547876D01*
X105005908Y-113607483D01*
X105056202Y-113742328D01*
X105056206Y-113742335D01*
X105142452Y-113857544D01*
X105142455Y-113857547D01*
X105257664Y-113943793D01*
X105257671Y-113943797D01*
X105392517Y-113994091D01*
X105392516Y-113994091D01*
X105399444Y-113994835D01*
X105452127Y-114000500D01*
X107371905Y-114000499D01*
X107371919Y-114000500D01*
X107381908Y-114000500D01*
X109349408Y-114000500D01*
X116827111Y-114000500D01*
X116894150Y-114020185D01*
X116914792Y-114036819D01*
X118463181Y-115585208D01*
X118496666Y-115646531D01*
X118499500Y-115672889D01*
X118499500Y-115918097D01*
X118536446Y-116151368D01*
X118609433Y-116375996D01*
X118691187Y-116536446D01*
X118716657Y-116586434D01*
X118855483Y-116777510D01*
X121222490Y-119144517D01*
X121413567Y-119283343D01*
X121512991Y-119334002D01*
X121624003Y-119390566D01*
X121624005Y-119390566D01*
X121624008Y-119390568D01*
X121744412Y-119429689D01*
X121848631Y-119463553D01*
X122081903Y-119500500D01*
X122081908Y-119500500D01*
X131118097Y-119500500D01*
X131351368Y-119463553D01*
X131575992Y-119390568D01*
X131786433Y-119283343D01*
X131977510Y-119144517D01*
X132057664Y-119064362D01*
X132118983Y-119030880D01*
X132188675Y-119035864D01*
X132233023Y-119064365D01*
X132283072Y-119114414D01*
X132423212Y-119216232D01*
X132577555Y-119294873D01*
X132742299Y-119348402D01*
X132913389Y-119375500D01*
X132913390Y-119375500D01*
X133086610Y-119375500D01*
X133086611Y-119375500D01*
X133257701Y-119348402D01*
X133422445Y-119294873D01*
X133576788Y-119216232D01*
X133716928Y-119114414D01*
X133839414Y-118991928D01*
X133899682Y-118908975D01*
X133955012Y-118866311D01*
X134024626Y-118860332D01*
X134086421Y-118892938D01*
X134100315Y-118908973D01*
X134160586Y-118991928D01*
X134283072Y-119114414D01*
X134423212Y-119216232D01*
X134577555Y-119294873D01*
X134742299Y-119348402D01*
X134913389Y-119375500D01*
X134913390Y-119375500D01*
X135086610Y-119375500D01*
X135086611Y-119375500D01*
X135257701Y-119348402D01*
X135422445Y-119294873D01*
X135576788Y-119216232D01*
X135716928Y-119114414D01*
X135839414Y-118991928D01*
X135941232Y-118851788D01*
X136019873Y-118697445D01*
X136073402Y-118532701D01*
X136100500Y-118361611D01*
X136100500Y-117638389D01*
X136073402Y-117467299D01*
X136019873Y-117302555D01*
X135941232Y-117148212D01*
X135839414Y-117008072D01*
X135716928Y-116885586D01*
X135576788Y-116783768D01*
X135422445Y-116705127D01*
X135404811Y-116699397D01*
X135347136Y-116659960D01*
X135319938Y-116595602D01*
X135331853Y-116526756D01*
X135355449Y-116493786D01*
X135491382Y-116357853D01*
X135798520Y-116050716D01*
X135877577Y-115913784D01*
X135918501Y-115761057D01*
X135918501Y-115602942D01*
X135918501Y-115595347D01*
X135918500Y-115595329D01*
X135918500Y-91198442D01*
X135916707Y-91191751D01*
X135916706Y-91191748D01*
X135912637Y-91176565D01*
X135907338Y-91156784D01*
X135877577Y-91045716D01*
X135876133Y-91043215D01*
X135798524Y-90908790D01*
X135798518Y-90908782D01*
X135790019Y-90900283D01*
X135756534Y-90838960D01*
X135753700Y-90812602D01*
X135753700Y-88795323D01*
X135773385Y-88728284D01*
X135812601Y-88689786D01*
X135868656Y-88655212D01*
X135992712Y-88531156D01*
X136084814Y-88381834D01*
X136139999Y-88215297D01*
X136150500Y-88112509D01*
X136150499Y-87062492D01*
X136142714Y-86986286D01*
X136139999Y-86959703D01*
X136139998Y-86959700D01*
X136106675Y-86859139D01*
X136084814Y-86793166D01*
X135992712Y-86643844D01*
X135868656Y-86519788D01*
X135719334Y-86427686D01*
X135552797Y-86372501D01*
X135552795Y-86372500D01*
X135450010Y-86362000D01*
X134849998Y-86362000D01*
X134849980Y-86362001D01*
X134747203Y-86372500D01*
X134747200Y-86372501D01*
X134580668Y-86427685D01*
X134580663Y-86427687D01*
X134431342Y-86519789D01*
X134307285Y-86643846D01*
X134305537Y-86646682D01*
X134303829Y-86648217D01*
X134302807Y-86649511D01*
X134302585Y-86649336D01*
X134253589Y-86693405D01*
X134184626Y-86704626D01*
X134120544Y-86676782D01*
X134094463Y-86646682D01*
X134092714Y-86643846D01*
X133968657Y-86519789D01*
X133968656Y-86519788D01*
X133819334Y-86427686D01*
X133652797Y-86372501D01*
X133652795Y-86372500D01*
X133550010Y-86362000D01*
X132949998Y-86362000D01*
X132949980Y-86362001D01*
X132847203Y-86372500D01*
X132847200Y-86372501D01*
X132680668Y-86427685D01*
X132680663Y-86427687D01*
X132531342Y-86519789D01*
X132407289Y-86643842D01*
X132315187Y-86793163D01*
X132315185Y-86793168D01*
X132279121Y-86902004D01*
X132239348Y-86959449D01*
X132174833Y-86986272D01*
X132161415Y-86987000D01*
X131712598Y-86987000D01*
X131645559Y-86967315D01*
X131624917Y-86950681D01*
X130637450Y-85963214D01*
X129776722Y-85102486D01*
X132250001Y-85102486D01*
X132260494Y-85205197D01*
X132315641Y-85371619D01*
X132315643Y-85371624D01*
X132407684Y-85520845D01*
X132531654Y-85644815D01*
X132680875Y-85736856D01*
X132680880Y-85736858D01*
X132847302Y-85792005D01*
X132847309Y-85792006D01*
X132950019Y-85802499D01*
X132999999Y-85802498D01*
X133000000Y-85802498D01*
X133000000Y-84827500D01*
X132250001Y-84827500D01*
X132250001Y-85102486D01*
X129776722Y-85102486D01*
X128726749Y-84052513D01*
X132250000Y-84052513D01*
X132250000Y-84327500D01*
X133000000Y-84327500D01*
X133000000Y-83352500D01*
X132999999Y-83352499D01*
X132950029Y-83352500D01*
X132950011Y-83352501D01*
X132847302Y-83362994D01*
X132680880Y-83418141D01*
X132680875Y-83418143D01*
X132531654Y-83510184D01*
X132407684Y-83634154D01*
X132315643Y-83783375D01*
X132315641Y-83783380D01*
X132260494Y-83949802D01*
X132260493Y-83949809D01*
X132250000Y-84052513D01*
X128726749Y-84052513D01*
X126766721Y-82092486D01*
X132250001Y-82092486D01*
X132260494Y-82195197D01*
X132315641Y-82361619D01*
X132315643Y-82361624D01*
X132407684Y-82510845D01*
X132531654Y-82634815D01*
X132680875Y-82726856D01*
X132680880Y-82726858D01*
X132847302Y-82782005D01*
X132847309Y-82782006D01*
X132950019Y-82792499D01*
X132999999Y-82792498D01*
X133000000Y-82792498D01*
X133000000Y-81817500D01*
X132250001Y-81817500D01*
X132250001Y-82092486D01*
X126766721Y-82092486D01*
X126592628Y-81918393D01*
X126576795Y-81889397D01*
X126560041Y-81860903D01*
X126560121Y-81858862D01*
X126559144Y-81857071D01*
X126561500Y-81824121D01*
X126562811Y-81791089D01*
X126564035Y-81788665D01*
X126564128Y-81787379D01*
X126578730Y-81759597D01*
X126695568Y-81592734D01*
X126791739Y-81386496D01*
X126850635Y-81166692D01*
X126861499Y-81042513D01*
X132250000Y-81042513D01*
X132250000Y-81317500D01*
X133000000Y-81317500D01*
X133000000Y-80342500D01*
X132999999Y-80342499D01*
X132950029Y-80342500D01*
X132950011Y-80342501D01*
X132847302Y-80352994D01*
X132680880Y-80408141D01*
X132680875Y-80408143D01*
X132531654Y-80500184D01*
X132407684Y-80624154D01*
X132315643Y-80773375D01*
X132315641Y-80773380D01*
X132260494Y-80939802D01*
X132260493Y-80939809D01*
X132250000Y-81042513D01*
X126861499Y-81042513D01*
X126865500Y-80996784D01*
X126865500Y-80883216D01*
X126850635Y-80713308D01*
X126791739Y-80493504D01*
X126695568Y-80287266D01*
X126565047Y-80100861D01*
X126565045Y-80100858D01*
X126404141Y-79939954D01*
X126217734Y-79809432D01*
X126217728Y-79809429D01*
X126190038Y-79796517D01*
X126159724Y-79782381D01*
X126107285Y-79736210D01*
X126088133Y-79669017D01*
X126108348Y-79602135D01*
X126159725Y-79557618D01*
X126217734Y-79530568D01*
X126404139Y-79400047D01*
X126565047Y-79239139D01*
X126674736Y-79082486D01*
X132250001Y-79082486D01*
X132260494Y-79185197D01*
X132315641Y-79351619D01*
X132315643Y-79351624D01*
X132407684Y-79500845D01*
X132531654Y-79624815D01*
X132680875Y-79716856D01*
X132680880Y-79716858D01*
X132847302Y-79772005D01*
X132847309Y-79772006D01*
X132950019Y-79782499D01*
X132999999Y-79782498D01*
X133000000Y-79782498D01*
X133000000Y-78807500D01*
X132250001Y-78807500D01*
X132250001Y-79082486D01*
X126674736Y-79082486D01*
X126695568Y-79052734D01*
X126791739Y-78846496D01*
X126850635Y-78626692D01*
X126865500Y-78456784D01*
X126865500Y-78343216D01*
X126850635Y-78173308D01*
X126812909Y-78032513D01*
X132250000Y-78032513D01*
X132250000Y-78307500D01*
X133000000Y-78307500D01*
X133000000Y-77332500D01*
X132999999Y-77332499D01*
X132950029Y-77332500D01*
X132950011Y-77332501D01*
X132847302Y-77342994D01*
X132680880Y-77398141D01*
X132680875Y-77398143D01*
X132531654Y-77490184D01*
X132407684Y-77614154D01*
X132315643Y-77763375D01*
X132315641Y-77763380D01*
X132260494Y-77929802D01*
X132260493Y-77929809D01*
X132250000Y-78032513D01*
X126812909Y-78032513D01*
X126791739Y-77953504D01*
X126695568Y-77747266D01*
X126565047Y-77560861D01*
X126565045Y-77560858D01*
X126404141Y-77399954D01*
X126217734Y-77269432D01*
X126217728Y-77269429D01*
X126159725Y-77242382D01*
X126107285Y-77196210D01*
X126088133Y-77129017D01*
X126108348Y-77062135D01*
X126159725Y-77017618D01*
X126217734Y-76990568D01*
X126404139Y-76860047D01*
X126565047Y-76699139D01*
X126695568Y-76512734D01*
X126791739Y-76306496D01*
X126850635Y-76086692D01*
X126851878Y-76072486D01*
X132250001Y-76072486D01*
X132260494Y-76175197D01*
X132315641Y-76341619D01*
X132315643Y-76341624D01*
X132407684Y-76490845D01*
X132531654Y-76614815D01*
X132680875Y-76706856D01*
X132680880Y-76706858D01*
X132847302Y-76762005D01*
X132847309Y-76762006D01*
X132950019Y-76772499D01*
X132999999Y-76772498D01*
X133000000Y-76772498D01*
X133000000Y-75797500D01*
X132250001Y-75797500D01*
X132250001Y-76072486D01*
X126851878Y-76072486D01*
X126865500Y-75916784D01*
X126865500Y-75803216D01*
X126850635Y-75633308D01*
X126791739Y-75413504D01*
X126695568Y-75207266D01*
X126565047Y-75020861D01*
X126565045Y-75020858D01*
X126404141Y-74859954D01*
X126217734Y-74729432D01*
X126217728Y-74729429D01*
X126159725Y-74702382D01*
X126107285Y-74656210D01*
X126088133Y-74589017D01*
X126108348Y-74522135D01*
X126159725Y-74477618D01*
X126217734Y-74450568D01*
X126404139Y-74320047D01*
X126565047Y-74159139D01*
X126695568Y-73972734D01*
X126791739Y-73766496D01*
X126850635Y-73546692D01*
X126865500Y-73376784D01*
X126865500Y-73263216D01*
X126850635Y-73093308D01*
X126791739Y-72873504D01*
X126695568Y-72667266D01*
X126565047Y-72480861D01*
X126565045Y-72480858D01*
X126404141Y-72319954D01*
X126217734Y-72189432D01*
X126217732Y-72189431D01*
X126165779Y-72165205D01*
X126113340Y-72119032D01*
X126094188Y-72051839D01*
X126114404Y-71984958D01*
X126159732Y-71943464D01*
X126224500Y-71908844D01*
X126224521Y-71908832D01*
X126355530Y-71821295D01*
X126355536Y-71821291D01*
X126432064Y-71758485D01*
X126543485Y-71647064D01*
X126606291Y-71570536D01*
X126606295Y-71570530D01*
X126693832Y-71439521D01*
X126693844Y-71439501D01*
X126740509Y-71352198D01*
X126800814Y-71206612D01*
X126829556Y-71111860D01*
X126829559Y-71111849D01*
X126845839Y-71030000D01*
X124889000Y-71030000D01*
X124821961Y-71010315D01*
X124776206Y-70957511D01*
X124765000Y-70906000D01*
X124765000Y-70654000D01*
X124784685Y-70586961D01*
X124837489Y-70541206D01*
X124889000Y-70530000D01*
X126845839Y-70530000D01*
X126845839Y-70529999D01*
X126829559Y-70448150D01*
X126829556Y-70448139D01*
X126800814Y-70353387D01*
X126740509Y-70207801D01*
X126693844Y-70120498D01*
X126693832Y-70120478D01*
X126606295Y-69989469D01*
X126606291Y-69989463D01*
X126543485Y-69912935D01*
X126432064Y-69801514D01*
X126355536Y-69738708D01*
X126355530Y-69738704D01*
X126224521Y-69651167D01*
X126224501Y-69651155D01*
X126159730Y-69616534D01*
X126109886Y-69567571D01*
X126094426Y-69499434D01*
X126118258Y-69433754D01*
X126165777Y-69394795D01*
X126217734Y-69370568D01*
X126404139Y-69240047D01*
X126565047Y-69079139D01*
X126695568Y-68892734D01*
X126791739Y-68686496D01*
X126850635Y-68466692D01*
X126865500Y-68296784D01*
X126865500Y-68183216D01*
X126850635Y-68013308D01*
X126791739Y-67793504D01*
X126695568Y-67587266D01*
X126565047Y-67400861D01*
X126565045Y-67400858D01*
X126404141Y-67239954D01*
X126217734Y-67109432D01*
X126217728Y-67109429D01*
X126159725Y-67082382D01*
X126107285Y-67036210D01*
X126088133Y-66969017D01*
X126108348Y-66902135D01*
X126159725Y-66857618D01*
X126217734Y-66830568D01*
X126404139Y-66700047D01*
X126565047Y-66539139D01*
X126695568Y-66352734D01*
X126791739Y-66146496D01*
X126850635Y-65926692D01*
X126865500Y-65756784D01*
X126865500Y-65643216D01*
X126850635Y-65473308D01*
X126791739Y-65253504D01*
X126695568Y-65047266D01*
X126565047Y-64860861D01*
X126565045Y-64860858D01*
X126404141Y-64699954D01*
X126217734Y-64569432D01*
X126217728Y-64569429D01*
X126159725Y-64542382D01*
X126107285Y-64496210D01*
X126088133Y-64429017D01*
X126108348Y-64362135D01*
X126159725Y-64317618D01*
X126217734Y-64290568D01*
X126404139Y-64160047D01*
X126565047Y-63999139D01*
X126695118Y-63813375D01*
X126749693Y-63769752D01*
X126796692Y-63760500D01*
X127207645Y-63760500D01*
X127274684Y-63780185D01*
X127276533Y-63781396D01*
X127280721Y-63784194D01*
X127280727Y-63784196D01*
X127280728Y-63784197D01*
X127426398Y-63844535D01*
X127426403Y-63844537D01*
X127581053Y-63875299D01*
X127581056Y-63875300D01*
X127581058Y-63875300D01*
X127738744Y-63875300D01*
X127738745Y-63875299D01*
X127893397Y-63844537D01*
X128006066Y-63797867D01*
X128039072Y-63784197D01*
X128039072Y-63784196D01*
X128039079Y-63784194D01*
X128170189Y-63696589D01*
X128281689Y-63585089D01*
X128369294Y-63453979D01*
X128429637Y-63308297D01*
X128460400Y-63153642D01*
X128460400Y-62995958D01*
X128460400Y-62995955D01*
X128460399Y-62995953D01*
X128429638Y-62841310D01*
X128429637Y-62841303D01*
X128373454Y-62705663D01*
X128369297Y-62695627D01*
X128369290Y-62695614D01*
X128281689Y-62564511D01*
X128281686Y-62564507D01*
X128170192Y-62453013D01*
X128170188Y-62453010D01*
X128039085Y-62365409D01*
X128039072Y-62365402D01*
X127893401Y-62305064D01*
X127893389Y-62305061D01*
X127738745Y-62274300D01*
X127738742Y-62274300D01*
X127581058Y-62274300D01*
X127581055Y-62274300D01*
X127426410Y-62305061D01*
X127426398Y-62305064D01*
X127280727Y-62365402D01*
X127280714Y-62365409D01*
X127149612Y-62453009D01*
X127114527Y-62488095D01*
X127079439Y-62523182D01*
X127052508Y-62537888D01*
X127026695Y-62554477D01*
X127020495Y-62555368D01*
X127018119Y-62556666D01*
X126991760Y-62559500D01*
X126796692Y-62559500D01*
X126729653Y-62539815D01*
X126695119Y-62506625D01*
X126565047Y-62320861D01*
X126565045Y-62320858D01*
X126404141Y-62159954D01*
X126217734Y-62029432D01*
X126217728Y-62029429D01*
X126159725Y-62002382D01*
X126107285Y-61956210D01*
X126088133Y-61889017D01*
X126108348Y-61822135D01*
X126159725Y-61777618D01*
X126217734Y-61750568D01*
X126404139Y-61620047D01*
X126565047Y-61459139D01*
X126695568Y-61272734D01*
X126791739Y-61066496D01*
X126850635Y-60846692D01*
X126865500Y-60676784D01*
X126865500Y-60563216D01*
X126850635Y-60393308D01*
X126791739Y-60173504D01*
X126695568Y-59967266D01*
X126565047Y-59780861D01*
X126565045Y-59780858D01*
X126404141Y-59619954D01*
X126217734Y-59489432D01*
X126217732Y-59489431D01*
X126166343Y-59465468D01*
X126113904Y-59419295D01*
X126094752Y-59352102D01*
X126114968Y-59285221D01*
X126160293Y-59243729D01*
X126224783Y-59209259D01*
X126355811Y-59121709D01*
X126432412Y-59058843D01*
X126543843Y-58947412D01*
X126606709Y-58870811D01*
X126655458Y-58797851D01*
X126695951Y-58737252D01*
X126696830Y-58737839D01*
X126745040Y-58693364D01*
X126800038Y-58680500D01*
X128381631Y-58680500D01*
X128381647Y-58680501D01*
X128389243Y-58680501D01*
X128547354Y-58680501D01*
X128547357Y-58680501D01*
X128700085Y-58639577D01*
X128755198Y-58607757D01*
X128837016Y-58560520D01*
X128948820Y-58448716D01*
X128948820Y-58448714D01*
X128959024Y-58438511D01*
X128959028Y-58438506D01*
X129471668Y-57925865D01*
X129532989Y-57892382D01*
X129602681Y-57897366D01*
X129657336Y-57938281D01*
X129657414Y-57938215D01*
X129657709Y-57938560D01*
X129658614Y-57939238D01*
X129659657Y-57940651D01*
X129660580Y-57941922D01*
X129660586Y-57941928D01*
X129783072Y-58064414D01*
X129923212Y-58166232D01*
X130077555Y-58244873D01*
X130242299Y-58298402D01*
X130413389Y-58325500D01*
X130413390Y-58325500D01*
X130586610Y-58325500D01*
X130586611Y-58325500D01*
X130757701Y-58298402D01*
X130805285Y-58282940D01*
X130875122Y-58280945D01*
X130934955Y-58317025D01*
X130965784Y-58379726D01*
X130967600Y-58400872D01*
X130967600Y-62829730D01*
X130967599Y-62829748D01*
X130967599Y-62995454D01*
X130967598Y-62995454D01*
X131008523Y-63148185D01*
X131011674Y-63153642D01*
X131011677Y-63153648D01*
X131087577Y-63285112D01*
X131087581Y-63285117D01*
X131206449Y-63403985D01*
X131206455Y-63403990D01*
X131218081Y-63415616D01*
X131251566Y-63476939D01*
X131254400Y-63503297D01*
X131254400Y-66380730D01*
X131254399Y-66380748D01*
X131254399Y-66546454D01*
X131254398Y-66546454D01*
X131295323Y-66699185D01*
X131324258Y-66749300D01*
X131324259Y-66749304D01*
X131324260Y-66749304D01*
X131374379Y-66836114D01*
X131374381Y-66836117D01*
X131493249Y-66954985D01*
X131493255Y-66954990D01*
X131751583Y-67213319D01*
X131785068Y-67274642D01*
X131780084Y-67344334D01*
X131738212Y-67400267D01*
X131672748Y-67424684D01*
X131663902Y-67425000D01*
X131650622Y-67425000D01*
X131540658Y-67439478D01*
X131540657Y-67439478D01*
X131403824Y-67496156D01*
X131286320Y-67586320D01*
X131196156Y-67703824D01*
X131139478Y-67840657D01*
X131139478Y-67840659D01*
X131128373Y-67925000D01*
X131158029Y-67925000D01*
X131171658Y-67929002D01*
X131185840Y-67928159D01*
X131204517Y-67938650D01*
X131225068Y-67944685D01*
X131234369Y-67955419D01*
X131246757Y-67962378D01*
X131256797Y-67981302D01*
X131270823Y-67997489D01*
X131272844Y-68011549D01*
X131279503Y-68024099D01*
X131277718Y-68045444D01*
X131280767Y-68066647D01*
X131274752Y-68080925D01*
X131273682Y-68093726D01*
X131256397Y-68124497D01*
X131254862Y-68126497D01*
X131198429Y-68167694D01*
X131156494Y-68175000D01*
X131128374Y-68175000D01*
X131139478Y-68259346D01*
X131141582Y-68267197D01*
X131138313Y-68268072D01*
X131143648Y-68322512D01*
X131140650Y-68332554D01*
X131141095Y-68332673D01*
X131138991Y-68340524D01*
X131124500Y-68450598D01*
X131124500Y-68649403D01*
X131138989Y-68759468D01*
X131141094Y-68767322D01*
X131137814Y-68768200D01*
X131143581Y-68822073D01*
X131140517Y-68832522D01*
X131141095Y-68832677D01*
X131138990Y-68840529D01*
X131124500Y-68950598D01*
X131124500Y-69149403D01*
X131138989Y-69259468D01*
X131141094Y-69267322D01*
X131137814Y-69268200D01*
X131143581Y-69322073D01*
X131140517Y-69332522D01*
X131141095Y-69332677D01*
X131138990Y-69340529D01*
X131124500Y-69450598D01*
X131124500Y-69649403D01*
X131138989Y-69759468D01*
X131141094Y-69767322D01*
X131137814Y-69768200D01*
X131143581Y-69822073D01*
X131140517Y-69832522D01*
X131141095Y-69832677D01*
X131138990Y-69840529D01*
X131124500Y-69950598D01*
X131124500Y-70149403D01*
X131138989Y-70259468D01*
X131141094Y-70267322D01*
X131137814Y-70268200D01*
X131143581Y-70322073D01*
X131140517Y-70332522D01*
X131141095Y-70332677D01*
X131138990Y-70340529D01*
X131124500Y-70450598D01*
X131124500Y-70649403D01*
X131138988Y-70759463D01*
X131138991Y-70759472D01*
X131180131Y-70858793D01*
X131195721Y-70896429D01*
X131285964Y-71014036D01*
X131403571Y-71104279D01*
X131540528Y-71161009D01*
X131650599Y-71175500D01*
X132000500Y-71175499D01*
X132067539Y-71195183D01*
X132113294Y-71247987D01*
X132124500Y-71299499D01*
X132124500Y-71649403D01*
X132138988Y-71759463D01*
X132138991Y-71759472D01*
X132176798Y-71850747D01*
X132195721Y-71896429D01*
X132285964Y-72014036D01*
X132403571Y-72104279D01*
X132540528Y-72161009D01*
X132541683Y-72161161D01*
X132542583Y-72161559D01*
X132548378Y-72163112D01*
X132548135Y-72164015D01*
X132605580Y-72189426D01*
X132644052Y-72247750D01*
X132649500Y-72284100D01*
X132649500Y-73807630D01*
X132649499Y-73807648D01*
X132649499Y-73973354D01*
X132649498Y-73973354D01*
X132690423Y-74126085D01*
X132709507Y-74159139D01*
X132709506Y-74159139D01*
X132709508Y-74159141D01*
X132739943Y-74211858D01*
X132756414Y-74279758D01*
X132733561Y-74345785D01*
X132684964Y-74386236D01*
X132680884Y-74388138D01*
X132531654Y-74480184D01*
X132407684Y-74604154D01*
X132315643Y-74753375D01*
X132315641Y-74753380D01*
X132260494Y-74919802D01*
X132260493Y-74919809D01*
X132250000Y-75022513D01*
X132250000Y-75297500D01*
X133126000Y-75297500D01*
X133193039Y-75317185D01*
X133238794Y-75369989D01*
X133250000Y-75421500D01*
X133250000Y-75547500D01*
X133376000Y-75547500D01*
X133443039Y-75567185D01*
X133488794Y-75619989D01*
X133500000Y-75671500D01*
X133500000Y-76772499D01*
X133549972Y-76772499D01*
X133549986Y-76772498D01*
X133652697Y-76762005D01*
X133819119Y-76706858D01*
X133819124Y-76706856D01*
X133968345Y-76614815D01*
X134092318Y-76490842D01*
X134094165Y-76487848D01*
X134095969Y-76486224D01*
X134096798Y-76485177D01*
X134096976Y-76485318D01*
X134146110Y-76441121D01*
X134215073Y-76429896D01*
X134279156Y-76457736D01*
X134305243Y-76487841D01*
X134307288Y-76491156D01*
X134431344Y-76615212D01*
X134451385Y-76627573D01*
X134498110Y-76679520D01*
X134509333Y-76748482D01*
X134481490Y-76812565D01*
X134473970Y-76820793D01*
X133931415Y-77363348D01*
X133870092Y-77396833D01*
X133804730Y-77393373D01*
X133652697Y-77342994D01*
X133652690Y-77342993D01*
X133549986Y-77332500D01*
X133500000Y-77332500D01*
X133500000Y-79782499D01*
X133549972Y-79782499D01*
X133549986Y-79782498D01*
X133560290Y-79781445D01*
X133628984Y-79794210D01*
X133679871Y-79842087D01*
X133696900Y-79904802D01*
X133696900Y-80220196D01*
X133677215Y-80287235D01*
X133624411Y-80332990D01*
X133560297Y-80343554D01*
X133549986Y-80342500D01*
X133500000Y-80342500D01*
X133500000Y-82792499D01*
X133549972Y-82792499D01*
X133549986Y-82792498D01*
X133652697Y-82782005D01*
X133819119Y-82726858D01*
X133819124Y-82726856D01*
X133968345Y-82634815D01*
X134092318Y-82510842D01*
X134094165Y-82507848D01*
X134095969Y-82506224D01*
X134096798Y-82505177D01*
X134096976Y-82505318D01*
X134146110Y-82461121D01*
X134215073Y-82449896D01*
X134279156Y-82477736D01*
X134305243Y-82507841D01*
X134307288Y-82511156D01*
X134431344Y-82635212D01*
X134580666Y-82727314D01*
X134747203Y-82782499D01*
X134849991Y-82793000D01*
X135450008Y-82792999D01*
X135450016Y-82792998D01*
X135450019Y-82792998D01*
X135506302Y-82787248D01*
X135552797Y-82782499D01*
X135719334Y-82727314D01*
X135868656Y-82635212D01*
X135992712Y-82511156D01*
X136084814Y-82361834D01*
X136139999Y-82195297D01*
X136150500Y-82092509D01*
X136150499Y-81042492D01*
X136149075Y-81028555D01*
X136139999Y-80939703D01*
X136139998Y-80939700D01*
X136121281Y-80883216D01*
X136084814Y-80773166D01*
X135992712Y-80623844D01*
X135868656Y-80499788D01*
X135719334Y-80407686D01*
X135552797Y-80352501D01*
X135552795Y-80352500D01*
X135450016Y-80342000D01*
X135450009Y-80342000D01*
X135021900Y-80342000D01*
X134954861Y-80322315D01*
X134909106Y-80269511D01*
X134897900Y-80218000D01*
X134897900Y-79906999D01*
X134917585Y-79839960D01*
X134970389Y-79794205D01*
X135021900Y-79782999D01*
X135450002Y-79782999D01*
X135450008Y-79782999D01*
X135552797Y-79772499D01*
X135719334Y-79717314D01*
X135868656Y-79625212D01*
X135992712Y-79501156D01*
X136084814Y-79351834D01*
X136139999Y-79185297D01*
X136150500Y-79082509D01*
X136150499Y-78457595D01*
X136170183Y-78390557D01*
X136186813Y-78369920D01*
X136625820Y-77930914D01*
X136687142Y-77897430D01*
X136756834Y-77902414D01*
X136812767Y-77944286D01*
X136837184Y-78009750D01*
X136837500Y-78018596D01*
X136837500Y-81989402D01*
X136817815Y-82056441D01*
X136801181Y-82077083D01*
X135560861Y-83317402D01*
X135499538Y-83350887D01*
X135460582Y-83353079D01*
X135450028Y-83352001D01*
X135450012Y-83352000D01*
X135450009Y-83352000D01*
X135450004Y-83352000D01*
X134849998Y-83352000D01*
X134849980Y-83352001D01*
X134747203Y-83362500D01*
X134747200Y-83362501D01*
X134580668Y-83417685D01*
X134580663Y-83417687D01*
X134431342Y-83509789D01*
X134307288Y-83633843D01*
X134307283Y-83633849D01*
X134305241Y-83637161D01*
X134303247Y-83638953D01*
X134302807Y-83639511D01*
X134302711Y-83639435D01*
X134253291Y-83683883D01*
X134184328Y-83695102D01*
X134120247Y-83667255D01*
X134094168Y-83637156D01*
X134092319Y-83634159D01*
X134092316Y-83634155D01*
X133968345Y-83510184D01*
X133819124Y-83418143D01*
X133819119Y-83418141D01*
X133652697Y-83362994D01*
X133652690Y-83362993D01*
X133549986Y-83352500D01*
X133500000Y-83352500D01*
X133500000Y-85802499D01*
X133549972Y-85802499D01*
X133549986Y-85802498D01*
X133652697Y-85792005D01*
X133819119Y-85736858D01*
X133819124Y-85736856D01*
X133968345Y-85644815D01*
X134092318Y-85520842D01*
X134094165Y-85517848D01*
X134095969Y-85516224D01*
X134096798Y-85515177D01*
X134096976Y-85515318D01*
X134146110Y-85471121D01*
X134215073Y-85459896D01*
X134279156Y-85487736D01*
X134305243Y-85517841D01*
X134307288Y-85521156D01*
X134431344Y-85645212D01*
X134580666Y-85737314D01*
X134747203Y-85792499D01*
X134849991Y-85803000D01*
X135450008Y-85802999D01*
X135450016Y-85802998D01*
X135450019Y-85802998D01*
X135506302Y-85797248D01*
X135552797Y-85792499D01*
X135719334Y-85737314D01*
X135868656Y-85645212D01*
X135992712Y-85521156D01*
X136084814Y-85371834D01*
X136139999Y-85205297D01*
X136150500Y-85102509D01*
X136150499Y-84477595D01*
X136170183Y-84410557D01*
X136186813Y-84389920D01*
X137918520Y-82658216D01*
X137997577Y-82521284D01*
X138038501Y-82368557D01*
X138038501Y-82210442D01*
X138038501Y-82202847D01*
X138038500Y-82202829D01*
X138038500Y-56209959D01*
X138038501Y-56209946D01*
X138038501Y-56041845D01*
X138038501Y-56041843D01*
X137997577Y-55889115D01*
X137966672Y-55835586D01*
X137935079Y-55780865D01*
X137918522Y-55752187D01*
X137918521Y-55752186D01*
X137918520Y-55752184D01*
X137806716Y-55640380D01*
X137806715Y-55640379D01*
X137802385Y-55636049D01*
X137802374Y-55636039D01*
X137530690Y-55364355D01*
X137530688Y-55364352D01*
X137411817Y-55245481D01*
X137411816Y-55245480D01*
X137325004Y-55195360D01*
X137325004Y-55195359D01*
X137325000Y-55195358D01*
X137274885Y-55166423D01*
X137122157Y-55125499D01*
X136964043Y-55125499D01*
X136956447Y-55125499D01*
X136956431Y-55125500D01*
X135847340Y-55125500D01*
X135806419Y-55136464D01*
X135806419Y-55136465D01*
X135769151Y-55146451D01*
X135694614Y-55166423D01*
X135694609Y-55166426D01*
X135557690Y-55245475D01*
X135557682Y-55245481D01*
X135445878Y-55357286D01*
X135135595Y-55667568D01*
X135074272Y-55701053D01*
X135004580Y-55696069D01*
X134991620Y-55690372D01*
X134922450Y-55655129D01*
X134922447Y-55655128D01*
X134922445Y-55655127D01*
X134757701Y-55601598D01*
X134757699Y-55601597D01*
X134757698Y-55601597D01*
X134626271Y-55580781D01*
X134586611Y-55574500D01*
X134413389Y-55574500D01*
X134373728Y-55580781D01*
X134242302Y-55601597D01*
X134077552Y-55655128D01*
X133923210Y-55733769D01*
X133923201Y-55733775D01*
X133889978Y-55757913D01*
X133824172Y-55781393D01*
X133756118Y-55765567D01*
X133729412Y-55745276D01*
X133352890Y-55368755D01*
X133352888Y-55368752D01*
X133234017Y-55249881D01*
X133234016Y-55249880D01*
X133147204Y-55199760D01*
X133147204Y-55199759D01*
X133147200Y-55199758D01*
X133097085Y-55170823D01*
X132944357Y-55129899D01*
X132786243Y-55129899D01*
X132778647Y-55129899D01*
X132778631Y-55129900D01*
X132060640Y-55129900D01*
X132019719Y-55140864D01*
X132019719Y-55140865D01*
X131982451Y-55150851D01*
X131907914Y-55170823D01*
X131907909Y-55170826D01*
X131770990Y-55249875D01*
X131770982Y-55249881D01*
X131659178Y-55361686D01*
X131273483Y-55747380D01*
X131212160Y-55780865D01*
X131142468Y-55775881D01*
X131112918Y-55760018D01*
X131076788Y-55733768D01*
X130971261Y-55680000D01*
X130922447Y-55655128D01*
X130922446Y-55655127D01*
X130922445Y-55655127D01*
X130757701Y-55601598D01*
X130757699Y-55601597D01*
X130757698Y-55601597D01*
X130626271Y-55580781D01*
X130586611Y-55574500D01*
X130413389Y-55574500D01*
X130373728Y-55580781D01*
X130242302Y-55601597D01*
X130077552Y-55655128D01*
X129923211Y-55733768D01*
X129783069Y-55835588D01*
X129660588Y-55958069D01*
X129660588Y-55958070D01*
X129660586Y-55958072D01*
X129639941Y-55986488D01*
X129558768Y-56098211D01*
X129480126Y-56252554D01*
X129462697Y-56306196D01*
X129423259Y-56363871D01*
X129376863Y-56387650D01*
X129366520Y-56390421D01*
X129366509Y-56390426D01*
X129229590Y-56469475D01*
X129229582Y-56469481D01*
X129117778Y-56581286D01*
X128255884Y-57443181D01*
X128194561Y-57476666D01*
X128168203Y-57479500D01*
X126800038Y-57479500D01*
X126732999Y-57459815D01*
X126696628Y-57422295D01*
X126695951Y-57422748D01*
X126630393Y-57324635D01*
X126606709Y-57289189D01*
X126543843Y-57212588D01*
X126432412Y-57101157D01*
X126355811Y-57038291D01*
X126355804Y-57038286D01*
X126355793Y-57038278D01*
X126224799Y-56950751D01*
X126224788Y-56950744D01*
X126224783Y-56950741D01*
X126160293Y-56916270D01*
X126110450Y-56867308D01*
X126094990Y-56799171D01*
X126118822Y-56733491D01*
X126166341Y-56694532D01*
X126217734Y-56670568D01*
X126404139Y-56540047D01*
X126565047Y-56379139D01*
X126695568Y-56192734D01*
X126791739Y-55986496D01*
X126850635Y-55766692D01*
X126865500Y-55596784D01*
X126865500Y-55483216D01*
X126850635Y-55313308D01*
X126791739Y-55093504D01*
X126695568Y-54887266D01*
X126565047Y-54700861D01*
X126565045Y-54700858D01*
X126404141Y-54539954D01*
X126217734Y-54409432D01*
X126217728Y-54409429D01*
X126166343Y-54385468D01*
X126159724Y-54382381D01*
X126107285Y-54336210D01*
X126088133Y-54269017D01*
X126108348Y-54202135D01*
X126159725Y-54157618D01*
X126217734Y-54130568D01*
X126404139Y-54000047D01*
X126565047Y-53839139D01*
X126695568Y-53652734D01*
X126791739Y-53446496D01*
X126850635Y-53226692D01*
X126865500Y-53056784D01*
X126865500Y-52943216D01*
X126850635Y-52773308D01*
X126791739Y-52553504D01*
X126695568Y-52347266D01*
X126565047Y-52160861D01*
X126565045Y-52160858D01*
X126404141Y-51999954D01*
X126217734Y-51869432D01*
X126217732Y-51869431D01*
X126011497Y-51773261D01*
X126011488Y-51773258D01*
X125791697Y-51714366D01*
X125791687Y-51714364D01*
X125621785Y-51699500D01*
X125621784Y-51699500D01*
X123908216Y-51699500D01*
X123908215Y-51699500D01*
X123738312Y-51714364D01*
X123738302Y-51714366D01*
X123518511Y-51773258D01*
X123518502Y-51773261D01*
X123312267Y-51869431D01*
X123312265Y-51869432D01*
X123125858Y-51999954D01*
X122964954Y-52160858D01*
X122834432Y-52347265D01*
X122834431Y-52347267D01*
X122738261Y-52553502D01*
X122738258Y-52553511D01*
X122679366Y-52773302D01*
X122679364Y-52773312D01*
X122664500Y-52943214D01*
X122664500Y-53056785D01*
X122679364Y-53226687D01*
X122679366Y-53226697D01*
X122738258Y-53446488D01*
X122738261Y-53446497D01*
X122834431Y-53652732D01*
X122834432Y-53652734D01*
X122951264Y-53819589D01*
X122973591Y-53885795D01*
X122956581Y-53953563D01*
X122937370Y-53978393D01*
X120320386Y-56595378D01*
X120208581Y-56707182D01*
X120208580Y-56707184D01*
X120166380Y-56780277D01*
X120129523Y-56844115D01*
X120088599Y-56996843D01*
X120088599Y-56996845D01*
X120088599Y-57164946D01*
X120088600Y-57164959D01*
X120088600Y-61289902D01*
X120068915Y-61356941D01*
X120052281Y-61377583D01*
X107646866Y-73782997D01*
X107585543Y-73816482D01*
X107515851Y-73811498D01*
X107459918Y-73769626D01*
X107435501Y-73704162D01*
X107439409Y-73663228D01*
X107470635Y-73546692D01*
X107485500Y-73376784D01*
X107485500Y-73263216D01*
X107470635Y-73093308D01*
X107411739Y-72873504D01*
X107315568Y-72667266D01*
X107185047Y-72480861D01*
X107185045Y-72480858D01*
X107024141Y-72319954D01*
X106958155Y-72273751D01*
X106914530Y-72219175D01*
X106907336Y-72149677D01*
X106938858Y-72087322D01*
X106998612Y-72052028D01*
X107018226Y-72047022D01*
X107091735Y-72016574D01*
X107140551Y-71993219D01*
X107255733Y-71906994D01*
X107311994Y-71850733D01*
X107348157Y-71810475D01*
X107421574Y-71686735D01*
X107452022Y-71613226D01*
X107470024Y-71562198D01*
X107490500Y-71419782D01*
X107490500Y-70140218D01*
X107487604Y-70086185D01*
X107452022Y-69946774D01*
X107445062Y-69929972D01*
X107421580Y-69873280D01*
X107421568Y-69873252D01*
X107398220Y-69824451D01*
X107398217Y-69824446D01*
X107334030Y-69738704D01*
X107311994Y-69709267D01*
X107311989Y-69709262D01*
X107311984Y-69709256D01*
X107255747Y-69653019D01*
X107253685Y-69651167D01*
X107215475Y-69616843D01*
X107215467Y-69616837D01*
X107091736Y-69543426D01*
X107091737Y-69543426D01*
X107042729Y-69523127D01*
X107018226Y-69512978D01*
X106990337Y-69503139D01*
X106933666Y-69462272D01*
X106908085Y-69397253D01*
X106921717Y-69328726D01*
X106960467Y-69284629D01*
X107024139Y-69240047D01*
X107185047Y-69079139D01*
X107315568Y-68892734D01*
X107411739Y-68686496D01*
X107470635Y-68466692D01*
X107485500Y-68296784D01*
X107485500Y-68183216D01*
X107470635Y-68013308D01*
X107411739Y-67793504D01*
X107315568Y-67587266D01*
X107185047Y-67400861D01*
X107185045Y-67400858D01*
X107024141Y-67239954D01*
X106837734Y-67109432D01*
X106837728Y-67109429D01*
X106779725Y-67082382D01*
X106727285Y-67036210D01*
X106708133Y-66969017D01*
X106728348Y-66902135D01*
X106779725Y-66857618D01*
X106837734Y-66830568D01*
X107024139Y-66700047D01*
X107185047Y-66539139D01*
X107315568Y-66352734D01*
X107411739Y-66146496D01*
X107470635Y-65926692D01*
X107485500Y-65756784D01*
X107485500Y-65643216D01*
X107470635Y-65473308D01*
X107411739Y-65253504D01*
X107411736Y-65253497D01*
X107373633Y-65171784D01*
X107363141Y-65102707D01*
X107391661Y-65038923D01*
X107398321Y-65031712D01*
X110308806Y-62121228D01*
X110308811Y-62121224D01*
X110319014Y-62111020D01*
X110319016Y-62111020D01*
X110430820Y-61999216D01*
X110488391Y-61899499D01*
X110509877Y-61862285D01*
X110550800Y-61709557D01*
X110550800Y-61551443D01*
X110550800Y-60595765D01*
X110570485Y-60528726D01*
X110571698Y-60526874D01*
X110659690Y-60395185D01*
X110659690Y-60395184D01*
X110659694Y-60395179D01*
X110660472Y-60393302D01*
X110693975Y-60312416D01*
X110720037Y-60249497D01*
X110750800Y-60094842D01*
X110750800Y-59937158D01*
X110750800Y-59937155D01*
X110750799Y-59937153D01*
X110720038Y-59782510D01*
X110720037Y-59782503D01*
X110719356Y-59780858D01*
X110659697Y-59636827D01*
X110659690Y-59636814D01*
X110572089Y-59505711D01*
X110572086Y-59505707D01*
X110460592Y-59394213D01*
X110460588Y-59394210D01*
X110329485Y-59306609D01*
X110329472Y-59306602D01*
X110295517Y-59292538D01*
X110183801Y-59246264D01*
X110183789Y-59246261D01*
X110029145Y-59215500D01*
X110029142Y-59215500D01*
X109871458Y-59215500D01*
X109871455Y-59215500D01*
X109716810Y-59246261D01*
X109716798Y-59246264D01*
X109571127Y-59306602D01*
X109571114Y-59306609D01*
X109440011Y-59394210D01*
X109440007Y-59394213D01*
X109328513Y-59505707D01*
X109328510Y-59505711D01*
X109240909Y-59636814D01*
X109240902Y-59636827D01*
X109180564Y-59782498D01*
X109180561Y-59782510D01*
X109149800Y-59937153D01*
X109149800Y-60094846D01*
X109180561Y-60249489D01*
X109180564Y-60249501D01*
X109240902Y-60395172D01*
X109240909Y-60395185D01*
X109328902Y-60526874D01*
X109349780Y-60593551D01*
X109349800Y-60595765D01*
X109349800Y-61330402D01*
X109330115Y-61397441D01*
X109313481Y-61418083D01*
X108441952Y-62289611D01*
X108380629Y-62323096D01*
X108310937Y-62318112D01*
X108266590Y-62289611D01*
X108261592Y-62284613D01*
X108261588Y-62284610D01*
X108130485Y-62197009D01*
X108130472Y-62197002D01*
X107984801Y-62136664D01*
X107984789Y-62136661D01*
X107830145Y-62105900D01*
X107830142Y-62105900D01*
X107672458Y-62105900D01*
X107672455Y-62105900D01*
X107517810Y-62136661D01*
X107517798Y-62136664D01*
X107372127Y-62197002D01*
X107372116Y-62197008D01*
X107270345Y-62265009D01*
X107203667Y-62285886D01*
X107136287Y-62267401D01*
X107113774Y-62249587D01*
X107024141Y-62159954D01*
X106837734Y-62029432D01*
X106837728Y-62029429D01*
X106779725Y-62002382D01*
X106727285Y-61956210D01*
X106708133Y-61889017D01*
X106728348Y-61822135D01*
X106779725Y-61777618D01*
X106837734Y-61750568D01*
X107024139Y-61620047D01*
X107185047Y-61459139D01*
X107315568Y-61272734D01*
X107411739Y-61066496D01*
X107470635Y-60846692D01*
X107485500Y-60676784D01*
X107485500Y-60563216D01*
X107470635Y-60393308D01*
X107411739Y-60173504D01*
X107315568Y-59967266D01*
X107185047Y-59780861D01*
X107185045Y-59780858D01*
X107024141Y-59619954D01*
X106958155Y-59573751D01*
X106914530Y-59519175D01*
X106907336Y-59449677D01*
X106938858Y-59387322D01*
X106998612Y-59352028D01*
X107018226Y-59347022D01*
X107091735Y-59316574D01*
X107140551Y-59293219D01*
X107255733Y-59206994D01*
X107282728Y-59179999D01*
X111625000Y-59179999D01*
X111625000Y-66580000D01*
X111627138Y-66645541D01*
X111627138Y-66645544D01*
X111627139Y-66645545D01*
X111661068Y-66772167D01*
X111726612Y-66885694D01*
X111819306Y-66978388D01*
X111932833Y-67043932D01*
X112059455Y-67077861D01*
X112125000Y-67080000D01*
X113025000Y-67080000D01*
X113090545Y-67077861D01*
X113217167Y-67043932D01*
X113330694Y-66978388D01*
X113423388Y-66885694D01*
X113488932Y-66772167D01*
X113522861Y-66645545D01*
X113525000Y-66580000D01*
X113525000Y-62880000D01*
X113525000Y-59180000D01*
X113522861Y-59114455D01*
X113488933Y-58987833D01*
X113423388Y-58874306D01*
X113330694Y-58781612D01*
X113217167Y-58716067D01*
X113090545Y-58682139D01*
X113025000Y-58680000D01*
X112125000Y-58680000D01*
X112059455Y-58682139D01*
X111932833Y-58716067D01*
X111932831Y-58716067D01*
X111932831Y-58716068D01*
X111819306Y-58781612D01*
X111819303Y-58781614D01*
X111726614Y-58874303D01*
X111726612Y-58874306D01*
X111661067Y-58987833D01*
X111642042Y-59058837D01*
X111627139Y-59114455D01*
X111625000Y-59179999D01*
X107282728Y-59179999D01*
X107311994Y-59150733D01*
X107348157Y-59110475D01*
X107421574Y-58986735D01*
X107452022Y-58913226D01*
X107470024Y-58862198D01*
X107490500Y-58719782D01*
X107490500Y-57440218D01*
X107487604Y-57386185D01*
X107452022Y-57246774D01*
X107421574Y-57173265D01*
X107412816Y-57154960D01*
X107398220Y-57124451D01*
X107398217Y-57124446D01*
X107376904Y-57095976D01*
X107311994Y-57009267D01*
X107311989Y-57009262D01*
X107311984Y-57009256D01*
X107255747Y-56953019D01*
X107255731Y-56953005D01*
X107215475Y-56916843D01*
X107215467Y-56916837D01*
X107091736Y-56843426D01*
X107091737Y-56843426D01*
X107023001Y-56814956D01*
X107018226Y-56812978D01*
X107018215Y-56812974D01*
X106990337Y-56803139D01*
X106933666Y-56762272D01*
X106908085Y-56697253D01*
X106921717Y-56628726D01*
X106960467Y-56584629D01*
X107024139Y-56540047D01*
X107185047Y-56379139D01*
X107315568Y-56192734D01*
X107373972Y-56067486D01*
X111474500Y-56067486D01*
X111474500Y-56252514D01*
X111488972Y-56343889D01*
X111503445Y-56435265D01*
X111560619Y-56611232D01*
X111560620Y-56611235D01*
X111626588Y-56740703D01*
X111644622Y-56776096D01*
X111753379Y-56925787D01*
X111884213Y-57056621D01*
X112033904Y-57165378D01*
X112049413Y-57173280D01*
X112198764Y-57249379D01*
X112198767Y-57249380D01*
X112286750Y-57277967D01*
X112374736Y-57306555D01*
X112557486Y-57335500D01*
X112557487Y-57335500D01*
X112742513Y-57335500D01*
X112742514Y-57335500D01*
X112925264Y-57306555D01*
X113101235Y-57249379D01*
X113266096Y-57165378D01*
X113415787Y-57056621D01*
X113546621Y-56925787D01*
X113655378Y-56776096D01*
X113739379Y-56611235D01*
X113796555Y-56435264D01*
X113825500Y-56252514D01*
X113825500Y-56067486D01*
X113796555Y-55884736D01*
X113758202Y-55766697D01*
X113741826Y-55716295D01*
X113739380Y-55708767D01*
X113739379Y-55708764D01*
X113724722Y-55679999D01*
X114125000Y-55679999D01*
X114125000Y-56580000D01*
X114127138Y-56645541D01*
X114127138Y-56645544D01*
X114127139Y-56645545D01*
X114161068Y-56772167D01*
X114226612Y-56885694D01*
X114319306Y-56978388D01*
X114432833Y-57043932D01*
X114559455Y-57077861D01*
X114625000Y-57080000D01*
X115525000Y-57080000D01*
X115590545Y-57077861D01*
X115717167Y-57043933D01*
X115830694Y-56978388D01*
X115923388Y-56885694D01*
X115988933Y-56772167D01*
X116022861Y-56645545D01*
X116025000Y-56580000D01*
X116025000Y-56067486D01*
X116324500Y-56067486D01*
X116324500Y-56252514D01*
X116338972Y-56343889D01*
X116353445Y-56435265D01*
X116410619Y-56611232D01*
X116410620Y-56611235D01*
X116476588Y-56740703D01*
X116494622Y-56776096D01*
X116603379Y-56925787D01*
X116734213Y-57056621D01*
X116883904Y-57165378D01*
X116899413Y-57173280D01*
X117048764Y-57249379D01*
X117048767Y-57249380D01*
X117136750Y-57277967D01*
X117224736Y-57306555D01*
X117407486Y-57335500D01*
X117407487Y-57335500D01*
X117592513Y-57335500D01*
X117592514Y-57335500D01*
X117775264Y-57306555D01*
X117951235Y-57249379D01*
X118116096Y-57165378D01*
X118265787Y-57056621D01*
X118396621Y-56925787D01*
X118505378Y-56776096D01*
X118589379Y-56611235D01*
X118646555Y-56435264D01*
X118675500Y-56252514D01*
X118675500Y-56067486D01*
X118646555Y-55884736D01*
X118608202Y-55766697D01*
X118589380Y-55708767D01*
X118589379Y-55708764D01*
X118541326Y-55614455D01*
X118505378Y-55543904D01*
X118396621Y-55394213D01*
X118265787Y-55263379D01*
X118116096Y-55154622D01*
X117951235Y-55070620D01*
X117951232Y-55070619D01*
X117775265Y-55013445D01*
X117683889Y-54998972D01*
X117592514Y-54984500D01*
X117407486Y-54984500D01*
X117346569Y-54994148D01*
X117224734Y-55013445D01*
X117048767Y-55070619D01*
X117048764Y-55070620D01*
X116883903Y-55154622D01*
X116821778Y-55199759D01*
X116734213Y-55263379D01*
X116734211Y-55263381D01*
X116734210Y-55263381D01*
X116603381Y-55394210D01*
X116603381Y-55394211D01*
X116603379Y-55394213D01*
X116556672Y-55458499D01*
X116494622Y-55543903D01*
X116410620Y-55708764D01*
X116410619Y-55708767D01*
X116353445Y-55884734D01*
X116334345Y-56005327D01*
X116324500Y-56067486D01*
X116025000Y-56067486D01*
X116025000Y-55680000D01*
X116022861Y-55614455D01*
X115988933Y-55487833D01*
X115923388Y-55374306D01*
X115830694Y-55281612D01*
X115717167Y-55216067D01*
X115590545Y-55182139D01*
X115525000Y-55180000D01*
X115075000Y-55180000D01*
X114625000Y-55180000D01*
X114559458Y-55182138D01*
X114432832Y-55216068D01*
X114319307Y-55281611D01*
X114319304Y-55281613D01*
X114226613Y-55374304D01*
X114226611Y-55374307D01*
X114161068Y-55487832D01*
X114127138Y-55614458D01*
X114125000Y-55679999D01*
X113724722Y-55679999D01*
X113691326Y-55614455D01*
X113655378Y-55543904D01*
X113546621Y-55394213D01*
X113415787Y-55263379D01*
X113266096Y-55154622D01*
X113101235Y-55070620D01*
X113101232Y-55070619D01*
X112925265Y-55013445D01*
X112833889Y-54998972D01*
X112742514Y-54984500D01*
X112557486Y-54984500D01*
X112496569Y-54994148D01*
X112374734Y-55013445D01*
X112198767Y-55070619D01*
X112198764Y-55070620D01*
X112033903Y-55154622D01*
X111971778Y-55199759D01*
X111884213Y-55263379D01*
X111884211Y-55263381D01*
X111884210Y-55263381D01*
X111753381Y-55394210D01*
X111753381Y-55394211D01*
X111753379Y-55394213D01*
X111706672Y-55458499D01*
X111644622Y-55543903D01*
X111560620Y-55708764D01*
X111560619Y-55708767D01*
X111503445Y-55884734D01*
X111484345Y-56005327D01*
X111474500Y-56067486D01*
X107373972Y-56067486D01*
X107411739Y-55986496D01*
X107470635Y-55766692D01*
X107485500Y-55596784D01*
X107485500Y-55483216D01*
X107470635Y-55313308D01*
X107411739Y-55093504D01*
X107315568Y-54887266D01*
X107185047Y-54700861D01*
X107185045Y-54700858D01*
X107024141Y-54539954D01*
X106837734Y-54409432D01*
X106837732Y-54409431D01*
X106786343Y-54385468D01*
X106733904Y-54339295D01*
X106714752Y-54272102D01*
X106734968Y-54205221D01*
X106780293Y-54163729D01*
X106844783Y-54129259D01*
X106975811Y-54041709D01*
X107052412Y-53978843D01*
X107163843Y-53867412D01*
X107226709Y-53790811D01*
X107314259Y-53659783D01*
X107360972Y-53572389D01*
X107421278Y-53426798D01*
X107450044Y-53331968D01*
X107480787Y-53177410D01*
X107490500Y-53078793D01*
X107490500Y-53023713D01*
X110999500Y-53023713D01*
X110999500Y-53236286D01*
X111014653Y-53331962D01*
X111032754Y-53446243D01*
X111082938Y-53600694D01*
X111098444Y-53648414D01*
X111194951Y-53837820D01*
X111319890Y-54009786D01*
X111470213Y-54160109D01*
X111642179Y-54285048D01*
X111642181Y-54285049D01*
X111642184Y-54285051D01*
X111831588Y-54381557D01*
X112033757Y-54447246D01*
X112243713Y-54480500D01*
X112243714Y-54480500D01*
X112456286Y-54480500D01*
X112456287Y-54480500D01*
X112666243Y-54447246D01*
X112868412Y-54381557D01*
X113057816Y-54285051D01*
X113085353Y-54265044D01*
X113229786Y-54160109D01*
X113229788Y-54160106D01*
X113229792Y-54160104D01*
X113380104Y-54009792D01*
X113505051Y-53837816D01*
X113505053Y-53837811D01*
X113507914Y-53833874D01*
X113509013Y-53834672D01*
X113556241Y-53791928D01*
X113614225Y-53779648D01*
X113625000Y-53780000D01*
X113625004Y-53780000D01*
X114525000Y-53780000D01*
X114590545Y-53777861D01*
X114717167Y-53743933D01*
X114830694Y-53678388D01*
X114923388Y-53585694D01*
X114963283Y-53516594D01*
X115013850Y-53468378D01*
X115082457Y-53455155D01*
X115147322Y-53481124D01*
X115178057Y-53516594D01*
X115226609Y-53600690D01*
X115226611Y-53600693D01*
X115226612Y-53600694D01*
X115319306Y-53693388D01*
X115432833Y-53758932D01*
X115559455Y-53792861D01*
X115625000Y-53795000D01*
X116524997Y-53795000D01*
X116525000Y-53795000D01*
X116546066Y-53794312D01*
X116613711Y-53811798D01*
X116650430Y-53845361D01*
X116769890Y-54009786D01*
X116920213Y-54160109D01*
X117092179Y-54285048D01*
X117092181Y-54285049D01*
X117092184Y-54285051D01*
X117281588Y-54381557D01*
X117483757Y-54447246D01*
X117693713Y-54480500D01*
X117693714Y-54480500D01*
X117906286Y-54480500D01*
X117906287Y-54480500D01*
X118116243Y-54447246D01*
X118318412Y-54381557D01*
X118507816Y-54285051D01*
X118535353Y-54265044D01*
X118679786Y-54160109D01*
X118679788Y-54160106D01*
X118679792Y-54160104D01*
X118830104Y-54009792D01*
X118830106Y-54009788D01*
X118830109Y-54009786D01*
X118955048Y-53837820D01*
X118955047Y-53837820D01*
X118955051Y-53837816D01*
X119051557Y-53648412D01*
X119117246Y-53446243D01*
X119150500Y-53236287D01*
X119150500Y-53023713D01*
X119117246Y-52813757D01*
X119051557Y-52611588D01*
X118955051Y-52422184D01*
X118955049Y-52422181D01*
X118955048Y-52422179D01*
X118830109Y-52250213D01*
X118679786Y-52099890D01*
X118507820Y-51974951D01*
X118318414Y-51878444D01*
X118318413Y-51878443D01*
X118318412Y-51878443D01*
X118116243Y-51812754D01*
X118116241Y-51812753D01*
X118116240Y-51812753D01*
X117952244Y-51786779D01*
X117906287Y-51779500D01*
X117693713Y-51779500D01*
X117647756Y-51786779D01*
X117483760Y-51812753D01*
X117281585Y-51878444D01*
X117092181Y-51974950D01*
X117013861Y-52031852D01*
X116948054Y-52055331D01*
X116880000Y-52039504D01*
X116853296Y-52019214D01*
X116830696Y-51996614D01*
X116830694Y-51996612D01*
X116717167Y-51931067D01*
X116590545Y-51897139D01*
X116525000Y-51895000D01*
X116075000Y-51895000D01*
X115625000Y-51895000D01*
X115559458Y-51897138D01*
X115432832Y-51931068D01*
X115319307Y-51996611D01*
X115319304Y-51996613D01*
X115226613Y-52089304D01*
X115226609Y-52089309D01*
X115186717Y-52158405D01*
X115136150Y-52206621D01*
X115067543Y-52219843D01*
X115002678Y-52193875D01*
X114971943Y-52158405D01*
X114934334Y-52093265D01*
X114923388Y-52074306D01*
X114830694Y-51981612D01*
X114717167Y-51916067D01*
X114590545Y-51882139D01*
X114525000Y-51880000D01*
X114075000Y-51880000D01*
X113625000Y-51880000D01*
X113559458Y-51882138D01*
X113432832Y-51916068D01*
X113319307Y-51981611D01*
X113319304Y-51981613D01*
X113288014Y-52012903D01*
X113226690Y-52046388D01*
X113156999Y-52041402D01*
X113127449Y-52025540D01*
X113057815Y-51974948D01*
X112868414Y-51878444D01*
X112868413Y-51878443D01*
X112868412Y-51878443D01*
X112666243Y-51812754D01*
X112666241Y-51812753D01*
X112666240Y-51812753D01*
X112502244Y-51786779D01*
X112456287Y-51779500D01*
X112243713Y-51779500D01*
X112197756Y-51786779D01*
X112033760Y-51812753D01*
X111831585Y-51878444D01*
X111642179Y-51974951D01*
X111470213Y-52099890D01*
X111319890Y-52250213D01*
X111194951Y-52422179D01*
X111098444Y-52611585D01*
X111032753Y-52813760D01*
X110999500Y-53023713D01*
X107490500Y-53023713D01*
X107490500Y-52921207D01*
X107480787Y-52822590D01*
X107450044Y-52668032D01*
X107421278Y-52573202D01*
X107360972Y-52427611D01*
X107335523Y-52380000D01*
X107314265Y-52340228D01*
X107314263Y-52340226D01*
X107314259Y-52340217D01*
X107307068Y-52329455D01*
X107226721Y-52209206D01*
X107226712Y-52209194D01*
X107226709Y-52209189D01*
X107163843Y-52132588D01*
X107052412Y-52021157D01*
X106975811Y-51958291D01*
X106975804Y-51958286D01*
X106975793Y-51958278D01*
X106844799Y-51870751D01*
X106844771Y-51870734D01*
X106757396Y-51824031D01*
X106757391Y-51824029D01*
X106611799Y-51763722D01*
X106586190Y-51755954D01*
X106516968Y-51734956D01*
X106362410Y-51704213D01*
X106362406Y-51704212D01*
X106362398Y-51704211D01*
X106282926Y-51696384D01*
X106263793Y-51694500D01*
X103945218Y-51694500D01*
X103945216Y-51694500D01*
X103891185Y-51697395D01*
X103891181Y-51697396D01*
X103751778Y-51732976D01*
X103751766Y-51732980D01*
X103678280Y-51763419D01*
X103678252Y-51763431D01*
X103629451Y-51786779D01*
X103629446Y-51786782D01*
X103514268Y-51873005D01*
X103514256Y-51873015D01*
X103458019Y-51929252D01*
X103421843Y-51969524D01*
X103421837Y-51969532D01*
X103348426Y-52093263D01*
X103317978Y-52166774D01*
X103317970Y-52166795D01*
X103299976Y-52217800D01*
X103279500Y-52360219D01*
X103279500Y-53639784D01*
X103282395Y-53693814D01*
X103282396Y-53693818D01*
X103317976Y-53833221D01*
X103317980Y-53833233D01*
X103348419Y-53906719D01*
X103348431Y-53906747D01*
X103371779Y-53955548D01*
X103371782Y-53955553D01*
X103412381Y-54009786D01*
X103458006Y-54070733D01*
X103458010Y-54070737D01*
X103458015Y-54070743D01*
X103514252Y-54126980D01*
X103514261Y-54126988D01*
X103514267Y-54126994D01*
X103516790Y-54129260D01*
X103554524Y-54163156D01*
X103554532Y-54163162D01*
X103678263Y-54236573D01*
X103678262Y-54236573D01*
X103692615Y-54242518D01*
X103751774Y-54267022D01*
X103779662Y-54276860D01*
X103836332Y-54317725D01*
X103861913Y-54382743D01*
X103848283Y-54451271D01*
X103809531Y-54495371D01*
X103745856Y-54539956D01*
X103584954Y-54700858D01*
X103454432Y-54887265D01*
X103454431Y-54887267D01*
X103358261Y-55093502D01*
X103358258Y-55093511D01*
X103299366Y-55313302D01*
X103299364Y-55313312D01*
X103284500Y-55483214D01*
X103284500Y-55596785D01*
X103299364Y-55766687D01*
X103299366Y-55766697D01*
X103358258Y-55986488D01*
X103358261Y-55986497D01*
X103454431Y-56192732D01*
X103454432Y-56192734D01*
X103584954Y-56379141D01*
X103745858Y-56540045D01*
X103745861Y-56540047D01*
X103932266Y-56670568D01*
X103983655Y-56694531D01*
X104036095Y-56740703D01*
X104055247Y-56807896D01*
X104035032Y-56874778D01*
X103989705Y-56916271D01*
X103939288Y-56943219D01*
X103925217Y-56950741D01*
X103925214Y-56950742D01*
X103925200Y-56950751D01*
X103794206Y-57038278D01*
X103794194Y-57038287D01*
X103794189Y-57038290D01*
X103794189Y-57038291D01*
X103717588Y-57101157D01*
X103717585Y-57101160D01*
X103717582Y-57101162D01*
X103606162Y-57212582D01*
X103606160Y-57212585D01*
X103606157Y-57212588D01*
X103578084Y-57246795D01*
X103543287Y-57289194D01*
X103543278Y-57289206D01*
X103455751Y-57420200D01*
X103455734Y-57420228D01*
X103409031Y-57507603D01*
X103409029Y-57507608D01*
X103348722Y-57653200D01*
X103333186Y-57704416D01*
X103319956Y-57748032D01*
X103319955Y-57748036D01*
X103319955Y-57748037D01*
X103289211Y-57902599D01*
X103289211Y-57902602D01*
X103279500Y-58001209D01*
X103279500Y-58158790D01*
X103289211Y-58257397D01*
X103289211Y-58257400D01*
X103289213Y-58257410D01*
X103319956Y-58411968D01*
X103340954Y-58481190D01*
X103348722Y-58506799D01*
X103409029Y-58652391D01*
X103409031Y-58652396D01*
X103455734Y-58739771D01*
X103455751Y-58739799D01*
X103543278Y-58870793D01*
X103543287Y-58870805D01*
X103543291Y-58870811D01*
X103562893Y-58894695D01*
X103590206Y-58959003D01*
X103578416Y-59027871D01*
X103554721Y-59061041D01*
X103111586Y-59504178D01*
X102999781Y-59615982D01*
X102999775Y-59615990D01*
X102961791Y-59681782D01*
X102961791Y-59681784D01*
X102920723Y-59752914D01*
X102913235Y-59780861D01*
X102879799Y-59905643D01*
X102879799Y-59905645D01*
X102879799Y-60073746D01*
X102879800Y-60073759D01*
X102879800Y-68788630D01*
X102879799Y-68788648D01*
X102879799Y-68954354D01*
X102879798Y-68954354D01*
X102920723Y-69107085D01*
X102949658Y-69157200D01*
X102949659Y-69157204D01*
X102949660Y-69157204D01*
X102997487Y-69240045D01*
X102999779Y-69244014D01*
X102999781Y-69244017D01*
X103118649Y-69362885D01*
X103118655Y-69362890D01*
X103554721Y-69798957D01*
X103588206Y-69860280D01*
X103583222Y-69929972D01*
X103562895Y-69965301D01*
X103543292Y-69989187D01*
X103543278Y-69989206D01*
X103455751Y-70120200D01*
X103455734Y-70120228D01*
X103409031Y-70207603D01*
X103409029Y-70207608D01*
X103348722Y-70353200D01*
X103333186Y-70404416D01*
X103319956Y-70448032D01*
X103319955Y-70448036D01*
X103319955Y-70448037D01*
X103289211Y-70602599D01*
X103289211Y-70602602D01*
X103279500Y-70701209D01*
X103279500Y-70858790D01*
X103289211Y-70957397D01*
X103289211Y-70957400D01*
X103289213Y-70957410D01*
X103319956Y-71111968D01*
X103334832Y-71161008D01*
X103348722Y-71206799D01*
X103409029Y-71352391D01*
X103409031Y-71352396D01*
X103455734Y-71439771D01*
X103455751Y-71439799D01*
X103543278Y-71570793D01*
X103543297Y-71570819D01*
X103562892Y-71594694D01*
X103590207Y-71659003D01*
X103578417Y-71727871D01*
X103554722Y-71761042D01*
X102957381Y-72358382D01*
X102957379Y-72358385D01*
X102907261Y-72445194D01*
X102907259Y-72445196D01*
X102878325Y-72495309D01*
X102878324Y-72495310D01*
X102878323Y-72495315D01*
X102837399Y-72648043D01*
X102837399Y-72648045D01*
X102837399Y-72816146D01*
X102837400Y-72816159D01*
X102837400Y-116302930D01*
X102837399Y-116302948D01*
X102837399Y-116468654D01*
X102837398Y-116468654D01*
X102868958Y-116586434D01*
X102878323Y-116621385D01*
X102895767Y-116651598D01*
X102918266Y-116690568D01*
X102957379Y-116758315D01*
X103076249Y-116877185D01*
X103076255Y-116877190D01*
X103240901Y-117041836D01*
X103274386Y-117103159D01*
X103269402Y-117172851D01*
X103227530Y-117228784D01*
X103162066Y-117253201D01*
X103133825Y-117251991D01*
X103118095Y-117249500D01*
X103118092Y-117249500D01*
X102881908Y-117249500D01*
X102881903Y-117249500D01*
X102648631Y-117286446D01*
X102424003Y-117359433D01*
X102213566Y-117466657D01*
X102104550Y-117545862D01*
X102022490Y-117605483D01*
X102022488Y-117605485D01*
X102022487Y-117605485D01*
X101855485Y-117772487D01*
X101855485Y-117772488D01*
X101855483Y-117772490D01*
X101795862Y-117854550D01*
X101716657Y-117963566D01*
X101609433Y-118174003D01*
X101536446Y-118398631D01*
X101499500Y-118631902D01*
X100500500Y-118631902D01*
X100500500Y-50624500D01*
X100520185Y-50557461D01*
X100572989Y-50511706D01*
X100624500Y-50500500D01*
X139375500Y-50500500D01*
X139442539Y-50520185D01*
G37*
%TD.AperFunction*%
%TD*%
%TA.AperFunction,NonConductor*%
G36*
X135818834Y-58258914D02*
G01*
X135874767Y-58300786D01*
X135899184Y-58366250D01*
X135899500Y-58375096D01*
X135899500Y-59149901D01*
X135890851Y-59179355D01*
X135884319Y-59209351D01*
X135880575Y-59214349D01*
X135879815Y-59216940D01*
X135863162Y-59237601D01*
X135860841Y-59239921D01*
X135799511Y-59273393D01*
X135760580Y-59275579D01*
X135750026Y-59274501D01*
X135750013Y-59274500D01*
X135750009Y-59274500D01*
X135750004Y-59274500D01*
X135321800Y-59274500D01*
X135254761Y-59254815D01*
X135209006Y-59202011D01*
X135197800Y-59150500D01*
X135197800Y-58828796D01*
X135217485Y-58761757D01*
X135234115Y-58741119D01*
X135687819Y-58287414D01*
X135749142Y-58253930D01*
X135818834Y-58258914D01*
G37*
%TD.AperFunction*%
%TA.AperFunction,NonConductor*%
G36*
X133249991Y-61725500D02*
G01*
X133850008Y-61725499D01*
X133860197Y-61724458D01*
X133928890Y-61737227D01*
X133979775Y-61785107D01*
X133996800Y-61847816D01*
X133996800Y-62157290D01*
X133977115Y-62224329D01*
X133924311Y-62270084D01*
X133860199Y-62280648D01*
X133800021Y-62274500D01*
X133224500Y-62274500D01*
X133157461Y-62254815D01*
X133111706Y-62202011D01*
X133100500Y-62150500D01*
X133100500Y-61847541D01*
X133120185Y-61780502D01*
X133172989Y-61734747D01*
X133237103Y-61724183D01*
X133249991Y-61725500D01*
G37*
%TD.AperFunction*%
%TA.AperFunction,NonConductor*%
G36*
X136756834Y-60144914D02*
G01*
X136812767Y-60186786D01*
X136837184Y-60252250D01*
X136837500Y-60261096D01*
X136837500Y-63788903D01*
X136817815Y-63855942D01*
X136765011Y-63901697D01*
X136695853Y-63911641D01*
X136632297Y-63882616D01*
X136625819Y-63876584D01*
X136436818Y-63687583D01*
X136403333Y-63626260D01*
X136400499Y-63599902D01*
X136400499Y-62974998D01*
X136400498Y-62974981D01*
X136389999Y-62872203D01*
X136389998Y-62872200D01*
X136379758Y-62841298D01*
X136334814Y-62705666D01*
X136242712Y-62556344D01*
X136118656Y-62432288D01*
X136118655Y-62432287D01*
X136059402Y-62395739D01*
X136012678Y-62343791D01*
X136000500Y-62290201D01*
X136000500Y-61740638D01*
X136020185Y-61673599D01*
X136059401Y-61635100D01*
X136168656Y-61567712D01*
X136292712Y-61443656D01*
X136384814Y-61294334D01*
X136439999Y-61127797D01*
X136450500Y-61025009D01*
X136450499Y-60400096D01*
X136459145Y-60370650D01*
X136465667Y-60340670D01*
X136469419Y-60335656D01*
X136470183Y-60333058D01*
X136486818Y-60312416D01*
X136625819Y-60173415D01*
X136687142Y-60139930D01*
X136756834Y-60144914D01*
G37*
%TD.AperFunction*%
%TA.AperFunction,NonConductor*%
G36*
X134116366Y-64720593D02*
G01*
X134147559Y-64783113D01*
X134149500Y-64804969D01*
X134149500Y-66315899D01*
X134129815Y-66382938D01*
X134077011Y-66428693D01*
X134041696Y-66438837D01*
X134040529Y-66438990D01*
X134032680Y-66441094D01*
X134031801Y-66437814D01*
X133977927Y-66443582D01*
X133967479Y-66440510D01*
X133967323Y-66441095D01*
X133959468Y-66438990D01*
X133958304Y-66438837D01*
X133957395Y-66438434D01*
X133951622Y-66436888D01*
X133951863Y-66435987D01*
X133894410Y-66410565D01*
X133855944Y-66352237D01*
X133850500Y-66315899D01*
X133850500Y-64821869D01*
X133857364Y-64798492D01*
X133860001Y-64774266D01*
X133867033Y-64765562D01*
X133870185Y-64754830D01*
X133888597Y-64738875D01*
X133903914Y-64719920D01*
X133919376Y-64712205D01*
X133922989Y-64709075D01*
X133935486Y-64704166D01*
X133986498Y-64687262D01*
X134056324Y-64684861D01*
X134116366Y-64720593D01*
G37*
%TD.AperFunction*%
%TA.AperFunction,NonConductor*%
G36*
X122669347Y-56005012D02*
G01*
X122699561Y-56004772D01*
X122703848Y-56007479D01*
X122708906Y-56007841D01*
X122733093Y-56025948D01*
X122758637Y-56042079D01*
X122762469Y-56047938D01*
X122764839Y-56049713D01*
X122777954Y-56071618D01*
X122834431Y-56192732D01*
X122834432Y-56192734D01*
X122964954Y-56379141D01*
X123125857Y-56540044D01*
X123125860Y-56540046D01*
X123125861Y-56540047D01*
X123191844Y-56586248D01*
X123235469Y-56640824D01*
X123242663Y-56710322D01*
X123211141Y-56772677D01*
X123151391Y-56807970D01*
X123131780Y-56812975D01*
X123131766Y-56812980D01*
X123058280Y-56843419D01*
X123058252Y-56843431D01*
X123009451Y-56866779D01*
X123009446Y-56866782D01*
X122894268Y-56953005D01*
X122894256Y-56953015D01*
X122838019Y-57009252D01*
X122801843Y-57049524D01*
X122801837Y-57049532D01*
X122728426Y-57173263D01*
X122697978Y-57246774D01*
X122697970Y-57246795D01*
X122679976Y-57297800D01*
X122678372Y-57308957D01*
X122659501Y-57440215D01*
X122659500Y-57440219D01*
X122659500Y-58719784D01*
X122662395Y-58773814D01*
X122662396Y-58773818D01*
X122697976Y-58913221D01*
X122697980Y-58913233D01*
X122728419Y-58986719D01*
X122728431Y-58986747D01*
X122751779Y-59035548D01*
X122751783Y-59035554D01*
X122776621Y-59068733D01*
X122801039Y-59134198D01*
X122786188Y-59202471D01*
X122765036Y-59230726D01*
X122491586Y-59504178D01*
X122379781Y-59615982D01*
X122379775Y-59615990D01*
X122341791Y-59681782D01*
X122341791Y-59681784D01*
X122300723Y-59752914D01*
X122293235Y-59780861D01*
X122259799Y-59905643D01*
X122259799Y-59905645D01*
X122259799Y-60073746D01*
X122259800Y-60073759D01*
X122259800Y-94006000D01*
X122240115Y-94073039D01*
X122187311Y-94118794D01*
X122135800Y-94130000D01*
X108382900Y-94130000D01*
X108315861Y-94110315D01*
X108270106Y-94057511D01*
X108258900Y-94006000D01*
X108258900Y-82042600D01*
X114671700Y-82042600D01*
X114671700Y-83617400D01*
X114672775Y-83639435D01*
X114673622Y-83656799D01*
X114703778Y-83729603D01*
X114759496Y-83785321D01*
X114759497Y-83785321D01*
X114759498Y-83785322D01*
X114832300Y-83815478D01*
X114871700Y-83817400D01*
X114871715Y-83817400D01*
X116446485Y-83817400D01*
X116446500Y-83817400D01*
X116485900Y-83815478D01*
X116558702Y-83785323D01*
X116614423Y-83729602D01*
X116644578Y-83656800D01*
X116646500Y-83617400D01*
X116646500Y-82816146D01*
X117207019Y-82816146D01*
X117207019Y-82816153D01*
X117210508Y-82857701D01*
X117223222Y-83009107D01*
X117276596Y-83195245D01*
X117365106Y-83367468D01*
X117365107Y-83367470D01*
X117405269Y-83418141D01*
X117485387Y-83519225D01*
X117632851Y-83644726D01*
X117632854Y-83644728D01*
X117632857Y-83644730D01*
X117733340Y-83700887D01*
X117801882Y-83739195D01*
X117986044Y-83799033D01*
X118178321Y-83821960D01*
X118371390Y-83807105D01*
X118557896Y-83755031D01*
X118730736Y-83667724D01*
X118883325Y-83548507D01*
X119009853Y-83401923D01*
X119031969Y-83362993D01*
X119105497Y-83233560D01*
X119105496Y-83233560D01*
X119105500Y-83233555D01*
X119166622Y-83049816D01*
X119190891Y-82857703D01*
X119191278Y-82830000D01*
X119189920Y-82816146D01*
X119747019Y-82816146D01*
X119747019Y-82816153D01*
X119750508Y-82857701D01*
X119763222Y-83009107D01*
X119816596Y-83195245D01*
X119905106Y-83367468D01*
X119905107Y-83367470D01*
X119945269Y-83418141D01*
X120025387Y-83519225D01*
X120172851Y-83644726D01*
X120172854Y-83644728D01*
X120172857Y-83644730D01*
X120273340Y-83700887D01*
X120341882Y-83739195D01*
X120526044Y-83799033D01*
X120718321Y-83821960D01*
X120911390Y-83807105D01*
X121097896Y-83755031D01*
X121270736Y-83667724D01*
X121423325Y-83548507D01*
X121549853Y-83401923D01*
X121571969Y-83362993D01*
X121645497Y-83233560D01*
X121645496Y-83233560D01*
X121645500Y-83233555D01*
X121706622Y-83049816D01*
X121730891Y-82857703D01*
X121731278Y-82830000D01*
X121712382Y-82637285D01*
X121656414Y-82451910D01*
X121656413Y-82451908D01*
X121656413Y-82451907D01*
X121572103Y-82293345D01*
X121565506Y-82280937D01*
X121443120Y-82130877D01*
X121293919Y-82007447D01*
X121123584Y-81915348D01*
X121123583Y-81915347D01*
X121123580Y-81915346D01*
X120938609Y-81858087D01*
X120746029Y-81837846D01*
X120746027Y-81837846D01*
X120672670Y-81844522D01*
X120553182Y-81855396D01*
X120367426Y-81910067D01*
X120367422Y-81910069D01*
X120195831Y-81999773D01*
X120195819Y-81999781D01*
X120044910Y-82121115D01*
X120044909Y-82121116D01*
X119920444Y-82269446D01*
X119920442Y-82269449D01*
X119827154Y-82439139D01*
X119768602Y-82623718D01*
X119768602Y-82623719D01*
X119747019Y-82816146D01*
X119189920Y-82816146D01*
X119172382Y-82637285D01*
X119116414Y-82451910D01*
X119116413Y-82451908D01*
X119116413Y-82451907D01*
X119032103Y-82293345D01*
X119025506Y-82280937D01*
X118903120Y-82130877D01*
X118753919Y-82007447D01*
X118583584Y-81915348D01*
X118583583Y-81915347D01*
X118583580Y-81915346D01*
X118398609Y-81858087D01*
X118206029Y-81837846D01*
X118206027Y-81837846D01*
X118132670Y-81844522D01*
X118013182Y-81855396D01*
X117827426Y-81910067D01*
X117827422Y-81910069D01*
X117655831Y-81999773D01*
X117655819Y-81999781D01*
X117504910Y-82121115D01*
X117504909Y-82121116D01*
X117380444Y-82269446D01*
X117380442Y-82269449D01*
X117287154Y-82439139D01*
X117228602Y-82623718D01*
X117228602Y-82623719D01*
X117207019Y-82816146D01*
X116646500Y-82816146D01*
X116646500Y-82042600D01*
X116644578Y-82003200D01*
X116614423Y-81930398D01*
X116558702Y-81874677D01*
X116558698Y-81874675D01*
X116558696Y-81874674D01*
X116485901Y-81844522D01*
X116485903Y-81844522D01*
X116477457Y-81844110D01*
X116446500Y-81842600D01*
X115659100Y-81842600D01*
X114871700Y-81842600D01*
X114832300Y-81844522D01*
X114759496Y-81874678D01*
X114759495Y-81874680D01*
X114703780Y-81930395D01*
X114703778Y-81930396D01*
X114675038Y-81999781D01*
X114673622Y-82003200D01*
X114671700Y-82042600D01*
X108258900Y-82042600D01*
X108258900Y-74920797D01*
X108278585Y-74853758D01*
X108295219Y-74833116D01*
X111448336Y-71679999D01*
X115125000Y-71679999D01*
X115125000Y-72580000D01*
X115127138Y-72645541D01*
X115127138Y-72645544D01*
X115127139Y-72645545D01*
X115161068Y-72772167D01*
X115226612Y-72885694D01*
X115319306Y-72978388D01*
X115432833Y-73043932D01*
X115559455Y-73077861D01*
X115625000Y-73080000D01*
X116525000Y-73080000D01*
X116590545Y-73077861D01*
X116717167Y-73043933D01*
X116830694Y-72978388D01*
X116923388Y-72885694D01*
X116988933Y-72772167D01*
X117022861Y-72645545D01*
X117025000Y-72580000D01*
X117025000Y-71680000D01*
X117022861Y-71614455D01*
X116988933Y-71487833D01*
X116923388Y-71374306D01*
X116830694Y-71281612D01*
X116717167Y-71216067D01*
X116590545Y-71182139D01*
X116525000Y-71180000D01*
X116075000Y-71180000D01*
X115625000Y-71180000D01*
X115559458Y-71182138D01*
X115432832Y-71216068D01*
X115319307Y-71281611D01*
X115319304Y-71281613D01*
X115226613Y-71374304D01*
X115226611Y-71374307D01*
X115161068Y-71487832D01*
X115127138Y-71614458D01*
X115125000Y-71679999D01*
X111448336Y-71679999D01*
X114677737Y-68450598D01*
X121169620Y-61958716D01*
X121248677Y-61821784D01*
X121289601Y-61669057D01*
X121289601Y-61510942D01*
X121289601Y-61503347D01*
X121289600Y-61503329D01*
X121289600Y-57375996D01*
X121309285Y-57308957D01*
X121325914Y-57288320D01*
X122577893Y-56036340D01*
X122604405Y-56021863D01*
X122629694Y-56005327D01*
X122634764Y-56005286D01*
X122639214Y-56002857D01*
X122669347Y-56005012D01*
G37*
%TD.AperFunction*%
%TA.AperFunction,NonConductor*%
G36*
X122380203Y-94644885D02*
G01*
X122386681Y-94650917D01*
X122498649Y-94762885D01*
X122498654Y-94762889D01*
X122764804Y-95029040D01*
X122798289Y-95090362D01*
X122793305Y-95160054D01*
X122783766Y-95179992D01*
X122728424Y-95273268D01*
X122697978Y-95346774D01*
X122697970Y-95346795D01*
X122679976Y-95397800D01*
X122659500Y-95540219D01*
X122659500Y-96819784D01*
X122662395Y-96873814D01*
X122662396Y-96873818D01*
X122697976Y-97013221D01*
X122697980Y-97013233D01*
X122728419Y-97086719D01*
X122728431Y-97086747D01*
X122751779Y-97135548D01*
X122751783Y-97135554D01*
X122776621Y-97168733D01*
X122801039Y-97234198D01*
X122786188Y-97302471D01*
X122765036Y-97330726D01*
X122386681Y-97709082D01*
X122325358Y-97742567D01*
X122255667Y-97737583D01*
X122199733Y-97695712D01*
X122175316Y-97630247D01*
X122175000Y-97621401D01*
X122175000Y-94738598D01*
X122194685Y-94671559D01*
X122247489Y-94625804D01*
X122316647Y-94615860D01*
X122380203Y-94644885D01*
G37*
%TD.AperFunction*%
%TA.AperFunction,NonConductor*%
G36*
X121832990Y-98827278D02*
G01*
X121883263Y-98875800D01*
X121899500Y-98937145D01*
X121899500Y-113770397D01*
X121879815Y-113837436D01*
X121831800Y-113880879D01*
X121818389Y-113887712D01*
X121652786Y-114008028D01*
X121508032Y-114152782D01*
X121508026Y-114152789D01*
X121473923Y-114199728D01*
X121451647Y-114216905D01*
X121431472Y-114236512D01*
X121424349Y-114237955D01*
X121418593Y-114242394D01*
X121390562Y-114244801D01*
X121362994Y-114250387D01*
X121356221Y-114247750D01*
X121348980Y-114248372D01*
X121324097Y-114235242D01*
X121297885Y-114225037D01*
X121290653Y-114217596D01*
X121287185Y-114215766D01*
X121273288Y-114199728D01*
X121255951Y-114175866D01*
X121238565Y-114141984D01*
X121234816Y-114130672D01*
X121234815Y-114130668D01*
X121142712Y-113981344D01*
X121018657Y-113857289D01*
X121018656Y-113857288D01*
X120928324Y-113801571D01*
X120905740Y-113783713D01*
X118477511Y-111355484D01*
X118286434Y-111216657D01*
X118075996Y-111109433D01*
X117851368Y-111036446D01*
X117618097Y-110999500D01*
X117618092Y-110999500D01*
X109585592Y-110999500D01*
X108867597Y-110999500D01*
X108800558Y-110979815D01*
X108779916Y-110963181D01*
X108295219Y-110478483D01*
X108261734Y-110417160D01*
X108258900Y-110390802D01*
X108258900Y-98943668D01*
X108278585Y-98876629D01*
X108331389Y-98830874D01*
X108400547Y-98820930D01*
X108458954Y-98845731D01*
X111487057Y-101197343D01*
X111527931Y-101254007D01*
X111535000Y-101295277D01*
X111535000Y-102629966D01*
X111535476Y-102673635D01*
X111535476Y-102673641D01*
X111543083Y-102760590D01*
X111558238Y-102846537D01*
X111558241Y-102846550D01*
X111580824Y-102930834D01*
X111580825Y-102930837D01*
X111610674Y-103012851D01*
X111610675Y-103012854D01*
X111610680Y-103012866D01*
X111647567Y-103091969D01*
X111691207Y-103167556D01*
X111691211Y-103167562D01*
X111691218Y-103167573D01*
X111741269Y-103239053D01*
X111781820Y-103287379D01*
X111797371Y-103305912D01*
X111859088Y-103367629D01*
X111886886Y-103390954D01*
X111925946Y-103423730D01*
X111997426Y-103473781D01*
X111997433Y-103473785D01*
X111997444Y-103473793D01*
X112073031Y-103517433D01*
X112152134Y-103554320D01*
X112234151Y-103584171D01*
X112234161Y-103584173D01*
X112234162Y-103584174D01*
X112234165Y-103584175D01*
X112253131Y-103589256D01*
X112318457Y-103606761D01*
X112404412Y-103621917D01*
X112491360Y-103629524D01*
X112535000Y-103630000D01*
X112578640Y-103629524D01*
X112665588Y-103621917D01*
X112751543Y-103606761D01*
X112835849Y-103584171D01*
X112917866Y-103554320D01*
X112996969Y-103517433D01*
X113072556Y-103473793D01*
X113144052Y-103423731D01*
X113210912Y-103367629D01*
X113272629Y-103305912D01*
X113328731Y-103239052D01*
X113368065Y-103182876D01*
X113422641Y-103139252D01*
X113469640Y-103130000D01*
X114140360Y-103130000D01*
X114207399Y-103149685D01*
X114241935Y-103182877D01*
X114281269Y-103239053D01*
X114321820Y-103287379D01*
X114337371Y-103305912D01*
X114399088Y-103367629D01*
X114426886Y-103390954D01*
X114465946Y-103423730D01*
X114537426Y-103473781D01*
X114537433Y-103473785D01*
X114537444Y-103473793D01*
X114613031Y-103517433D01*
X114692134Y-103554320D01*
X114774151Y-103584171D01*
X114774161Y-103584173D01*
X114774162Y-103584174D01*
X114774165Y-103584175D01*
X114793131Y-103589256D01*
X114858457Y-103606761D01*
X114944412Y-103621917D01*
X115031360Y-103629524D01*
X115075000Y-103630000D01*
X115118640Y-103629524D01*
X115205588Y-103621917D01*
X115291543Y-103606761D01*
X115375849Y-103584171D01*
X115457866Y-103554320D01*
X115536969Y-103517433D01*
X115612556Y-103473793D01*
X115684052Y-103423731D01*
X115750912Y-103367629D01*
X115812629Y-103305912D01*
X115868731Y-103239052D01*
X115908065Y-103182876D01*
X115962641Y-103139252D01*
X116009640Y-103130000D01*
X116680562Y-103130000D01*
X116747601Y-103149685D01*
X116782132Y-103182870D01*
X116821409Y-103238958D01*
X116821416Y-103238968D01*
X116877509Y-103305813D01*
X116877513Y-103305817D01*
X116877514Y-103305818D01*
X116939231Y-103367531D01*
X117006092Y-103423630D01*
X117077589Y-103473689D01*
X117153176Y-103517326D01*
X117232279Y-103554209D01*
X117232289Y-103554212D01*
X117232292Y-103554214D01*
X117314278Y-103584051D01*
X117314281Y-103584052D01*
X117314295Y-103584057D01*
X117398601Y-103606643D01*
X117484555Y-103621795D01*
X117484558Y-103621795D01*
X117484561Y-103621796D01*
X117571477Y-103629397D01*
X117571487Y-103629397D01*
X117571502Y-103629399D01*
X117615141Y-103629925D01*
X117658780Y-103629448D01*
X117745727Y-103621837D01*
X117831679Y-103606679D01*
X117915983Y-103584087D01*
X117997998Y-103554233D01*
X118077099Y-103517346D01*
X118152684Y-103473705D01*
X118193648Y-103445020D01*
X118224155Y-103423659D01*
X118224162Y-103423653D01*
X118224177Y-103423643D01*
X118291036Y-103367540D01*
X118352751Y-103305824D01*
X118408853Y-103238965D01*
X118458914Y-103167470D01*
X118502553Y-103091884D01*
X118539440Y-103012783D01*
X118569292Y-102930768D01*
X118591882Y-102846464D01*
X118607040Y-102760511D01*
X118614648Y-102673564D01*
X118615141Y-102629925D01*
X118615141Y-101295168D01*
X118634826Y-101228129D01*
X118663082Y-101197235D01*
X121699445Y-98839208D01*
X121764465Y-98813637D01*
X121832990Y-98827278D01*
G37*
%TD.AperFunction*%
M02*
