%TF.GenerationSoftware,KiCad,Pcbnew,9.0.6-9.0.6~ubuntu22.04.1*%
%TF.CreationDate,2025-11-25T00:54:32+02:00*%
%TF.ProjectId,pico,7069636f-2e6b-4696-9361-645f70636258,1*%
%TF.SameCoordinates,Original*%
%TF.FileFunction,Drillmap*%
%TF.FilePolarity,Positive*%
%FSLAX45Y45*%
G04 Gerber Fmt 4.5, Leading zero omitted, Abs format (unit mm)*
G04 Created by KiCad (PCBNEW 9.0.6-9.0.6~ubuntu22.04.1) date 2025-11-25 00:54:32*
%MOMM*%
%LPD*%
G01*
G04 APERTURE LIST*
%ADD10C,0.050000*%
%ADD11C,0.200000*%
%ADD12C,0.160000*%
%ADD13C,0.185000*%
%ADD14C,0.220000*%
G04 APERTURE END LIST*
D10*
X10000000Y-5000000D02*
X14000000Y-5000000D01*
X14000000Y-12495000D01*
X10000000Y-12495000D01*
X10000000Y-5000000D01*
D11*
D12*
X10670000Y-12070000D02*
X10830000Y-12230000D01*
X10830000Y-12070000D02*
X10670000Y-12230000D01*
D13*
X11357500Y-5616000D02*
G75*
G02*
X11172500Y-5616000I-92500J0D01*
G01*
X11172500Y-5616000D02*
G75*
G02*
X11357500Y-5616000I92500J0D01*
G01*
X11842500Y-5616000D02*
G75*
G02*
X11657500Y-5616000I-92500J0D01*
G01*
X11657500Y-5616000D02*
G75*
G02*
X11842500Y-5616000I92500J0D01*
G01*
D14*
X11235000Y-5203000D02*
X11235000Y-5423000D01*
X11125000Y-5313000D02*
X11345000Y-5313000D01*
X11780000Y-5203000D02*
X11780000Y-5423000D01*
X11670000Y-5313000D02*
X11890000Y-5313000D01*
D11*
X10258277Y-12808984D02*
X10258277Y-12608984D01*
X10258277Y-12608984D02*
X10305896Y-12608984D01*
X10305896Y-12608984D02*
X10334467Y-12618508D01*
X10334467Y-12618508D02*
X10353515Y-12637555D01*
X10353515Y-12637555D02*
X10363039Y-12656603D01*
X10363039Y-12656603D02*
X10372563Y-12694698D01*
X10372563Y-12694698D02*
X10372563Y-12723269D01*
X10372563Y-12723269D02*
X10363039Y-12761365D01*
X10363039Y-12761365D02*
X10353515Y-12780412D01*
X10353515Y-12780412D02*
X10334467Y-12799460D01*
X10334467Y-12799460D02*
X10305896Y-12808984D01*
X10305896Y-12808984D02*
X10258277Y-12808984D01*
X10458277Y-12808984D02*
X10458277Y-12675650D01*
X10458277Y-12713746D02*
X10467801Y-12694698D01*
X10467801Y-12694698D02*
X10477324Y-12685174D01*
X10477324Y-12685174D02*
X10496372Y-12675650D01*
X10496372Y-12675650D02*
X10515420Y-12675650D01*
X10582086Y-12808984D02*
X10582086Y-12675650D01*
X10582086Y-12608984D02*
X10572563Y-12618508D01*
X10572563Y-12618508D02*
X10582086Y-12628031D01*
X10582086Y-12628031D02*
X10591610Y-12618508D01*
X10591610Y-12618508D02*
X10582086Y-12608984D01*
X10582086Y-12608984D02*
X10582086Y-12628031D01*
X10705896Y-12808984D02*
X10686848Y-12799460D01*
X10686848Y-12799460D02*
X10677324Y-12780412D01*
X10677324Y-12780412D02*
X10677324Y-12608984D01*
X10810658Y-12808984D02*
X10791610Y-12799460D01*
X10791610Y-12799460D02*
X10782086Y-12780412D01*
X10782086Y-12780412D02*
X10782086Y-12608984D01*
X11039229Y-12808984D02*
X11039229Y-12608984D01*
X11039229Y-12608984D02*
X11105896Y-12751841D01*
X11105896Y-12751841D02*
X11172563Y-12608984D01*
X11172563Y-12608984D02*
X11172563Y-12808984D01*
X11353515Y-12808984D02*
X11353515Y-12704222D01*
X11353515Y-12704222D02*
X11343991Y-12685174D01*
X11343991Y-12685174D02*
X11324943Y-12675650D01*
X11324943Y-12675650D02*
X11286848Y-12675650D01*
X11286848Y-12675650D02*
X11267801Y-12685174D01*
X11353515Y-12799460D02*
X11334467Y-12808984D01*
X11334467Y-12808984D02*
X11286848Y-12808984D01*
X11286848Y-12808984D02*
X11267801Y-12799460D01*
X11267801Y-12799460D02*
X11258277Y-12780412D01*
X11258277Y-12780412D02*
X11258277Y-12761365D01*
X11258277Y-12761365D02*
X11267801Y-12742317D01*
X11267801Y-12742317D02*
X11286848Y-12732793D01*
X11286848Y-12732793D02*
X11334467Y-12732793D01*
X11334467Y-12732793D02*
X11353515Y-12723269D01*
X11448753Y-12675650D02*
X11448753Y-12875650D01*
X11448753Y-12685174D02*
X11467801Y-12675650D01*
X11467801Y-12675650D02*
X11505896Y-12675650D01*
X11505896Y-12675650D02*
X11524943Y-12685174D01*
X11524943Y-12685174D02*
X11534467Y-12694698D01*
X11534467Y-12694698D02*
X11543991Y-12713746D01*
X11543991Y-12713746D02*
X11543991Y-12770888D01*
X11543991Y-12770888D02*
X11534467Y-12789936D01*
X11534467Y-12789936D02*
X11524943Y-12799460D01*
X11524943Y-12799460D02*
X11505896Y-12808984D01*
X11505896Y-12808984D02*
X11467801Y-12808984D01*
X11467801Y-12808984D02*
X11448753Y-12799460D01*
X11629705Y-12789936D02*
X11639229Y-12799460D01*
X11639229Y-12799460D02*
X11629705Y-12808984D01*
X11629705Y-12808984D02*
X11620182Y-12799460D01*
X11620182Y-12799460D02*
X11629705Y-12789936D01*
X11629705Y-12789936D02*
X11629705Y-12808984D01*
X11629705Y-12685174D02*
X11639229Y-12694698D01*
X11639229Y-12694698D02*
X11629705Y-12704222D01*
X11629705Y-12704222D02*
X11620182Y-12694698D01*
X11620182Y-12694698D02*
X11629705Y-12685174D01*
X11629705Y-12685174D02*
X11629705Y-12704222D01*
D12*
X9837500Y-13057500D02*
X9997500Y-13217500D01*
X9997500Y-13057500D02*
X9837500Y-13217500D01*
D11*
X10363039Y-13228984D02*
X10248753Y-13228984D01*
X10305896Y-13228984D02*
X10305896Y-13028984D01*
X10305896Y-13028984D02*
X10286848Y-13057555D01*
X10286848Y-13057555D02*
X10267801Y-13076603D01*
X10267801Y-13076603D02*
X10248753Y-13086127D01*
X10448753Y-13209936D02*
X10458277Y-13219460D01*
X10458277Y-13219460D02*
X10448753Y-13228984D01*
X10448753Y-13228984D02*
X10439229Y-13219460D01*
X10439229Y-13219460D02*
X10448753Y-13209936D01*
X10448753Y-13209936D02*
X10448753Y-13228984D01*
X10629705Y-13028984D02*
X10591610Y-13028984D01*
X10591610Y-13028984D02*
X10572563Y-13038508D01*
X10572563Y-13038508D02*
X10563039Y-13048031D01*
X10563039Y-13048031D02*
X10543991Y-13076603D01*
X10543991Y-13076603D02*
X10534467Y-13114698D01*
X10534467Y-13114698D02*
X10534467Y-13190888D01*
X10534467Y-13190888D02*
X10543991Y-13209936D01*
X10543991Y-13209936D02*
X10553515Y-13219460D01*
X10553515Y-13219460D02*
X10572563Y-13228984D01*
X10572563Y-13228984D02*
X10610658Y-13228984D01*
X10610658Y-13228984D02*
X10629705Y-13219460D01*
X10629705Y-13219460D02*
X10639229Y-13209936D01*
X10639229Y-13209936D02*
X10648753Y-13190888D01*
X10648753Y-13190888D02*
X10648753Y-13143269D01*
X10648753Y-13143269D02*
X10639229Y-13124222D01*
X10639229Y-13124222D02*
X10629705Y-13114698D01*
X10629705Y-13114698D02*
X10610658Y-13105174D01*
X10610658Y-13105174D02*
X10572563Y-13105174D01*
X10572563Y-13105174D02*
X10553515Y-13114698D01*
X10553515Y-13114698D02*
X10543991Y-13124222D01*
X10543991Y-13124222D02*
X10534467Y-13143269D01*
X10772563Y-13028984D02*
X10791610Y-13028984D01*
X10791610Y-13028984D02*
X10810658Y-13038508D01*
X10810658Y-13038508D02*
X10820182Y-13048031D01*
X10820182Y-13048031D02*
X10829705Y-13067079D01*
X10829705Y-13067079D02*
X10839229Y-13105174D01*
X10839229Y-13105174D02*
X10839229Y-13152793D01*
X10839229Y-13152793D02*
X10829705Y-13190888D01*
X10829705Y-13190888D02*
X10820182Y-13209936D01*
X10820182Y-13209936D02*
X10810658Y-13219460D01*
X10810658Y-13219460D02*
X10791610Y-13228984D01*
X10791610Y-13228984D02*
X10772563Y-13228984D01*
X10772563Y-13228984D02*
X10753515Y-13219460D01*
X10753515Y-13219460D02*
X10743991Y-13209936D01*
X10743991Y-13209936D02*
X10734467Y-13190888D01*
X10734467Y-13190888D02*
X10724944Y-13152793D01*
X10724944Y-13152793D02*
X10724944Y-13105174D01*
X10724944Y-13105174D02*
X10734467Y-13067079D01*
X10734467Y-13067079D02*
X10743991Y-13048031D01*
X10743991Y-13048031D02*
X10753515Y-13038508D01*
X10753515Y-13038508D02*
X10772563Y-13028984D01*
X10963039Y-13028984D02*
X10982086Y-13028984D01*
X10982086Y-13028984D02*
X11001134Y-13038508D01*
X11001134Y-13038508D02*
X11010658Y-13048031D01*
X11010658Y-13048031D02*
X11020182Y-13067079D01*
X11020182Y-13067079D02*
X11029705Y-13105174D01*
X11029705Y-13105174D02*
X11029705Y-13152793D01*
X11029705Y-13152793D02*
X11020182Y-13190888D01*
X11020182Y-13190888D02*
X11010658Y-13209936D01*
X11010658Y-13209936D02*
X11001134Y-13219460D01*
X11001134Y-13219460D02*
X10982086Y-13228984D01*
X10982086Y-13228984D02*
X10963039Y-13228984D01*
X10963039Y-13228984D02*
X10943991Y-13219460D01*
X10943991Y-13219460D02*
X10934467Y-13209936D01*
X10934467Y-13209936D02*
X10924944Y-13190888D01*
X10924944Y-13190888D02*
X10915420Y-13152793D01*
X10915420Y-13152793D02*
X10915420Y-13105174D01*
X10915420Y-13105174D02*
X10924944Y-13067079D01*
X10924944Y-13067079D02*
X10934467Y-13048031D01*
X10934467Y-13048031D02*
X10943991Y-13038508D01*
X10943991Y-13038508D02*
X10963039Y-13028984D01*
X11115420Y-13228984D02*
X11115420Y-13095650D01*
X11115420Y-13114698D02*
X11124944Y-13105174D01*
X11124944Y-13105174D02*
X11143991Y-13095650D01*
X11143991Y-13095650D02*
X11172563Y-13095650D01*
X11172563Y-13095650D02*
X11191610Y-13105174D01*
X11191610Y-13105174D02*
X11201134Y-13124222D01*
X11201134Y-13124222D02*
X11201134Y-13228984D01*
X11201134Y-13124222D02*
X11210658Y-13105174D01*
X11210658Y-13105174D02*
X11229705Y-13095650D01*
X11229705Y-13095650D02*
X11258277Y-13095650D01*
X11258277Y-13095650D02*
X11277324Y-13105174D01*
X11277324Y-13105174D02*
X11286848Y-13124222D01*
X11286848Y-13124222D02*
X11286848Y-13228984D01*
X11382086Y-13228984D02*
X11382086Y-13095650D01*
X11382086Y-13114698D02*
X11391610Y-13105174D01*
X11391610Y-13105174D02*
X11410658Y-13095650D01*
X11410658Y-13095650D02*
X11439229Y-13095650D01*
X11439229Y-13095650D02*
X11458277Y-13105174D01*
X11458277Y-13105174D02*
X11467801Y-13124222D01*
X11467801Y-13124222D02*
X11467801Y-13228984D01*
X11467801Y-13124222D02*
X11477324Y-13105174D01*
X11477324Y-13105174D02*
X11496372Y-13095650D01*
X11496372Y-13095650D02*
X11524943Y-13095650D01*
X11524943Y-13095650D02*
X11543991Y-13105174D01*
X11543991Y-13105174D02*
X11553515Y-13124222D01*
X11553515Y-13124222D02*
X11553515Y-13228984D01*
X11943991Y-13019460D02*
X11772563Y-13276603D01*
X12201134Y-13028984D02*
X12220182Y-13028984D01*
X12220182Y-13028984D02*
X12239229Y-13038508D01*
X12239229Y-13038508D02*
X12248753Y-13048031D01*
X12248753Y-13048031D02*
X12258277Y-13067079D01*
X12258277Y-13067079D02*
X12267801Y-13105174D01*
X12267801Y-13105174D02*
X12267801Y-13152793D01*
X12267801Y-13152793D02*
X12258277Y-13190888D01*
X12258277Y-13190888D02*
X12248753Y-13209936D01*
X12248753Y-13209936D02*
X12239229Y-13219460D01*
X12239229Y-13219460D02*
X12220182Y-13228984D01*
X12220182Y-13228984D02*
X12201134Y-13228984D01*
X12201134Y-13228984D02*
X12182086Y-13219460D01*
X12182086Y-13219460D02*
X12172563Y-13209936D01*
X12172563Y-13209936D02*
X12163039Y-13190888D01*
X12163039Y-13190888D02*
X12153515Y-13152793D01*
X12153515Y-13152793D02*
X12153515Y-13105174D01*
X12153515Y-13105174D02*
X12163039Y-13067079D01*
X12163039Y-13067079D02*
X12172563Y-13048031D01*
X12172563Y-13048031D02*
X12182086Y-13038508D01*
X12182086Y-13038508D02*
X12201134Y-13028984D01*
X12353515Y-13209936D02*
X12363039Y-13219460D01*
X12363039Y-13219460D02*
X12353515Y-13228984D01*
X12353515Y-13228984D02*
X12343991Y-13219460D01*
X12343991Y-13219460D02*
X12353515Y-13209936D01*
X12353515Y-13209936D02*
X12353515Y-13228984D01*
X12486848Y-13028984D02*
X12505896Y-13028984D01*
X12505896Y-13028984D02*
X12524944Y-13038508D01*
X12524944Y-13038508D02*
X12534467Y-13048031D01*
X12534467Y-13048031D02*
X12543991Y-13067079D01*
X12543991Y-13067079D02*
X12553515Y-13105174D01*
X12553515Y-13105174D02*
X12553515Y-13152793D01*
X12553515Y-13152793D02*
X12543991Y-13190888D01*
X12543991Y-13190888D02*
X12534467Y-13209936D01*
X12534467Y-13209936D02*
X12524944Y-13219460D01*
X12524944Y-13219460D02*
X12505896Y-13228984D01*
X12505896Y-13228984D02*
X12486848Y-13228984D01*
X12486848Y-13228984D02*
X12467801Y-13219460D01*
X12467801Y-13219460D02*
X12458277Y-13209936D01*
X12458277Y-13209936D02*
X12448753Y-13190888D01*
X12448753Y-13190888D02*
X12439229Y-13152793D01*
X12439229Y-13152793D02*
X12439229Y-13105174D01*
X12439229Y-13105174D02*
X12448753Y-13067079D01*
X12448753Y-13067079D02*
X12458277Y-13048031D01*
X12458277Y-13048031D02*
X12467801Y-13038508D01*
X12467801Y-13038508D02*
X12486848Y-13028984D01*
X12724944Y-13028984D02*
X12686848Y-13028984D01*
X12686848Y-13028984D02*
X12667801Y-13038508D01*
X12667801Y-13038508D02*
X12658277Y-13048031D01*
X12658277Y-13048031D02*
X12639229Y-13076603D01*
X12639229Y-13076603D02*
X12629706Y-13114698D01*
X12629706Y-13114698D02*
X12629706Y-13190888D01*
X12629706Y-13190888D02*
X12639229Y-13209936D01*
X12639229Y-13209936D02*
X12648753Y-13219460D01*
X12648753Y-13219460D02*
X12667801Y-13228984D01*
X12667801Y-13228984D02*
X12705896Y-13228984D01*
X12705896Y-13228984D02*
X12724944Y-13219460D01*
X12724944Y-13219460D02*
X12734467Y-13209936D01*
X12734467Y-13209936D02*
X12743991Y-13190888D01*
X12743991Y-13190888D02*
X12743991Y-13143269D01*
X12743991Y-13143269D02*
X12734467Y-13124222D01*
X12734467Y-13124222D02*
X12724944Y-13114698D01*
X12724944Y-13114698D02*
X12705896Y-13105174D01*
X12705896Y-13105174D02*
X12667801Y-13105174D01*
X12667801Y-13105174D02*
X12648753Y-13114698D01*
X12648753Y-13114698D02*
X12639229Y-13124222D01*
X12639229Y-13124222D02*
X12629706Y-13143269D01*
X12810658Y-13028984D02*
X12934467Y-13028984D01*
X12934467Y-13028984D02*
X12867801Y-13105174D01*
X12867801Y-13105174D02*
X12896372Y-13105174D01*
X12896372Y-13105174D02*
X12915420Y-13114698D01*
X12915420Y-13114698D02*
X12924944Y-13124222D01*
X12924944Y-13124222D02*
X12934467Y-13143269D01*
X12934467Y-13143269D02*
X12934467Y-13190888D01*
X12934467Y-13190888D02*
X12924944Y-13209936D01*
X12924944Y-13209936D02*
X12915420Y-13219460D01*
X12915420Y-13219460D02*
X12896372Y-13228984D01*
X12896372Y-13228984D02*
X12839229Y-13228984D01*
X12839229Y-13228984D02*
X12820182Y-13219460D01*
X12820182Y-13219460D02*
X12810658Y-13209936D01*
X13058277Y-13028984D02*
X13077325Y-13028984D01*
X13077325Y-13028984D02*
X13096372Y-13038508D01*
X13096372Y-13038508D02*
X13105896Y-13048031D01*
X13105896Y-13048031D02*
X13115420Y-13067079D01*
X13115420Y-13067079D02*
X13124944Y-13105174D01*
X13124944Y-13105174D02*
X13124944Y-13152793D01*
X13124944Y-13152793D02*
X13115420Y-13190888D01*
X13115420Y-13190888D02*
X13105896Y-13209936D01*
X13105896Y-13209936D02*
X13096372Y-13219460D01*
X13096372Y-13219460D02*
X13077325Y-13228984D01*
X13077325Y-13228984D02*
X13058277Y-13228984D01*
X13058277Y-13228984D02*
X13039229Y-13219460D01*
X13039229Y-13219460D02*
X13029706Y-13209936D01*
X13029706Y-13209936D02*
X13020182Y-13190888D01*
X13020182Y-13190888D02*
X13010658Y-13152793D01*
X13010658Y-13152793D02*
X13010658Y-13105174D01*
X13010658Y-13105174D02*
X13020182Y-13067079D01*
X13020182Y-13067079D02*
X13029706Y-13048031D01*
X13029706Y-13048031D02*
X13039229Y-13038508D01*
X13039229Y-13038508D02*
X13058277Y-13028984D01*
X13201134Y-13028984D02*
X13201134Y-13067079D01*
X13277325Y-13028984D02*
X13277325Y-13067079D01*
X13572563Y-13305174D02*
X13563039Y-13295650D01*
X13563039Y-13295650D02*
X13543991Y-13267079D01*
X13543991Y-13267079D02*
X13534468Y-13248031D01*
X13534468Y-13248031D02*
X13524944Y-13219460D01*
X13524944Y-13219460D02*
X13515420Y-13171841D01*
X13515420Y-13171841D02*
X13515420Y-13133746D01*
X13515420Y-13133746D02*
X13524944Y-13086127D01*
X13524944Y-13086127D02*
X13534468Y-13057555D01*
X13534468Y-13057555D02*
X13543991Y-13038508D01*
X13543991Y-13038508D02*
X13563039Y-13009936D01*
X13563039Y-13009936D02*
X13572563Y-13000412D01*
X13753515Y-13228984D02*
X13639229Y-13228984D01*
X13696372Y-13228984D02*
X13696372Y-13028984D01*
X13696372Y-13028984D02*
X13677325Y-13057555D01*
X13677325Y-13057555D02*
X13658277Y-13076603D01*
X13658277Y-13076603D02*
X13639229Y-13086127D01*
X13991610Y-13228984D02*
X13991610Y-13028984D01*
X14077325Y-13228984D02*
X14077325Y-13124222D01*
X14077325Y-13124222D02*
X14067801Y-13105174D01*
X14067801Y-13105174D02*
X14048753Y-13095650D01*
X14048753Y-13095650D02*
X14020182Y-13095650D01*
X14020182Y-13095650D02*
X14001134Y-13105174D01*
X14001134Y-13105174D02*
X13991610Y-13114698D01*
X14201134Y-13228984D02*
X14182087Y-13219460D01*
X14182087Y-13219460D02*
X14172563Y-13209936D01*
X14172563Y-13209936D02*
X14163039Y-13190888D01*
X14163039Y-13190888D02*
X14163039Y-13133746D01*
X14163039Y-13133746D02*
X14172563Y-13114698D01*
X14172563Y-13114698D02*
X14182087Y-13105174D01*
X14182087Y-13105174D02*
X14201134Y-13095650D01*
X14201134Y-13095650D02*
X14229706Y-13095650D01*
X14229706Y-13095650D02*
X14248753Y-13105174D01*
X14248753Y-13105174D02*
X14258277Y-13114698D01*
X14258277Y-13114698D02*
X14267801Y-13133746D01*
X14267801Y-13133746D02*
X14267801Y-13190888D01*
X14267801Y-13190888D02*
X14258277Y-13209936D01*
X14258277Y-13209936D02*
X14248753Y-13219460D01*
X14248753Y-13219460D02*
X14229706Y-13228984D01*
X14229706Y-13228984D02*
X14201134Y-13228984D01*
X14382087Y-13228984D02*
X14363039Y-13219460D01*
X14363039Y-13219460D02*
X14353515Y-13200412D01*
X14353515Y-13200412D02*
X14353515Y-13028984D01*
X14534468Y-13219460D02*
X14515420Y-13228984D01*
X14515420Y-13228984D02*
X14477325Y-13228984D01*
X14477325Y-13228984D02*
X14458277Y-13219460D01*
X14458277Y-13219460D02*
X14448753Y-13200412D01*
X14448753Y-13200412D02*
X14448753Y-13124222D01*
X14448753Y-13124222D02*
X14458277Y-13105174D01*
X14458277Y-13105174D02*
X14477325Y-13095650D01*
X14477325Y-13095650D02*
X14515420Y-13095650D01*
X14515420Y-13095650D02*
X14534468Y-13105174D01*
X14534468Y-13105174D02*
X14543991Y-13124222D01*
X14543991Y-13124222D02*
X14543991Y-13143269D01*
X14543991Y-13143269D02*
X14448753Y-13162317D01*
X14610658Y-13305174D02*
X14620182Y-13295650D01*
X14620182Y-13295650D02*
X14639230Y-13267079D01*
X14639230Y-13267079D02*
X14648753Y-13248031D01*
X14648753Y-13248031D02*
X14658277Y-13219460D01*
X14658277Y-13219460D02*
X14667801Y-13171841D01*
X14667801Y-13171841D02*
X14667801Y-13133746D01*
X14667801Y-13133746D02*
X14658277Y-13086127D01*
X14658277Y-13086127D02*
X14648753Y-13057555D01*
X14648753Y-13057555D02*
X14639230Y-13038508D01*
X14639230Y-13038508D02*
X14620182Y-13009936D01*
X14620182Y-13009936D02*
X14610658Y-13000412D01*
X14972563Y-13305174D02*
X14963039Y-13295650D01*
X14963039Y-13295650D02*
X14943991Y-13267079D01*
X14943991Y-13267079D02*
X14934468Y-13248031D01*
X14934468Y-13248031D02*
X14924944Y-13219460D01*
X14924944Y-13219460D02*
X14915420Y-13171841D01*
X14915420Y-13171841D02*
X14915420Y-13133746D01*
X14915420Y-13133746D02*
X14924944Y-13086127D01*
X14924944Y-13086127D02*
X14934468Y-13057555D01*
X14934468Y-13057555D02*
X14943991Y-13038508D01*
X14943991Y-13038508D02*
X14963039Y-13009936D01*
X14963039Y-13009936D02*
X14972563Y-13000412D01*
X15048753Y-13095650D02*
X15048753Y-13228984D01*
X15048753Y-13114698D02*
X15058277Y-13105174D01*
X15058277Y-13105174D02*
X15077325Y-13095650D01*
X15077325Y-13095650D02*
X15105896Y-13095650D01*
X15105896Y-13095650D02*
X15124944Y-13105174D01*
X15124944Y-13105174D02*
X15134468Y-13124222D01*
X15134468Y-13124222D02*
X15134468Y-13228984D01*
X15258277Y-13228984D02*
X15239230Y-13219460D01*
X15239230Y-13219460D02*
X15229706Y-13209936D01*
X15229706Y-13209936D02*
X15220182Y-13190888D01*
X15220182Y-13190888D02*
X15220182Y-13133746D01*
X15220182Y-13133746D02*
X15229706Y-13114698D01*
X15229706Y-13114698D02*
X15239230Y-13105174D01*
X15239230Y-13105174D02*
X15258277Y-13095650D01*
X15258277Y-13095650D02*
X15286849Y-13095650D01*
X15286849Y-13095650D02*
X15305896Y-13105174D01*
X15305896Y-13105174D02*
X15315420Y-13114698D01*
X15315420Y-13114698D02*
X15324944Y-13133746D01*
X15324944Y-13133746D02*
X15324944Y-13190888D01*
X15324944Y-13190888D02*
X15315420Y-13209936D01*
X15315420Y-13209936D02*
X15305896Y-13219460D01*
X15305896Y-13219460D02*
X15286849Y-13228984D01*
X15286849Y-13228984D02*
X15258277Y-13228984D01*
X15382087Y-13095650D02*
X15458277Y-13095650D01*
X15410658Y-13028984D02*
X15410658Y-13200412D01*
X15410658Y-13200412D02*
X15420182Y-13219460D01*
X15420182Y-13219460D02*
X15439230Y-13228984D01*
X15439230Y-13228984D02*
X15458277Y-13228984D01*
X15677325Y-13095650D02*
X15677325Y-13295650D01*
X15677325Y-13105174D02*
X15696372Y-13095650D01*
X15696372Y-13095650D02*
X15734468Y-13095650D01*
X15734468Y-13095650D02*
X15753515Y-13105174D01*
X15753515Y-13105174D02*
X15763039Y-13114698D01*
X15763039Y-13114698D02*
X15772563Y-13133746D01*
X15772563Y-13133746D02*
X15772563Y-13190888D01*
X15772563Y-13190888D02*
X15763039Y-13209936D01*
X15763039Y-13209936D02*
X15753515Y-13219460D01*
X15753515Y-13219460D02*
X15734468Y-13228984D01*
X15734468Y-13228984D02*
X15696372Y-13228984D01*
X15696372Y-13228984D02*
X15677325Y-13219460D01*
X15886849Y-13228984D02*
X15867801Y-13219460D01*
X15867801Y-13219460D02*
X15858277Y-13200412D01*
X15858277Y-13200412D02*
X15858277Y-13028984D01*
X16048753Y-13228984D02*
X16048753Y-13124222D01*
X16048753Y-13124222D02*
X16039230Y-13105174D01*
X16039230Y-13105174D02*
X16020182Y-13095650D01*
X16020182Y-13095650D02*
X15982087Y-13095650D01*
X15982087Y-13095650D02*
X15963039Y-13105174D01*
X16048753Y-13219460D02*
X16029706Y-13228984D01*
X16029706Y-13228984D02*
X15982087Y-13228984D01*
X15982087Y-13228984D02*
X15963039Y-13219460D01*
X15963039Y-13219460D02*
X15953515Y-13200412D01*
X15953515Y-13200412D02*
X15953515Y-13181365D01*
X15953515Y-13181365D02*
X15963039Y-13162317D01*
X15963039Y-13162317D02*
X15982087Y-13152793D01*
X15982087Y-13152793D02*
X16029706Y-13152793D01*
X16029706Y-13152793D02*
X16048753Y-13143269D01*
X16115420Y-13095650D02*
X16191611Y-13095650D01*
X16143992Y-13028984D02*
X16143992Y-13200412D01*
X16143992Y-13200412D02*
X16153515Y-13219460D01*
X16153515Y-13219460D02*
X16172563Y-13228984D01*
X16172563Y-13228984D02*
X16191611Y-13228984D01*
X16334468Y-13219460D02*
X16315420Y-13228984D01*
X16315420Y-13228984D02*
X16277325Y-13228984D01*
X16277325Y-13228984D02*
X16258277Y-13219460D01*
X16258277Y-13219460D02*
X16248753Y-13200412D01*
X16248753Y-13200412D02*
X16248753Y-13124222D01*
X16248753Y-13124222D02*
X16258277Y-13105174D01*
X16258277Y-13105174D02*
X16277325Y-13095650D01*
X16277325Y-13095650D02*
X16315420Y-13095650D01*
X16315420Y-13095650D02*
X16334468Y-13105174D01*
X16334468Y-13105174D02*
X16343992Y-13124222D01*
X16343992Y-13124222D02*
X16343992Y-13143269D01*
X16343992Y-13143269D02*
X16248753Y-13162317D01*
X16515420Y-13228984D02*
X16515420Y-13028984D01*
X16515420Y-13219460D02*
X16496373Y-13228984D01*
X16496373Y-13228984D02*
X16458277Y-13228984D01*
X16458277Y-13228984D02*
X16439230Y-13219460D01*
X16439230Y-13219460D02*
X16429706Y-13209936D01*
X16429706Y-13209936D02*
X16420182Y-13190888D01*
X16420182Y-13190888D02*
X16420182Y-13133746D01*
X16420182Y-13133746D02*
X16429706Y-13114698D01*
X16429706Y-13114698D02*
X16439230Y-13105174D01*
X16439230Y-13105174D02*
X16458277Y-13095650D01*
X16458277Y-13095650D02*
X16496373Y-13095650D01*
X16496373Y-13095650D02*
X16515420Y-13105174D01*
X16591611Y-13305174D02*
X16601134Y-13295650D01*
X16601134Y-13295650D02*
X16620182Y-13267079D01*
X16620182Y-13267079D02*
X16629706Y-13248031D01*
X16629706Y-13248031D02*
X16639230Y-13219460D01*
X16639230Y-13219460D02*
X16648753Y-13171841D01*
X16648753Y-13171841D02*
X16648753Y-13133746D01*
X16648753Y-13133746D02*
X16639230Y-13086127D01*
X16639230Y-13086127D02*
X16629706Y-13057555D01*
X16629706Y-13057555D02*
X16620182Y-13038508D01*
X16620182Y-13038508D02*
X16601134Y-13009936D01*
X16601134Y-13009936D02*
X16591611Y-13000412D01*
D13*
X9997500Y-13417500D02*
G75*
G02*
X9812500Y-13417500I-92500J0D01*
G01*
X9812500Y-13417500D02*
G75*
G02*
X9997500Y-13417500I92500J0D01*
G01*
D11*
X10363039Y-13508984D02*
X10248753Y-13508984D01*
X10305896Y-13508984D02*
X10305896Y-13308984D01*
X10305896Y-13308984D02*
X10286848Y-13337555D01*
X10286848Y-13337555D02*
X10267801Y-13356603D01*
X10267801Y-13356603D02*
X10248753Y-13366127D01*
X10448753Y-13489936D02*
X10458277Y-13499460D01*
X10458277Y-13499460D02*
X10448753Y-13508984D01*
X10448753Y-13508984D02*
X10439229Y-13499460D01*
X10439229Y-13499460D02*
X10448753Y-13489936D01*
X10448753Y-13489936D02*
X10448753Y-13508984D01*
X10572563Y-13394698D02*
X10553515Y-13385174D01*
X10553515Y-13385174D02*
X10543991Y-13375650D01*
X10543991Y-13375650D02*
X10534467Y-13356603D01*
X10534467Y-13356603D02*
X10534467Y-13347079D01*
X10534467Y-13347079D02*
X10543991Y-13328031D01*
X10543991Y-13328031D02*
X10553515Y-13318508D01*
X10553515Y-13318508D02*
X10572563Y-13308984D01*
X10572563Y-13308984D02*
X10610658Y-13308984D01*
X10610658Y-13308984D02*
X10629705Y-13318508D01*
X10629705Y-13318508D02*
X10639229Y-13328031D01*
X10639229Y-13328031D02*
X10648753Y-13347079D01*
X10648753Y-13347079D02*
X10648753Y-13356603D01*
X10648753Y-13356603D02*
X10639229Y-13375650D01*
X10639229Y-13375650D02*
X10629705Y-13385174D01*
X10629705Y-13385174D02*
X10610658Y-13394698D01*
X10610658Y-13394698D02*
X10572563Y-13394698D01*
X10572563Y-13394698D02*
X10553515Y-13404222D01*
X10553515Y-13404222D02*
X10543991Y-13413746D01*
X10543991Y-13413746D02*
X10534467Y-13432793D01*
X10534467Y-13432793D02*
X10534467Y-13470888D01*
X10534467Y-13470888D02*
X10543991Y-13489936D01*
X10543991Y-13489936D02*
X10553515Y-13499460D01*
X10553515Y-13499460D02*
X10572563Y-13508984D01*
X10572563Y-13508984D02*
X10610658Y-13508984D01*
X10610658Y-13508984D02*
X10629705Y-13499460D01*
X10629705Y-13499460D02*
X10639229Y-13489936D01*
X10639229Y-13489936D02*
X10648753Y-13470888D01*
X10648753Y-13470888D02*
X10648753Y-13432793D01*
X10648753Y-13432793D02*
X10639229Y-13413746D01*
X10639229Y-13413746D02*
X10629705Y-13404222D01*
X10629705Y-13404222D02*
X10610658Y-13394698D01*
X10829705Y-13308984D02*
X10734467Y-13308984D01*
X10734467Y-13308984D02*
X10724944Y-13404222D01*
X10724944Y-13404222D02*
X10734467Y-13394698D01*
X10734467Y-13394698D02*
X10753515Y-13385174D01*
X10753515Y-13385174D02*
X10801134Y-13385174D01*
X10801134Y-13385174D02*
X10820182Y-13394698D01*
X10820182Y-13394698D02*
X10829705Y-13404222D01*
X10829705Y-13404222D02*
X10839229Y-13423269D01*
X10839229Y-13423269D02*
X10839229Y-13470888D01*
X10839229Y-13470888D02*
X10829705Y-13489936D01*
X10829705Y-13489936D02*
X10820182Y-13499460D01*
X10820182Y-13499460D02*
X10801134Y-13508984D01*
X10801134Y-13508984D02*
X10753515Y-13508984D01*
X10753515Y-13508984D02*
X10734467Y-13499460D01*
X10734467Y-13499460D02*
X10724944Y-13489936D01*
X10963039Y-13308984D02*
X10982086Y-13308984D01*
X10982086Y-13308984D02*
X11001134Y-13318508D01*
X11001134Y-13318508D02*
X11010658Y-13328031D01*
X11010658Y-13328031D02*
X11020182Y-13347079D01*
X11020182Y-13347079D02*
X11029705Y-13385174D01*
X11029705Y-13385174D02*
X11029705Y-13432793D01*
X11029705Y-13432793D02*
X11020182Y-13470888D01*
X11020182Y-13470888D02*
X11010658Y-13489936D01*
X11010658Y-13489936D02*
X11001134Y-13499460D01*
X11001134Y-13499460D02*
X10982086Y-13508984D01*
X10982086Y-13508984D02*
X10963039Y-13508984D01*
X10963039Y-13508984D02*
X10943991Y-13499460D01*
X10943991Y-13499460D02*
X10934467Y-13489936D01*
X10934467Y-13489936D02*
X10924944Y-13470888D01*
X10924944Y-13470888D02*
X10915420Y-13432793D01*
X10915420Y-13432793D02*
X10915420Y-13385174D01*
X10915420Y-13385174D02*
X10924944Y-13347079D01*
X10924944Y-13347079D02*
X10934467Y-13328031D01*
X10934467Y-13328031D02*
X10943991Y-13318508D01*
X10943991Y-13318508D02*
X10963039Y-13308984D01*
X11115420Y-13508984D02*
X11115420Y-13375650D01*
X11115420Y-13394698D02*
X11124944Y-13385174D01*
X11124944Y-13385174D02*
X11143991Y-13375650D01*
X11143991Y-13375650D02*
X11172563Y-13375650D01*
X11172563Y-13375650D02*
X11191610Y-13385174D01*
X11191610Y-13385174D02*
X11201134Y-13404222D01*
X11201134Y-13404222D02*
X11201134Y-13508984D01*
X11201134Y-13404222D02*
X11210658Y-13385174D01*
X11210658Y-13385174D02*
X11229705Y-13375650D01*
X11229705Y-13375650D02*
X11258277Y-13375650D01*
X11258277Y-13375650D02*
X11277324Y-13385174D01*
X11277324Y-13385174D02*
X11286848Y-13404222D01*
X11286848Y-13404222D02*
X11286848Y-13508984D01*
X11382086Y-13508984D02*
X11382086Y-13375650D01*
X11382086Y-13394698D02*
X11391610Y-13385174D01*
X11391610Y-13385174D02*
X11410658Y-13375650D01*
X11410658Y-13375650D02*
X11439229Y-13375650D01*
X11439229Y-13375650D02*
X11458277Y-13385174D01*
X11458277Y-13385174D02*
X11467801Y-13404222D01*
X11467801Y-13404222D02*
X11467801Y-13508984D01*
X11467801Y-13404222D02*
X11477324Y-13385174D01*
X11477324Y-13385174D02*
X11496372Y-13375650D01*
X11496372Y-13375650D02*
X11524943Y-13375650D01*
X11524943Y-13375650D02*
X11543991Y-13385174D01*
X11543991Y-13385174D02*
X11553515Y-13404222D01*
X11553515Y-13404222D02*
X11553515Y-13508984D01*
X11943991Y-13299460D02*
X11772563Y-13556603D01*
X12201134Y-13308984D02*
X12220182Y-13308984D01*
X12220182Y-13308984D02*
X12239229Y-13318508D01*
X12239229Y-13318508D02*
X12248753Y-13328031D01*
X12248753Y-13328031D02*
X12258277Y-13347079D01*
X12258277Y-13347079D02*
X12267801Y-13385174D01*
X12267801Y-13385174D02*
X12267801Y-13432793D01*
X12267801Y-13432793D02*
X12258277Y-13470888D01*
X12258277Y-13470888D02*
X12248753Y-13489936D01*
X12248753Y-13489936D02*
X12239229Y-13499460D01*
X12239229Y-13499460D02*
X12220182Y-13508984D01*
X12220182Y-13508984D02*
X12201134Y-13508984D01*
X12201134Y-13508984D02*
X12182086Y-13499460D01*
X12182086Y-13499460D02*
X12172563Y-13489936D01*
X12172563Y-13489936D02*
X12163039Y-13470888D01*
X12163039Y-13470888D02*
X12153515Y-13432793D01*
X12153515Y-13432793D02*
X12153515Y-13385174D01*
X12153515Y-13385174D02*
X12163039Y-13347079D01*
X12163039Y-13347079D02*
X12172563Y-13328031D01*
X12172563Y-13328031D02*
X12182086Y-13318508D01*
X12182086Y-13318508D02*
X12201134Y-13308984D01*
X12353515Y-13489936D02*
X12363039Y-13499460D01*
X12363039Y-13499460D02*
X12353515Y-13508984D01*
X12353515Y-13508984D02*
X12343991Y-13499460D01*
X12343991Y-13499460D02*
X12353515Y-13489936D01*
X12353515Y-13489936D02*
X12353515Y-13508984D01*
X12486848Y-13308984D02*
X12505896Y-13308984D01*
X12505896Y-13308984D02*
X12524944Y-13318508D01*
X12524944Y-13318508D02*
X12534467Y-13328031D01*
X12534467Y-13328031D02*
X12543991Y-13347079D01*
X12543991Y-13347079D02*
X12553515Y-13385174D01*
X12553515Y-13385174D02*
X12553515Y-13432793D01*
X12553515Y-13432793D02*
X12543991Y-13470888D01*
X12543991Y-13470888D02*
X12534467Y-13489936D01*
X12534467Y-13489936D02*
X12524944Y-13499460D01*
X12524944Y-13499460D02*
X12505896Y-13508984D01*
X12505896Y-13508984D02*
X12486848Y-13508984D01*
X12486848Y-13508984D02*
X12467801Y-13499460D01*
X12467801Y-13499460D02*
X12458277Y-13489936D01*
X12458277Y-13489936D02*
X12448753Y-13470888D01*
X12448753Y-13470888D02*
X12439229Y-13432793D01*
X12439229Y-13432793D02*
X12439229Y-13385174D01*
X12439229Y-13385174D02*
X12448753Y-13347079D01*
X12448753Y-13347079D02*
X12458277Y-13328031D01*
X12458277Y-13328031D02*
X12467801Y-13318508D01*
X12467801Y-13318508D02*
X12486848Y-13308984D01*
X12620182Y-13308984D02*
X12753515Y-13308984D01*
X12753515Y-13308984D02*
X12667801Y-13508984D01*
X12820182Y-13328031D02*
X12829706Y-13318508D01*
X12829706Y-13318508D02*
X12848753Y-13308984D01*
X12848753Y-13308984D02*
X12896372Y-13308984D01*
X12896372Y-13308984D02*
X12915420Y-13318508D01*
X12915420Y-13318508D02*
X12924944Y-13328031D01*
X12924944Y-13328031D02*
X12934467Y-13347079D01*
X12934467Y-13347079D02*
X12934467Y-13366127D01*
X12934467Y-13366127D02*
X12924944Y-13394698D01*
X12924944Y-13394698D02*
X12810658Y-13508984D01*
X12810658Y-13508984D02*
X12934467Y-13508984D01*
X13048753Y-13394698D02*
X13029706Y-13385174D01*
X13029706Y-13385174D02*
X13020182Y-13375650D01*
X13020182Y-13375650D02*
X13010658Y-13356603D01*
X13010658Y-13356603D02*
X13010658Y-13347079D01*
X13010658Y-13347079D02*
X13020182Y-13328031D01*
X13020182Y-13328031D02*
X13029706Y-13318508D01*
X13029706Y-13318508D02*
X13048753Y-13308984D01*
X13048753Y-13308984D02*
X13086848Y-13308984D01*
X13086848Y-13308984D02*
X13105896Y-13318508D01*
X13105896Y-13318508D02*
X13115420Y-13328031D01*
X13115420Y-13328031D02*
X13124944Y-13347079D01*
X13124944Y-13347079D02*
X13124944Y-13356603D01*
X13124944Y-13356603D02*
X13115420Y-13375650D01*
X13115420Y-13375650D02*
X13105896Y-13385174D01*
X13105896Y-13385174D02*
X13086848Y-13394698D01*
X13086848Y-13394698D02*
X13048753Y-13394698D01*
X13048753Y-13394698D02*
X13029706Y-13404222D01*
X13029706Y-13404222D02*
X13020182Y-13413746D01*
X13020182Y-13413746D02*
X13010658Y-13432793D01*
X13010658Y-13432793D02*
X13010658Y-13470888D01*
X13010658Y-13470888D02*
X13020182Y-13489936D01*
X13020182Y-13489936D02*
X13029706Y-13499460D01*
X13029706Y-13499460D02*
X13048753Y-13508984D01*
X13048753Y-13508984D02*
X13086848Y-13508984D01*
X13086848Y-13508984D02*
X13105896Y-13499460D01*
X13105896Y-13499460D02*
X13115420Y-13489936D01*
X13115420Y-13489936D02*
X13124944Y-13470888D01*
X13124944Y-13470888D02*
X13124944Y-13432793D01*
X13124944Y-13432793D02*
X13115420Y-13413746D01*
X13115420Y-13413746D02*
X13105896Y-13404222D01*
X13105896Y-13404222D02*
X13086848Y-13394698D01*
X13201134Y-13308984D02*
X13201134Y-13347079D01*
X13277325Y-13308984D02*
X13277325Y-13347079D01*
X13572563Y-13585174D02*
X13563039Y-13575650D01*
X13563039Y-13575650D02*
X13543991Y-13547079D01*
X13543991Y-13547079D02*
X13534468Y-13528031D01*
X13534468Y-13528031D02*
X13524944Y-13499460D01*
X13524944Y-13499460D02*
X13515420Y-13451841D01*
X13515420Y-13451841D02*
X13515420Y-13413746D01*
X13515420Y-13413746D02*
X13524944Y-13366127D01*
X13524944Y-13366127D02*
X13534468Y-13337555D01*
X13534468Y-13337555D02*
X13543991Y-13318508D01*
X13543991Y-13318508D02*
X13563039Y-13289936D01*
X13563039Y-13289936D02*
X13572563Y-13280412D01*
X13639229Y-13328031D02*
X13648753Y-13318508D01*
X13648753Y-13318508D02*
X13667801Y-13308984D01*
X13667801Y-13308984D02*
X13715420Y-13308984D01*
X13715420Y-13308984D02*
X13734468Y-13318508D01*
X13734468Y-13318508D02*
X13743991Y-13328031D01*
X13743991Y-13328031D02*
X13753515Y-13347079D01*
X13753515Y-13347079D02*
X13753515Y-13366127D01*
X13753515Y-13366127D02*
X13743991Y-13394698D01*
X13743991Y-13394698D02*
X13629706Y-13508984D01*
X13629706Y-13508984D02*
X13753515Y-13508984D01*
X13991610Y-13508984D02*
X13991610Y-13308984D01*
X14077325Y-13508984D02*
X14077325Y-13404222D01*
X14077325Y-13404222D02*
X14067801Y-13385174D01*
X14067801Y-13385174D02*
X14048753Y-13375650D01*
X14048753Y-13375650D02*
X14020182Y-13375650D01*
X14020182Y-13375650D02*
X14001134Y-13385174D01*
X14001134Y-13385174D02*
X13991610Y-13394698D01*
X14201134Y-13508984D02*
X14182087Y-13499460D01*
X14182087Y-13499460D02*
X14172563Y-13489936D01*
X14172563Y-13489936D02*
X14163039Y-13470888D01*
X14163039Y-13470888D02*
X14163039Y-13413746D01*
X14163039Y-13413746D02*
X14172563Y-13394698D01*
X14172563Y-13394698D02*
X14182087Y-13385174D01*
X14182087Y-13385174D02*
X14201134Y-13375650D01*
X14201134Y-13375650D02*
X14229706Y-13375650D01*
X14229706Y-13375650D02*
X14248753Y-13385174D01*
X14248753Y-13385174D02*
X14258277Y-13394698D01*
X14258277Y-13394698D02*
X14267801Y-13413746D01*
X14267801Y-13413746D02*
X14267801Y-13470888D01*
X14267801Y-13470888D02*
X14258277Y-13489936D01*
X14258277Y-13489936D02*
X14248753Y-13499460D01*
X14248753Y-13499460D02*
X14229706Y-13508984D01*
X14229706Y-13508984D02*
X14201134Y-13508984D01*
X14382087Y-13508984D02*
X14363039Y-13499460D01*
X14363039Y-13499460D02*
X14353515Y-13480412D01*
X14353515Y-13480412D02*
X14353515Y-13308984D01*
X14534468Y-13499460D02*
X14515420Y-13508984D01*
X14515420Y-13508984D02*
X14477325Y-13508984D01*
X14477325Y-13508984D02*
X14458277Y-13499460D01*
X14458277Y-13499460D02*
X14448753Y-13480412D01*
X14448753Y-13480412D02*
X14448753Y-13404222D01*
X14448753Y-13404222D02*
X14458277Y-13385174D01*
X14458277Y-13385174D02*
X14477325Y-13375650D01*
X14477325Y-13375650D02*
X14515420Y-13375650D01*
X14515420Y-13375650D02*
X14534468Y-13385174D01*
X14534468Y-13385174D02*
X14543991Y-13404222D01*
X14543991Y-13404222D02*
X14543991Y-13423269D01*
X14543991Y-13423269D02*
X14448753Y-13442317D01*
X14620182Y-13499460D02*
X14639230Y-13508984D01*
X14639230Y-13508984D02*
X14677325Y-13508984D01*
X14677325Y-13508984D02*
X14696372Y-13499460D01*
X14696372Y-13499460D02*
X14705896Y-13480412D01*
X14705896Y-13480412D02*
X14705896Y-13470888D01*
X14705896Y-13470888D02*
X14696372Y-13451841D01*
X14696372Y-13451841D02*
X14677325Y-13442317D01*
X14677325Y-13442317D02*
X14648753Y-13442317D01*
X14648753Y-13442317D02*
X14629706Y-13432793D01*
X14629706Y-13432793D02*
X14620182Y-13413746D01*
X14620182Y-13413746D02*
X14620182Y-13404222D01*
X14620182Y-13404222D02*
X14629706Y-13385174D01*
X14629706Y-13385174D02*
X14648753Y-13375650D01*
X14648753Y-13375650D02*
X14677325Y-13375650D01*
X14677325Y-13375650D02*
X14696372Y-13385174D01*
X14772563Y-13585174D02*
X14782087Y-13575650D01*
X14782087Y-13575650D02*
X14801134Y-13547079D01*
X14801134Y-13547079D02*
X14810658Y-13528031D01*
X14810658Y-13528031D02*
X14820182Y-13499460D01*
X14820182Y-13499460D02*
X14829706Y-13451841D01*
X14829706Y-13451841D02*
X14829706Y-13413746D01*
X14829706Y-13413746D02*
X14820182Y-13366127D01*
X14820182Y-13366127D02*
X14810658Y-13337555D01*
X14810658Y-13337555D02*
X14801134Y-13318508D01*
X14801134Y-13318508D02*
X14782087Y-13289936D01*
X14782087Y-13289936D02*
X14772563Y-13280412D01*
X15134468Y-13585174D02*
X15124944Y-13575650D01*
X15124944Y-13575650D02*
X15105896Y-13547079D01*
X15105896Y-13547079D02*
X15096372Y-13528031D01*
X15096372Y-13528031D02*
X15086849Y-13499460D01*
X15086849Y-13499460D02*
X15077325Y-13451841D01*
X15077325Y-13451841D02*
X15077325Y-13413746D01*
X15077325Y-13413746D02*
X15086849Y-13366127D01*
X15086849Y-13366127D02*
X15096372Y-13337555D01*
X15096372Y-13337555D02*
X15105896Y-13318508D01*
X15105896Y-13318508D02*
X15124944Y-13289936D01*
X15124944Y-13289936D02*
X15134468Y-13280412D01*
X15210658Y-13375650D02*
X15210658Y-13508984D01*
X15210658Y-13394698D02*
X15220182Y-13385174D01*
X15220182Y-13385174D02*
X15239230Y-13375650D01*
X15239230Y-13375650D02*
X15267801Y-13375650D01*
X15267801Y-13375650D02*
X15286849Y-13385174D01*
X15286849Y-13385174D02*
X15296372Y-13404222D01*
X15296372Y-13404222D02*
X15296372Y-13508984D01*
X15420182Y-13508984D02*
X15401134Y-13499460D01*
X15401134Y-13499460D02*
X15391611Y-13489936D01*
X15391611Y-13489936D02*
X15382087Y-13470888D01*
X15382087Y-13470888D02*
X15382087Y-13413746D01*
X15382087Y-13413746D02*
X15391611Y-13394698D01*
X15391611Y-13394698D02*
X15401134Y-13385174D01*
X15401134Y-13385174D02*
X15420182Y-13375650D01*
X15420182Y-13375650D02*
X15448753Y-13375650D01*
X15448753Y-13375650D02*
X15467801Y-13385174D01*
X15467801Y-13385174D02*
X15477325Y-13394698D01*
X15477325Y-13394698D02*
X15486849Y-13413746D01*
X15486849Y-13413746D02*
X15486849Y-13470888D01*
X15486849Y-13470888D02*
X15477325Y-13489936D01*
X15477325Y-13489936D02*
X15467801Y-13499460D01*
X15467801Y-13499460D02*
X15448753Y-13508984D01*
X15448753Y-13508984D02*
X15420182Y-13508984D01*
X15543992Y-13375650D02*
X15620182Y-13375650D01*
X15572563Y-13308984D02*
X15572563Y-13480412D01*
X15572563Y-13480412D02*
X15582087Y-13499460D01*
X15582087Y-13499460D02*
X15601134Y-13508984D01*
X15601134Y-13508984D02*
X15620182Y-13508984D01*
X15839230Y-13375650D02*
X15839230Y-13575650D01*
X15839230Y-13385174D02*
X15858277Y-13375650D01*
X15858277Y-13375650D02*
X15896373Y-13375650D01*
X15896373Y-13375650D02*
X15915420Y-13385174D01*
X15915420Y-13385174D02*
X15924944Y-13394698D01*
X15924944Y-13394698D02*
X15934468Y-13413746D01*
X15934468Y-13413746D02*
X15934468Y-13470888D01*
X15934468Y-13470888D02*
X15924944Y-13489936D01*
X15924944Y-13489936D02*
X15915420Y-13499460D01*
X15915420Y-13499460D02*
X15896373Y-13508984D01*
X15896373Y-13508984D02*
X15858277Y-13508984D01*
X15858277Y-13508984D02*
X15839230Y-13499460D01*
X16048753Y-13508984D02*
X16029706Y-13499460D01*
X16029706Y-13499460D02*
X16020182Y-13480412D01*
X16020182Y-13480412D02*
X16020182Y-13308984D01*
X16210658Y-13508984D02*
X16210658Y-13404222D01*
X16210658Y-13404222D02*
X16201134Y-13385174D01*
X16201134Y-13385174D02*
X16182087Y-13375650D01*
X16182087Y-13375650D02*
X16143992Y-13375650D01*
X16143992Y-13375650D02*
X16124944Y-13385174D01*
X16210658Y-13499460D02*
X16191611Y-13508984D01*
X16191611Y-13508984D02*
X16143992Y-13508984D01*
X16143992Y-13508984D02*
X16124944Y-13499460D01*
X16124944Y-13499460D02*
X16115420Y-13480412D01*
X16115420Y-13480412D02*
X16115420Y-13461365D01*
X16115420Y-13461365D02*
X16124944Y-13442317D01*
X16124944Y-13442317D02*
X16143992Y-13432793D01*
X16143992Y-13432793D02*
X16191611Y-13432793D01*
X16191611Y-13432793D02*
X16210658Y-13423269D01*
X16277325Y-13375650D02*
X16353515Y-13375650D01*
X16305896Y-13308984D02*
X16305896Y-13480412D01*
X16305896Y-13480412D02*
X16315420Y-13499460D01*
X16315420Y-13499460D02*
X16334468Y-13508984D01*
X16334468Y-13508984D02*
X16353515Y-13508984D01*
X16496373Y-13499460D02*
X16477325Y-13508984D01*
X16477325Y-13508984D02*
X16439230Y-13508984D01*
X16439230Y-13508984D02*
X16420182Y-13499460D01*
X16420182Y-13499460D02*
X16410658Y-13480412D01*
X16410658Y-13480412D02*
X16410658Y-13404222D01*
X16410658Y-13404222D02*
X16420182Y-13385174D01*
X16420182Y-13385174D02*
X16439230Y-13375650D01*
X16439230Y-13375650D02*
X16477325Y-13375650D01*
X16477325Y-13375650D02*
X16496373Y-13385174D01*
X16496373Y-13385174D02*
X16505896Y-13404222D01*
X16505896Y-13404222D02*
X16505896Y-13423269D01*
X16505896Y-13423269D02*
X16410658Y-13442317D01*
X16677325Y-13508984D02*
X16677325Y-13308984D01*
X16677325Y-13499460D02*
X16658277Y-13508984D01*
X16658277Y-13508984D02*
X16620182Y-13508984D01*
X16620182Y-13508984D02*
X16601134Y-13499460D01*
X16601134Y-13499460D02*
X16591611Y-13489936D01*
X16591611Y-13489936D02*
X16582087Y-13470888D01*
X16582087Y-13470888D02*
X16582087Y-13413746D01*
X16582087Y-13413746D02*
X16591611Y-13394698D01*
X16591611Y-13394698D02*
X16601134Y-13385174D01*
X16601134Y-13385174D02*
X16620182Y-13375650D01*
X16620182Y-13375650D02*
X16658277Y-13375650D01*
X16658277Y-13375650D02*
X16677325Y-13385174D01*
X16753515Y-13585174D02*
X16763039Y-13575650D01*
X16763039Y-13575650D02*
X16782087Y-13547079D01*
X16782087Y-13547079D02*
X16791611Y-13528031D01*
X16791611Y-13528031D02*
X16801135Y-13499460D01*
X16801135Y-13499460D02*
X16810658Y-13451841D01*
X16810658Y-13451841D02*
X16810658Y-13413746D01*
X16810658Y-13413746D02*
X16801135Y-13366127D01*
X16801135Y-13366127D02*
X16791611Y-13337555D01*
X16791611Y-13337555D02*
X16782087Y-13318508D01*
X16782087Y-13318508D02*
X16763039Y-13289936D01*
X16763039Y-13289936D02*
X16753515Y-13280412D01*
X9897500Y-13622500D02*
X9897500Y-13822500D01*
X9797500Y-13722500D02*
X9997500Y-13722500D01*
X10248753Y-13633031D02*
X10258277Y-13623508D01*
X10258277Y-13623508D02*
X10277324Y-13613984D01*
X10277324Y-13613984D02*
X10324944Y-13613984D01*
X10324944Y-13613984D02*
X10343991Y-13623508D01*
X10343991Y-13623508D02*
X10353515Y-13633031D01*
X10353515Y-13633031D02*
X10363039Y-13652079D01*
X10363039Y-13652079D02*
X10363039Y-13671127D01*
X10363039Y-13671127D02*
X10353515Y-13699698D01*
X10353515Y-13699698D02*
X10239229Y-13813984D01*
X10239229Y-13813984D02*
X10363039Y-13813984D01*
X10448753Y-13794936D02*
X10458277Y-13804460D01*
X10458277Y-13804460D02*
X10448753Y-13813984D01*
X10448753Y-13813984D02*
X10439229Y-13804460D01*
X10439229Y-13804460D02*
X10448753Y-13794936D01*
X10448753Y-13794936D02*
X10448753Y-13813984D01*
X10534467Y-13633031D02*
X10543991Y-13623508D01*
X10543991Y-13623508D02*
X10563039Y-13613984D01*
X10563039Y-13613984D02*
X10610658Y-13613984D01*
X10610658Y-13613984D02*
X10629705Y-13623508D01*
X10629705Y-13623508D02*
X10639229Y-13633031D01*
X10639229Y-13633031D02*
X10648753Y-13652079D01*
X10648753Y-13652079D02*
X10648753Y-13671127D01*
X10648753Y-13671127D02*
X10639229Y-13699698D01*
X10639229Y-13699698D02*
X10524944Y-13813984D01*
X10524944Y-13813984D02*
X10648753Y-13813984D01*
X10772563Y-13613984D02*
X10791610Y-13613984D01*
X10791610Y-13613984D02*
X10810658Y-13623508D01*
X10810658Y-13623508D02*
X10820182Y-13633031D01*
X10820182Y-13633031D02*
X10829705Y-13652079D01*
X10829705Y-13652079D02*
X10839229Y-13690174D01*
X10839229Y-13690174D02*
X10839229Y-13737793D01*
X10839229Y-13737793D02*
X10829705Y-13775888D01*
X10829705Y-13775888D02*
X10820182Y-13794936D01*
X10820182Y-13794936D02*
X10810658Y-13804460D01*
X10810658Y-13804460D02*
X10791610Y-13813984D01*
X10791610Y-13813984D02*
X10772563Y-13813984D01*
X10772563Y-13813984D02*
X10753515Y-13804460D01*
X10753515Y-13804460D02*
X10743991Y-13794936D01*
X10743991Y-13794936D02*
X10734467Y-13775888D01*
X10734467Y-13775888D02*
X10724944Y-13737793D01*
X10724944Y-13737793D02*
X10724944Y-13690174D01*
X10724944Y-13690174D02*
X10734467Y-13652079D01*
X10734467Y-13652079D02*
X10743991Y-13633031D01*
X10743991Y-13633031D02*
X10753515Y-13623508D01*
X10753515Y-13623508D02*
X10772563Y-13613984D01*
X10963039Y-13613984D02*
X10982086Y-13613984D01*
X10982086Y-13613984D02*
X11001134Y-13623508D01*
X11001134Y-13623508D02*
X11010658Y-13633031D01*
X11010658Y-13633031D02*
X11020182Y-13652079D01*
X11020182Y-13652079D02*
X11029705Y-13690174D01*
X11029705Y-13690174D02*
X11029705Y-13737793D01*
X11029705Y-13737793D02*
X11020182Y-13775888D01*
X11020182Y-13775888D02*
X11010658Y-13794936D01*
X11010658Y-13794936D02*
X11001134Y-13804460D01*
X11001134Y-13804460D02*
X10982086Y-13813984D01*
X10982086Y-13813984D02*
X10963039Y-13813984D01*
X10963039Y-13813984D02*
X10943991Y-13804460D01*
X10943991Y-13804460D02*
X10934467Y-13794936D01*
X10934467Y-13794936D02*
X10924944Y-13775888D01*
X10924944Y-13775888D02*
X10915420Y-13737793D01*
X10915420Y-13737793D02*
X10915420Y-13690174D01*
X10915420Y-13690174D02*
X10924944Y-13652079D01*
X10924944Y-13652079D02*
X10934467Y-13633031D01*
X10934467Y-13633031D02*
X10943991Y-13623508D01*
X10943991Y-13623508D02*
X10963039Y-13613984D01*
X11115420Y-13813984D02*
X11115420Y-13680650D01*
X11115420Y-13699698D02*
X11124944Y-13690174D01*
X11124944Y-13690174D02*
X11143991Y-13680650D01*
X11143991Y-13680650D02*
X11172563Y-13680650D01*
X11172563Y-13680650D02*
X11191610Y-13690174D01*
X11191610Y-13690174D02*
X11201134Y-13709222D01*
X11201134Y-13709222D02*
X11201134Y-13813984D01*
X11201134Y-13709222D02*
X11210658Y-13690174D01*
X11210658Y-13690174D02*
X11229705Y-13680650D01*
X11229705Y-13680650D02*
X11258277Y-13680650D01*
X11258277Y-13680650D02*
X11277324Y-13690174D01*
X11277324Y-13690174D02*
X11286848Y-13709222D01*
X11286848Y-13709222D02*
X11286848Y-13813984D01*
X11382086Y-13813984D02*
X11382086Y-13680650D01*
X11382086Y-13699698D02*
X11391610Y-13690174D01*
X11391610Y-13690174D02*
X11410658Y-13680650D01*
X11410658Y-13680650D02*
X11439229Y-13680650D01*
X11439229Y-13680650D02*
X11458277Y-13690174D01*
X11458277Y-13690174D02*
X11467801Y-13709222D01*
X11467801Y-13709222D02*
X11467801Y-13813984D01*
X11467801Y-13709222D02*
X11477324Y-13690174D01*
X11477324Y-13690174D02*
X11496372Y-13680650D01*
X11496372Y-13680650D02*
X11524943Y-13680650D01*
X11524943Y-13680650D02*
X11543991Y-13690174D01*
X11543991Y-13690174D02*
X11553515Y-13709222D01*
X11553515Y-13709222D02*
X11553515Y-13813984D01*
X11943991Y-13604460D02*
X11772563Y-13861603D01*
X12201134Y-13613984D02*
X12220182Y-13613984D01*
X12220182Y-13613984D02*
X12239229Y-13623508D01*
X12239229Y-13623508D02*
X12248753Y-13633031D01*
X12248753Y-13633031D02*
X12258277Y-13652079D01*
X12258277Y-13652079D02*
X12267801Y-13690174D01*
X12267801Y-13690174D02*
X12267801Y-13737793D01*
X12267801Y-13737793D02*
X12258277Y-13775888D01*
X12258277Y-13775888D02*
X12248753Y-13794936D01*
X12248753Y-13794936D02*
X12239229Y-13804460D01*
X12239229Y-13804460D02*
X12220182Y-13813984D01*
X12220182Y-13813984D02*
X12201134Y-13813984D01*
X12201134Y-13813984D02*
X12182086Y-13804460D01*
X12182086Y-13804460D02*
X12172563Y-13794936D01*
X12172563Y-13794936D02*
X12163039Y-13775888D01*
X12163039Y-13775888D02*
X12153515Y-13737793D01*
X12153515Y-13737793D02*
X12153515Y-13690174D01*
X12153515Y-13690174D02*
X12163039Y-13652079D01*
X12163039Y-13652079D02*
X12172563Y-13633031D01*
X12172563Y-13633031D02*
X12182086Y-13623508D01*
X12182086Y-13623508D02*
X12201134Y-13613984D01*
X12353515Y-13794936D02*
X12363039Y-13804460D01*
X12363039Y-13804460D02*
X12353515Y-13813984D01*
X12353515Y-13813984D02*
X12343991Y-13804460D01*
X12343991Y-13804460D02*
X12353515Y-13794936D01*
X12353515Y-13794936D02*
X12353515Y-13813984D01*
X12486848Y-13613984D02*
X12505896Y-13613984D01*
X12505896Y-13613984D02*
X12524944Y-13623508D01*
X12524944Y-13623508D02*
X12534467Y-13633031D01*
X12534467Y-13633031D02*
X12543991Y-13652079D01*
X12543991Y-13652079D02*
X12553515Y-13690174D01*
X12553515Y-13690174D02*
X12553515Y-13737793D01*
X12553515Y-13737793D02*
X12543991Y-13775888D01*
X12543991Y-13775888D02*
X12534467Y-13794936D01*
X12534467Y-13794936D02*
X12524944Y-13804460D01*
X12524944Y-13804460D02*
X12505896Y-13813984D01*
X12505896Y-13813984D02*
X12486848Y-13813984D01*
X12486848Y-13813984D02*
X12467801Y-13804460D01*
X12467801Y-13804460D02*
X12458277Y-13794936D01*
X12458277Y-13794936D02*
X12448753Y-13775888D01*
X12448753Y-13775888D02*
X12439229Y-13737793D01*
X12439229Y-13737793D02*
X12439229Y-13690174D01*
X12439229Y-13690174D02*
X12448753Y-13652079D01*
X12448753Y-13652079D02*
X12458277Y-13633031D01*
X12458277Y-13633031D02*
X12467801Y-13623508D01*
X12467801Y-13623508D02*
X12486848Y-13613984D01*
X12667801Y-13699698D02*
X12648753Y-13690174D01*
X12648753Y-13690174D02*
X12639229Y-13680650D01*
X12639229Y-13680650D02*
X12629706Y-13661603D01*
X12629706Y-13661603D02*
X12629706Y-13652079D01*
X12629706Y-13652079D02*
X12639229Y-13633031D01*
X12639229Y-13633031D02*
X12648753Y-13623508D01*
X12648753Y-13623508D02*
X12667801Y-13613984D01*
X12667801Y-13613984D02*
X12705896Y-13613984D01*
X12705896Y-13613984D02*
X12724944Y-13623508D01*
X12724944Y-13623508D02*
X12734467Y-13633031D01*
X12734467Y-13633031D02*
X12743991Y-13652079D01*
X12743991Y-13652079D02*
X12743991Y-13661603D01*
X12743991Y-13661603D02*
X12734467Y-13680650D01*
X12734467Y-13680650D02*
X12724944Y-13690174D01*
X12724944Y-13690174D02*
X12705896Y-13699698D01*
X12705896Y-13699698D02*
X12667801Y-13699698D01*
X12667801Y-13699698D02*
X12648753Y-13709222D01*
X12648753Y-13709222D02*
X12639229Y-13718746D01*
X12639229Y-13718746D02*
X12629706Y-13737793D01*
X12629706Y-13737793D02*
X12629706Y-13775888D01*
X12629706Y-13775888D02*
X12639229Y-13794936D01*
X12639229Y-13794936D02*
X12648753Y-13804460D01*
X12648753Y-13804460D02*
X12667801Y-13813984D01*
X12667801Y-13813984D02*
X12705896Y-13813984D01*
X12705896Y-13813984D02*
X12724944Y-13804460D01*
X12724944Y-13804460D02*
X12734467Y-13794936D01*
X12734467Y-13794936D02*
X12743991Y-13775888D01*
X12743991Y-13775888D02*
X12743991Y-13737793D01*
X12743991Y-13737793D02*
X12734467Y-13718746D01*
X12734467Y-13718746D02*
X12724944Y-13709222D01*
X12724944Y-13709222D02*
X12705896Y-13699698D01*
X12915420Y-13613984D02*
X12877325Y-13613984D01*
X12877325Y-13613984D02*
X12858277Y-13623508D01*
X12858277Y-13623508D02*
X12848753Y-13633031D01*
X12848753Y-13633031D02*
X12829706Y-13661603D01*
X12829706Y-13661603D02*
X12820182Y-13699698D01*
X12820182Y-13699698D02*
X12820182Y-13775888D01*
X12820182Y-13775888D02*
X12829706Y-13794936D01*
X12829706Y-13794936D02*
X12839229Y-13804460D01*
X12839229Y-13804460D02*
X12858277Y-13813984D01*
X12858277Y-13813984D02*
X12896372Y-13813984D01*
X12896372Y-13813984D02*
X12915420Y-13804460D01*
X12915420Y-13804460D02*
X12924944Y-13794936D01*
X12924944Y-13794936D02*
X12934467Y-13775888D01*
X12934467Y-13775888D02*
X12934467Y-13728269D01*
X12934467Y-13728269D02*
X12924944Y-13709222D01*
X12924944Y-13709222D02*
X12915420Y-13699698D01*
X12915420Y-13699698D02*
X12896372Y-13690174D01*
X12896372Y-13690174D02*
X12858277Y-13690174D01*
X12858277Y-13690174D02*
X12839229Y-13699698D01*
X12839229Y-13699698D02*
X12829706Y-13709222D01*
X12829706Y-13709222D02*
X12820182Y-13728269D01*
X13105896Y-13613984D02*
X13067801Y-13613984D01*
X13067801Y-13613984D02*
X13048753Y-13623508D01*
X13048753Y-13623508D02*
X13039229Y-13633031D01*
X13039229Y-13633031D02*
X13020182Y-13661603D01*
X13020182Y-13661603D02*
X13010658Y-13699698D01*
X13010658Y-13699698D02*
X13010658Y-13775888D01*
X13010658Y-13775888D02*
X13020182Y-13794936D01*
X13020182Y-13794936D02*
X13029706Y-13804460D01*
X13029706Y-13804460D02*
X13048753Y-13813984D01*
X13048753Y-13813984D02*
X13086848Y-13813984D01*
X13086848Y-13813984D02*
X13105896Y-13804460D01*
X13105896Y-13804460D02*
X13115420Y-13794936D01*
X13115420Y-13794936D02*
X13124944Y-13775888D01*
X13124944Y-13775888D02*
X13124944Y-13728269D01*
X13124944Y-13728269D02*
X13115420Y-13709222D01*
X13115420Y-13709222D02*
X13105896Y-13699698D01*
X13105896Y-13699698D02*
X13086848Y-13690174D01*
X13086848Y-13690174D02*
X13048753Y-13690174D01*
X13048753Y-13690174D02*
X13029706Y-13699698D01*
X13029706Y-13699698D02*
X13020182Y-13709222D01*
X13020182Y-13709222D02*
X13010658Y-13728269D01*
X13201134Y-13613984D02*
X13201134Y-13652079D01*
X13277325Y-13613984D02*
X13277325Y-13652079D01*
X13572563Y-13890174D02*
X13563039Y-13880650D01*
X13563039Y-13880650D02*
X13543991Y-13852079D01*
X13543991Y-13852079D02*
X13534468Y-13833031D01*
X13534468Y-13833031D02*
X13524944Y-13804460D01*
X13524944Y-13804460D02*
X13515420Y-13756841D01*
X13515420Y-13756841D02*
X13515420Y-13718746D01*
X13515420Y-13718746D02*
X13524944Y-13671127D01*
X13524944Y-13671127D02*
X13534468Y-13642555D01*
X13534468Y-13642555D02*
X13543991Y-13623508D01*
X13543991Y-13623508D02*
X13563039Y-13594936D01*
X13563039Y-13594936D02*
X13572563Y-13585412D01*
X13639229Y-13633031D02*
X13648753Y-13623508D01*
X13648753Y-13623508D02*
X13667801Y-13613984D01*
X13667801Y-13613984D02*
X13715420Y-13613984D01*
X13715420Y-13613984D02*
X13734468Y-13623508D01*
X13734468Y-13623508D02*
X13743991Y-13633031D01*
X13743991Y-13633031D02*
X13753515Y-13652079D01*
X13753515Y-13652079D02*
X13753515Y-13671127D01*
X13753515Y-13671127D02*
X13743991Y-13699698D01*
X13743991Y-13699698D02*
X13629706Y-13813984D01*
X13629706Y-13813984D02*
X13753515Y-13813984D01*
X13991610Y-13813984D02*
X13991610Y-13613984D01*
X14077325Y-13813984D02*
X14077325Y-13709222D01*
X14077325Y-13709222D02*
X14067801Y-13690174D01*
X14067801Y-13690174D02*
X14048753Y-13680650D01*
X14048753Y-13680650D02*
X14020182Y-13680650D01*
X14020182Y-13680650D02*
X14001134Y-13690174D01*
X14001134Y-13690174D02*
X13991610Y-13699698D01*
X14201134Y-13813984D02*
X14182087Y-13804460D01*
X14182087Y-13804460D02*
X14172563Y-13794936D01*
X14172563Y-13794936D02*
X14163039Y-13775888D01*
X14163039Y-13775888D02*
X14163039Y-13718746D01*
X14163039Y-13718746D02*
X14172563Y-13699698D01*
X14172563Y-13699698D02*
X14182087Y-13690174D01*
X14182087Y-13690174D02*
X14201134Y-13680650D01*
X14201134Y-13680650D02*
X14229706Y-13680650D01*
X14229706Y-13680650D02*
X14248753Y-13690174D01*
X14248753Y-13690174D02*
X14258277Y-13699698D01*
X14258277Y-13699698D02*
X14267801Y-13718746D01*
X14267801Y-13718746D02*
X14267801Y-13775888D01*
X14267801Y-13775888D02*
X14258277Y-13794936D01*
X14258277Y-13794936D02*
X14248753Y-13804460D01*
X14248753Y-13804460D02*
X14229706Y-13813984D01*
X14229706Y-13813984D02*
X14201134Y-13813984D01*
X14382087Y-13813984D02*
X14363039Y-13804460D01*
X14363039Y-13804460D02*
X14353515Y-13785412D01*
X14353515Y-13785412D02*
X14353515Y-13613984D01*
X14534468Y-13804460D02*
X14515420Y-13813984D01*
X14515420Y-13813984D02*
X14477325Y-13813984D01*
X14477325Y-13813984D02*
X14458277Y-13804460D01*
X14458277Y-13804460D02*
X14448753Y-13785412D01*
X14448753Y-13785412D02*
X14448753Y-13709222D01*
X14448753Y-13709222D02*
X14458277Y-13690174D01*
X14458277Y-13690174D02*
X14477325Y-13680650D01*
X14477325Y-13680650D02*
X14515420Y-13680650D01*
X14515420Y-13680650D02*
X14534468Y-13690174D01*
X14534468Y-13690174D02*
X14543991Y-13709222D01*
X14543991Y-13709222D02*
X14543991Y-13728269D01*
X14543991Y-13728269D02*
X14448753Y-13747317D01*
X14620182Y-13804460D02*
X14639230Y-13813984D01*
X14639230Y-13813984D02*
X14677325Y-13813984D01*
X14677325Y-13813984D02*
X14696372Y-13804460D01*
X14696372Y-13804460D02*
X14705896Y-13785412D01*
X14705896Y-13785412D02*
X14705896Y-13775888D01*
X14705896Y-13775888D02*
X14696372Y-13756841D01*
X14696372Y-13756841D02*
X14677325Y-13747317D01*
X14677325Y-13747317D02*
X14648753Y-13747317D01*
X14648753Y-13747317D02*
X14629706Y-13737793D01*
X14629706Y-13737793D02*
X14620182Y-13718746D01*
X14620182Y-13718746D02*
X14620182Y-13709222D01*
X14620182Y-13709222D02*
X14629706Y-13690174D01*
X14629706Y-13690174D02*
X14648753Y-13680650D01*
X14648753Y-13680650D02*
X14677325Y-13680650D01*
X14677325Y-13680650D02*
X14696372Y-13690174D01*
X14772563Y-13890174D02*
X14782087Y-13880650D01*
X14782087Y-13880650D02*
X14801134Y-13852079D01*
X14801134Y-13852079D02*
X14810658Y-13833031D01*
X14810658Y-13833031D02*
X14820182Y-13804460D01*
X14820182Y-13804460D02*
X14829706Y-13756841D01*
X14829706Y-13756841D02*
X14829706Y-13718746D01*
X14829706Y-13718746D02*
X14820182Y-13671127D01*
X14820182Y-13671127D02*
X14810658Y-13642555D01*
X14810658Y-13642555D02*
X14801134Y-13623508D01*
X14801134Y-13623508D02*
X14782087Y-13594936D01*
X14782087Y-13594936D02*
X14772563Y-13585412D01*
X15134468Y-13890174D02*
X15124944Y-13880650D01*
X15124944Y-13880650D02*
X15105896Y-13852079D01*
X15105896Y-13852079D02*
X15096372Y-13833031D01*
X15096372Y-13833031D02*
X15086849Y-13804460D01*
X15086849Y-13804460D02*
X15077325Y-13756841D01*
X15077325Y-13756841D02*
X15077325Y-13718746D01*
X15077325Y-13718746D02*
X15086849Y-13671127D01*
X15086849Y-13671127D02*
X15096372Y-13642555D01*
X15096372Y-13642555D02*
X15105896Y-13623508D01*
X15105896Y-13623508D02*
X15124944Y-13594936D01*
X15124944Y-13594936D02*
X15134468Y-13585412D01*
X15210658Y-13680650D02*
X15210658Y-13813984D01*
X15210658Y-13699698D02*
X15220182Y-13690174D01*
X15220182Y-13690174D02*
X15239230Y-13680650D01*
X15239230Y-13680650D02*
X15267801Y-13680650D01*
X15267801Y-13680650D02*
X15286849Y-13690174D01*
X15286849Y-13690174D02*
X15296372Y-13709222D01*
X15296372Y-13709222D02*
X15296372Y-13813984D01*
X15420182Y-13813984D02*
X15401134Y-13804460D01*
X15401134Y-13804460D02*
X15391611Y-13794936D01*
X15391611Y-13794936D02*
X15382087Y-13775888D01*
X15382087Y-13775888D02*
X15382087Y-13718746D01*
X15382087Y-13718746D02*
X15391611Y-13699698D01*
X15391611Y-13699698D02*
X15401134Y-13690174D01*
X15401134Y-13690174D02*
X15420182Y-13680650D01*
X15420182Y-13680650D02*
X15448753Y-13680650D01*
X15448753Y-13680650D02*
X15467801Y-13690174D01*
X15467801Y-13690174D02*
X15477325Y-13699698D01*
X15477325Y-13699698D02*
X15486849Y-13718746D01*
X15486849Y-13718746D02*
X15486849Y-13775888D01*
X15486849Y-13775888D02*
X15477325Y-13794936D01*
X15477325Y-13794936D02*
X15467801Y-13804460D01*
X15467801Y-13804460D02*
X15448753Y-13813984D01*
X15448753Y-13813984D02*
X15420182Y-13813984D01*
X15543992Y-13680650D02*
X15620182Y-13680650D01*
X15572563Y-13613984D02*
X15572563Y-13785412D01*
X15572563Y-13785412D02*
X15582087Y-13804460D01*
X15582087Y-13804460D02*
X15601134Y-13813984D01*
X15601134Y-13813984D02*
X15620182Y-13813984D01*
X15839230Y-13680650D02*
X15839230Y-13880650D01*
X15839230Y-13690174D02*
X15858277Y-13680650D01*
X15858277Y-13680650D02*
X15896373Y-13680650D01*
X15896373Y-13680650D02*
X15915420Y-13690174D01*
X15915420Y-13690174D02*
X15924944Y-13699698D01*
X15924944Y-13699698D02*
X15934468Y-13718746D01*
X15934468Y-13718746D02*
X15934468Y-13775888D01*
X15934468Y-13775888D02*
X15924944Y-13794936D01*
X15924944Y-13794936D02*
X15915420Y-13804460D01*
X15915420Y-13804460D02*
X15896373Y-13813984D01*
X15896373Y-13813984D02*
X15858277Y-13813984D01*
X15858277Y-13813984D02*
X15839230Y-13804460D01*
X16048753Y-13813984D02*
X16029706Y-13804460D01*
X16029706Y-13804460D02*
X16020182Y-13785412D01*
X16020182Y-13785412D02*
X16020182Y-13613984D01*
X16210658Y-13813984D02*
X16210658Y-13709222D01*
X16210658Y-13709222D02*
X16201134Y-13690174D01*
X16201134Y-13690174D02*
X16182087Y-13680650D01*
X16182087Y-13680650D02*
X16143992Y-13680650D01*
X16143992Y-13680650D02*
X16124944Y-13690174D01*
X16210658Y-13804460D02*
X16191611Y-13813984D01*
X16191611Y-13813984D02*
X16143992Y-13813984D01*
X16143992Y-13813984D02*
X16124944Y-13804460D01*
X16124944Y-13804460D02*
X16115420Y-13785412D01*
X16115420Y-13785412D02*
X16115420Y-13766365D01*
X16115420Y-13766365D02*
X16124944Y-13747317D01*
X16124944Y-13747317D02*
X16143992Y-13737793D01*
X16143992Y-13737793D02*
X16191611Y-13737793D01*
X16191611Y-13737793D02*
X16210658Y-13728269D01*
X16277325Y-13680650D02*
X16353515Y-13680650D01*
X16305896Y-13613984D02*
X16305896Y-13785412D01*
X16305896Y-13785412D02*
X16315420Y-13804460D01*
X16315420Y-13804460D02*
X16334468Y-13813984D01*
X16334468Y-13813984D02*
X16353515Y-13813984D01*
X16496373Y-13804460D02*
X16477325Y-13813984D01*
X16477325Y-13813984D02*
X16439230Y-13813984D01*
X16439230Y-13813984D02*
X16420182Y-13804460D01*
X16420182Y-13804460D02*
X16410658Y-13785412D01*
X16410658Y-13785412D02*
X16410658Y-13709222D01*
X16410658Y-13709222D02*
X16420182Y-13690174D01*
X16420182Y-13690174D02*
X16439230Y-13680650D01*
X16439230Y-13680650D02*
X16477325Y-13680650D01*
X16477325Y-13680650D02*
X16496373Y-13690174D01*
X16496373Y-13690174D02*
X16505896Y-13709222D01*
X16505896Y-13709222D02*
X16505896Y-13728269D01*
X16505896Y-13728269D02*
X16410658Y-13747317D01*
X16677325Y-13813984D02*
X16677325Y-13613984D01*
X16677325Y-13804460D02*
X16658277Y-13813984D01*
X16658277Y-13813984D02*
X16620182Y-13813984D01*
X16620182Y-13813984D02*
X16601134Y-13804460D01*
X16601134Y-13804460D02*
X16591611Y-13794936D01*
X16591611Y-13794936D02*
X16582087Y-13775888D01*
X16582087Y-13775888D02*
X16582087Y-13718746D01*
X16582087Y-13718746D02*
X16591611Y-13699698D01*
X16591611Y-13699698D02*
X16601134Y-13690174D01*
X16601134Y-13690174D02*
X16620182Y-13680650D01*
X16620182Y-13680650D02*
X16658277Y-13680650D01*
X16658277Y-13680650D02*
X16677325Y-13690174D01*
X16753515Y-13890174D02*
X16763039Y-13880650D01*
X16763039Y-13880650D02*
X16782087Y-13852079D01*
X16782087Y-13852079D02*
X16791611Y-13833031D01*
X16791611Y-13833031D02*
X16801135Y-13804460D01*
X16801135Y-13804460D02*
X16810658Y-13756841D01*
X16810658Y-13756841D02*
X16810658Y-13718746D01*
X16810658Y-13718746D02*
X16801135Y-13671127D01*
X16801135Y-13671127D02*
X16791611Y-13642555D01*
X16791611Y-13642555D02*
X16782087Y-13623508D01*
X16782087Y-13623508D02*
X16763039Y-13594936D01*
X16763039Y-13594936D02*
X16753515Y-13585412D01*
M02*
