%TF.GenerationSoftware,KiCad,Pcbnew,9.0.6-9.0.6~ubuntu22.04.1*%
%TF.CreationDate,2025-11-25T00:54:32+02:00*%
%TF.ProjectId,pico,7069636f-2e6b-4696-9361-645f70636258,1*%
%TF.SameCoordinates,Original*%
%TF.FileFunction,Drillmap*%
%TF.FilePolarity,Positive*%
%FSLAX45Y45*%
G04 Gerber Fmt 4.5, Leading zero omitted, Abs format (unit mm)*
G04 Created by KiCad (PCBNEW 9.0.6-9.0.6~ubuntu22.04.1) date 2025-11-25 00:54:32*
%MOMM*%
%LPD*%
G01*
G04 APERTURE LIST*
%ADD10C,0.050000*%
%ADD11C,0.200000*%
%ADD12C,0.100000*%
G04 APERTURE END LIST*
D10*
X10000000Y-5000000D02*
X14000000Y-5000000D01*
X14000000Y-12495000D01*
X10000000Y-12495000D01*
X10000000Y-5000000D01*
D11*
D12*
X10760130Y-6275640D02*
X10790130Y-6305640D01*
X10790130Y-6275640D02*
X10760130Y-6305640D01*
X10980030Y-5986600D02*
X11010030Y-6016600D01*
X11010030Y-5986600D02*
X10980030Y-6016600D01*
X12750990Y-6292480D02*
X12780990Y-6322480D01*
X12780990Y-6292480D02*
X12750990Y-6322480D01*
X13110320Y-6330240D02*
X13140320Y-6360240D01*
X13140320Y-6330240D02*
X13110320Y-6360240D01*
X13270310Y-8593250D02*
X13300310Y-8623250D01*
X13300310Y-8593250D02*
X13270310Y-8623250D01*
X13377470Y-7356820D02*
X13407470Y-7386820D01*
X13407470Y-7356820D02*
X13377470Y-7386820D01*
X13557360Y-6573170D02*
X13587360Y-6603170D01*
X13587360Y-6573170D02*
X13557360Y-6603170D01*
X13593760Y-7126020D02*
X13623760Y-7156020D01*
X13623760Y-7126020D02*
X13593760Y-7156020D01*
X13087500Y-5695000D02*
G75*
G02*
X13012500Y-5695000I-37500J0D01*
G01*
X13012500Y-5695000D02*
G75*
G02*
X13087500Y-5695000I37500J0D01*
G01*
X13137500Y-11800000D02*
G75*
G02*
X13062500Y-11800000I-37500J0D01*
G01*
X13062500Y-11800000D02*
G75*
G02*
X13137500Y-11800000I37500J0D01*
G01*
X13287500Y-5695000D02*
G75*
G02*
X13212500Y-5695000I-37500J0D01*
G01*
X13212500Y-5695000D02*
G75*
G02*
X13287500Y-5695000I37500J0D01*
G01*
X13337500Y-11800000D02*
G75*
G02*
X13262500Y-11800000I-37500J0D01*
G01*
X13262500Y-11800000D02*
G75*
G02*
X13337500Y-11800000I37500J0D01*
G01*
X13487500Y-5695000D02*
G75*
G02*
X13412500Y-5695000I-37500J0D01*
G01*
X13412500Y-5695000D02*
G75*
G02*
X13487500Y-5695000I37500J0D01*
G01*
X13537500Y-11800000D02*
G75*
G02*
X13462500Y-11800000I-37500J0D01*
G01*
X13462500Y-11800000D02*
G75*
G02*
X13537500Y-11800000I37500J0D01*
G01*
X13687500Y-5695000D02*
G75*
G02*
X13612500Y-5695000I-37500J0D01*
G01*
X13612500Y-5695000D02*
G75*
G02*
X13687500Y-5695000I37500J0D01*
G01*
X12000000Y-11460000D02*
X12000000Y-11540000D01*
X11960000Y-11500000D02*
X12040000Y-11500000D01*
X12250000Y-11460000D02*
X12250000Y-11540000D01*
X12210000Y-11500000D02*
X12290000Y-11500000D01*
X10335356Y-11985356D02*
X10335356Y-11914644D01*
X10264644Y-11914644D01*
X10264644Y-11985356D01*
X10335356Y-11985356D01*
X10250000Y-11875000D02*
X10250000Y-12025000D01*
X10350000Y-12025000D02*
G75*
G02*
X10250000Y-12025000I-50000J0D01*
G01*
X10350000Y-12025000D02*
X10350000Y-11875000D01*
X10350000Y-11875000D02*
G75*
G03*
X10250000Y-11875000I-50000J0D01*
G01*
X10785356Y-11285356D02*
X10785356Y-11214644D01*
X10714644Y-11214644D01*
X10714644Y-11285356D01*
X10785356Y-11285356D01*
X10650000Y-11300000D02*
X10850000Y-11300000D01*
X10850000Y-11200000D02*
G75*
G02*
X10850000Y-11300000I0J-50000D01*
G01*
X10850000Y-11200000D02*
X10650000Y-11200000D01*
X10650000Y-11200000D02*
G75*
G03*
X10650000Y-11300000I0J-50000D01*
G01*
X10785356Y-11885356D02*
X10785356Y-11814644D01*
X10714644Y-11814644D01*
X10714644Y-11885356D01*
X10785356Y-11885356D01*
X10685000Y-11900000D02*
X10815000Y-11900000D01*
X10815000Y-11800000D02*
G75*
G02*
X10815000Y-11900000I0J-50000D01*
G01*
X10815000Y-11800000D02*
X10685000Y-11800000D01*
X10685000Y-11800000D02*
G75*
G03*
X10685000Y-11900000I0J-50000D01*
G01*
X11235356Y-11985356D02*
X11235356Y-11914644D01*
X11164644Y-11914644D01*
X11164644Y-11985356D01*
X11235356Y-11985356D01*
X11150000Y-11875000D02*
X11150000Y-12025000D01*
X11250000Y-12025000D02*
G75*
G02*
X11150000Y-12025000I-50000J0D01*
G01*
X11250000Y-12025000D02*
X11250000Y-11875000D01*
X11250000Y-11875000D02*
G75*
G03*
X11150000Y-11875000I-50000J0D01*
G01*
X13435356Y-9385356D02*
X13435356Y-9314644D01*
X13364644Y-9314644D01*
X13364644Y-9385356D01*
X13435356Y-9385356D01*
X13435356Y-9639356D02*
X13435356Y-9568644D01*
X13364644Y-9568644D01*
X13364644Y-9639356D01*
X13435356Y-9639356D01*
D11*
X10258277Y-12808984D02*
X10258277Y-12608984D01*
X10258277Y-12608984D02*
X10305896Y-12608984D01*
X10305896Y-12608984D02*
X10334467Y-12618508D01*
X10334467Y-12618508D02*
X10353515Y-12637555D01*
X10353515Y-12637555D02*
X10363039Y-12656603D01*
X10363039Y-12656603D02*
X10372563Y-12694698D01*
X10372563Y-12694698D02*
X10372563Y-12723269D01*
X10372563Y-12723269D02*
X10363039Y-12761365D01*
X10363039Y-12761365D02*
X10353515Y-12780412D01*
X10353515Y-12780412D02*
X10334467Y-12799460D01*
X10334467Y-12799460D02*
X10305896Y-12808984D01*
X10305896Y-12808984D02*
X10258277Y-12808984D01*
X10458277Y-12808984D02*
X10458277Y-12675650D01*
X10458277Y-12713746D02*
X10467801Y-12694698D01*
X10467801Y-12694698D02*
X10477324Y-12685174D01*
X10477324Y-12685174D02*
X10496372Y-12675650D01*
X10496372Y-12675650D02*
X10515420Y-12675650D01*
X10582086Y-12808984D02*
X10582086Y-12675650D01*
X10582086Y-12608984D02*
X10572563Y-12618508D01*
X10572563Y-12618508D02*
X10582086Y-12628031D01*
X10582086Y-12628031D02*
X10591610Y-12618508D01*
X10591610Y-12618508D02*
X10582086Y-12608984D01*
X10582086Y-12608984D02*
X10582086Y-12628031D01*
X10705896Y-12808984D02*
X10686848Y-12799460D01*
X10686848Y-12799460D02*
X10677324Y-12780412D01*
X10677324Y-12780412D02*
X10677324Y-12608984D01*
X10810658Y-12808984D02*
X10791610Y-12799460D01*
X10791610Y-12799460D02*
X10782086Y-12780412D01*
X10782086Y-12780412D02*
X10782086Y-12608984D01*
X11039229Y-12808984D02*
X11039229Y-12608984D01*
X11039229Y-12608984D02*
X11105896Y-12751841D01*
X11105896Y-12751841D02*
X11172563Y-12608984D01*
X11172563Y-12608984D02*
X11172563Y-12808984D01*
X11353515Y-12808984D02*
X11353515Y-12704222D01*
X11353515Y-12704222D02*
X11343991Y-12685174D01*
X11343991Y-12685174D02*
X11324943Y-12675650D01*
X11324943Y-12675650D02*
X11286848Y-12675650D01*
X11286848Y-12675650D02*
X11267801Y-12685174D01*
X11353515Y-12799460D02*
X11334467Y-12808984D01*
X11334467Y-12808984D02*
X11286848Y-12808984D01*
X11286848Y-12808984D02*
X11267801Y-12799460D01*
X11267801Y-12799460D02*
X11258277Y-12780412D01*
X11258277Y-12780412D02*
X11258277Y-12761365D01*
X11258277Y-12761365D02*
X11267801Y-12742317D01*
X11267801Y-12742317D02*
X11286848Y-12732793D01*
X11286848Y-12732793D02*
X11334467Y-12732793D01*
X11334467Y-12732793D02*
X11353515Y-12723269D01*
X11448753Y-12675650D02*
X11448753Y-12875650D01*
X11448753Y-12685174D02*
X11467801Y-12675650D01*
X11467801Y-12675650D02*
X11505896Y-12675650D01*
X11505896Y-12675650D02*
X11524943Y-12685174D01*
X11524943Y-12685174D02*
X11534467Y-12694698D01*
X11534467Y-12694698D02*
X11543991Y-12713746D01*
X11543991Y-12713746D02*
X11543991Y-12770888D01*
X11543991Y-12770888D02*
X11534467Y-12789936D01*
X11534467Y-12789936D02*
X11524943Y-12799460D01*
X11524943Y-12799460D02*
X11505896Y-12808984D01*
X11505896Y-12808984D02*
X11467801Y-12808984D01*
X11467801Y-12808984D02*
X11448753Y-12799460D01*
X11629705Y-12789936D02*
X11639229Y-12799460D01*
X11639229Y-12799460D02*
X11629705Y-12808984D01*
X11629705Y-12808984D02*
X11620182Y-12799460D01*
X11620182Y-12799460D02*
X11629705Y-12789936D01*
X11629705Y-12789936D02*
X11629705Y-12808984D01*
X11629705Y-12685174D02*
X11639229Y-12694698D01*
X11639229Y-12694698D02*
X11629705Y-12704222D01*
X11629705Y-12704222D02*
X11620182Y-12694698D01*
X11620182Y-12694698D02*
X11629705Y-12685174D01*
X11629705Y-12685174D02*
X11629705Y-12704222D01*
D12*
X9967500Y-13122500D02*
X9997500Y-13152500D01*
X9997500Y-13122500D02*
X9967500Y-13152500D01*
D11*
X10296372Y-13028984D02*
X10315420Y-13028984D01*
X10315420Y-13028984D02*
X10334467Y-13038508D01*
X10334467Y-13038508D02*
X10343991Y-13048031D01*
X10343991Y-13048031D02*
X10353515Y-13067079D01*
X10353515Y-13067079D02*
X10363039Y-13105174D01*
X10363039Y-13105174D02*
X10363039Y-13152793D01*
X10363039Y-13152793D02*
X10353515Y-13190888D01*
X10353515Y-13190888D02*
X10343991Y-13209936D01*
X10343991Y-13209936D02*
X10334467Y-13219460D01*
X10334467Y-13219460D02*
X10315420Y-13228984D01*
X10315420Y-13228984D02*
X10296372Y-13228984D01*
X10296372Y-13228984D02*
X10277324Y-13219460D01*
X10277324Y-13219460D02*
X10267801Y-13209936D01*
X10267801Y-13209936D02*
X10258277Y-13190888D01*
X10258277Y-13190888D02*
X10248753Y-13152793D01*
X10248753Y-13152793D02*
X10248753Y-13105174D01*
X10248753Y-13105174D02*
X10258277Y-13067079D01*
X10258277Y-13067079D02*
X10267801Y-13048031D01*
X10267801Y-13048031D02*
X10277324Y-13038508D01*
X10277324Y-13038508D02*
X10296372Y-13028984D01*
X10448753Y-13209936D02*
X10458277Y-13219460D01*
X10458277Y-13219460D02*
X10448753Y-13228984D01*
X10448753Y-13228984D02*
X10439229Y-13219460D01*
X10439229Y-13219460D02*
X10448753Y-13209936D01*
X10448753Y-13209936D02*
X10448753Y-13228984D01*
X10524944Y-13028984D02*
X10648753Y-13028984D01*
X10648753Y-13028984D02*
X10582086Y-13105174D01*
X10582086Y-13105174D02*
X10610658Y-13105174D01*
X10610658Y-13105174D02*
X10629705Y-13114698D01*
X10629705Y-13114698D02*
X10639229Y-13124222D01*
X10639229Y-13124222D02*
X10648753Y-13143269D01*
X10648753Y-13143269D02*
X10648753Y-13190888D01*
X10648753Y-13190888D02*
X10639229Y-13209936D01*
X10639229Y-13209936D02*
X10629705Y-13219460D01*
X10629705Y-13219460D02*
X10610658Y-13228984D01*
X10610658Y-13228984D02*
X10553515Y-13228984D01*
X10553515Y-13228984D02*
X10534467Y-13219460D01*
X10534467Y-13219460D02*
X10524944Y-13209936D01*
X10772563Y-13028984D02*
X10791610Y-13028984D01*
X10791610Y-13028984D02*
X10810658Y-13038508D01*
X10810658Y-13038508D02*
X10820182Y-13048031D01*
X10820182Y-13048031D02*
X10829705Y-13067079D01*
X10829705Y-13067079D02*
X10839229Y-13105174D01*
X10839229Y-13105174D02*
X10839229Y-13152793D01*
X10839229Y-13152793D02*
X10829705Y-13190888D01*
X10829705Y-13190888D02*
X10820182Y-13209936D01*
X10820182Y-13209936D02*
X10810658Y-13219460D01*
X10810658Y-13219460D02*
X10791610Y-13228984D01*
X10791610Y-13228984D02*
X10772563Y-13228984D01*
X10772563Y-13228984D02*
X10753515Y-13219460D01*
X10753515Y-13219460D02*
X10743991Y-13209936D01*
X10743991Y-13209936D02*
X10734467Y-13190888D01*
X10734467Y-13190888D02*
X10724944Y-13152793D01*
X10724944Y-13152793D02*
X10724944Y-13105174D01*
X10724944Y-13105174D02*
X10734467Y-13067079D01*
X10734467Y-13067079D02*
X10743991Y-13048031D01*
X10743991Y-13048031D02*
X10753515Y-13038508D01*
X10753515Y-13038508D02*
X10772563Y-13028984D01*
X10963039Y-13028984D02*
X10982086Y-13028984D01*
X10982086Y-13028984D02*
X11001134Y-13038508D01*
X11001134Y-13038508D02*
X11010658Y-13048031D01*
X11010658Y-13048031D02*
X11020182Y-13067079D01*
X11020182Y-13067079D02*
X11029705Y-13105174D01*
X11029705Y-13105174D02*
X11029705Y-13152793D01*
X11029705Y-13152793D02*
X11020182Y-13190888D01*
X11020182Y-13190888D02*
X11010658Y-13209936D01*
X11010658Y-13209936D02*
X11001134Y-13219460D01*
X11001134Y-13219460D02*
X10982086Y-13228984D01*
X10982086Y-13228984D02*
X10963039Y-13228984D01*
X10963039Y-13228984D02*
X10943991Y-13219460D01*
X10943991Y-13219460D02*
X10934467Y-13209936D01*
X10934467Y-13209936D02*
X10924944Y-13190888D01*
X10924944Y-13190888D02*
X10915420Y-13152793D01*
X10915420Y-13152793D02*
X10915420Y-13105174D01*
X10915420Y-13105174D02*
X10924944Y-13067079D01*
X10924944Y-13067079D02*
X10934467Y-13048031D01*
X10934467Y-13048031D02*
X10943991Y-13038508D01*
X10943991Y-13038508D02*
X10963039Y-13028984D01*
X11115420Y-13228984D02*
X11115420Y-13095650D01*
X11115420Y-13114698D02*
X11124944Y-13105174D01*
X11124944Y-13105174D02*
X11143991Y-13095650D01*
X11143991Y-13095650D02*
X11172563Y-13095650D01*
X11172563Y-13095650D02*
X11191610Y-13105174D01*
X11191610Y-13105174D02*
X11201134Y-13124222D01*
X11201134Y-13124222D02*
X11201134Y-13228984D01*
X11201134Y-13124222D02*
X11210658Y-13105174D01*
X11210658Y-13105174D02*
X11229705Y-13095650D01*
X11229705Y-13095650D02*
X11258277Y-13095650D01*
X11258277Y-13095650D02*
X11277324Y-13105174D01*
X11277324Y-13105174D02*
X11286848Y-13124222D01*
X11286848Y-13124222D02*
X11286848Y-13228984D01*
X11382086Y-13228984D02*
X11382086Y-13095650D01*
X11382086Y-13114698D02*
X11391610Y-13105174D01*
X11391610Y-13105174D02*
X11410658Y-13095650D01*
X11410658Y-13095650D02*
X11439229Y-13095650D01*
X11439229Y-13095650D02*
X11458277Y-13105174D01*
X11458277Y-13105174D02*
X11467801Y-13124222D01*
X11467801Y-13124222D02*
X11467801Y-13228984D01*
X11467801Y-13124222D02*
X11477324Y-13105174D01*
X11477324Y-13105174D02*
X11496372Y-13095650D01*
X11496372Y-13095650D02*
X11524943Y-13095650D01*
X11524943Y-13095650D02*
X11543991Y-13105174D01*
X11543991Y-13105174D02*
X11553515Y-13124222D01*
X11553515Y-13124222D02*
X11553515Y-13228984D01*
X11943991Y-13019460D02*
X11772563Y-13276603D01*
X12201134Y-13028984D02*
X12220182Y-13028984D01*
X12220182Y-13028984D02*
X12239229Y-13038508D01*
X12239229Y-13038508D02*
X12248753Y-13048031D01*
X12248753Y-13048031D02*
X12258277Y-13067079D01*
X12258277Y-13067079D02*
X12267801Y-13105174D01*
X12267801Y-13105174D02*
X12267801Y-13152793D01*
X12267801Y-13152793D02*
X12258277Y-13190888D01*
X12258277Y-13190888D02*
X12248753Y-13209936D01*
X12248753Y-13209936D02*
X12239229Y-13219460D01*
X12239229Y-13219460D02*
X12220182Y-13228984D01*
X12220182Y-13228984D02*
X12201134Y-13228984D01*
X12201134Y-13228984D02*
X12182086Y-13219460D01*
X12182086Y-13219460D02*
X12172563Y-13209936D01*
X12172563Y-13209936D02*
X12163039Y-13190888D01*
X12163039Y-13190888D02*
X12153515Y-13152793D01*
X12153515Y-13152793D02*
X12153515Y-13105174D01*
X12153515Y-13105174D02*
X12163039Y-13067079D01*
X12163039Y-13067079D02*
X12172563Y-13048031D01*
X12172563Y-13048031D02*
X12182086Y-13038508D01*
X12182086Y-13038508D02*
X12201134Y-13028984D01*
X12353515Y-13209936D02*
X12363039Y-13219460D01*
X12363039Y-13219460D02*
X12353515Y-13228984D01*
X12353515Y-13228984D02*
X12343991Y-13219460D01*
X12343991Y-13219460D02*
X12353515Y-13209936D01*
X12353515Y-13209936D02*
X12353515Y-13228984D01*
X12486848Y-13028984D02*
X12505896Y-13028984D01*
X12505896Y-13028984D02*
X12524944Y-13038508D01*
X12524944Y-13038508D02*
X12534467Y-13048031D01*
X12534467Y-13048031D02*
X12543991Y-13067079D01*
X12543991Y-13067079D02*
X12553515Y-13105174D01*
X12553515Y-13105174D02*
X12553515Y-13152793D01*
X12553515Y-13152793D02*
X12543991Y-13190888D01*
X12543991Y-13190888D02*
X12534467Y-13209936D01*
X12534467Y-13209936D02*
X12524944Y-13219460D01*
X12524944Y-13219460D02*
X12505896Y-13228984D01*
X12505896Y-13228984D02*
X12486848Y-13228984D01*
X12486848Y-13228984D02*
X12467801Y-13219460D01*
X12467801Y-13219460D02*
X12458277Y-13209936D01*
X12458277Y-13209936D02*
X12448753Y-13190888D01*
X12448753Y-13190888D02*
X12439229Y-13152793D01*
X12439229Y-13152793D02*
X12439229Y-13105174D01*
X12439229Y-13105174D02*
X12448753Y-13067079D01*
X12448753Y-13067079D02*
X12458277Y-13048031D01*
X12458277Y-13048031D02*
X12467801Y-13038508D01*
X12467801Y-13038508D02*
X12486848Y-13028984D01*
X12743991Y-13228984D02*
X12629706Y-13228984D01*
X12686848Y-13228984D02*
X12686848Y-13028984D01*
X12686848Y-13028984D02*
X12667801Y-13057555D01*
X12667801Y-13057555D02*
X12648753Y-13076603D01*
X12648753Y-13076603D02*
X12629706Y-13086127D01*
X12934467Y-13228984D02*
X12820182Y-13228984D01*
X12877325Y-13228984D02*
X12877325Y-13028984D01*
X12877325Y-13028984D02*
X12858277Y-13057555D01*
X12858277Y-13057555D02*
X12839229Y-13076603D01*
X12839229Y-13076603D02*
X12820182Y-13086127D01*
X13048753Y-13114698D02*
X13029706Y-13105174D01*
X13029706Y-13105174D02*
X13020182Y-13095650D01*
X13020182Y-13095650D02*
X13010658Y-13076603D01*
X13010658Y-13076603D02*
X13010658Y-13067079D01*
X13010658Y-13067079D02*
X13020182Y-13048031D01*
X13020182Y-13048031D02*
X13029706Y-13038508D01*
X13029706Y-13038508D02*
X13048753Y-13028984D01*
X13048753Y-13028984D02*
X13086848Y-13028984D01*
X13086848Y-13028984D02*
X13105896Y-13038508D01*
X13105896Y-13038508D02*
X13115420Y-13048031D01*
X13115420Y-13048031D02*
X13124944Y-13067079D01*
X13124944Y-13067079D02*
X13124944Y-13076603D01*
X13124944Y-13076603D02*
X13115420Y-13095650D01*
X13115420Y-13095650D02*
X13105896Y-13105174D01*
X13105896Y-13105174D02*
X13086848Y-13114698D01*
X13086848Y-13114698D02*
X13048753Y-13114698D01*
X13048753Y-13114698D02*
X13029706Y-13124222D01*
X13029706Y-13124222D02*
X13020182Y-13133746D01*
X13020182Y-13133746D02*
X13010658Y-13152793D01*
X13010658Y-13152793D02*
X13010658Y-13190888D01*
X13010658Y-13190888D02*
X13020182Y-13209936D01*
X13020182Y-13209936D02*
X13029706Y-13219460D01*
X13029706Y-13219460D02*
X13048753Y-13228984D01*
X13048753Y-13228984D02*
X13086848Y-13228984D01*
X13086848Y-13228984D02*
X13105896Y-13219460D01*
X13105896Y-13219460D02*
X13115420Y-13209936D01*
X13115420Y-13209936D02*
X13124944Y-13190888D01*
X13124944Y-13190888D02*
X13124944Y-13152793D01*
X13124944Y-13152793D02*
X13115420Y-13133746D01*
X13115420Y-13133746D02*
X13105896Y-13124222D01*
X13105896Y-13124222D02*
X13086848Y-13114698D01*
X13201134Y-13028984D02*
X13201134Y-13067079D01*
X13277325Y-13028984D02*
X13277325Y-13067079D01*
X13572563Y-13305174D02*
X13563039Y-13295650D01*
X13563039Y-13295650D02*
X13543991Y-13267079D01*
X13543991Y-13267079D02*
X13534468Y-13248031D01*
X13534468Y-13248031D02*
X13524944Y-13219460D01*
X13524944Y-13219460D02*
X13515420Y-13171841D01*
X13515420Y-13171841D02*
X13515420Y-13133746D01*
X13515420Y-13133746D02*
X13524944Y-13086127D01*
X13524944Y-13086127D02*
X13534468Y-13057555D01*
X13534468Y-13057555D02*
X13543991Y-13038508D01*
X13543991Y-13038508D02*
X13563039Y-13009936D01*
X13563039Y-13009936D02*
X13572563Y-13000412D01*
X13677325Y-13114698D02*
X13658277Y-13105174D01*
X13658277Y-13105174D02*
X13648753Y-13095650D01*
X13648753Y-13095650D02*
X13639229Y-13076603D01*
X13639229Y-13076603D02*
X13639229Y-13067079D01*
X13639229Y-13067079D02*
X13648753Y-13048031D01*
X13648753Y-13048031D02*
X13658277Y-13038508D01*
X13658277Y-13038508D02*
X13677325Y-13028984D01*
X13677325Y-13028984D02*
X13715420Y-13028984D01*
X13715420Y-13028984D02*
X13734468Y-13038508D01*
X13734468Y-13038508D02*
X13743991Y-13048031D01*
X13743991Y-13048031D02*
X13753515Y-13067079D01*
X13753515Y-13067079D02*
X13753515Y-13076603D01*
X13753515Y-13076603D02*
X13743991Y-13095650D01*
X13743991Y-13095650D02*
X13734468Y-13105174D01*
X13734468Y-13105174D02*
X13715420Y-13114698D01*
X13715420Y-13114698D02*
X13677325Y-13114698D01*
X13677325Y-13114698D02*
X13658277Y-13124222D01*
X13658277Y-13124222D02*
X13648753Y-13133746D01*
X13648753Y-13133746D02*
X13639229Y-13152793D01*
X13639229Y-13152793D02*
X13639229Y-13190888D01*
X13639229Y-13190888D02*
X13648753Y-13209936D01*
X13648753Y-13209936D02*
X13658277Y-13219460D01*
X13658277Y-13219460D02*
X13677325Y-13228984D01*
X13677325Y-13228984D02*
X13715420Y-13228984D01*
X13715420Y-13228984D02*
X13734468Y-13219460D01*
X13734468Y-13219460D02*
X13743991Y-13209936D01*
X13743991Y-13209936D02*
X13753515Y-13190888D01*
X13753515Y-13190888D02*
X13753515Y-13152793D01*
X13753515Y-13152793D02*
X13743991Y-13133746D01*
X13743991Y-13133746D02*
X13734468Y-13124222D01*
X13734468Y-13124222D02*
X13715420Y-13114698D01*
X13991610Y-13228984D02*
X13991610Y-13028984D01*
X14077325Y-13228984D02*
X14077325Y-13124222D01*
X14077325Y-13124222D02*
X14067801Y-13105174D01*
X14067801Y-13105174D02*
X14048753Y-13095650D01*
X14048753Y-13095650D02*
X14020182Y-13095650D01*
X14020182Y-13095650D02*
X14001134Y-13105174D01*
X14001134Y-13105174D02*
X13991610Y-13114698D01*
X14201134Y-13228984D02*
X14182087Y-13219460D01*
X14182087Y-13219460D02*
X14172563Y-13209936D01*
X14172563Y-13209936D02*
X14163039Y-13190888D01*
X14163039Y-13190888D02*
X14163039Y-13133746D01*
X14163039Y-13133746D02*
X14172563Y-13114698D01*
X14172563Y-13114698D02*
X14182087Y-13105174D01*
X14182087Y-13105174D02*
X14201134Y-13095650D01*
X14201134Y-13095650D02*
X14229706Y-13095650D01*
X14229706Y-13095650D02*
X14248753Y-13105174D01*
X14248753Y-13105174D02*
X14258277Y-13114698D01*
X14258277Y-13114698D02*
X14267801Y-13133746D01*
X14267801Y-13133746D02*
X14267801Y-13190888D01*
X14267801Y-13190888D02*
X14258277Y-13209936D01*
X14258277Y-13209936D02*
X14248753Y-13219460D01*
X14248753Y-13219460D02*
X14229706Y-13228984D01*
X14229706Y-13228984D02*
X14201134Y-13228984D01*
X14382087Y-13228984D02*
X14363039Y-13219460D01*
X14363039Y-13219460D02*
X14353515Y-13200412D01*
X14353515Y-13200412D02*
X14353515Y-13028984D01*
X14534468Y-13219460D02*
X14515420Y-13228984D01*
X14515420Y-13228984D02*
X14477325Y-13228984D01*
X14477325Y-13228984D02*
X14458277Y-13219460D01*
X14458277Y-13219460D02*
X14448753Y-13200412D01*
X14448753Y-13200412D02*
X14448753Y-13124222D01*
X14448753Y-13124222D02*
X14458277Y-13105174D01*
X14458277Y-13105174D02*
X14477325Y-13095650D01*
X14477325Y-13095650D02*
X14515420Y-13095650D01*
X14515420Y-13095650D02*
X14534468Y-13105174D01*
X14534468Y-13105174D02*
X14543991Y-13124222D01*
X14543991Y-13124222D02*
X14543991Y-13143269D01*
X14543991Y-13143269D02*
X14448753Y-13162317D01*
X14620182Y-13219460D02*
X14639230Y-13228984D01*
X14639230Y-13228984D02*
X14677325Y-13228984D01*
X14677325Y-13228984D02*
X14696372Y-13219460D01*
X14696372Y-13219460D02*
X14705896Y-13200412D01*
X14705896Y-13200412D02*
X14705896Y-13190888D01*
X14705896Y-13190888D02*
X14696372Y-13171841D01*
X14696372Y-13171841D02*
X14677325Y-13162317D01*
X14677325Y-13162317D02*
X14648753Y-13162317D01*
X14648753Y-13162317D02*
X14629706Y-13152793D01*
X14629706Y-13152793D02*
X14620182Y-13133746D01*
X14620182Y-13133746D02*
X14620182Y-13124222D01*
X14620182Y-13124222D02*
X14629706Y-13105174D01*
X14629706Y-13105174D02*
X14648753Y-13095650D01*
X14648753Y-13095650D02*
X14677325Y-13095650D01*
X14677325Y-13095650D02*
X14696372Y-13105174D01*
X14772563Y-13305174D02*
X14782087Y-13295650D01*
X14782087Y-13295650D02*
X14801134Y-13267079D01*
X14801134Y-13267079D02*
X14810658Y-13248031D01*
X14810658Y-13248031D02*
X14820182Y-13219460D01*
X14820182Y-13219460D02*
X14829706Y-13171841D01*
X14829706Y-13171841D02*
X14829706Y-13133746D01*
X14829706Y-13133746D02*
X14820182Y-13086127D01*
X14820182Y-13086127D02*
X14810658Y-13057555D01*
X14810658Y-13057555D02*
X14801134Y-13038508D01*
X14801134Y-13038508D02*
X14782087Y-13009936D01*
X14782087Y-13009936D02*
X14772563Y-13000412D01*
D12*
X9997500Y-13401500D02*
G75*
G02*
X9922500Y-13401500I-37500J0D01*
G01*
X9922500Y-13401500D02*
G75*
G02*
X9997500Y-13401500I37500J0D01*
G01*
D11*
X10296372Y-13292984D02*
X10315420Y-13292984D01*
X10315420Y-13292984D02*
X10334467Y-13302508D01*
X10334467Y-13302508D02*
X10343991Y-13312031D01*
X10343991Y-13312031D02*
X10353515Y-13331079D01*
X10353515Y-13331079D02*
X10363039Y-13369174D01*
X10363039Y-13369174D02*
X10363039Y-13416793D01*
X10363039Y-13416793D02*
X10353515Y-13454888D01*
X10353515Y-13454888D02*
X10343991Y-13473936D01*
X10343991Y-13473936D02*
X10334467Y-13483460D01*
X10334467Y-13483460D02*
X10315420Y-13492984D01*
X10315420Y-13492984D02*
X10296372Y-13492984D01*
X10296372Y-13492984D02*
X10277324Y-13483460D01*
X10277324Y-13483460D02*
X10267801Y-13473936D01*
X10267801Y-13473936D02*
X10258277Y-13454888D01*
X10258277Y-13454888D02*
X10248753Y-13416793D01*
X10248753Y-13416793D02*
X10248753Y-13369174D01*
X10248753Y-13369174D02*
X10258277Y-13331079D01*
X10258277Y-13331079D02*
X10267801Y-13312031D01*
X10267801Y-13312031D02*
X10277324Y-13302508D01*
X10277324Y-13302508D02*
X10296372Y-13292984D01*
X10448753Y-13473936D02*
X10458277Y-13483460D01*
X10458277Y-13483460D02*
X10448753Y-13492984D01*
X10448753Y-13492984D02*
X10439229Y-13483460D01*
X10439229Y-13483460D02*
X10448753Y-13473936D01*
X10448753Y-13473936D02*
X10448753Y-13492984D01*
X10524944Y-13292984D02*
X10658277Y-13292984D01*
X10658277Y-13292984D02*
X10572563Y-13492984D01*
X10829705Y-13292984D02*
X10734467Y-13292984D01*
X10734467Y-13292984D02*
X10724944Y-13388222D01*
X10724944Y-13388222D02*
X10734467Y-13378698D01*
X10734467Y-13378698D02*
X10753515Y-13369174D01*
X10753515Y-13369174D02*
X10801134Y-13369174D01*
X10801134Y-13369174D02*
X10820182Y-13378698D01*
X10820182Y-13378698D02*
X10829705Y-13388222D01*
X10829705Y-13388222D02*
X10839229Y-13407269D01*
X10839229Y-13407269D02*
X10839229Y-13454888D01*
X10839229Y-13454888D02*
X10829705Y-13473936D01*
X10829705Y-13473936D02*
X10820182Y-13483460D01*
X10820182Y-13483460D02*
X10801134Y-13492984D01*
X10801134Y-13492984D02*
X10753515Y-13492984D01*
X10753515Y-13492984D02*
X10734467Y-13483460D01*
X10734467Y-13483460D02*
X10724944Y-13473936D01*
X10963039Y-13292984D02*
X10982086Y-13292984D01*
X10982086Y-13292984D02*
X11001134Y-13302508D01*
X11001134Y-13302508D02*
X11010658Y-13312031D01*
X11010658Y-13312031D02*
X11020182Y-13331079D01*
X11020182Y-13331079D02*
X11029705Y-13369174D01*
X11029705Y-13369174D02*
X11029705Y-13416793D01*
X11029705Y-13416793D02*
X11020182Y-13454888D01*
X11020182Y-13454888D02*
X11010658Y-13473936D01*
X11010658Y-13473936D02*
X11001134Y-13483460D01*
X11001134Y-13483460D02*
X10982086Y-13492984D01*
X10982086Y-13492984D02*
X10963039Y-13492984D01*
X10963039Y-13492984D02*
X10943991Y-13483460D01*
X10943991Y-13483460D02*
X10934467Y-13473936D01*
X10934467Y-13473936D02*
X10924944Y-13454888D01*
X10924944Y-13454888D02*
X10915420Y-13416793D01*
X10915420Y-13416793D02*
X10915420Y-13369174D01*
X10915420Y-13369174D02*
X10924944Y-13331079D01*
X10924944Y-13331079D02*
X10934467Y-13312031D01*
X10934467Y-13312031D02*
X10943991Y-13302508D01*
X10943991Y-13302508D02*
X10963039Y-13292984D01*
X11115420Y-13492984D02*
X11115420Y-13359650D01*
X11115420Y-13378698D02*
X11124944Y-13369174D01*
X11124944Y-13369174D02*
X11143991Y-13359650D01*
X11143991Y-13359650D02*
X11172563Y-13359650D01*
X11172563Y-13359650D02*
X11191610Y-13369174D01*
X11191610Y-13369174D02*
X11201134Y-13388222D01*
X11201134Y-13388222D02*
X11201134Y-13492984D01*
X11201134Y-13388222D02*
X11210658Y-13369174D01*
X11210658Y-13369174D02*
X11229705Y-13359650D01*
X11229705Y-13359650D02*
X11258277Y-13359650D01*
X11258277Y-13359650D02*
X11277324Y-13369174D01*
X11277324Y-13369174D02*
X11286848Y-13388222D01*
X11286848Y-13388222D02*
X11286848Y-13492984D01*
X11382086Y-13492984D02*
X11382086Y-13359650D01*
X11382086Y-13378698D02*
X11391610Y-13369174D01*
X11391610Y-13369174D02*
X11410658Y-13359650D01*
X11410658Y-13359650D02*
X11439229Y-13359650D01*
X11439229Y-13359650D02*
X11458277Y-13369174D01*
X11458277Y-13369174D02*
X11467801Y-13388222D01*
X11467801Y-13388222D02*
X11467801Y-13492984D01*
X11467801Y-13388222D02*
X11477324Y-13369174D01*
X11477324Y-13369174D02*
X11496372Y-13359650D01*
X11496372Y-13359650D02*
X11524943Y-13359650D01*
X11524943Y-13359650D02*
X11543991Y-13369174D01*
X11543991Y-13369174D02*
X11553515Y-13388222D01*
X11553515Y-13388222D02*
X11553515Y-13492984D01*
X11943991Y-13283460D02*
X11772563Y-13540603D01*
X12201134Y-13292984D02*
X12220182Y-13292984D01*
X12220182Y-13292984D02*
X12239229Y-13302508D01*
X12239229Y-13302508D02*
X12248753Y-13312031D01*
X12248753Y-13312031D02*
X12258277Y-13331079D01*
X12258277Y-13331079D02*
X12267801Y-13369174D01*
X12267801Y-13369174D02*
X12267801Y-13416793D01*
X12267801Y-13416793D02*
X12258277Y-13454888D01*
X12258277Y-13454888D02*
X12248753Y-13473936D01*
X12248753Y-13473936D02*
X12239229Y-13483460D01*
X12239229Y-13483460D02*
X12220182Y-13492984D01*
X12220182Y-13492984D02*
X12201134Y-13492984D01*
X12201134Y-13492984D02*
X12182086Y-13483460D01*
X12182086Y-13483460D02*
X12172563Y-13473936D01*
X12172563Y-13473936D02*
X12163039Y-13454888D01*
X12163039Y-13454888D02*
X12153515Y-13416793D01*
X12153515Y-13416793D02*
X12153515Y-13369174D01*
X12153515Y-13369174D02*
X12163039Y-13331079D01*
X12163039Y-13331079D02*
X12172563Y-13312031D01*
X12172563Y-13312031D02*
X12182086Y-13302508D01*
X12182086Y-13302508D02*
X12201134Y-13292984D01*
X12353515Y-13473936D02*
X12363039Y-13483460D01*
X12363039Y-13483460D02*
X12353515Y-13492984D01*
X12353515Y-13492984D02*
X12343991Y-13483460D01*
X12343991Y-13483460D02*
X12353515Y-13473936D01*
X12353515Y-13473936D02*
X12353515Y-13492984D01*
X12486848Y-13292984D02*
X12505896Y-13292984D01*
X12505896Y-13292984D02*
X12524944Y-13302508D01*
X12524944Y-13302508D02*
X12534467Y-13312031D01*
X12534467Y-13312031D02*
X12543991Y-13331079D01*
X12543991Y-13331079D02*
X12553515Y-13369174D01*
X12553515Y-13369174D02*
X12553515Y-13416793D01*
X12553515Y-13416793D02*
X12543991Y-13454888D01*
X12543991Y-13454888D02*
X12534467Y-13473936D01*
X12534467Y-13473936D02*
X12524944Y-13483460D01*
X12524944Y-13483460D02*
X12505896Y-13492984D01*
X12505896Y-13492984D02*
X12486848Y-13492984D01*
X12486848Y-13492984D02*
X12467801Y-13483460D01*
X12467801Y-13483460D02*
X12458277Y-13473936D01*
X12458277Y-13473936D02*
X12448753Y-13454888D01*
X12448753Y-13454888D02*
X12439229Y-13416793D01*
X12439229Y-13416793D02*
X12439229Y-13369174D01*
X12439229Y-13369174D02*
X12448753Y-13331079D01*
X12448753Y-13331079D02*
X12458277Y-13312031D01*
X12458277Y-13312031D02*
X12467801Y-13302508D01*
X12467801Y-13302508D02*
X12486848Y-13292984D01*
X12629706Y-13312031D02*
X12639229Y-13302508D01*
X12639229Y-13302508D02*
X12658277Y-13292984D01*
X12658277Y-13292984D02*
X12705896Y-13292984D01*
X12705896Y-13292984D02*
X12724944Y-13302508D01*
X12724944Y-13302508D02*
X12734467Y-13312031D01*
X12734467Y-13312031D02*
X12743991Y-13331079D01*
X12743991Y-13331079D02*
X12743991Y-13350127D01*
X12743991Y-13350127D02*
X12734467Y-13378698D01*
X12734467Y-13378698D02*
X12620182Y-13492984D01*
X12620182Y-13492984D02*
X12743991Y-13492984D01*
X12839229Y-13492984D02*
X12877325Y-13492984D01*
X12877325Y-13492984D02*
X12896372Y-13483460D01*
X12896372Y-13483460D02*
X12905896Y-13473936D01*
X12905896Y-13473936D02*
X12924944Y-13445365D01*
X12924944Y-13445365D02*
X12934467Y-13407269D01*
X12934467Y-13407269D02*
X12934467Y-13331079D01*
X12934467Y-13331079D02*
X12924944Y-13312031D01*
X12924944Y-13312031D02*
X12915420Y-13302508D01*
X12915420Y-13302508D02*
X12896372Y-13292984D01*
X12896372Y-13292984D02*
X12858277Y-13292984D01*
X12858277Y-13292984D02*
X12839229Y-13302508D01*
X12839229Y-13302508D02*
X12829706Y-13312031D01*
X12829706Y-13312031D02*
X12820182Y-13331079D01*
X12820182Y-13331079D02*
X12820182Y-13378698D01*
X12820182Y-13378698D02*
X12829706Y-13397746D01*
X12829706Y-13397746D02*
X12839229Y-13407269D01*
X12839229Y-13407269D02*
X12858277Y-13416793D01*
X12858277Y-13416793D02*
X12896372Y-13416793D01*
X12896372Y-13416793D02*
X12915420Y-13407269D01*
X12915420Y-13407269D02*
X12924944Y-13397746D01*
X12924944Y-13397746D02*
X12934467Y-13378698D01*
X13115420Y-13292984D02*
X13020182Y-13292984D01*
X13020182Y-13292984D02*
X13010658Y-13388222D01*
X13010658Y-13388222D02*
X13020182Y-13378698D01*
X13020182Y-13378698D02*
X13039229Y-13369174D01*
X13039229Y-13369174D02*
X13086848Y-13369174D01*
X13086848Y-13369174D02*
X13105896Y-13378698D01*
X13105896Y-13378698D02*
X13115420Y-13388222D01*
X13115420Y-13388222D02*
X13124944Y-13407269D01*
X13124944Y-13407269D02*
X13124944Y-13454888D01*
X13124944Y-13454888D02*
X13115420Y-13473936D01*
X13115420Y-13473936D02*
X13105896Y-13483460D01*
X13105896Y-13483460D02*
X13086848Y-13492984D01*
X13086848Y-13492984D02*
X13039229Y-13492984D01*
X13039229Y-13492984D02*
X13020182Y-13483460D01*
X13020182Y-13483460D02*
X13010658Y-13473936D01*
X13201134Y-13292984D02*
X13201134Y-13331079D01*
X13277325Y-13292984D02*
X13277325Y-13331079D01*
X13572563Y-13569174D02*
X13563039Y-13559650D01*
X13563039Y-13559650D02*
X13543991Y-13531079D01*
X13543991Y-13531079D02*
X13534468Y-13512031D01*
X13534468Y-13512031D02*
X13524944Y-13483460D01*
X13524944Y-13483460D02*
X13515420Y-13435841D01*
X13515420Y-13435841D02*
X13515420Y-13397746D01*
X13515420Y-13397746D02*
X13524944Y-13350127D01*
X13524944Y-13350127D02*
X13534468Y-13321555D01*
X13534468Y-13321555D02*
X13543991Y-13302508D01*
X13543991Y-13302508D02*
X13563039Y-13273936D01*
X13563039Y-13273936D02*
X13572563Y-13264412D01*
X13629706Y-13292984D02*
X13763039Y-13292984D01*
X13763039Y-13292984D02*
X13677325Y-13492984D01*
X13991610Y-13492984D02*
X13991610Y-13292984D01*
X14077325Y-13492984D02*
X14077325Y-13388222D01*
X14077325Y-13388222D02*
X14067801Y-13369174D01*
X14067801Y-13369174D02*
X14048753Y-13359650D01*
X14048753Y-13359650D02*
X14020182Y-13359650D01*
X14020182Y-13359650D02*
X14001134Y-13369174D01*
X14001134Y-13369174D02*
X13991610Y-13378698D01*
X14201134Y-13492984D02*
X14182087Y-13483460D01*
X14182087Y-13483460D02*
X14172563Y-13473936D01*
X14172563Y-13473936D02*
X14163039Y-13454888D01*
X14163039Y-13454888D02*
X14163039Y-13397746D01*
X14163039Y-13397746D02*
X14172563Y-13378698D01*
X14172563Y-13378698D02*
X14182087Y-13369174D01*
X14182087Y-13369174D02*
X14201134Y-13359650D01*
X14201134Y-13359650D02*
X14229706Y-13359650D01*
X14229706Y-13359650D02*
X14248753Y-13369174D01*
X14248753Y-13369174D02*
X14258277Y-13378698D01*
X14258277Y-13378698D02*
X14267801Y-13397746D01*
X14267801Y-13397746D02*
X14267801Y-13454888D01*
X14267801Y-13454888D02*
X14258277Y-13473936D01*
X14258277Y-13473936D02*
X14248753Y-13483460D01*
X14248753Y-13483460D02*
X14229706Y-13492984D01*
X14229706Y-13492984D02*
X14201134Y-13492984D01*
X14382087Y-13492984D02*
X14363039Y-13483460D01*
X14363039Y-13483460D02*
X14353515Y-13464412D01*
X14353515Y-13464412D02*
X14353515Y-13292984D01*
X14534468Y-13483460D02*
X14515420Y-13492984D01*
X14515420Y-13492984D02*
X14477325Y-13492984D01*
X14477325Y-13492984D02*
X14458277Y-13483460D01*
X14458277Y-13483460D02*
X14448753Y-13464412D01*
X14448753Y-13464412D02*
X14448753Y-13388222D01*
X14448753Y-13388222D02*
X14458277Y-13369174D01*
X14458277Y-13369174D02*
X14477325Y-13359650D01*
X14477325Y-13359650D02*
X14515420Y-13359650D01*
X14515420Y-13359650D02*
X14534468Y-13369174D01*
X14534468Y-13369174D02*
X14543991Y-13388222D01*
X14543991Y-13388222D02*
X14543991Y-13407269D01*
X14543991Y-13407269D02*
X14448753Y-13426317D01*
X14620182Y-13483460D02*
X14639230Y-13492984D01*
X14639230Y-13492984D02*
X14677325Y-13492984D01*
X14677325Y-13492984D02*
X14696372Y-13483460D01*
X14696372Y-13483460D02*
X14705896Y-13464412D01*
X14705896Y-13464412D02*
X14705896Y-13454888D01*
X14705896Y-13454888D02*
X14696372Y-13435841D01*
X14696372Y-13435841D02*
X14677325Y-13426317D01*
X14677325Y-13426317D02*
X14648753Y-13426317D01*
X14648753Y-13426317D02*
X14629706Y-13416793D01*
X14629706Y-13416793D02*
X14620182Y-13397746D01*
X14620182Y-13397746D02*
X14620182Y-13388222D01*
X14620182Y-13388222D02*
X14629706Y-13369174D01*
X14629706Y-13369174D02*
X14648753Y-13359650D01*
X14648753Y-13359650D02*
X14677325Y-13359650D01*
X14677325Y-13359650D02*
X14696372Y-13369174D01*
X14772563Y-13569174D02*
X14782087Y-13559650D01*
X14782087Y-13559650D02*
X14801134Y-13531079D01*
X14801134Y-13531079D02*
X14810658Y-13512031D01*
X14810658Y-13512031D02*
X14820182Y-13483460D01*
X14820182Y-13483460D02*
X14829706Y-13435841D01*
X14829706Y-13435841D02*
X14829706Y-13397746D01*
X14829706Y-13397746D02*
X14820182Y-13350127D01*
X14820182Y-13350127D02*
X14810658Y-13321555D01*
X14810658Y-13321555D02*
X14801134Y-13302508D01*
X14801134Y-13302508D02*
X14782087Y-13273936D01*
X14782087Y-13273936D02*
X14772563Y-13264412D01*
D12*
X9957500Y-13625500D02*
X9957500Y-13705500D01*
X9917500Y-13665500D02*
X9997500Y-13665500D01*
D11*
X10296372Y-13556984D02*
X10315420Y-13556984D01*
X10315420Y-13556984D02*
X10334467Y-13566508D01*
X10334467Y-13566508D02*
X10343991Y-13576031D01*
X10343991Y-13576031D02*
X10353515Y-13595079D01*
X10353515Y-13595079D02*
X10363039Y-13633174D01*
X10363039Y-13633174D02*
X10363039Y-13680793D01*
X10363039Y-13680793D02*
X10353515Y-13718888D01*
X10353515Y-13718888D02*
X10343991Y-13737936D01*
X10343991Y-13737936D02*
X10334467Y-13747460D01*
X10334467Y-13747460D02*
X10315420Y-13756984D01*
X10315420Y-13756984D02*
X10296372Y-13756984D01*
X10296372Y-13756984D02*
X10277324Y-13747460D01*
X10277324Y-13747460D02*
X10267801Y-13737936D01*
X10267801Y-13737936D02*
X10258277Y-13718888D01*
X10258277Y-13718888D02*
X10248753Y-13680793D01*
X10248753Y-13680793D02*
X10248753Y-13633174D01*
X10248753Y-13633174D02*
X10258277Y-13595079D01*
X10258277Y-13595079D02*
X10267801Y-13576031D01*
X10267801Y-13576031D02*
X10277324Y-13566508D01*
X10277324Y-13566508D02*
X10296372Y-13556984D01*
X10448753Y-13737936D02*
X10458277Y-13747460D01*
X10458277Y-13747460D02*
X10448753Y-13756984D01*
X10448753Y-13756984D02*
X10439229Y-13747460D01*
X10439229Y-13747460D02*
X10448753Y-13737936D01*
X10448753Y-13737936D02*
X10448753Y-13756984D01*
X10572563Y-13642698D02*
X10553515Y-13633174D01*
X10553515Y-13633174D02*
X10543991Y-13623650D01*
X10543991Y-13623650D02*
X10534467Y-13604603D01*
X10534467Y-13604603D02*
X10534467Y-13595079D01*
X10534467Y-13595079D02*
X10543991Y-13576031D01*
X10543991Y-13576031D02*
X10553515Y-13566508D01*
X10553515Y-13566508D02*
X10572563Y-13556984D01*
X10572563Y-13556984D02*
X10610658Y-13556984D01*
X10610658Y-13556984D02*
X10629705Y-13566508D01*
X10629705Y-13566508D02*
X10639229Y-13576031D01*
X10639229Y-13576031D02*
X10648753Y-13595079D01*
X10648753Y-13595079D02*
X10648753Y-13604603D01*
X10648753Y-13604603D02*
X10639229Y-13623650D01*
X10639229Y-13623650D02*
X10629705Y-13633174D01*
X10629705Y-13633174D02*
X10610658Y-13642698D01*
X10610658Y-13642698D02*
X10572563Y-13642698D01*
X10572563Y-13642698D02*
X10553515Y-13652222D01*
X10553515Y-13652222D02*
X10543991Y-13661746D01*
X10543991Y-13661746D02*
X10534467Y-13680793D01*
X10534467Y-13680793D02*
X10534467Y-13718888D01*
X10534467Y-13718888D02*
X10543991Y-13737936D01*
X10543991Y-13737936D02*
X10553515Y-13747460D01*
X10553515Y-13747460D02*
X10572563Y-13756984D01*
X10572563Y-13756984D02*
X10610658Y-13756984D01*
X10610658Y-13756984D02*
X10629705Y-13747460D01*
X10629705Y-13747460D02*
X10639229Y-13737936D01*
X10639229Y-13737936D02*
X10648753Y-13718888D01*
X10648753Y-13718888D02*
X10648753Y-13680793D01*
X10648753Y-13680793D02*
X10639229Y-13661746D01*
X10639229Y-13661746D02*
X10629705Y-13652222D01*
X10629705Y-13652222D02*
X10610658Y-13642698D01*
X10772563Y-13556984D02*
X10791610Y-13556984D01*
X10791610Y-13556984D02*
X10810658Y-13566508D01*
X10810658Y-13566508D02*
X10820182Y-13576031D01*
X10820182Y-13576031D02*
X10829705Y-13595079D01*
X10829705Y-13595079D02*
X10839229Y-13633174D01*
X10839229Y-13633174D02*
X10839229Y-13680793D01*
X10839229Y-13680793D02*
X10829705Y-13718888D01*
X10829705Y-13718888D02*
X10820182Y-13737936D01*
X10820182Y-13737936D02*
X10810658Y-13747460D01*
X10810658Y-13747460D02*
X10791610Y-13756984D01*
X10791610Y-13756984D02*
X10772563Y-13756984D01*
X10772563Y-13756984D02*
X10753515Y-13747460D01*
X10753515Y-13747460D02*
X10743991Y-13737936D01*
X10743991Y-13737936D02*
X10734467Y-13718888D01*
X10734467Y-13718888D02*
X10724944Y-13680793D01*
X10724944Y-13680793D02*
X10724944Y-13633174D01*
X10724944Y-13633174D02*
X10734467Y-13595079D01*
X10734467Y-13595079D02*
X10743991Y-13576031D01*
X10743991Y-13576031D02*
X10753515Y-13566508D01*
X10753515Y-13566508D02*
X10772563Y-13556984D01*
X10963039Y-13556984D02*
X10982086Y-13556984D01*
X10982086Y-13556984D02*
X11001134Y-13566508D01*
X11001134Y-13566508D02*
X11010658Y-13576031D01*
X11010658Y-13576031D02*
X11020182Y-13595079D01*
X11020182Y-13595079D02*
X11029705Y-13633174D01*
X11029705Y-13633174D02*
X11029705Y-13680793D01*
X11029705Y-13680793D02*
X11020182Y-13718888D01*
X11020182Y-13718888D02*
X11010658Y-13737936D01*
X11010658Y-13737936D02*
X11001134Y-13747460D01*
X11001134Y-13747460D02*
X10982086Y-13756984D01*
X10982086Y-13756984D02*
X10963039Y-13756984D01*
X10963039Y-13756984D02*
X10943991Y-13747460D01*
X10943991Y-13747460D02*
X10934467Y-13737936D01*
X10934467Y-13737936D02*
X10924944Y-13718888D01*
X10924944Y-13718888D02*
X10915420Y-13680793D01*
X10915420Y-13680793D02*
X10915420Y-13633174D01*
X10915420Y-13633174D02*
X10924944Y-13595079D01*
X10924944Y-13595079D02*
X10934467Y-13576031D01*
X10934467Y-13576031D02*
X10943991Y-13566508D01*
X10943991Y-13566508D02*
X10963039Y-13556984D01*
X11115420Y-13756984D02*
X11115420Y-13623650D01*
X11115420Y-13642698D02*
X11124944Y-13633174D01*
X11124944Y-13633174D02*
X11143991Y-13623650D01*
X11143991Y-13623650D02*
X11172563Y-13623650D01*
X11172563Y-13623650D02*
X11191610Y-13633174D01*
X11191610Y-13633174D02*
X11201134Y-13652222D01*
X11201134Y-13652222D02*
X11201134Y-13756984D01*
X11201134Y-13652222D02*
X11210658Y-13633174D01*
X11210658Y-13633174D02*
X11229705Y-13623650D01*
X11229705Y-13623650D02*
X11258277Y-13623650D01*
X11258277Y-13623650D02*
X11277324Y-13633174D01*
X11277324Y-13633174D02*
X11286848Y-13652222D01*
X11286848Y-13652222D02*
X11286848Y-13756984D01*
X11382086Y-13756984D02*
X11382086Y-13623650D01*
X11382086Y-13642698D02*
X11391610Y-13633174D01*
X11391610Y-13633174D02*
X11410658Y-13623650D01*
X11410658Y-13623650D02*
X11439229Y-13623650D01*
X11439229Y-13623650D02*
X11458277Y-13633174D01*
X11458277Y-13633174D02*
X11467801Y-13652222D01*
X11467801Y-13652222D02*
X11467801Y-13756984D01*
X11467801Y-13652222D02*
X11477324Y-13633174D01*
X11477324Y-13633174D02*
X11496372Y-13623650D01*
X11496372Y-13623650D02*
X11524943Y-13623650D01*
X11524943Y-13623650D02*
X11543991Y-13633174D01*
X11543991Y-13633174D02*
X11553515Y-13652222D01*
X11553515Y-13652222D02*
X11553515Y-13756984D01*
X11943991Y-13547460D02*
X11772563Y-13804603D01*
X12201134Y-13556984D02*
X12220182Y-13556984D01*
X12220182Y-13556984D02*
X12239229Y-13566508D01*
X12239229Y-13566508D02*
X12248753Y-13576031D01*
X12248753Y-13576031D02*
X12258277Y-13595079D01*
X12258277Y-13595079D02*
X12267801Y-13633174D01*
X12267801Y-13633174D02*
X12267801Y-13680793D01*
X12267801Y-13680793D02*
X12258277Y-13718888D01*
X12258277Y-13718888D02*
X12248753Y-13737936D01*
X12248753Y-13737936D02*
X12239229Y-13747460D01*
X12239229Y-13747460D02*
X12220182Y-13756984D01*
X12220182Y-13756984D02*
X12201134Y-13756984D01*
X12201134Y-13756984D02*
X12182086Y-13747460D01*
X12182086Y-13747460D02*
X12172563Y-13737936D01*
X12172563Y-13737936D02*
X12163039Y-13718888D01*
X12163039Y-13718888D02*
X12153515Y-13680793D01*
X12153515Y-13680793D02*
X12153515Y-13633174D01*
X12153515Y-13633174D02*
X12163039Y-13595079D01*
X12163039Y-13595079D02*
X12172563Y-13576031D01*
X12172563Y-13576031D02*
X12182086Y-13566508D01*
X12182086Y-13566508D02*
X12201134Y-13556984D01*
X12353515Y-13737936D02*
X12363039Y-13747460D01*
X12363039Y-13747460D02*
X12353515Y-13756984D01*
X12353515Y-13756984D02*
X12343991Y-13747460D01*
X12343991Y-13747460D02*
X12353515Y-13737936D01*
X12353515Y-13737936D02*
X12353515Y-13756984D01*
X12486848Y-13556984D02*
X12505896Y-13556984D01*
X12505896Y-13556984D02*
X12524944Y-13566508D01*
X12524944Y-13566508D02*
X12534467Y-13576031D01*
X12534467Y-13576031D02*
X12543991Y-13595079D01*
X12543991Y-13595079D02*
X12553515Y-13633174D01*
X12553515Y-13633174D02*
X12553515Y-13680793D01*
X12553515Y-13680793D02*
X12543991Y-13718888D01*
X12543991Y-13718888D02*
X12534467Y-13737936D01*
X12534467Y-13737936D02*
X12524944Y-13747460D01*
X12524944Y-13747460D02*
X12505896Y-13756984D01*
X12505896Y-13756984D02*
X12486848Y-13756984D01*
X12486848Y-13756984D02*
X12467801Y-13747460D01*
X12467801Y-13747460D02*
X12458277Y-13737936D01*
X12458277Y-13737936D02*
X12448753Y-13718888D01*
X12448753Y-13718888D02*
X12439229Y-13680793D01*
X12439229Y-13680793D02*
X12439229Y-13633174D01*
X12439229Y-13633174D02*
X12448753Y-13595079D01*
X12448753Y-13595079D02*
X12458277Y-13576031D01*
X12458277Y-13576031D02*
X12467801Y-13566508D01*
X12467801Y-13566508D02*
X12486848Y-13556984D01*
X12620182Y-13556984D02*
X12743991Y-13556984D01*
X12743991Y-13556984D02*
X12677325Y-13633174D01*
X12677325Y-13633174D02*
X12705896Y-13633174D01*
X12705896Y-13633174D02*
X12724944Y-13642698D01*
X12724944Y-13642698D02*
X12734467Y-13652222D01*
X12734467Y-13652222D02*
X12743991Y-13671269D01*
X12743991Y-13671269D02*
X12743991Y-13718888D01*
X12743991Y-13718888D02*
X12734467Y-13737936D01*
X12734467Y-13737936D02*
X12724944Y-13747460D01*
X12724944Y-13747460D02*
X12705896Y-13756984D01*
X12705896Y-13756984D02*
X12648753Y-13756984D01*
X12648753Y-13756984D02*
X12629706Y-13747460D01*
X12629706Y-13747460D02*
X12620182Y-13737936D01*
X12934467Y-13756984D02*
X12820182Y-13756984D01*
X12877325Y-13756984D02*
X12877325Y-13556984D01*
X12877325Y-13556984D02*
X12858277Y-13585555D01*
X12858277Y-13585555D02*
X12839229Y-13604603D01*
X12839229Y-13604603D02*
X12820182Y-13614127D01*
X13115420Y-13556984D02*
X13020182Y-13556984D01*
X13020182Y-13556984D02*
X13010658Y-13652222D01*
X13010658Y-13652222D02*
X13020182Y-13642698D01*
X13020182Y-13642698D02*
X13039229Y-13633174D01*
X13039229Y-13633174D02*
X13086848Y-13633174D01*
X13086848Y-13633174D02*
X13105896Y-13642698D01*
X13105896Y-13642698D02*
X13115420Y-13652222D01*
X13115420Y-13652222D02*
X13124944Y-13671269D01*
X13124944Y-13671269D02*
X13124944Y-13718888D01*
X13124944Y-13718888D02*
X13115420Y-13737936D01*
X13115420Y-13737936D02*
X13105896Y-13747460D01*
X13105896Y-13747460D02*
X13086848Y-13756984D01*
X13086848Y-13756984D02*
X13039229Y-13756984D01*
X13039229Y-13756984D02*
X13020182Y-13747460D01*
X13020182Y-13747460D02*
X13010658Y-13737936D01*
X13201134Y-13556984D02*
X13201134Y-13595079D01*
X13277325Y-13556984D02*
X13277325Y-13595079D01*
X13572563Y-13833174D02*
X13563039Y-13823650D01*
X13563039Y-13823650D02*
X13543991Y-13795079D01*
X13543991Y-13795079D02*
X13534468Y-13776031D01*
X13534468Y-13776031D02*
X13524944Y-13747460D01*
X13524944Y-13747460D02*
X13515420Y-13699841D01*
X13515420Y-13699841D02*
X13515420Y-13661746D01*
X13515420Y-13661746D02*
X13524944Y-13614127D01*
X13524944Y-13614127D02*
X13534468Y-13585555D01*
X13534468Y-13585555D02*
X13543991Y-13566508D01*
X13543991Y-13566508D02*
X13563039Y-13537936D01*
X13563039Y-13537936D02*
X13572563Y-13528412D01*
X13639229Y-13576031D02*
X13648753Y-13566508D01*
X13648753Y-13566508D02*
X13667801Y-13556984D01*
X13667801Y-13556984D02*
X13715420Y-13556984D01*
X13715420Y-13556984D02*
X13734468Y-13566508D01*
X13734468Y-13566508D02*
X13743991Y-13576031D01*
X13743991Y-13576031D02*
X13753515Y-13595079D01*
X13753515Y-13595079D02*
X13753515Y-13614127D01*
X13753515Y-13614127D02*
X13743991Y-13642698D01*
X13743991Y-13642698D02*
X13629706Y-13756984D01*
X13629706Y-13756984D02*
X13753515Y-13756984D01*
X13991610Y-13756984D02*
X13991610Y-13556984D01*
X14077325Y-13756984D02*
X14077325Y-13652222D01*
X14077325Y-13652222D02*
X14067801Y-13633174D01*
X14067801Y-13633174D02*
X14048753Y-13623650D01*
X14048753Y-13623650D02*
X14020182Y-13623650D01*
X14020182Y-13623650D02*
X14001134Y-13633174D01*
X14001134Y-13633174D02*
X13991610Y-13642698D01*
X14201134Y-13756984D02*
X14182087Y-13747460D01*
X14182087Y-13747460D02*
X14172563Y-13737936D01*
X14172563Y-13737936D02*
X14163039Y-13718888D01*
X14163039Y-13718888D02*
X14163039Y-13661746D01*
X14163039Y-13661746D02*
X14172563Y-13642698D01*
X14172563Y-13642698D02*
X14182087Y-13633174D01*
X14182087Y-13633174D02*
X14201134Y-13623650D01*
X14201134Y-13623650D02*
X14229706Y-13623650D01*
X14229706Y-13623650D02*
X14248753Y-13633174D01*
X14248753Y-13633174D02*
X14258277Y-13642698D01*
X14258277Y-13642698D02*
X14267801Y-13661746D01*
X14267801Y-13661746D02*
X14267801Y-13718888D01*
X14267801Y-13718888D02*
X14258277Y-13737936D01*
X14258277Y-13737936D02*
X14248753Y-13747460D01*
X14248753Y-13747460D02*
X14229706Y-13756984D01*
X14229706Y-13756984D02*
X14201134Y-13756984D01*
X14382087Y-13756984D02*
X14363039Y-13747460D01*
X14363039Y-13747460D02*
X14353515Y-13728412D01*
X14353515Y-13728412D02*
X14353515Y-13556984D01*
X14534468Y-13747460D02*
X14515420Y-13756984D01*
X14515420Y-13756984D02*
X14477325Y-13756984D01*
X14477325Y-13756984D02*
X14458277Y-13747460D01*
X14458277Y-13747460D02*
X14448753Y-13728412D01*
X14448753Y-13728412D02*
X14448753Y-13652222D01*
X14448753Y-13652222D02*
X14458277Y-13633174D01*
X14458277Y-13633174D02*
X14477325Y-13623650D01*
X14477325Y-13623650D02*
X14515420Y-13623650D01*
X14515420Y-13623650D02*
X14534468Y-13633174D01*
X14534468Y-13633174D02*
X14543991Y-13652222D01*
X14543991Y-13652222D02*
X14543991Y-13671269D01*
X14543991Y-13671269D02*
X14448753Y-13690317D01*
X14620182Y-13747460D02*
X14639230Y-13756984D01*
X14639230Y-13756984D02*
X14677325Y-13756984D01*
X14677325Y-13756984D02*
X14696372Y-13747460D01*
X14696372Y-13747460D02*
X14705896Y-13728412D01*
X14705896Y-13728412D02*
X14705896Y-13718888D01*
X14705896Y-13718888D02*
X14696372Y-13699841D01*
X14696372Y-13699841D02*
X14677325Y-13690317D01*
X14677325Y-13690317D02*
X14648753Y-13690317D01*
X14648753Y-13690317D02*
X14629706Y-13680793D01*
X14629706Y-13680793D02*
X14620182Y-13661746D01*
X14620182Y-13661746D02*
X14620182Y-13652222D01*
X14620182Y-13652222D02*
X14629706Y-13633174D01*
X14629706Y-13633174D02*
X14648753Y-13623650D01*
X14648753Y-13623650D02*
X14677325Y-13623650D01*
X14677325Y-13623650D02*
X14696372Y-13633174D01*
X14772563Y-13833174D02*
X14782087Y-13823650D01*
X14782087Y-13823650D02*
X14801134Y-13795079D01*
X14801134Y-13795079D02*
X14810658Y-13776031D01*
X14810658Y-13776031D02*
X14820182Y-13747460D01*
X14820182Y-13747460D02*
X14829706Y-13699841D01*
X14829706Y-13699841D02*
X14829706Y-13661746D01*
X14829706Y-13661746D02*
X14820182Y-13614127D01*
X14820182Y-13614127D02*
X14810658Y-13585555D01*
X14810658Y-13585555D02*
X14801134Y-13566508D01*
X14801134Y-13566508D02*
X14782087Y-13537936D01*
X14782087Y-13537936D02*
X14772563Y-13528412D01*
D12*
X9982856Y-13964856D02*
X9982856Y-13894144D01*
X9912144Y-13894144D01*
X9912144Y-13964856D01*
X9982856Y-13964856D01*
D11*
X10363039Y-14020984D02*
X10248753Y-14020984D01*
X10305896Y-14020984D02*
X10305896Y-13820984D01*
X10305896Y-13820984D02*
X10286848Y-13849555D01*
X10286848Y-13849555D02*
X10267801Y-13868603D01*
X10267801Y-13868603D02*
X10248753Y-13878127D01*
X10448753Y-14001936D02*
X10458277Y-14011460D01*
X10458277Y-14011460D02*
X10448753Y-14020984D01*
X10448753Y-14020984D02*
X10439229Y-14011460D01*
X10439229Y-14011460D02*
X10448753Y-14001936D01*
X10448753Y-14001936D02*
X10448753Y-14020984D01*
X10582086Y-13820984D02*
X10601134Y-13820984D01*
X10601134Y-13820984D02*
X10620182Y-13830508D01*
X10620182Y-13830508D02*
X10629705Y-13840031D01*
X10629705Y-13840031D02*
X10639229Y-13859079D01*
X10639229Y-13859079D02*
X10648753Y-13897174D01*
X10648753Y-13897174D02*
X10648753Y-13944793D01*
X10648753Y-13944793D02*
X10639229Y-13982888D01*
X10639229Y-13982888D02*
X10629705Y-14001936D01*
X10629705Y-14001936D02*
X10620182Y-14011460D01*
X10620182Y-14011460D02*
X10601134Y-14020984D01*
X10601134Y-14020984D02*
X10582086Y-14020984D01*
X10582086Y-14020984D02*
X10563039Y-14011460D01*
X10563039Y-14011460D02*
X10553515Y-14001936D01*
X10553515Y-14001936D02*
X10543991Y-13982888D01*
X10543991Y-13982888D02*
X10534467Y-13944793D01*
X10534467Y-13944793D02*
X10534467Y-13897174D01*
X10534467Y-13897174D02*
X10543991Y-13859079D01*
X10543991Y-13859079D02*
X10553515Y-13840031D01*
X10553515Y-13840031D02*
X10563039Y-13830508D01*
X10563039Y-13830508D02*
X10582086Y-13820984D01*
X10772563Y-13820984D02*
X10791610Y-13820984D01*
X10791610Y-13820984D02*
X10810658Y-13830508D01*
X10810658Y-13830508D02*
X10820182Y-13840031D01*
X10820182Y-13840031D02*
X10829705Y-13859079D01*
X10829705Y-13859079D02*
X10839229Y-13897174D01*
X10839229Y-13897174D02*
X10839229Y-13944793D01*
X10839229Y-13944793D02*
X10829705Y-13982888D01*
X10829705Y-13982888D02*
X10820182Y-14001936D01*
X10820182Y-14001936D02*
X10810658Y-14011460D01*
X10810658Y-14011460D02*
X10791610Y-14020984D01*
X10791610Y-14020984D02*
X10772563Y-14020984D01*
X10772563Y-14020984D02*
X10753515Y-14011460D01*
X10753515Y-14011460D02*
X10743991Y-14001936D01*
X10743991Y-14001936D02*
X10734467Y-13982888D01*
X10734467Y-13982888D02*
X10724944Y-13944793D01*
X10724944Y-13944793D02*
X10724944Y-13897174D01*
X10724944Y-13897174D02*
X10734467Y-13859079D01*
X10734467Y-13859079D02*
X10743991Y-13840031D01*
X10743991Y-13840031D02*
X10753515Y-13830508D01*
X10753515Y-13830508D02*
X10772563Y-13820984D01*
X10963039Y-13820984D02*
X10982086Y-13820984D01*
X10982086Y-13820984D02*
X11001134Y-13830508D01*
X11001134Y-13830508D02*
X11010658Y-13840031D01*
X11010658Y-13840031D02*
X11020182Y-13859079D01*
X11020182Y-13859079D02*
X11029705Y-13897174D01*
X11029705Y-13897174D02*
X11029705Y-13944793D01*
X11029705Y-13944793D02*
X11020182Y-13982888D01*
X11020182Y-13982888D02*
X11010658Y-14001936D01*
X11010658Y-14001936D02*
X11001134Y-14011460D01*
X11001134Y-14011460D02*
X10982086Y-14020984D01*
X10982086Y-14020984D02*
X10963039Y-14020984D01*
X10963039Y-14020984D02*
X10943991Y-14011460D01*
X10943991Y-14011460D02*
X10934467Y-14001936D01*
X10934467Y-14001936D02*
X10924944Y-13982888D01*
X10924944Y-13982888D02*
X10915420Y-13944793D01*
X10915420Y-13944793D02*
X10915420Y-13897174D01*
X10915420Y-13897174D02*
X10924944Y-13859079D01*
X10924944Y-13859079D02*
X10934467Y-13840031D01*
X10934467Y-13840031D02*
X10943991Y-13830508D01*
X10943991Y-13830508D02*
X10963039Y-13820984D01*
X11115420Y-14020984D02*
X11115420Y-13887650D01*
X11115420Y-13906698D02*
X11124944Y-13897174D01*
X11124944Y-13897174D02*
X11143991Y-13887650D01*
X11143991Y-13887650D02*
X11172563Y-13887650D01*
X11172563Y-13887650D02*
X11191610Y-13897174D01*
X11191610Y-13897174D02*
X11201134Y-13916222D01*
X11201134Y-13916222D02*
X11201134Y-14020984D01*
X11201134Y-13916222D02*
X11210658Y-13897174D01*
X11210658Y-13897174D02*
X11229705Y-13887650D01*
X11229705Y-13887650D02*
X11258277Y-13887650D01*
X11258277Y-13887650D02*
X11277324Y-13897174D01*
X11277324Y-13897174D02*
X11286848Y-13916222D01*
X11286848Y-13916222D02*
X11286848Y-14020984D01*
X11382086Y-14020984D02*
X11382086Y-13887650D01*
X11382086Y-13906698D02*
X11391610Y-13897174D01*
X11391610Y-13897174D02*
X11410658Y-13887650D01*
X11410658Y-13887650D02*
X11439229Y-13887650D01*
X11439229Y-13887650D02*
X11458277Y-13897174D01*
X11458277Y-13897174D02*
X11467801Y-13916222D01*
X11467801Y-13916222D02*
X11467801Y-14020984D01*
X11467801Y-13916222D02*
X11477324Y-13897174D01*
X11477324Y-13897174D02*
X11496372Y-13887650D01*
X11496372Y-13887650D02*
X11524943Y-13887650D01*
X11524943Y-13887650D02*
X11543991Y-13897174D01*
X11543991Y-13897174D02*
X11553515Y-13916222D01*
X11553515Y-13916222D02*
X11553515Y-14020984D01*
X11943991Y-13811460D02*
X11772563Y-14068603D01*
X12201134Y-13820984D02*
X12220182Y-13820984D01*
X12220182Y-13820984D02*
X12239229Y-13830508D01*
X12239229Y-13830508D02*
X12248753Y-13840031D01*
X12248753Y-13840031D02*
X12258277Y-13859079D01*
X12258277Y-13859079D02*
X12267801Y-13897174D01*
X12267801Y-13897174D02*
X12267801Y-13944793D01*
X12267801Y-13944793D02*
X12258277Y-13982888D01*
X12258277Y-13982888D02*
X12248753Y-14001936D01*
X12248753Y-14001936D02*
X12239229Y-14011460D01*
X12239229Y-14011460D02*
X12220182Y-14020984D01*
X12220182Y-14020984D02*
X12201134Y-14020984D01*
X12201134Y-14020984D02*
X12182086Y-14011460D01*
X12182086Y-14011460D02*
X12172563Y-14001936D01*
X12172563Y-14001936D02*
X12163039Y-13982888D01*
X12163039Y-13982888D02*
X12153515Y-13944793D01*
X12153515Y-13944793D02*
X12153515Y-13897174D01*
X12153515Y-13897174D02*
X12163039Y-13859079D01*
X12163039Y-13859079D02*
X12172563Y-13840031D01*
X12172563Y-13840031D02*
X12182086Y-13830508D01*
X12182086Y-13830508D02*
X12201134Y-13820984D01*
X12353515Y-14001936D02*
X12363039Y-14011460D01*
X12363039Y-14011460D02*
X12353515Y-14020984D01*
X12353515Y-14020984D02*
X12343991Y-14011460D01*
X12343991Y-14011460D02*
X12353515Y-14001936D01*
X12353515Y-14001936D02*
X12353515Y-14020984D01*
X12486848Y-13820984D02*
X12505896Y-13820984D01*
X12505896Y-13820984D02*
X12524944Y-13830508D01*
X12524944Y-13830508D02*
X12534467Y-13840031D01*
X12534467Y-13840031D02*
X12543991Y-13859079D01*
X12543991Y-13859079D02*
X12553515Y-13897174D01*
X12553515Y-13897174D02*
X12553515Y-13944793D01*
X12553515Y-13944793D02*
X12543991Y-13982888D01*
X12543991Y-13982888D02*
X12534467Y-14001936D01*
X12534467Y-14001936D02*
X12524944Y-14011460D01*
X12524944Y-14011460D02*
X12505896Y-14020984D01*
X12505896Y-14020984D02*
X12486848Y-14020984D01*
X12486848Y-14020984D02*
X12467801Y-14011460D01*
X12467801Y-14011460D02*
X12458277Y-14001936D01*
X12458277Y-14001936D02*
X12448753Y-13982888D01*
X12448753Y-13982888D02*
X12439229Y-13944793D01*
X12439229Y-13944793D02*
X12439229Y-13897174D01*
X12439229Y-13897174D02*
X12448753Y-13859079D01*
X12448753Y-13859079D02*
X12458277Y-13840031D01*
X12458277Y-13840031D02*
X12467801Y-13830508D01*
X12467801Y-13830508D02*
X12486848Y-13820984D01*
X12620182Y-13820984D02*
X12743991Y-13820984D01*
X12743991Y-13820984D02*
X12677325Y-13897174D01*
X12677325Y-13897174D02*
X12705896Y-13897174D01*
X12705896Y-13897174D02*
X12724944Y-13906698D01*
X12724944Y-13906698D02*
X12734467Y-13916222D01*
X12734467Y-13916222D02*
X12743991Y-13935269D01*
X12743991Y-13935269D02*
X12743991Y-13982888D01*
X12743991Y-13982888D02*
X12734467Y-14001936D01*
X12734467Y-14001936D02*
X12724944Y-14011460D01*
X12724944Y-14011460D02*
X12705896Y-14020984D01*
X12705896Y-14020984D02*
X12648753Y-14020984D01*
X12648753Y-14020984D02*
X12629706Y-14011460D01*
X12629706Y-14011460D02*
X12620182Y-14001936D01*
X12839229Y-14020984D02*
X12877325Y-14020984D01*
X12877325Y-14020984D02*
X12896372Y-14011460D01*
X12896372Y-14011460D02*
X12905896Y-14001936D01*
X12905896Y-14001936D02*
X12924944Y-13973365D01*
X12924944Y-13973365D02*
X12934467Y-13935269D01*
X12934467Y-13935269D02*
X12934467Y-13859079D01*
X12934467Y-13859079D02*
X12924944Y-13840031D01*
X12924944Y-13840031D02*
X12915420Y-13830508D01*
X12915420Y-13830508D02*
X12896372Y-13820984D01*
X12896372Y-13820984D02*
X12858277Y-13820984D01*
X12858277Y-13820984D02*
X12839229Y-13830508D01*
X12839229Y-13830508D02*
X12829706Y-13840031D01*
X12829706Y-13840031D02*
X12820182Y-13859079D01*
X12820182Y-13859079D02*
X12820182Y-13906698D01*
X12820182Y-13906698D02*
X12829706Y-13925746D01*
X12829706Y-13925746D02*
X12839229Y-13935269D01*
X12839229Y-13935269D02*
X12858277Y-13944793D01*
X12858277Y-13944793D02*
X12896372Y-13944793D01*
X12896372Y-13944793D02*
X12915420Y-13935269D01*
X12915420Y-13935269D02*
X12924944Y-13925746D01*
X12924944Y-13925746D02*
X12934467Y-13906698D01*
X13105896Y-13887650D02*
X13105896Y-14020984D01*
X13058277Y-13811460D02*
X13010658Y-13954317D01*
X13010658Y-13954317D02*
X13134467Y-13954317D01*
X13201134Y-13820984D02*
X13201134Y-13859079D01*
X13277325Y-13820984D02*
X13277325Y-13859079D01*
X13572563Y-14097174D02*
X13563039Y-14087650D01*
X13563039Y-14087650D02*
X13543991Y-14059079D01*
X13543991Y-14059079D02*
X13534468Y-14040031D01*
X13534468Y-14040031D02*
X13524944Y-14011460D01*
X13524944Y-14011460D02*
X13515420Y-13963841D01*
X13515420Y-13963841D02*
X13515420Y-13925746D01*
X13515420Y-13925746D02*
X13524944Y-13878127D01*
X13524944Y-13878127D02*
X13534468Y-13849555D01*
X13534468Y-13849555D02*
X13543991Y-13830508D01*
X13543991Y-13830508D02*
X13563039Y-13801936D01*
X13563039Y-13801936D02*
X13572563Y-13792412D01*
X13639229Y-13840031D02*
X13648753Y-13830508D01*
X13648753Y-13830508D02*
X13667801Y-13820984D01*
X13667801Y-13820984D02*
X13715420Y-13820984D01*
X13715420Y-13820984D02*
X13734468Y-13830508D01*
X13734468Y-13830508D02*
X13743991Y-13840031D01*
X13743991Y-13840031D02*
X13753515Y-13859079D01*
X13753515Y-13859079D02*
X13753515Y-13878127D01*
X13753515Y-13878127D02*
X13743991Y-13906698D01*
X13743991Y-13906698D02*
X13629706Y-14020984D01*
X13629706Y-14020984D02*
X13753515Y-14020984D01*
X13991610Y-14020984D02*
X13991610Y-13820984D01*
X14077325Y-14020984D02*
X14077325Y-13916222D01*
X14077325Y-13916222D02*
X14067801Y-13897174D01*
X14067801Y-13897174D02*
X14048753Y-13887650D01*
X14048753Y-13887650D02*
X14020182Y-13887650D01*
X14020182Y-13887650D02*
X14001134Y-13897174D01*
X14001134Y-13897174D02*
X13991610Y-13906698D01*
X14201134Y-14020984D02*
X14182087Y-14011460D01*
X14182087Y-14011460D02*
X14172563Y-14001936D01*
X14172563Y-14001936D02*
X14163039Y-13982888D01*
X14163039Y-13982888D02*
X14163039Y-13925746D01*
X14163039Y-13925746D02*
X14172563Y-13906698D01*
X14172563Y-13906698D02*
X14182087Y-13897174D01*
X14182087Y-13897174D02*
X14201134Y-13887650D01*
X14201134Y-13887650D02*
X14229706Y-13887650D01*
X14229706Y-13887650D02*
X14248753Y-13897174D01*
X14248753Y-13897174D02*
X14258277Y-13906698D01*
X14258277Y-13906698D02*
X14267801Y-13925746D01*
X14267801Y-13925746D02*
X14267801Y-13982888D01*
X14267801Y-13982888D02*
X14258277Y-14001936D01*
X14258277Y-14001936D02*
X14248753Y-14011460D01*
X14248753Y-14011460D02*
X14229706Y-14020984D01*
X14229706Y-14020984D02*
X14201134Y-14020984D01*
X14382087Y-14020984D02*
X14363039Y-14011460D01*
X14363039Y-14011460D02*
X14353515Y-13992412D01*
X14353515Y-13992412D02*
X14353515Y-13820984D01*
X14534468Y-14011460D02*
X14515420Y-14020984D01*
X14515420Y-14020984D02*
X14477325Y-14020984D01*
X14477325Y-14020984D02*
X14458277Y-14011460D01*
X14458277Y-14011460D02*
X14448753Y-13992412D01*
X14448753Y-13992412D02*
X14448753Y-13916222D01*
X14448753Y-13916222D02*
X14458277Y-13897174D01*
X14458277Y-13897174D02*
X14477325Y-13887650D01*
X14477325Y-13887650D02*
X14515420Y-13887650D01*
X14515420Y-13887650D02*
X14534468Y-13897174D01*
X14534468Y-13897174D02*
X14543991Y-13916222D01*
X14543991Y-13916222D02*
X14543991Y-13935269D01*
X14543991Y-13935269D02*
X14448753Y-13954317D01*
X14620182Y-14011460D02*
X14639230Y-14020984D01*
X14639230Y-14020984D02*
X14677325Y-14020984D01*
X14677325Y-14020984D02*
X14696372Y-14011460D01*
X14696372Y-14011460D02*
X14705896Y-13992412D01*
X14705896Y-13992412D02*
X14705896Y-13982888D01*
X14705896Y-13982888D02*
X14696372Y-13963841D01*
X14696372Y-13963841D02*
X14677325Y-13954317D01*
X14677325Y-13954317D02*
X14648753Y-13954317D01*
X14648753Y-13954317D02*
X14629706Y-13944793D01*
X14629706Y-13944793D02*
X14620182Y-13925746D01*
X14620182Y-13925746D02*
X14620182Y-13916222D01*
X14620182Y-13916222D02*
X14629706Y-13897174D01*
X14629706Y-13897174D02*
X14648753Y-13887650D01*
X14648753Y-13887650D02*
X14677325Y-13887650D01*
X14677325Y-13887650D02*
X14696372Y-13897174D01*
X14943992Y-13944793D02*
X15096373Y-13944793D01*
X15020182Y-14020984D02*
X15020182Y-13868603D01*
X15429706Y-13887650D02*
X15429706Y-14020984D01*
X15382087Y-13811460D02*
X15334468Y-13954317D01*
X15334468Y-13954317D02*
X15458277Y-13954317D01*
X15677325Y-14011460D02*
X15696373Y-14020984D01*
X15696373Y-14020984D02*
X15734468Y-14020984D01*
X15734468Y-14020984D02*
X15753515Y-14011460D01*
X15753515Y-14011460D02*
X15763039Y-13992412D01*
X15763039Y-13992412D02*
X15763039Y-13982888D01*
X15763039Y-13982888D02*
X15753515Y-13963841D01*
X15753515Y-13963841D02*
X15734468Y-13954317D01*
X15734468Y-13954317D02*
X15705896Y-13954317D01*
X15705896Y-13954317D02*
X15686849Y-13944793D01*
X15686849Y-13944793D02*
X15677325Y-13925746D01*
X15677325Y-13925746D02*
X15677325Y-13916222D01*
X15677325Y-13916222D02*
X15686849Y-13897174D01*
X15686849Y-13897174D02*
X15705896Y-13887650D01*
X15705896Y-13887650D02*
X15734468Y-13887650D01*
X15734468Y-13887650D02*
X15753515Y-13897174D01*
X15877325Y-14020984D02*
X15858277Y-14011460D01*
X15858277Y-14011460D02*
X15848754Y-13992412D01*
X15848754Y-13992412D02*
X15848754Y-13820984D01*
X15982087Y-14020984D02*
X15963039Y-14011460D01*
X15963039Y-14011460D02*
X15953515Y-14001936D01*
X15953515Y-14001936D02*
X15943992Y-13982888D01*
X15943992Y-13982888D02*
X15943992Y-13925746D01*
X15943992Y-13925746D02*
X15953515Y-13906698D01*
X15953515Y-13906698D02*
X15963039Y-13897174D01*
X15963039Y-13897174D02*
X15982087Y-13887650D01*
X15982087Y-13887650D02*
X16010658Y-13887650D01*
X16010658Y-13887650D02*
X16029706Y-13897174D01*
X16029706Y-13897174D02*
X16039230Y-13906698D01*
X16039230Y-13906698D02*
X16048754Y-13925746D01*
X16048754Y-13925746D02*
X16048754Y-13982888D01*
X16048754Y-13982888D02*
X16039230Y-14001936D01*
X16039230Y-14001936D02*
X16029706Y-14011460D01*
X16029706Y-14011460D02*
X16010658Y-14020984D01*
X16010658Y-14020984D02*
X15982087Y-14020984D01*
X16105896Y-13887650D02*
X16182087Y-13887650D01*
X16134468Y-13820984D02*
X16134468Y-13992412D01*
X16134468Y-13992412D02*
X16143992Y-14011460D01*
X16143992Y-14011460D02*
X16163039Y-14020984D01*
X16163039Y-14020984D02*
X16182087Y-14020984D01*
X16239230Y-14011460D02*
X16258277Y-14020984D01*
X16258277Y-14020984D02*
X16296373Y-14020984D01*
X16296373Y-14020984D02*
X16315420Y-14011460D01*
X16315420Y-14011460D02*
X16324944Y-13992412D01*
X16324944Y-13992412D02*
X16324944Y-13982888D01*
X16324944Y-13982888D02*
X16315420Y-13963841D01*
X16315420Y-13963841D02*
X16296373Y-13954317D01*
X16296373Y-13954317D02*
X16267801Y-13954317D01*
X16267801Y-13954317D02*
X16248754Y-13944793D01*
X16248754Y-13944793D02*
X16239230Y-13925746D01*
X16239230Y-13925746D02*
X16239230Y-13916222D01*
X16239230Y-13916222D02*
X16248754Y-13897174D01*
X16248754Y-13897174D02*
X16267801Y-13887650D01*
X16267801Y-13887650D02*
X16296373Y-13887650D01*
X16296373Y-13887650D02*
X16315420Y-13897174D01*
X16391611Y-14097174D02*
X16401135Y-14087650D01*
X16401135Y-14087650D02*
X16420182Y-14059079D01*
X16420182Y-14059079D02*
X16429706Y-14040031D01*
X16429706Y-14040031D02*
X16439230Y-14011460D01*
X16439230Y-14011460D02*
X16448754Y-13963841D01*
X16448754Y-13963841D02*
X16448754Y-13925746D01*
X16448754Y-13925746D02*
X16439230Y-13878127D01*
X16439230Y-13878127D02*
X16429706Y-13849555D01*
X16429706Y-13849555D02*
X16420182Y-13830508D01*
X16420182Y-13830508D02*
X16401135Y-13801936D01*
X16401135Y-13801936D02*
X16391611Y-13792412D01*
M02*
