%TF.GenerationSoftware,KiCad,Pcbnew,9.0.6-9.0.6~ubuntu22.04.1*%
%TF.CreationDate,2025-11-25T00:54:20+02:00*%
%TF.ProjectId,pico,7069636f-2e6b-4696-9361-645f70636258,1*%
%TF.SameCoordinates,Original*%
%TF.FileFunction,Copper,L2,Bot*%
%TF.FilePolarity,Positive*%
%FSLAX46Y46*%
G04 Gerber Fmt 4.6, Leading zero omitted, Abs format (unit mm)*
G04 Created by KiCad (PCBNEW 9.0.6-9.0.6~ubuntu22.04.1) date 2025-11-25 00:54:20*
%MOMM*%
%LPD*%
G01*
G04 APERTURE LIST*
G04 Aperture macros list*
%AMRoundRect*
0 Rectangle with rounded corners*
0 $1 Rounding radius*
0 $2 $3 $4 $5 $6 $7 $8 $9 X,Y pos of 4 corners*
0 Add a 4 corners polygon primitive as box body*
4,1,4,$2,$3,$4,$5,$6,$7,$8,$9,$2,$3,0*
0 Add four circle primitives for the rounded corners*
1,1,$1+$1,$2,$3*
1,1,$1+$1,$4,$5*
1,1,$1+$1,$6,$7*
1,1,$1+$1,$8,$9*
0 Add four rect primitives between the rounded corners*
20,1,$1+$1,$2,$3,$4,$5,0*
20,1,$1+$1,$4,$5,$6,$7,0*
20,1,$1+$1,$6,$7,$8,$9,0*
20,1,$1+$1,$8,$9,$2,$3,0*%
G04 Aperture macros list end*
%TA.AperFunction,ComponentPad*%
%ADD10RoundRect,0.250000X-0.550000X-0.550000X0.550000X-0.550000X0.550000X0.550000X-0.550000X0.550000X0*%
%TD*%
%TA.AperFunction,ComponentPad*%
%ADD11C,1.600000*%
%TD*%
%TA.AperFunction,ComponentPad*%
%ADD12C,1.700000*%
%TD*%
%TA.AperFunction,ComponentPad*%
%ADD13R,1.700000X1.700000*%
%TD*%
%TA.AperFunction,ComponentPad*%
%ADD14RoundRect,0.250000X0.350000X0.625000X-0.350000X0.625000X-0.350000X-0.625000X0.350000X-0.625000X0*%
%TD*%
%TA.AperFunction,ComponentPad*%
%ADD15O,1.200000X1.750000*%
%TD*%
%TA.AperFunction,ComponentPad*%
%ADD16RoundRect,0.250000X-0.350000X-0.625000X0.350000X-0.625000X0.350000X0.625000X-0.350000X0.625000X0*%
%TD*%
%TA.AperFunction,ComponentPad*%
%ADD17R,4.000000X2.000000*%
%TD*%
%TA.AperFunction,ComponentPad*%
%ADD18O,3.300000X2.000000*%
%TD*%
%TA.AperFunction,ComponentPad*%
%ADD19O,2.000000X3.500000*%
%TD*%
%TA.AperFunction,ViaPad*%
%ADD20C,0.600000*%
%TD*%
%TA.AperFunction,Conductor*%
%ADD21C,0.200000*%
%TD*%
%TA.AperFunction,Conductor*%
%ADD22C,2.000000*%
%TD*%
G04 APERTURE END LIST*
D10*
%TO.P,C6,1*%
%TO.N,Net-(A1-VBUS)*%
X120000000Y-115000000D03*
D11*
%TO.P,C6,2*%
%TO.N,Net-(J2-Pin_3)*%
X122500000Y-115000000D03*
%TD*%
D12*
%TO.P,J4,2,Pin_2*%
%TO.N,GNDREF*%
X134000000Y-96040000D03*
D13*
%TO.P,J4,1,Pin_1*%
%TO.N,Net-(J4-Pin_1)*%
X134000000Y-93500000D03*
%TD*%
D14*
%TO.P,J3,1,Pin_1*%
%TO.N,3.3VDC*%
X136500000Y-56950000D03*
D15*
%TO.P,J3,2,Pin_2*%
%TO.N,Net-(A1-GPIO4)*%
X134500000Y-56950000D03*
%TO.P,J3,3,Pin_3*%
%TO.N,Net-(A1-GPIO3)*%
X132500000Y-56950000D03*
%TO.P,J3,4,Pin_4*%
%TO.N,Net-(J2-Pin_3)*%
X130500000Y-56950000D03*
%TD*%
D16*
%TO.P,J2,1,Pin_1*%
%TO.N,Net-(A1-VBUS)*%
X131000000Y-118000000D03*
D15*
%TO.P,J2,2,Pin_2*%
%TO.N,Net-(J2-Pin_2)*%
X133000000Y-118000000D03*
%TO.P,J2,3,Pin_3*%
%TO.N,Net-(J2-Pin_3)*%
X135000000Y-118000000D03*
%TD*%
D17*
%TO.P,J1,1*%
%TO.N,Net-(A1-VBUS)*%
X107500000Y-112500000D03*
D18*
%TO.P,J1,2*%
%TO.N,Net-(J2-Pin_3)*%
X107500000Y-118500000D03*
D19*
%TO.P,J1,MP,MountPin*%
%TO.N,unconnected-(J1-MountPin-PadMP)*%
X103000000Y-119500000D03*
X112000000Y-119500000D03*
%TD*%
D20*
%TO.N,Net-(J4-Pin_1)*%
X133924700Y-73718200D03*
%TO.N,Net-(A1-GPIO3)*%
X107751300Y-62906400D03*
%TO.N,3.3VDC*%
X127659900Y-63074800D03*
%TO.N,Net-(A1-GPIO4)*%
X109950300Y-60016000D03*
%TO.N,GNDREF*%
X132853100Y-86082500D03*
X135723600Y-65881700D03*
X131253200Y-63452400D03*
X136087600Y-71410200D03*
%TD*%
D21*
%TO.N,unconnected-(J1-MountPin-PadMP)*%
X111460800Y-121551700D02*
X112000000Y-121551700D01*
X110009900Y-120100800D02*
X111460800Y-121551700D01*
X104990100Y-120100800D02*
X110009900Y-120100800D01*
X103539200Y-121551700D02*
X104990100Y-120100800D01*
X103000000Y-121551700D02*
X103539200Y-121551700D01*
X103000000Y-119500000D02*
X103000000Y-121551700D01*
X112000000Y-119500000D02*
X112000000Y-121551700D01*
D22*
%TO.N,Net-(J2-Pin_3)*%
X135000000Y-118963000D02*
X135000000Y-118000000D01*
X133463000Y-120500000D02*
X135000000Y-118963000D01*
X128000000Y-120500000D02*
X133463000Y-120500000D01*
X122500000Y-115000000D02*
X128000000Y-120500000D01*
X122500000Y-115800000D02*
X122500000Y-115000000D01*
X121199000Y-117101000D02*
X122500000Y-115800000D01*
X118801000Y-117101000D02*
X121199000Y-117101000D01*
X118149000Y-116449000D02*
X118801000Y-117101000D01*
X109551000Y-116449000D02*
X118149000Y-116449000D01*
X107500000Y-118500000D02*
X109551000Y-116449000D01*
D21*
%TO.N,Net-(J4-Pin_1)*%
X134000000Y-73793500D02*
X133924700Y-73718200D01*
X134000000Y-93500000D02*
X134000000Y-73793500D01*
X133924700Y-73718200D02*
X133859200Y-73652700D01*
X133859200Y-73652700D02*
X133924700Y-73718200D01*
%TO.N,Net-(A1-GPIO3)*%
X131598300Y-57436500D02*
X131598300Y-56950000D01*
X126128400Y-62906400D02*
X131598300Y-57436500D01*
X107751300Y-62906400D02*
X126128400Y-62906400D01*
X132500000Y-56950000D02*
X131598300Y-56950000D01*
%TO.N,3.3VDC*%
X130375200Y-63074800D02*
X127659900Y-63074800D01*
X136500000Y-56950000D02*
X130375200Y-63074800D01*
%TO.N,Net-(A1-GPIO4)*%
X133598300Y-56463500D02*
X133598300Y-56950000D01*
X132882100Y-55747300D02*
X133598300Y-56463500D01*
X120036400Y-55747300D02*
X132882100Y-55747300D01*
X115767700Y-60016000D02*
X120036400Y-55747300D01*
X109950300Y-60016000D02*
X115767700Y-60016000D01*
X134500000Y-56950000D02*
X133598300Y-56950000D01*
%TO.N,GNDREF*%
X132848300Y-86087300D02*
X132853100Y-86082500D01*
X132848300Y-94888300D02*
X132848300Y-86087300D01*
X134000000Y-96040000D02*
X132848300Y-94888300D01*
X133682500Y-65881700D02*
X131253200Y-63452400D01*
X135723600Y-65881700D02*
X133682500Y-65881700D01*
X135723600Y-71046200D02*
X135723600Y-65881700D01*
X136087600Y-71410200D02*
X135723600Y-71046200D01*
X136087600Y-71410200D02*
X135910500Y-71587300D01*
X135910500Y-71587300D02*
X136087600Y-71410200D01*
%TD*%
M02*
