%TF.GenerationSoftware,KiCad,Pcbnew,9.0.6-9.0.6~ubuntu22.04.1*%
%TF.CreationDate,2025-11-25T23:32:41+02:00*%
%TF.ProjectId,pico,7069636f-2e6b-4696-9361-645f70636258,1*%
%TF.SameCoordinates,Original*%
%TF.FileFunction,Legend,Bot*%
%TF.FilePolarity,Positive*%
%FSLAX46Y46*%
G04 Gerber Fmt 4.6, Leading zero omitted, Abs format (unit mm)*
G04 Created by KiCad (PCBNEW 9.0.6-9.0.6~ubuntu22.04.1) date 2025-11-25 23:32:41*
%MOMM*%
%LPD*%
G01*
G04 APERTURE LIST*
%ADD10C,0.400000*%
%ADD11C,0.100000*%
%ADD12C,0.300000*%
G04 APERTURE END LIST*
D10*
X110265561Y-83159700D02*
X108265561Y-82493034D01*
X108265561Y-82493034D02*
X110265561Y-81826367D01*
X108265561Y-78588271D02*
X108265561Y-79731128D01*
X108265561Y-79159700D02*
X110265561Y-79159700D01*
X110265561Y-79159700D02*
X109979847Y-79350176D01*
X109979847Y-79350176D02*
X109789371Y-79540652D01*
X109789371Y-79540652D02*
X109694133Y-79731128D01*
X108456038Y-77731128D02*
X108360800Y-77635890D01*
X108360800Y-77635890D02*
X108265561Y-77731128D01*
X108265561Y-77731128D02*
X108360800Y-77826366D01*
X108360800Y-77826366D02*
X108456038Y-77731128D01*
X108456038Y-77731128D02*
X108265561Y-77731128D01*
X110265561Y-76397795D02*
X110265561Y-76207318D01*
X110265561Y-76207318D02*
X110170323Y-76016842D01*
X110170323Y-76016842D02*
X110075085Y-75921604D01*
X110075085Y-75921604D02*
X109884609Y-75826366D01*
X109884609Y-75826366D02*
X109503657Y-75731128D01*
X109503657Y-75731128D02*
X109027466Y-75731128D01*
X109027466Y-75731128D02*
X108646514Y-75826366D01*
X108646514Y-75826366D02*
X108456038Y-75921604D01*
X108456038Y-75921604D02*
X108360800Y-76016842D01*
X108360800Y-76016842D02*
X108265561Y-76207318D01*
X108265561Y-76207318D02*
X108265561Y-76397795D01*
X108265561Y-76397795D02*
X108360800Y-76588271D01*
X108360800Y-76588271D02*
X108456038Y-76683509D01*
X108456038Y-76683509D02*
X108646514Y-76778747D01*
X108646514Y-76778747D02*
X109027466Y-76873985D01*
X109027466Y-76873985D02*
X109503657Y-76873985D01*
X109503657Y-76873985D02*
X109884609Y-76778747D01*
X109884609Y-76778747D02*
X110075085Y-76683509D01*
X110075085Y-76683509D02*
X110170323Y-76588271D01*
X110170323Y-76588271D02*
X110265561Y-76397795D01*
X115717942Y-87493034D02*
X114765561Y-87493034D01*
X116765561Y-88159700D02*
X115717942Y-87493034D01*
X115717942Y-87493034D02*
X116765561Y-86826367D01*
X114860800Y-85397795D02*
X114765561Y-85588271D01*
X114765561Y-85588271D02*
X114765561Y-85969224D01*
X114765561Y-85969224D02*
X114860800Y-86159700D01*
X114860800Y-86159700D02*
X115051276Y-86254938D01*
X115051276Y-86254938D02*
X115813180Y-86254938D01*
X115813180Y-86254938D02*
X116003657Y-86159700D01*
X116003657Y-86159700D02*
X116098895Y-85969224D01*
X116098895Y-85969224D02*
X116098895Y-85588271D01*
X116098895Y-85588271D02*
X116003657Y-85397795D01*
X116003657Y-85397795D02*
X115813180Y-85302557D01*
X115813180Y-85302557D02*
X115622704Y-85302557D01*
X115622704Y-85302557D02*
X115432228Y-86254938D01*
X116098895Y-84445414D02*
X114765561Y-84445414D01*
X115908419Y-84445414D02*
X116003657Y-84350176D01*
X116003657Y-84350176D02*
X116098895Y-84159700D01*
X116098895Y-84159700D02*
X116098895Y-83873985D01*
X116098895Y-83873985D02*
X116003657Y-83683509D01*
X116003657Y-83683509D02*
X115813180Y-83588271D01*
X115813180Y-83588271D02*
X114765561Y-83588271D01*
X114860800Y-82731128D02*
X114765561Y-82540652D01*
X114765561Y-82540652D02*
X114765561Y-82159700D01*
X114765561Y-82159700D02*
X114860800Y-81969223D01*
X114860800Y-81969223D02*
X115051276Y-81873985D01*
X115051276Y-81873985D02*
X115146514Y-81873985D01*
X115146514Y-81873985D02*
X115336990Y-81969223D01*
X115336990Y-81969223D02*
X115432228Y-82159700D01*
X115432228Y-82159700D02*
X115432228Y-82445414D01*
X115432228Y-82445414D02*
X115527466Y-82635890D01*
X115527466Y-82635890D02*
X115717942Y-82731128D01*
X115717942Y-82731128D02*
X115813180Y-82731128D01*
X115813180Y-82731128D02*
X116003657Y-82635890D01*
X116003657Y-82635890D02*
X116098895Y-82445414D01*
X116098895Y-82445414D02*
X116098895Y-82159700D01*
X116098895Y-82159700D02*
X116003657Y-81969223D01*
X114765561Y-77873984D02*
X114765561Y-77969223D01*
X114765561Y-77969223D02*
X114860800Y-78159699D01*
X114860800Y-78159699D02*
X115146514Y-78445413D01*
X115146514Y-78445413D02*
X115717942Y-78921603D01*
X115717942Y-78921603D02*
X116003657Y-79112080D01*
X116003657Y-79112080D02*
X116289371Y-79207318D01*
X116289371Y-79207318D02*
X116479847Y-79207318D01*
X116479847Y-79207318D02*
X116670323Y-79112080D01*
X116670323Y-79112080D02*
X116765561Y-78921603D01*
X116765561Y-78921603D02*
X116765561Y-78826365D01*
X116765561Y-78826365D02*
X116670323Y-78635889D01*
X116670323Y-78635889D02*
X116479847Y-78540651D01*
X116479847Y-78540651D02*
X116384609Y-78540651D01*
X116384609Y-78540651D02*
X116194133Y-78635889D01*
X116194133Y-78635889D02*
X116098895Y-78731127D01*
X116098895Y-78731127D02*
X115717942Y-79302556D01*
X115717942Y-79302556D02*
X115622704Y-79397794D01*
X115622704Y-79397794D02*
X115432228Y-79493032D01*
X115432228Y-79493032D02*
X115146514Y-79493032D01*
X115146514Y-79493032D02*
X114956038Y-79397794D01*
X114956038Y-79397794D02*
X114860800Y-79302556D01*
X114860800Y-79302556D02*
X114765561Y-79112080D01*
X114765561Y-79112080D02*
X114765561Y-78826365D01*
X114765561Y-78826365D02*
X114860800Y-78635889D01*
X114860800Y-78635889D02*
X114956038Y-78540651D01*
X114956038Y-78540651D02*
X115336990Y-78254937D01*
X115336990Y-78254937D02*
X115622704Y-78159699D01*
X115622704Y-78159699D02*
X115813180Y-78159699D01*
X115717942Y-75112080D02*
X114765561Y-75112080D01*
X116765561Y-75778746D02*
X115717942Y-75112080D01*
X115717942Y-75112080D02*
X116765561Y-74445413D01*
X114860800Y-73016841D02*
X114765561Y-73207317D01*
X114765561Y-73207317D02*
X114765561Y-73588270D01*
X114765561Y-73588270D02*
X114860800Y-73778746D01*
X114860800Y-73778746D02*
X115051276Y-73873984D01*
X115051276Y-73873984D02*
X115813180Y-73873984D01*
X115813180Y-73873984D02*
X116003657Y-73778746D01*
X116003657Y-73778746D02*
X116098895Y-73588270D01*
X116098895Y-73588270D02*
X116098895Y-73207317D01*
X116098895Y-73207317D02*
X116003657Y-73016841D01*
X116003657Y-73016841D02*
X115813180Y-72921603D01*
X115813180Y-72921603D02*
X115622704Y-72921603D01*
X115622704Y-72921603D02*
X115432228Y-73873984D01*
X116098895Y-72064460D02*
X114765561Y-72064460D01*
X115908419Y-72064460D02*
X116003657Y-71969222D01*
X116003657Y-71969222D02*
X116098895Y-71778746D01*
X116098895Y-71778746D02*
X116098895Y-71493031D01*
X116098895Y-71493031D02*
X116003657Y-71302555D01*
X116003657Y-71302555D02*
X115813180Y-71207317D01*
X115813180Y-71207317D02*
X114765561Y-71207317D01*
X114860800Y-70350174D02*
X114765561Y-70159698D01*
X114765561Y-70159698D02*
X114765561Y-69778746D01*
X114765561Y-69778746D02*
X114860800Y-69588269D01*
X114860800Y-69588269D02*
X115051276Y-69493031D01*
X115051276Y-69493031D02*
X115146514Y-69493031D01*
X115146514Y-69493031D02*
X115336990Y-69588269D01*
X115336990Y-69588269D02*
X115432228Y-69778746D01*
X115432228Y-69778746D02*
X115432228Y-70064460D01*
X115432228Y-70064460D02*
X115527466Y-70254936D01*
X115527466Y-70254936D02*
X115717942Y-70350174D01*
X115717942Y-70350174D02*
X115813180Y-70350174D01*
X115813180Y-70350174D02*
X116003657Y-70254936D01*
X116003657Y-70254936D02*
X116098895Y-70064460D01*
X116098895Y-70064460D02*
X116098895Y-69778746D01*
X116098895Y-69778746D02*
X116003657Y-69588269D01*
D11*
X112127580Y-93309449D02*
X113127580Y-93309449D01*
X112794247Y-92833259D02*
X112127580Y-92833259D01*
X112699009Y-92833259D02*
X112746628Y-92785640D01*
X112746628Y-92785640D02*
X112794247Y-92690402D01*
X112794247Y-92690402D02*
X112794247Y-92547545D01*
X112794247Y-92547545D02*
X112746628Y-92452307D01*
X112746628Y-92452307D02*
X112651390Y-92404688D01*
X112651390Y-92404688D02*
X112127580Y-92404688D01*
X112794247Y-92071354D02*
X112794247Y-91690402D01*
X113127580Y-91928497D02*
X112270438Y-91928497D01*
X112270438Y-91928497D02*
X112175200Y-91880878D01*
X112175200Y-91880878D02*
X112127580Y-91785640D01*
X112127580Y-91785640D02*
X112127580Y-91690402D01*
X112175200Y-90976116D02*
X112127580Y-91071354D01*
X112127580Y-91071354D02*
X112127580Y-91261830D01*
X112127580Y-91261830D02*
X112175200Y-91357068D01*
X112175200Y-91357068D02*
X112270438Y-91404687D01*
X112270438Y-91404687D02*
X112651390Y-91404687D01*
X112651390Y-91404687D02*
X112746628Y-91357068D01*
X112746628Y-91357068D02*
X112794247Y-91261830D01*
X112794247Y-91261830D02*
X112794247Y-91071354D01*
X112794247Y-91071354D02*
X112746628Y-90976116D01*
X112746628Y-90976116D02*
X112651390Y-90928497D01*
X112651390Y-90928497D02*
X112556152Y-90928497D01*
X112556152Y-90928497D02*
X112460914Y-91404687D01*
X112127580Y-90499925D02*
X112794247Y-90499925D01*
X112603771Y-90499925D02*
X112699009Y-90452306D01*
X112699009Y-90452306D02*
X112746628Y-90404687D01*
X112746628Y-90404687D02*
X112794247Y-90309449D01*
X112794247Y-90309449D02*
X112794247Y-90214211D01*
X112794247Y-89880877D02*
X112127580Y-89880877D01*
X112699009Y-89880877D02*
X112746628Y-89833258D01*
X112746628Y-89833258D02*
X112794247Y-89738020D01*
X112794247Y-89738020D02*
X112794247Y-89595163D01*
X112794247Y-89595163D02*
X112746628Y-89499925D01*
X112746628Y-89499925D02*
X112651390Y-89452306D01*
X112651390Y-89452306D02*
X112127580Y-89452306D01*
X112175200Y-89023734D02*
X112127580Y-88928496D01*
X112127580Y-88928496D02*
X112127580Y-88738020D01*
X112127580Y-88738020D02*
X112175200Y-88642782D01*
X112175200Y-88642782D02*
X112270438Y-88595163D01*
X112270438Y-88595163D02*
X112318057Y-88595163D01*
X112318057Y-88595163D02*
X112413295Y-88642782D01*
X112413295Y-88642782D02*
X112460914Y-88738020D01*
X112460914Y-88738020D02*
X112460914Y-88880877D01*
X112460914Y-88880877D02*
X112508533Y-88976115D01*
X112508533Y-88976115D02*
X112603771Y-89023734D01*
X112603771Y-89023734D02*
X112651390Y-89023734D01*
X112651390Y-89023734D02*
X112746628Y-88976115D01*
X112746628Y-88976115D02*
X112794247Y-88880877D01*
X112794247Y-88880877D02*
X112794247Y-88738020D01*
X112794247Y-88738020D02*
X112746628Y-88642782D01*
X112127580Y-88166591D02*
X113127580Y-88166591D01*
X112127580Y-87738020D02*
X112651390Y-87738020D01*
X112651390Y-87738020D02*
X112746628Y-87785639D01*
X112746628Y-87785639D02*
X112794247Y-87880877D01*
X112794247Y-87880877D02*
X112794247Y-88023734D01*
X112794247Y-88023734D02*
X112746628Y-88118972D01*
X112746628Y-88118972D02*
X112699009Y-88166591D01*
X112127580Y-87261829D02*
X112794247Y-87261829D01*
X113127580Y-87261829D02*
X113079961Y-87309448D01*
X113079961Y-87309448D02*
X113032342Y-87261829D01*
X113032342Y-87261829D02*
X113079961Y-87214210D01*
X113079961Y-87214210D02*
X113127580Y-87261829D01*
X113127580Y-87261829D02*
X113032342Y-87261829D01*
X112794247Y-86785639D02*
X111794247Y-86785639D01*
X112746628Y-86785639D02*
X112794247Y-86690401D01*
X112794247Y-86690401D02*
X112794247Y-86499925D01*
X112794247Y-86499925D02*
X112746628Y-86404687D01*
X112746628Y-86404687D02*
X112699009Y-86357068D01*
X112699009Y-86357068D02*
X112603771Y-86309449D01*
X112603771Y-86309449D02*
X112318057Y-86309449D01*
X112318057Y-86309449D02*
X112222819Y-86357068D01*
X112222819Y-86357068D02*
X112175200Y-86404687D01*
X112175200Y-86404687D02*
X112127580Y-86499925D01*
X112127580Y-86499925D02*
X112127580Y-86690401D01*
X112127580Y-86690401D02*
X112175200Y-86785639D01*
X113127580Y-85261829D02*
X113127580Y-84690401D01*
X112127580Y-84976115D02*
X113127580Y-84976115D01*
X112175200Y-83976115D02*
X112127580Y-84071353D01*
X112127580Y-84071353D02*
X112127580Y-84261829D01*
X112127580Y-84261829D02*
X112175200Y-84357067D01*
X112175200Y-84357067D02*
X112270438Y-84404686D01*
X112270438Y-84404686D02*
X112651390Y-84404686D01*
X112651390Y-84404686D02*
X112746628Y-84357067D01*
X112746628Y-84357067D02*
X112794247Y-84261829D01*
X112794247Y-84261829D02*
X112794247Y-84071353D01*
X112794247Y-84071353D02*
X112746628Y-83976115D01*
X112746628Y-83976115D02*
X112651390Y-83928496D01*
X112651390Y-83928496D02*
X112556152Y-83928496D01*
X112556152Y-83928496D02*
X112460914Y-84404686D01*
X112175200Y-83071353D02*
X112127580Y-83166591D01*
X112127580Y-83166591D02*
X112127580Y-83357067D01*
X112127580Y-83357067D02*
X112175200Y-83452305D01*
X112175200Y-83452305D02*
X112222819Y-83499924D01*
X112222819Y-83499924D02*
X112318057Y-83547543D01*
X112318057Y-83547543D02*
X112603771Y-83547543D01*
X112603771Y-83547543D02*
X112699009Y-83499924D01*
X112699009Y-83499924D02*
X112746628Y-83452305D01*
X112746628Y-83452305D02*
X112794247Y-83357067D01*
X112794247Y-83357067D02*
X112794247Y-83166591D01*
X112794247Y-83166591D02*
X112746628Y-83071353D01*
X112127580Y-82642781D02*
X113127580Y-82642781D01*
X112127580Y-82214210D02*
X112651390Y-82214210D01*
X112651390Y-82214210D02*
X112746628Y-82261829D01*
X112746628Y-82261829D02*
X112794247Y-82357067D01*
X112794247Y-82357067D02*
X112794247Y-82499924D01*
X112794247Y-82499924D02*
X112746628Y-82595162D01*
X112746628Y-82595162D02*
X112699009Y-82642781D01*
X112794247Y-81738019D02*
X112127580Y-81738019D01*
X112699009Y-81738019D02*
X112746628Y-81690400D01*
X112746628Y-81690400D02*
X112794247Y-81595162D01*
X112794247Y-81595162D02*
X112794247Y-81452305D01*
X112794247Y-81452305D02*
X112746628Y-81357067D01*
X112746628Y-81357067D02*
X112651390Y-81309448D01*
X112651390Y-81309448D02*
X112127580Y-81309448D01*
X112127580Y-80833257D02*
X112794247Y-80833257D01*
X113127580Y-80833257D02*
X113079961Y-80880876D01*
X113079961Y-80880876D02*
X113032342Y-80833257D01*
X113032342Y-80833257D02*
X113079961Y-80785638D01*
X113079961Y-80785638D02*
X113127580Y-80833257D01*
X113127580Y-80833257D02*
X113032342Y-80833257D01*
X112175200Y-79928496D02*
X112127580Y-80023734D01*
X112127580Y-80023734D02*
X112127580Y-80214210D01*
X112127580Y-80214210D02*
X112175200Y-80309448D01*
X112175200Y-80309448D02*
X112222819Y-80357067D01*
X112222819Y-80357067D02*
X112318057Y-80404686D01*
X112318057Y-80404686D02*
X112603771Y-80404686D01*
X112603771Y-80404686D02*
X112699009Y-80357067D01*
X112699009Y-80357067D02*
X112746628Y-80309448D01*
X112746628Y-80309448D02*
X112794247Y-80214210D01*
X112794247Y-80214210D02*
X112794247Y-80023734D01*
X112794247Y-80023734D02*
X112746628Y-79928496D01*
X112127580Y-79071353D02*
X112651390Y-79071353D01*
X112651390Y-79071353D02*
X112746628Y-79118972D01*
X112746628Y-79118972D02*
X112794247Y-79214210D01*
X112794247Y-79214210D02*
X112794247Y-79404686D01*
X112794247Y-79404686D02*
X112746628Y-79499924D01*
X112175200Y-79071353D02*
X112127580Y-79166591D01*
X112127580Y-79166591D02*
X112127580Y-79404686D01*
X112127580Y-79404686D02*
X112175200Y-79499924D01*
X112175200Y-79499924D02*
X112270438Y-79547543D01*
X112270438Y-79547543D02*
X112365676Y-79547543D01*
X112365676Y-79547543D02*
X112460914Y-79499924D01*
X112460914Y-79499924D02*
X112508533Y-79404686D01*
X112508533Y-79404686D02*
X112508533Y-79166591D01*
X112508533Y-79166591D02*
X112556152Y-79071353D01*
X112127580Y-78452305D02*
X112175200Y-78547543D01*
X112175200Y-78547543D02*
X112270438Y-78595162D01*
X112270438Y-78595162D02*
X113127580Y-78595162D01*
X113127580Y-77452304D02*
X113127580Y-76880876D01*
X112127580Y-77166590D02*
X113127580Y-77166590D01*
X112175200Y-76166590D02*
X112127580Y-76261828D01*
X112127580Y-76261828D02*
X112127580Y-76452304D01*
X112127580Y-76452304D02*
X112175200Y-76547542D01*
X112175200Y-76547542D02*
X112270438Y-76595161D01*
X112270438Y-76595161D02*
X112651390Y-76595161D01*
X112651390Y-76595161D02*
X112746628Y-76547542D01*
X112746628Y-76547542D02*
X112794247Y-76452304D01*
X112794247Y-76452304D02*
X112794247Y-76261828D01*
X112794247Y-76261828D02*
X112746628Y-76166590D01*
X112746628Y-76166590D02*
X112651390Y-76118971D01*
X112651390Y-76118971D02*
X112556152Y-76118971D01*
X112556152Y-76118971D02*
X112460914Y-76595161D01*
X112175200Y-75738018D02*
X112127580Y-75642780D01*
X112127580Y-75642780D02*
X112127580Y-75452304D01*
X112127580Y-75452304D02*
X112175200Y-75357066D01*
X112175200Y-75357066D02*
X112270438Y-75309447D01*
X112270438Y-75309447D02*
X112318057Y-75309447D01*
X112318057Y-75309447D02*
X112413295Y-75357066D01*
X112413295Y-75357066D02*
X112460914Y-75452304D01*
X112460914Y-75452304D02*
X112460914Y-75595161D01*
X112460914Y-75595161D02*
X112508533Y-75690399D01*
X112508533Y-75690399D02*
X112603771Y-75738018D01*
X112603771Y-75738018D02*
X112651390Y-75738018D01*
X112651390Y-75738018D02*
X112746628Y-75690399D01*
X112746628Y-75690399D02*
X112794247Y-75595161D01*
X112794247Y-75595161D02*
X112794247Y-75452304D01*
X112794247Y-75452304D02*
X112746628Y-75357066D01*
X112794247Y-75023732D02*
X112794247Y-74642780D01*
X113127580Y-74880875D02*
X112270438Y-74880875D01*
X112270438Y-74880875D02*
X112175200Y-74833256D01*
X112175200Y-74833256D02*
X112127580Y-74738018D01*
X112127580Y-74738018D02*
X112127580Y-74642780D01*
X112413295Y-73595160D02*
X112413295Y-73118970D01*
X112127580Y-73690398D02*
X113127580Y-73357065D01*
X113127580Y-73357065D02*
X112127580Y-73023732D01*
X112175200Y-72738017D02*
X112127580Y-72642779D01*
X112127580Y-72642779D02*
X112127580Y-72452303D01*
X112127580Y-72452303D02*
X112175200Y-72357065D01*
X112175200Y-72357065D02*
X112270438Y-72309446D01*
X112270438Y-72309446D02*
X112318057Y-72309446D01*
X112318057Y-72309446D02*
X112413295Y-72357065D01*
X112413295Y-72357065D02*
X112460914Y-72452303D01*
X112460914Y-72452303D02*
X112460914Y-72595160D01*
X112460914Y-72595160D02*
X112508533Y-72690398D01*
X112508533Y-72690398D02*
X112603771Y-72738017D01*
X112603771Y-72738017D02*
X112651390Y-72738017D01*
X112651390Y-72738017D02*
X112746628Y-72690398D01*
X112746628Y-72690398D02*
X112794247Y-72595160D01*
X112794247Y-72595160D02*
X112794247Y-72452303D01*
X112794247Y-72452303D02*
X112746628Y-72357065D01*
X112175200Y-71928493D02*
X112127580Y-71833255D01*
X112127580Y-71833255D02*
X112127580Y-71642779D01*
X112127580Y-71642779D02*
X112175200Y-71547541D01*
X112175200Y-71547541D02*
X112270438Y-71499922D01*
X112270438Y-71499922D02*
X112318057Y-71499922D01*
X112318057Y-71499922D02*
X112413295Y-71547541D01*
X112413295Y-71547541D02*
X112460914Y-71642779D01*
X112460914Y-71642779D02*
X112460914Y-71785636D01*
X112460914Y-71785636D02*
X112508533Y-71880874D01*
X112508533Y-71880874D02*
X112603771Y-71928493D01*
X112603771Y-71928493D02*
X112651390Y-71928493D01*
X112651390Y-71928493D02*
X112746628Y-71880874D01*
X112746628Y-71880874D02*
X112794247Y-71785636D01*
X112794247Y-71785636D02*
X112794247Y-71642779D01*
X112794247Y-71642779D02*
X112746628Y-71547541D01*
X112127580Y-71071350D02*
X112794247Y-71071350D01*
X113127580Y-71071350D02*
X113079961Y-71118969D01*
X113079961Y-71118969D02*
X113032342Y-71071350D01*
X113032342Y-71071350D02*
X113079961Y-71023731D01*
X113079961Y-71023731D02*
X113127580Y-71071350D01*
X113127580Y-71071350D02*
X113032342Y-71071350D01*
X112794247Y-70166589D02*
X111984723Y-70166589D01*
X111984723Y-70166589D02*
X111889485Y-70214208D01*
X111889485Y-70214208D02*
X111841866Y-70261827D01*
X111841866Y-70261827D02*
X111794247Y-70357065D01*
X111794247Y-70357065D02*
X111794247Y-70499922D01*
X111794247Y-70499922D02*
X111841866Y-70595160D01*
X112175200Y-70166589D02*
X112127580Y-70261827D01*
X112127580Y-70261827D02*
X112127580Y-70452303D01*
X112127580Y-70452303D02*
X112175200Y-70547541D01*
X112175200Y-70547541D02*
X112222819Y-70595160D01*
X112222819Y-70595160D02*
X112318057Y-70642779D01*
X112318057Y-70642779D02*
X112603771Y-70642779D01*
X112603771Y-70642779D02*
X112699009Y-70595160D01*
X112699009Y-70595160D02*
X112746628Y-70547541D01*
X112746628Y-70547541D02*
X112794247Y-70452303D01*
X112794247Y-70452303D02*
X112794247Y-70261827D01*
X112794247Y-70261827D02*
X112746628Y-70166589D01*
X112794247Y-69690398D02*
X112127580Y-69690398D01*
X112699009Y-69690398D02*
X112746628Y-69642779D01*
X112746628Y-69642779D02*
X112794247Y-69547541D01*
X112794247Y-69547541D02*
X112794247Y-69404684D01*
X112794247Y-69404684D02*
X112746628Y-69309446D01*
X112746628Y-69309446D02*
X112651390Y-69261827D01*
X112651390Y-69261827D02*
X112127580Y-69261827D01*
X112127580Y-68785636D02*
X112794247Y-68785636D01*
X112699009Y-68785636D02*
X112746628Y-68738017D01*
X112746628Y-68738017D02*
X112794247Y-68642779D01*
X112794247Y-68642779D02*
X112794247Y-68499922D01*
X112794247Y-68499922D02*
X112746628Y-68404684D01*
X112746628Y-68404684D02*
X112651390Y-68357065D01*
X112651390Y-68357065D02*
X112127580Y-68357065D01*
X112651390Y-68357065D02*
X112746628Y-68309446D01*
X112746628Y-68309446D02*
X112794247Y-68214208D01*
X112794247Y-68214208D02*
X112794247Y-68071351D01*
X112794247Y-68071351D02*
X112746628Y-67976112D01*
X112746628Y-67976112D02*
X112651390Y-67928493D01*
X112651390Y-67928493D02*
X112127580Y-67928493D01*
X112175200Y-67071351D02*
X112127580Y-67166589D01*
X112127580Y-67166589D02*
X112127580Y-67357065D01*
X112127580Y-67357065D02*
X112175200Y-67452303D01*
X112175200Y-67452303D02*
X112270438Y-67499922D01*
X112270438Y-67499922D02*
X112651390Y-67499922D01*
X112651390Y-67499922D02*
X112746628Y-67452303D01*
X112746628Y-67452303D02*
X112794247Y-67357065D01*
X112794247Y-67357065D02*
X112794247Y-67166589D01*
X112794247Y-67166589D02*
X112746628Y-67071351D01*
X112746628Y-67071351D02*
X112651390Y-67023732D01*
X112651390Y-67023732D02*
X112556152Y-67023732D01*
X112556152Y-67023732D02*
X112460914Y-67499922D01*
X112794247Y-66595160D02*
X112127580Y-66595160D01*
X112699009Y-66595160D02*
X112746628Y-66547541D01*
X112746628Y-66547541D02*
X112794247Y-66452303D01*
X112794247Y-66452303D02*
X112794247Y-66309446D01*
X112794247Y-66309446D02*
X112746628Y-66214208D01*
X112746628Y-66214208D02*
X112651390Y-66166589D01*
X112651390Y-66166589D02*
X112127580Y-66166589D01*
X112794247Y-65833255D02*
X112794247Y-65452303D01*
X113127580Y-65690398D02*
X112270438Y-65690398D01*
X112270438Y-65690398D02*
X112175200Y-65642779D01*
X112175200Y-65642779D02*
X112127580Y-65547541D01*
X112127580Y-65547541D02*
X112127580Y-65452303D01*
D12*
X109000000Y-52385912D02*
X109000000Y-53885912D01*
X109000000Y-52457341D02*
X108857143Y-52385912D01*
X108857143Y-52385912D02*
X108571428Y-52385912D01*
X108571428Y-52385912D02*
X108428571Y-52457341D01*
X108428571Y-52457341D02*
X108357143Y-52528769D01*
X108357143Y-52528769D02*
X108285714Y-52671626D01*
X108285714Y-52671626D02*
X108285714Y-53100198D01*
X108285714Y-53100198D02*
X108357143Y-53243055D01*
X108357143Y-53243055D02*
X108428571Y-53314484D01*
X108428571Y-53314484D02*
X108571428Y-53385912D01*
X108571428Y-53385912D02*
X108857143Y-53385912D01*
X108857143Y-53385912D02*
X109000000Y-53314484D01*
X107642857Y-53385912D02*
X107642857Y-52385912D01*
X107642857Y-51885912D02*
X107714285Y-51957341D01*
X107714285Y-51957341D02*
X107642857Y-52028769D01*
X107642857Y-52028769D02*
X107571428Y-51957341D01*
X107571428Y-51957341D02*
X107642857Y-51885912D01*
X107642857Y-51885912D02*
X107642857Y-52028769D01*
X106285714Y-53314484D02*
X106428571Y-53385912D01*
X106428571Y-53385912D02*
X106714285Y-53385912D01*
X106714285Y-53385912D02*
X106857142Y-53314484D01*
X106857142Y-53314484D02*
X106928571Y-53243055D01*
X106928571Y-53243055D02*
X106999999Y-53100198D01*
X106999999Y-53100198D02*
X106999999Y-52671626D01*
X106999999Y-52671626D02*
X106928571Y-52528769D01*
X106928571Y-52528769D02*
X106857142Y-52457341D01*
X106857142Y-52457341D02*
X106714285Y-52385912D01*
X106714285Y-52385912D02*
X106428571Y-52385912D01*
X106428571Y-52385912D02*
X106285714Y-52457341D01*
X105428571Y-53385912D02*
X105571428Y-53314484D01*
X105571428Y-53314484D02*
X105642857Y-53243055D01*
X105642857Y-53243055D02*
X105714285Y-53100198D01*
X105714285Y-53100198D02*
X105714285Y-52671626D01*
X105714285Y-52671626D02*
X105642857Y-52528769D01*
X105642857Y-52528769D02*
X105571428Y-52457341D01*
X105571428Y-52457341D02*
X105428571Y-52385912D01*
X105428571Y-52385912D02*
X105214285Y-52385912D01*
X105214285Y-52385912D02*
X105071428Y-52457341D01*
X105071428Y-52457341D02*
X105000000Y-52528769D01*
X105000000Y-52528769D02*
X104928571Y-52671626D01*
X104928571Y-52671626D02*
X104928571Y-53100198D01*
X104928571Y-53100198D02*
X105000000Y-53243055D01*
X105000000Y-53243055D02*
X105071428Y-53314484D01*
X105071428Y-53314484D02*
X105214285Y-53385912D01*
X105214285Y-53385912D02*
X105428571Y-53385912D01*
X108892857Y-54300828D02*
X108892857Y-55515114D01*
X108892857Y-55515114D02*
X108821428Y-55657971D01*
X108821428Y-55657971D02*
X108750000Y-55729400D01*
X108750000Y-55729400D02*
X108607142Y-55800828D01*
X108607142Y-55800828D02*
X108321428Y-55800828D01*
X108321428Y-55800828D02*
X108178571Y-55729400D01*
X108178571Y-55729400D02*
X108107142Y-55657971D01*
X108107142Y-55657971D02*
X108035714Y-55515114D01*
X108035714Y-55515114D02*
X108035714Y-54300828D01*
X107392856Y-55729400D02*
X107178571Y-55800828D01*
X107178571Y-55800828D02*
X106821428Y-55800828D01*
X106821428Y-55800828D02*
X106678571Y-55729400D01*
X106678571Y-55729400D02*
X106607142Y-55657971D01*
X106607142Y-55657971D02*
X106535713Y-55515114D01*
X106535713Y-55515114D02*
X106535713Y-55372257D01*
X106535713Y-55372257D02*
X106607142Y-55229400D01*
X106607142Y-55229400D02*
X106678571Y-55157971D01*
X106678571Y-55157971D02*
X106821428Y-55086542D01*
X106821428Y-55086542D02*
X107107142Y-55015114D01*
X107107142Y-55015114D02*
X107249999Y-54943685D01*
X107249999Y-54943685D02*
X107321428Y-54872257D01*
X107321428Y-54872257D02*
X107392856Y-54729400D01*
X107392856Y-54729400D02*
X107392856Y-54586542D01*
X107392856Y-54586542D02*
X107321428Y-54443685D01*
X107321428Y-54443685D02*
X107249999Y-54372257D01*
X107249999Y-54372257D02*
X107107142Y-54300828D01*
X107107142Y-54300828D02*
X106749999Y-54300828D01*
X106749999Y-54300828D02*
X106535713Y-54372257D01*
X105392857Y-55015114D02*
X105178571Y-55086542D01*
X105178571Y-55086542D02*
X105107142Y-55157971D01*
X105107142Y-55157971D02*
X105035714Y-55300828D01*
X105035714Y-55300828D02*
X105035714Y-55515114D01*
X105035714Y-55515114D02*
X105107142Y-55657971D01*
X105107142Y-55657971D02*
X105178571Y-55729400D01*
X105178571Y-55729400D02*
X105321428Y-55800828D01*
X105321428Y-55800828D02*
X105892857Y-55800828D01*
X105892857Y-55800828D02*
X105892857Y-54300828D01*
X105892857Y-54300828D02*
X105392857Y-54300828D01*
X105392857Y-54300828D02*
X105250000Y-54372257D01*
X105250000Y-54372257D02*
X105178571Y-54443685D01*
X105178571Y-54443685D02*
X105107142Y-54586542D01*
X105107142Y-54586542D02*
X105107142Y-54729400D01*
X105107142Y-54729400D02*
X105178571Y-54872257D01*
X105178571Y-54872257D02*
X105250000Y-54943685D01*
X105250000Y-54943685D02*
X105392857Y-55015114D01*
X105392857Y-55015114D02*
X105892857Y-55015114D01*
X133464285Y-121385912D02*
X134178571Y-121385912D01*
X134178571Y-121385912D02*
X134178571Y-119885912D01*
X132964285Y-120600198D02*
X132464285Y-120600198D01*
X132249999Y-121385912D02*
X132964285Y-121385912D01*
X132964285Y-121385912D02*
X132964285Y-119885912D01*
X132964285Y-119885912D02*
X132249999Y-119885912D01*
X131607142Y-121385912D02*
X131607142Y-119885912D01*
X131607142Y-119885912D02*
X131249999Y-119885912D01*
X131249999Y-119885912D02*
X131035713Y-119957341D01*
X131035713Y-119957341D02*
X130892856Y-120100198D01*
X130892856Y-120100198D02*
X130821427Y-120243055D01*
X130821427Y-120243055D02*
X130749999Y-120528769D01*
X130749999Y-120528769D02*
X130749999Y-120743055D01*
X130749999Y-120743055D02*
X130821427Y-121028769D01*
X130821427Y-121028769D02*
X130892856Y-121171626D01*
X130892856Y-121171626D02*
X131035713Y-121314484D01*
X131035713Y-121314484D02*
X131249999Y-121385912D01*
X131249999Y-121385912D02*
X131607142Y-121385912D01*
X137500000Y-123657971D02*
X137571428Y-123729400D01*
X137571428Y-123729400D02*
X137785714Y-123800828D01*
X137785714Y-123800828D02*
X137928571Y-123800828D01*
X137928571Y-123800828D02*
X138142857Y-123729400D01*
X138142857Y-123729400D02*
X138285714Y-123586542D01*
X138285714Y-123586542D02*
X138357143Y-123443685D01*
X138357143Y-123443685D02*
X138428571Y-123157971D01*
X138428571Y-123157971D02*
X138428571Y-122943685D01*
X138428571Y-122943685D02*
X138357143Y-122657971D01*
X138357143Y-122657971D02*
X138285714Y-122515114D01*
X138285714Y-122515114D02*
X138142857Y-122372257D01*
X138142857Y-122372257D02*
X137928571Y-122300828D01*
X137928571Y-122300828D02*
X137785714Y-122300828D01*
X137785714Y-122300828D02*
X137571428Y-122372257D01*
X137571428Y-122372257D02*
X137500000Y-122443685D01*
X136642857Y-123800828D02*
X136785714Y-123729400D01*
X136785714Y-123729400D02*
X136857143Y-123657971D01*
X136857143Y-123657971D02*
X136928571Y-123515114D01*
X136928571Y-123515114D02*
X136928571Y-123086542D01*
X136928571Y-123086542D02*
X136857143Y-122943685D01*
X136857143Y-122943685D02*
X136785714Y-122872257D01*
X136785714Y-122872257D02*
X136642857Y-122800828D01*
X136642857Y-122800828D02*
X136428571Y-122800828D01*
X136428571Y-122800828D02*
X136285714Y-122872257D01*
X136285714Y-122872257D02*
X136214286Y-122943685D01*
X136214286Y-122943685D02*
X136142857Y-123086542D01*
X136142857Y-123086542D02*
X136142857Y-123515114D01*
X136142857Y-123515114D02*
X136214286Y-123657971D01*
X136214286Y-123657971D02*
X136285714Y-123729400D01*
X136285714Y-123729400D02*
X136428571Y-123800828D01*
X136428571Y-123800828D02*
X136642857Y-123800828D01*
X135500000Y-122800828D02*
X135500000Y-123800828D01*
X135500000Y-122943685D02*
X135428571Y-122872257D01*
X135428571Y-122872257D02*
X135285714Y-122800828D01*
X135285714Y-122800828D02*
X135071428Y-122800828D01*
X135071428Y-122800828D02*
X134928571Y-122872257D01*
X134928571Y-122872257D02*
X134857143Y-123015114D01*
X134857143Y-123015114D02*
X134857143Y-123800828D01*
X134142857Y-122800828D02*
X134142857Y-123800828D01*
X134142857Y-122943685D02*
X134071428Y-122872257D01*
X134071428Y-122872257D02*
X133928571Y-122800828D01*
X133928571Y-122800828D02*
X133714285Y-122800828D01*
X133714285Y-122800828D02*
X133571428Y-122872257D01*
X133571428Y-122872257D02*
X133500000Y-123015114D01*
X133500000Y-123015114D02*
X133500000Y-123800828D01*
X132214285Y-123729400D02*
X132357142Y-123800828D01*
X132357142Y-123800828D02*
X132642857Y-123800828D01*
X132642857Y-123800828D02*
X132785714Y-123729400D01*
X132785714Y-123729400D02*
X132857142Y-123586542D01*
X132857142Y-123586542D02*
X132857142Y-123015114D01*
X132857142Y-123015114D02*
X132785714Y-122872257D01*
X132785714Y-122872257D02*
X132642857Y-122800828D01*
X132642857Y-122800828D02*
X132357142Y-122800828D01*
X132357142Y-122800828D02*
X132214285Y-122872257D01*
X132214285Y-122872257D02*
X132142857Y-123015114D01*
X132142857Y-123015114D02*
X132142857Y-123157971D01*
X132142857Y-123157971D02*
X132857142Y-123300828D01*
X130857143Y-123729400D02*
X131000000Y-123800828D01*
X131000000Y-123800828D02*
X131285714Y-123800828D01*
X131285714Y-123800828D02*
X131428571Y-123729400D01*
X131428571Y-123729400D02*
X131500000Y-123657971D01*
X131500000Y-123657971D02*
X131571428Y-123515114D01*
X131571428Y-123515114D02*
X131571428Y-123086542D01*
X131571428Y-123086542D02*
X131500000Y-122943685D01*
X131500000Y-122943685D02*
X131428571Y-122872257D01*
X131428571Y-122872257D02*
X131285714Y-122800828D01*
X131285714Y-122800828D02*
X131000000Y-122800828D01*
X131000000Y-122800828D02*
X130857143Y-122872257D01*
X130428571Y-122800828D02*
X129857143Y-122800828D01*
X130214286Y-122300828D02*
X130214286Y-123586542D01*
X130214286Y-123586542D02*
X130142857Y-123729400D01*
X130142857Y-123729400D02*
X130000000Y-123800828D01*
X130000000Y-123800828D02*
X129857143Y-123800828D01*
X129357143Y-123800828D02*
X129357143Y-122800828D01*
X129357143Y-122300828D02*
X129428571Y-122372257D01*
X129428571Y-122372257D02*
X129357143Y-122443685D01*
X129357143Y-122443685D02*
X129285714Y-122372257D01*
X129285714Y-122372257D02*
X129357143Y-122300828D01*
X129357143Y-122300828D02*
X129357143Y-122443685D01*
X128428571Y-123800828D02*
X128571428Y-123729400D01*
X128571428Y-123729400D02*
X128642857Y-123657971D01*
X128642857Y-123657971D02*
X128714285Y-123515114D01*
X128714285Y-123515114D02*
X128714285Y-123086542D01*
X128714285Y-123086542D02*
X128642857Y-122943685D01*
X128642857Y-122943685D02*
X128571428Y-122872257D01*
X128571428Y-122872257D02*
X128428571Y-122800828D01*
X128428571Y-122800828D02*
X128214285Y-122800828D01*
X128214285Y-122800828D02*
X128071428Y-122872257D01*
X128071428Y-122872257D02*
X128000000Y-122943685D01*
X128000000Y-122943685D02*
X127928571Y-123086542D01*
X127928571Y-123086542D02*
X127928571Y-123515114D01*
X127928571Y-123515114D02*
X128000000Y-123657971D01*
X128000000Y-123657971D02*
X128071428Y-123729400D01*
X128071428Y-123729400D02*
X128214285Y-123800828D01*
X128214285Y-123800828D02*
X128428571Y-123800828D01*
X127285714Y-122800828D02*
X127285714Y-123800828D01*
X127285714Y-122943685D02*
X127214285Y-122872257D01*
X127214285Y-122872257D02*
X127071428Y-122800828D01*
X127071428Y-122800828D02*
X126857142Y-122800828D01*
X126857142Y-122800828D02*
X126714285Y-122872257D01*
X126714285Y-122872257D02*
X126642857Y-123015114D01*
X126642857Y-123015114D02*
X126642857Y-123800828D01*
X137714285Y-59185282D02*
X137214285Y-59185282D01*
X136999999Y-59970996D02*
X137714285Y-59970996D01*
X137714285Y-59970996D02*
X137714285Y-58470996D01*
X137714285Y-58470996D02*
X136999999Y-58470996D01*
X136499999Y-59970996D02*
X135714285Y-58970996D01*
X136499999Y-58970996D02*
X135714285Y-59970996D01*
X135357141Y-58970996D02*
X134785713Y-58970996D01*
X135142856Y-58470996D02*
X135142856Y-59756710D01*
X135142856Y-59756710D02*
X135071427Y-59899568D01*
X135071427Y-59899568D02*
X134928570Y-59970996D01*
X134928570Y-59970996D02*
X134785713Y-59970996D01*
X133714284Y-59899568D02*
X133857141Y-59970996D01*
X133857141Y-59970996D02*
X134142856Y-59970996D01*
X134142856Y-59970996D02*
X134285713Y-59899568D01*
X134285713Y-59899568D02*
X134357141Y-59756710D01*
X134357141Y-59756710D02*
X134357141Y-59185282D01*
X134357141Y-59185282D02*
X134285713Y-59042425D01*
X134285713Y-59042425D02*
X134142856Y-58970996D01*
X134142856Y-58970996D02*
X133857141Y-58970996D01*
X133857141Y-58970996D02*
X133714284Y-59042425D01*
X133714284Y-59042425D02*
X133642856Y-59185282D01*
X133642856Y-59185282D02*
X133642856Y-59328139D01*
X133642856Y-59328139D02*
X134357141Y-59470996D01*
X132999999Y-59970996D02*
X132999999Y-58970996D01*
X132999999Y-59256710D02*
X132928570Y-59113853D01*
X132928570Y-59113853D02*
X132857142Y-59042425D01*
X132857142Y-59042425D02*
X132714284Y-58970996D01*
X132714284Y-58970996D02*
X132571427Y-58970996D01*
X132071428Y-58970996D02*
X132071428Y-59970996D01*
X132071428Y-59113853D02*
X131999999Y-59042425D01*
X131999999Y-59042425D02*
X131857142Y-58970996D01*
X131857142Y-58970996D02*
X131642856Y-58970996D01*
X131642856Y-58970996D02*
X131499999Y-59042425D01*
X131499999Y-59042425D02*
X131428571Y-59185282D01*
X131428571Y-59185282D02*
X131428571Y-59970996D01*
X130071428Y-59970996D02*
X130071428Y-59185282D01*
X130071428Y-59185282D02*
X130142856Y-59042425D01*
X130142856Y-59042425D02*
X130285713Y-58970996D01*
X130285713Y-58970996D02*
X130571428Y-58970996D01*
X130571428Y-58970996D02*
X130714285Y-59042425D01*
X130071428Y-59899568D02*
X130214285Y-59970996D01*
X130214285Y-59970996D02*
X130571428Y-59970996D01*
X130571428Y-59970996D02*
X130714285Y-59899568D01*
X130714285Y-59899568D02*
X130785713Y-59756710D01*
X130785713Y-59756710D02*
X130785713Y-59613853D01*
X130785713Y-59613853D02*
X130714285Y-59470996D01*
X130714285Y-59470996D02*
X130571428Y-59399568D01*
X130571428Y-59399568D02*
X130214285Y-59399568D01*
X130214285Y-59399568D02*
X130071428Y-59328139D01*
X129142856Y-59970996D02*
X129285713Y-59899568D01*
X129285713Y-59899568D02*
X129357142Y-59756710D01*
X129357142Y-59756710D02*
X129357142Y-58470996D01*
X139321428Y-62385912D02*
X139321428Y-60885912D01*
X139321428Y-60885912D02*
X138821428Y-61957341D01*
X138821428Y-61957341D02*
X138321428Y-60885912D01*
X138321428Y-60885912D02*
X138321428Y-62385912D01*
X137607142Y-62385912D02*
X137607142Y-60885912D01*
X137607142Y-60885912D02*
X137035713Y-60885912D01*
X137035713Y-60885912D02*
X136892856Y-60957341D01*
X136892856Y-60957341D02*
X136821427Y-61028769D01*
X136821427Y-61028769D02*
X136749999Y-61171626D01*
X136749999Y-61171626D02*
X136749999Y-61385912D01*
X136749999Y-61385912D02*
X136821427Y-61528769D01*
X136821427Y-61528769D02*
X136892856Y-61600198D01*
X136892856Y-61600198D02*
X137035713Y-61671626D01*
X137035713Y-61671626D02*
X137607142Y-61671626D01*
X136107142Y-60885912D02*
X136107142Y-62100198D01*
X136107142Y-62100198D02*
X136035713Y-62243055D01*
X136035713Y-62243055D02*
X135964285Y-62314484D01*
X135964285Y-62314484D02*
X135821427Y-62385912D01*
X135821427Y-62385912D02*
X135535713Y-62385912D01*
X135535713Y-62385912D02*
X135392856Y-62314484D01*
X135392856Y-62314484D02*
X135321427Y-62243055D01*
X135321427Y-62243055D02*
X135249999Y-62100198D01*
X135249999Y-62100198D02*
X135249999Y-60885912D01*
X134535713Y-61814484D02*
X133392856Y-61814484D01*
X132035713Y-60885912D02*
X132321427Y-60885912D01*
X132321427Y-60885912D02*
X132464284Y-60957341D01*
X132464284Y-60957341D02*
X132535713Y-61028769D01*
X132535713Y-61028769D02*
X132678570Y-61243055D01*
X132678570Y-61243055D02*
X132749998Y-61528769D01*
X132749998Y-61528769D02*
X132749998Y-62100198D01*
X132749998Y-62100198D02*
X132678570Y-62243055D01*
X132678570Y-62243055D02*
X132607141Y-62314484D01*
X132607141Y-62314484D02*
X132464284Y-62385912D01*
X132464284Y-62385912D02*
X132178570Y-62385912D01*
X132178570Y-62385912D02*
X132035713Y-62314484D01*
X132035713Y-62314484D02*
X131964284Y-62243055D01*
X131964284Y-62243055D02*
X131892855Y-62100198D01*
X131892855Y-62100198D02*
X131892855Y-61743055D01*
X131892855Y-61743055D02*
X131964284Y-61600198D01*
X131964284Y-61600198D02*
X132035713Y-61528769D01*
X132035713Y-61528769D02*
X132178570Y-61457341D01*
X132178570Y-61457341D02*
X132464284Y-61457341D01*
X132464284Y-61457341D02*
X132607141Y-61528769D01*
X132607141Y-61528769D02*
X132678570Y-61600198D01*
X132678570Y-61600198D02*
X132749998Y-61743055D01*
X130964284Y-60885912D02*
X130821427Y-60885912D01*
X130821427Y-60885912D02*
X130678570Y-60957341D01*
X130678570Y-60957341D02*
X130607142Y-61028769D01*
X130607142Y-61028769D02*
X130535713Y-61171626D01*
X130535713Y-61171626D02*
X130464284Y-61457341D01*
X130464284Y-61457341D02*
X130464284Y-61814484D01*
X130464284Y-61814484D02*
X130535713Y-62100198D01*
X130535713Y-62100198D02*
X130607142Y-62243055D01*
X130607142Y-62243055D02*
X130678570Y-62314484D01*
X130678570Y-62314484D02*
X130821427Y-62385912D01*
X130821427Y-62385912D02*
X130964284Y-62385912D01*
X130964284Y-62385912D02*
X131107142Y-62314484D01*
X131107142Y-62314484D02*
X131178570Y-62243055D01*
X131178570Y-62243055D02*
X131249999Y-62100198D01*
X131249999Y-62100198D02*
X131321427Y-61814484D01*
X131321427Y-61814484D02*
X131321427Y-61457341D01*
X131321427Y-61457341D02*
X131249999Y-61171626D01*
X131249999Y-61171626D02*
X131178570Y-61028769D01*
X131178570Y-61028769D02*
X131107142Y-60957341D01*
X131107142Y-60957341D02*
X130964284Y-60885912D01*
X129107142Y-60885912D02*
X129821428Y-60885912D01*
X129821428Y-60885912D02*
X129892856Y-61600198D01*
X129892856Y-61600198D02*
X129821428Y-61528769D01*
X129821428Y-61528769D02*
X129678571Y-61457341D01*
X129678571Y-61457341D02*
X129321428Y-61457341D01*
X129321428Y-61457341D02*
X129178571Y-61528769D01*
X129178571Y-61528769D02*
X129107142Y-61600198D01*
X129107142Y-61600198D02*
X129035713Y-61743055D01*
X129035713Y-61743055D02*
X129035713Y-62100198D01*
X129035713Y-62100198D02*
X129107142Y-62243055D01*
X129107142Y-62243055D02*
X129178571Y-62314484D01*
X129178571Y-62314484D02*
X129321428Y-62385912D01*
X129321428Y-62385912D02*
X129678571Y-62385912D01*
X129678571Y-62385912D02*
X129821428Y-62314484D01*
X129821428Y-62314484D02*
X129892856Y-62243055D01*
X128107142Y-60885912D02*
X127964285Y-60885912D01*
X127964285Y-60885912D02*
X127821428Y-60957341D01*
X127821428Y-60957341D02*
X127750000Y-61028769D01*
X127750000Y-61028769D02*
X127678571Y-61171626D01*
X127678571Y-61171626D02*
X127607142Y-61457341D01*
X127607142Y-61457341D02*
X127607142Y-61814484D01*
X127607142Y-61814484D02*
X127678571Y-62100198D01*
X127678571Y-62100198D02*
X127750000Y-62243055D01*
X127750000Y-62243055D02*
X127821428Y-62314484D01*
X127821428Y-62314484D02*
X127964285Y-62385912D01*
X127964285Y-62385912D02*
X128107142Y-62385912D01*
X128107142Y-62385912D02*
X128250000Y-62314484D01*
X128250000Y-62314484D02*
X128321428Y-62243055D01*
X128321428Y-62243055D02*
X128392857Y-62100198D01*
X128392857Y-62100198D02*
X128464285Y-61814484D01*
X128464285Y-61814484D02*
X128464285Y-61457341D01*
X128464285Y-61457341D02*
X128392857Y-61171626D01*
X128392857Y-61171626D02*
X128321428Y-61028769D01*
X128321428Y-61028769D02*
X128250000Y-60957341D01*
X128250000Y-60957341D02*
X128107142Y-60885912D01*
X138500000Y-64657971D02*
X138571428Y-64729400D01*
X138571428Y-64729400D02*
X138785714Y-64800828D01*
X138785714Y-64800828D02*
X138928571Y-64800828D01*
X138928571Y-64800828D02*
X139142857Y-64729400D01*
X139142857Y-64729400D02*
X139285714Y-64586542D01*
X139285714Y-64586542D02*
X139357143Y-64443685D01*
X139357143Y-64443685D02*
X139428571Y-64157971D01*
X139428571Y-64157971D02*
X139428571Y-63943685D01*
X139428571Y-63943685D02*
X139357143Y-63657971D01*
X139357143Y-63657971D02*
X139285714Y-63515114D01*
X139285714Y-63515114D02*
X139142857Y-63372257D01*
X139142857Y-63372257D02*
X138928571Y-63300828D01*
X138928571Y-63300828D02*
X138785714Y-63300828D01*
X138785714Y-63300828D02*
X138571428Y-63372257D01*
X138571428Y-63372257D02*
X138500000Y-63443685D01*
X137642857Y-64800828D02*
X137785714Y-64729400D01*
X137785714Y-64729400D02*
X137857143Y-64657971D01*
X137857143Y-64657971D02*
X137928571Y-64515114D01*
X137928571Y-64515114D02*
X137928571Y-64086542D01*
X137928571Y-64086542D02*
X137857143Y-63943685D01*
X137857143Y-63943685D02*
X137785714Y-63872257D01*
X137785714Y-63872257D02*
X137642857Y-63800828D01*
X137642857Y-63800828D02*
X137428571Y-63800828D01*
X137428571Y-63800828D02*
X137285714Y-63872257D01*
X137285714Y-63872257D02*
X137214286Y-63943685D01*
X137214286Y-63943685D02*
X137142857Y-64086542D01*
X137142857Y-64086542D02*
X137142857Y-64515114D01*
X137142857Y-64515114D02*
X137214286Y-64657971D01*
X137214286Y-64657971D02*
X137285714Y-64729400D01*
X137285714Y-64729400D02*
X137428571Y-64800828D01*
X137428571Y-64800828D02*
X137642857Y-64800828D01*
X136500000Y-63800828D02*
X136500000Y-64800828D01*
X136500000Y-63943685D02*
X136428571Y-63872257D01*
X136428571Y-63872257D02*
X136285714Y-63800828D01*
X136285714Y-63800828D02*
X136071428Y-63800828D01*
X136071428Y-63800828D02*
X135928571Y-63872257D01*
X135928571Y-63872257D02*
X135857143Y-64015114D01*
X135857143Y-64015114D02*
X135857143Y-64800828D01*
X135142857Y-63800828D02*
X135142857Y-64800828D01*
X135142857Y-63943685D02*
X135071428Y-63872257D01*
X135071428Y-63872257D02*
X134928571Y-63800828D01*
X134928571Y-63800828D02*
X134714285Y-63800828D01*
X134714285Y-63800828D02*
X134571428Y-63872257D01*
X134571428Y-63872257D02*
X134500000Y-64015114D01*
X134500000Y-64015114D02*
X134500000Y-64800828D01*
X133214285Y-64729400D02*
X133357142Y-64800828D01*
X133357142Y-64800828D02*
X133642857Y-64800828D01*
X133642857Y-64800828D02*
X133785714Y-64729400D01*
X133785714Y-64729400D02*
X133857142Y-64586542D01*
X133857142Y-64586542D02*
X133857142Y-64015114D01*
X133857142Y-64015114D02*
X133785714Y-63872257D01*
X133785714Y-63872257D02*
X133642857Y-63800828D01*
X133642857Y-63800828D02*
X133357142Y-63800828D01*
X133357142Y-63800828D02*
X133214285Y-63872257D01*
X133214285Y-63872257D02*
X133142857Y-64015114D01*
X133142857Y-64015114D02*
X133142857Y-64157971D01*
X133142857Y-64157971D02*
X133857142Y-64300828D01*
X131857143Y-64729400D02*
X132000000Y-64800828D01*
X132000000Y-64800828D02*
X132285714Y-64800828D01*
X132285714Y-64800828D02*
X132428571Y-64729400D01*
X132428571Y-64729400D02*
X132500000Y-64657971D01*
X132500000Y-64657971D02*
X132571428Y-64515114D01*
X132571428Y-64515114D02*
X132571428Y-64086542D01*
X132571428Y-64086542D02*
X132500000Y-63943685D01*
X132500000Y-63943685D02*
X132428571Y-63872257D01*
X132428571Y-63872257D02*
X132285714Y-63800828D01*
X132285714Y-63800828D02*
X132000000Y-63800828D01*
X132000000Y-63800828D02*
X131857143Y-63872257D01*
X131428571Y-63800828D02*
X130857143Y-63800828D01*
X131214286Y-63300828D02*
X131214286Y-64586542D01*
X131214286Y-64586542D02*
X131142857Y-64729400D01*
X131142857Y-64729400D02*
X131000000Y-64800828D01*
X131000000Y-64800828D02*
X130857143Y-64800828D01*
X130357143Y-64800828D02*
X130357143Y-63800828D01*
X130357143Y-63300828D02*
X130428571Y-63372257D01*
X130428571Y-63372257D02*
X130357143Y-63443685D01*
X130357143Y-63443685D02*
X130285714Y-63372257D01*
X130285714Y-63372257D02*
X130357143Y-63300828D01*
X130357143Y-63300828D02*
X130357143Y-63443685D01*
X129428571Y-64800828D02*
X129571428Y-64729400D01*
X129571428Y-64729400D02*
X129642857Y-64657971D01*
X129642857Y-64657971D02*
X129714285Y-64515114D01*
X129714285Y-64515114D02*
X129714285Y-64086542D01*
X129714285Y-64086542D02*
X129642857Y-63943685D01*
X129642857Y-63943685D02*
X129571428Y-63872257D01*
X129571428Y-63872257D02*
X129428571Y-63800828D01*
X129428571Y-63800828D02*
X129214285Y-63800828D01*
X129214285Y-63800828D02*
X129071428Y-63872257D01*
X129071428Y-63872257D02*
X129000000Y-63943685D01*
X129000000Y-63943685D02*
X128928571Y-64086542D01*
X128928571Y-64086542D02*
X128928571Y-64515114D01*
X128928571Y-64515114D02*
X129000000Y-64657971D01*
X129000000Y-64657971D02*
X129071428Y-64729400D01*
X129071428Y-64729400D02*
X129214285Y-64800828D01*
X129214285Y-64800828D02*
X129428571Y-64800828D01*
X128285714Y-63800828D02*
X128285714Y-64800828D01*
X128285714Y-63943685D02*
X128214285Y-63872257D01*
X128214285Y-63872257D02*
X128071428Y-63800828D01*
X128071428Y-63800828D02*
X127857142Y-63800828D01*
X127857142Y-63800828D02*
X127714285Y-63872257D01*
X127714285Y-63872257D02*
X127642857Y-64015114D01*
X127642857Y-64015114D02*
X127642857Y-64800828D01*
X110231203Y-122300828D02*
X110945489Y-122300828D01*
X110945489Y-122300828D02*
X111016917Y-123015114D01*
X111016917Y-123015114D02*
X110945489Y-122943685D01*
X110945489Y-122943685D02*
X110802632Y-122872257D01*
X110802632Y-122872257D02*
X110445489Y-122872257D01*
X110445489Y-122872257D02*
X110302632Y-122943685D01*
X110302632Y-122943685D02*
X110231203Y-123015114D01*
X110231203Y-123015114D02*
X110159774Y-123157971D01*
X110159774Y-123157971D02*
X110159774Y-123515114D01*
X110159774Y-123515114D02*
X110231203Y-123657971D01*
X110231203Y-123657971D02*
X110302632Y-123729400D01*
X110302632Y-123729400D02*
X110445489Y-123800828D01*
X110445489Y-123800828D02*
X110802632Y-123800828D01*
X110802632Y-123800828D02*
X110945489Y-123729400D01*
X110945489Y-123729400D02*
X111016917Y-123657971D01*
X109731203Y-122300828D02*
X109231203Y-123800828D01*
X109231203Y-123800828D02*
X108731203Y-122300828D01*
X108231204Y-123800828D02*
X108231204Y-122300828D01*
X108231204Y-122300828D02*
X107874061Y-122300828D01*
X107874061Y-122300828D02*
X107659775Y-122372257D01*
X107659775Y-122372257D02*
X107516918Y-122515114D01*
X107516918Y-122515114D02*
X107445489Y-122657971D01*
X107445489Y-122657971D02*
X107374061Y-122943685D01*
X107374061Y-122943685D02*
X107374061Y-123157971D01*
X107374061Y-123157971D02*
X107445489Y-123443685D01*
X107445489Y-123443685D02*
X107516918Y-123586542D01*
X107516918Y-123586542D02*
X107659775Y-123729400D01*
X107659775Y-123729400D02*
X107874061Y-123800828D01*
X107874061Y-123800828D02*
X108231204Y-123800828D01*
X105874061Y-123657971D02*
X105945489Y-123729400D01*
X105945489Y-123729400D02*
X106159775Y-123800828D01*
X106159775Y-123800828D02*
X106302632Y-123800828D01*
X106302632Y-123800828D02*
X106516918Y-123729400D01*
X106516918Y-123729400D02*
X106659775Y-123586542D01*
X106659775Y-123586542D02*
X106731204Y-123443685D01*
X106731204Y-123443685D02*
X106802632Y-123157971D01*
X106802632Y-123157971D02*
X106802632Y-122943685D01*
X106802632Y-122943685D02*
X106731204Y-122657971D01*
X106731204Y-122657971D02*
X106659775Y-122515114D01*
X106659775Y-122515114D02*
X106516918Y-122372257D01*
X106516918Y-122372257D02*
X106302632Y-122300828D01*
X106302632Y-122300828D02*
X106159775Y-122300828D01*
X106159775Y-122300828D02*
X105945489Y-122372257D01*
X105945489Y-122372257D02*
X105874061Y-122443685D01*
X104088347Y-123800828D02*
X104088347Y-122300828D01*
X103374061Y-122800828D02*
X103374061Y-123800828D01*
X103374061Y-122943685D02*
X103302632Y-122872257D01*
X103302632Y-122872257D02*
X103159775Y-122800828D01*
X103159775Y-122800828D02*
X102945489Y-122800828D01*
X102945489Y-122800828D02*
X102802632Y-122872257D01*
X102802632Y-122872257D02*
X102731204Y-123015114D01*
X102731204Y-123015114D02*
X102731204Y-123800828D01*
M02*
