%TF.GenerationSoftware,KiCad,Pcbnew,9.0.6-9.0.6~ubuntu22.04.1*%
%TF.CreationDate,2025-11-25T00:54:21+02:00*%
%TF.ProjectId,pico,7069636f-2e6b-4696-9361-645f70636258,1*%
%TF.SameCoordinates,Original*%
%TF.FileFunction,Legend,Top*%
%TF.FilePolarity,Positive*%
%FSLAX46Y46*%
G04 Gerber Fmt 4.6, Leading zero omitted, Abs format (unit mm)*
G04 Created by KiCad (PCBNEW 9.0.6-9.0.6~ubuntu22.04.1) date 2025-11-25 00:54:21*
%MOMM*%
%LPD*%
G01*
G04 APERTURE LIST*
%ADD10C,0.150000*%
%ADD11C,0.120000*%
G04 APERTURE END LIST*
D10*
X121083333Y-110109580D02*
X121035714Y-110157200D01*
X121035714Y-110157200D02*
X120892857Y-110204819D01*
X120892857Y-110204819D02*
X120797619Y-110204819D01*
X120797619Y-110204819D02*
X120654762Y-110157200D01*
X120654762Y-110157200D02*
X120559524Y-110061961D01*
X120559524Y-110061961D02*
X120511905Y-109966723D01*
X120511905Y-109966723D02*
X120464286Y-109776247D01*
X120464286Y-109776247D02*
X120464286Y-109633390D01*
X120464286Y-109633390D02*
X120511905Y-109442914D01*
X120511905Y-109442914D02*
X120559524Y-109347676D01*
X120559524Y-109347676D02*
X120654762Y-109252438D01*
X120654762Y-109252438D02*
X120797619Y-109204819D01*
X120797619Y-109204819D02*
X120892857Y-109204819D01*
X120892857Y-109204819D02*
X121035714Y-109252438D01*
X121035714Y-109252438D02*
X121083333Y-109300057D01*
X121940476Y-109204819D02*
X121750000Y-109204819D01*
X121750000Y-109204819D02*
X121654762Y-109252438D01*
X121654762Y-109252438D02*
X121607143Y-109300057D01*
X121607143Y-109300057D02*
X121511905Y-109442914D01*
X121511905Y-109442914D02*
X121464286Y-109633390D01*
X121464286Y-109633390D02*
X121464286Y-110014342D01*
X121464286Y-110014342D02*
X121511905Y-110109580D01*
X121511905Y-110109580D02*
X121559524Y-110157200D01*
X121559524Y-110157200D02*
X121654762Y-110204819D01*
X121654762Y-110204819D02*
X121845238Y-110204819D01*
X121845238Y-110204819D02*
X121940476Y-110157200D01*
X121940476Y-110157200D02*
X121988095Y-110109580D01*
X121988095Y-110109580D02*
X122035714Y-110014342D01*
X122035714Y-110014342D02*
X122035714Y-109776247D01*
X122035714Y-109776247D02*
X121988095Y-109681009D01*
X121988095Y-109681009D02*
X121940476Y-109633390D01*
X121940476Y-109633390D02*
X121845238Y-109585771D01*
X121845238Y-109585771D02*
X121654762Y-109585771D01*
X121654762Y-109585771D02*
X121559524Y-109633390D01*
X121559524Y-109633390D02*
X121511905Y-109681009D01*
X121511905Y-109681009D02*
X121464286Y-109776247D01*
X133666666Y-90574819D02*
X133666666Y-91289104D01*
X133666666Y-91289104D02*
X133619047Y-91431961D01*
X133619047Y-91431961D02*
X133523809Y-91527200D01*
X133523809Y-91527200D02*
X133380952Y-91574819D01*
X133380952Y-91574819D02*
X133285714Y-91574819D01*
X134571428Y-90908152D02*
X134571428Y-91574819D01*
X134333333Y-90527200D02*
X134095238Y-91241485D01*
X134095238Y-91241485D02*
X134714285Y-91241485D01*
X134333333Y-62634819D02*
X134000000Y-62158628D01*
X133761905Y-62634819D02*
X133761905Y-61634819D01*
X133761905Y-61634819D02*
X134142857Y-61634819D01*
X134142857Y-61634819D02*
X134238095Y-61682438D01*
X134238095Y-61682438D02*
X134285714Y-61730057D01*
X134285714Y-61730057D02*
X134333333Y-61825295D01*
X134333333Y-61825295D02*
X134333333Y-61968152D01*
X134333333Y-61968152D02*
X134285714Y-62063390D01*
X134285714Y-62063390D02*
X134238095Y-62111009D01*
X134238095Y-62111009D02*
X134142857Y-62158628D01*
X134142857Y-62158628D02*
X133761905Y-62158628D01*
X134666667Y-61634819D02*
X135285714Y-61634819D01*
X135285714Y-61634819D02*
X134952381Y-62015771D01*
X134952381Y-62015771D02*
X135095238Y-62015771D01*
X135095238Y-62015771D02*
X135190476Y-62063390D01*
X135190476Y-62063390D02*
X135238095Y-62111009D01*
X135238095Y-62111009D02*
X135285714Y-62206247D01*
X135285714Y-62206247D02*
X135285714Y-62444342D01*
X135285714Y-62444342D02*
X135238095Y-62539580D01*
X135238095Y-62539580D02*
X135190476Y-62587200D01*
X135190476Y-62587200D02*
X135095238Y-62634819D01*
X135095238Y-62634819D02*
X134809524Y-62634819D01*
X134809524Y-62634819D02*
X134714286Y-62587200D01*
X134714286Y-62587200D02*
X134666667Y-62539580D01*
X134283333Y-65634819D02*
X133950000Y-65158628D01*
X133711905Y-65634819D02*
X133711905Y-64634819D01*
X133711905Y-64634819D02*
X134092857Y-64634819D01*
X134092857Y-64634819D02*
X134188095Y-64682438D01*
X134188095Y-64682438D02*
X134235714Y-64730057D01*
X134235714Y-64730057D02*
X134283333Y-64825295D01*
X134283333Y-64825295D02*
X134283333Y-64968152D01*
X134283333Y-64968152D02*
X134235714Y-65063390D01*
X134235714Y-65063390D02*
X134188095Y-65111009D01*
X134188095Y-65111009D02*
X134092857Y-65158628D01*
X134092857Y-65158628D02*
X133711905Y-65158628D01*
X134664286Y-64730057D02*
X134711905Y-64682438D01*
X134711905Y-64682438D02*
X134807143Y-64634819D01*
X134807143Y-64634819D02*
X135045238Y-64634819D01*
X135045238Y-64634819D02*
X135140476Y-64682438D01*
X135140476Y-64682438D02*
X135188095Y-64730057D01*
X135188095Y-64730057D02*
X135235714Y-64825295D01*
X135235714Y-64825295D02*
X135235714Y-64920533D01*
X135235714Y-64920533D02*
X135188095Y-65063390D01*
X135188095Y-65063390D02*
X134616667Y-65634819D01*
X134616667Y-65634819D02*
X135235714Y-65634819D01*
X133166666Y-58954819D02*
X133166666Y-59669104D01*
X133166666Y-59669104D02*
X133119047Y-59811961D01*
X133119047Y-59811961D02*
X133023809Y-59907200D01*
X133023809Y-59907200D02*
X132880952Y-59954819D01*
X132880952Y-59954819D02*
X132785714Y-59954819D01*
X133547619Y-58954819D02*
X134166666Y-58954819D01*
X134166666Y-58954819D02*
X133833333Y-59335771D01*
X133833333Y-59335771D02*
X133976190Y-59335771D01*
X133976190Y-59335771D02*
X134071428Y-59383390D01*
X134071428Y-59383390D02*
X134119047Y-59431009D01*
X134119047Y-59431009D02*
X134166666Y-59526247D01*
X134166666Y-59526247D02*
X134166666Y-59764342D01*
X134166666Y-59764342D02*
X134119047Y-59859580D01*
X134119047Y-59859580D02*
X134071428Y-59907200D01*
X134071428Y-59907200D02*
X133976190Y-59954819D01*
X133976190Y-59954819D02*
X133690476Y-59954819D01*
X133690476Y-59954819D02*
X133595238Y-59907200D01*
X133595238Y-59907200D02*
X133547619Y-59859580D01*
X132666666Y-114904819D02*
X132666666Y-115619104D01*
X132666666Y-115619104D02*
X132619047Y-115761961D01*
X132619047Y-115761961D02*
X132523809Y-115857200D01*
X132523809Y-115857200D02*
X132380952Y-115904819D01*
X132380952Y-115904819D02*
X132285714Y-115904819D01*
X133095238Y-115000057D02*
X133142857Y-114952438D01*
X133142857Y-114952438D02*
X133238095Y-114904819D01*
X133238095Y-114904819D02*
X133476190Y-114904819D01*
X133476190Y-114904819D02*
X133571428Y-114952438D01*
X133571428Y-114952438D02*
X133619047Y-115000057D01*
X133619047Y-115000057D02*
X133666666Y-115095295D01*
X133666666Y-115095295D02*
X133666666Y-115190533D01*
X133666666Y-115190533D02*
X133619047Y-115333390D01*
X133619047Y-115333390D02*
X133047619Y-115904819D01*
X133047619Y-115904819D02*
X133666666Y-115904819D01*
X127111660Y-102064104D02*
X127587850Y-102064104D01*
X127016422Y-102349819D02*
X127349755Y-101349819D01*
X127349755Y-101349819D02*
X127683088Y-102349819D01*
X128540231Y-102349819D02*
X127968803Y-102349819D01*
X128254517Y-102349819D02*
X128254517Y-101349819D01*
X128254517Y-101349819D02*
X128159279Y-101492676D01*
X128159279Y-101492676D02*
X128064041Y-101587914D01*
X128064041Y-101587914D02*
X127968803Y-101635533D01*
X134033333Y-86362319D02*
X133700000Y-85886128D01*
X133461905Y-86362319D02*
X133461905Y-85362319D01*
X133461905Y-85362319D02*
X133842857Y-85362319D01*
X133842857Y-85362319D02*
X133938095Y-85409938D01*
X133938095Y-85409938D02*
X133985714Y-85457557D01*
X133985714Y-85457557D02*
X134033333Y-85552795D01*
X134033333Y-85552795D02*
X134033333Y-85695652D01*
X134033333Y-85695652D02*
X133985714Y-85790890D01*
X133985714Y-85790890D02*
X133938095Y-85838509D01*
X133938095Y-85838509D02*
X133842857Y-85886128D01*
X133842857Y-85886128D02*
X133461905Y-85886128D01*
X134985714Y-86362319D02*
X134414286Y-86362319D01*
X134700000Y-86362319D02*
X134700000Y-85362319D01*
X134700000Y-85362319D02*
X134604762Y-85505176D01*
X134604762Y-85505176D02*
X134509524Y-85600414D01*
X134509524Y-85600414D02*
X134414286Y-85648033D01*
X134033333Y-77237080D02*
X133985714Y-77284700D01*
X133985714Y-77284700D02*
X133842857Y-77332319D01*
X133842857Y-77332319D02*
X133747619Y-77332319D01*
X133747619Y-77332319D02*
X133604762Y-77284700D01*
X133604762Y-77284700D02*
X133509524Y-77189461D01*
X133509524Y-77189461D02*
X133461905Y-77094223D01*
X133461905Y-77094223D02*
X133414286Y-76903747D01*
X133414286Y-76903747D02*
X133414286Y-76760890D01*
X133414286Y-76760890D02*
X133461905Y-76570414D01*
X133461905Y-76570414D02*
X133509524Y-76475176D01*
X133509524Y-76475176D02*
X133604762Y-76379938D01*
X133604762Y-76379938D02*
X133747619Y-76332319D01*
X133747619Y-76332319D02*
X133842857Y-76332319D01*
X133842857Y-76332319D02*
X133985714Y-76379938D01*
X133985714Y-76379938D02*
X134033333Y-76427557D01*
X134414286Y-76427557D02*
X134461905Y-76379938D01*
X134461905Y-76379938D02*
X134557143Y-76332319D01*
X134557143Y-76332319D02*
X134795238Y-76332319D01*
X134795238Y-76332319D02*
X134890476Y-76379938D01*
X134890476Y-76379938D02*
X134938095Y-76427557D01*
X134938095Y-76427557D02*
X134985714Y-76522795D01*
X134985714Y-76522795D02*
X134985714Y-76618033D01*
X134985714Y-76618033D02*
X134938095Y-76760890D01*
X134938095Y-76760890D02*
X134366667Y-77332319D01*
X134366667Y-77332319D02*
X134985714Y-77332319D01*
X134033333Y-83257080D02*
X133985714Y-83304700D01*
X133985714Y-83304700D02*
X133842857Y-83352319D01*
X133842857Y-83352319D02*
X133747619Y-83352319D01*
X133747619Y-83352319D02*
X133604762Y-83304700D01*
X133604762Y-83304700D02*
X133509524Y-83209461D01*
X133509524Y-83209461D02*
X133461905Y-83114223D01*
X133461905Y-83114223D02*
X133414286Y-82923747D01*
X133414286Y-82923747D02*
X133414286Y-82780890D01*
X133414286Y-82780890D02*
X133461905Y-82590414D01*
X133461905Y-82590414D02*
X133509524Y-82495176D01*
X133509524Y-82495176D02*
X133604762Y-82399938D01*
X133604762Y-82399938D02*
X133747619Y-82352319D01*
X133747619Y-82352319D02*
X133842857Y-82352319D01*
X133842857Y-82352319D02*
X133985714Y-82399938D01*
X133985714Y-82399938D02*
X134033333Y-82447557D01*
X134890476Y-82685652D02*
X134890476Y-83352319D01*
X134652381Y-82304700D02*
X134414286Y-83018985D01*
X134414286Y-83018985D02*
X135033333Y-83018985D01*
X133238095Y-65424819D02*
X133238095Y-66234342D01*
X133238095Y-66234342D02*
X133285714Y-66329580D01*
X133285714Y-66329580D02*
X133333333Y-66377200D01*
X133333333Y-66377200D02*
X133428571Y-66424819D01*
X133428571Y-66424819D02*
X133619047Y-66424819D01*
X133619047Y-66424819D02*
X133714285Y-66377200D01*
X133714285Y-66377200D02*
X133761904Y-66329580D01*
X133761904Y-66329580D02*
X133809523Y-66234342D01*
X133809523Y-66234342D02*
X133809523Y-65424819D01*
X134809523Y-66424819D02*
X134238095Y-66424819D01*
X134523809Y-66424819D02*
X134523809Y-65424819D01*
X134523809Y-65424819D02*
X134428571Y-65567676D01*
X134428571Y-65567676D02*
X134333333Y-65662914D01*
X134333333Y-65662914D02*
X134238095Y-65710533D01*
X134033333Y-74227080D02*
X133985714Y-74274700D01*
X133985714Y-74274700D02*
X133842857Y-74322319D01*
X133842857Y-74322319D02*
X133747619Y-74322319D01*
X133747619Y-74322319D02*
X133604762Y-74274700D01*
X133604762Y-74274700D02*
X133509524Y-74179461D01*
X133509524Y-74179461D02*
X133461905Y-74084223D01*
X133461905Y-74084223D02*
X133414286Y-73893747D01*
X133414286Y-73893747D02*
X133414286Y-73750890D01*
X133414286Y-73750890D02*
X133461905Y-73560414D01*
X133461905Y-73560414D02*
X133509524Y-73465176D01*
X133509524Y-73465176D02*
X133604762Y-73369938D01*
X133604762Y-73369938D02*
X133747619Y-73322319D01*
X133747619Y-73322319D02*
X133842857Y-73322319D01*
X133842857Y-73322319D02*
X133985714Y-73369938D01*
X133985714Y-73369938D02*
X134033333Y-73417557D01*
X134985714Y-74322319D02*
X134414286Y-74322319D01*
X134700000Y-74322319D02*
X134700000Y-73322319D01*
X134700000Y-73322319D02*
X134604762Y-73465176D01*
X134604762Y-73465176D02*
X134509524Y-73560414D01*
X134509524Y-73560414D02*
X134414286Y-73608033D01*
X134033333Y-80247080D02*
X133985714Y-80294700D01*
X133985714Y-80294700D02*
X133842857Y-80342319D01*
X133842857Y-80342319D02*
X133747619Y-80342319D01*
X133747619Y-80342319D02*
X133604762Y-80294700D01*
X133604762Y-80294700D02*
X133509524Y-80199461D01*
X133509524Y-80199461D02*
X133461905Y-80104223D01*
X133461905Y-80104223D02*
X133414286Y-79913747D01*
X133414286Y-79913747D02*
X133414286Y-79770890D01*
X133414286Y-79770890D02*
X133461905Y-79580414D01*
X133461905Y-79580414D02*
X133509524Y-79485176D01*
X133509524Y-79485176D02*
X133604762Y-79389938D01*
X133604762Y-79389938D02*
X133747619Y-79342319D01*
X133747619Y-79342319D02*
X133842857Y-79342319D01*
X133842857Y-79342319D02*
X133985714Y-79389938D01*
X133985714Y-79389938D02*
X134033333Y-79437557D01*
X134366667Y-79342319D02*
X134985714Y-79342319D01*
X134985714Y-79342319D02*
X134652381Y-79723271D01*
X134652381Y-79723271D02*
X134795238Y-79723271D01*
X134795238Y-79723271D02*
X134890476Y-79770890D01*
X134890476Y-79770890D02*
X134938095Y-79818509D01*
X134938095Y-79818509D02*
X134985714Y-79913747D01*
X134985714Y-79913747D02*
X134985714Y-80151842D01*
X134985714Y-80151842D02*
X134938095Y-80247080D01*
X134938095Y-80247080D02*
X134890476Y-80294700D01*
X134890476Y-80294700D02*
X134795238Y-80342319D01*
X134795238Y-80342319D02*
X134509524Y-80342319D01*
X134509524Y-80342319D02*
X134414286Y-80294700D01*
X134414286Y-80294700D02*
X134366667Y-80247080D01*
X107166666Y-109654819D02*
X107166666Y-110369104D01*
X107166666Y-110369104D02*
X107119047Y-110511961D01*
X107119047Y-110511961D02*
X107023809Y-110607200D01*
X107023809Y-110607200D02*
X106880952Y-110654819D01*
X106880952Y-110654819D02*
X106785714Y-110654819D01*
X108166666Y-110654819D02*
X107595238Y-110654819D01*
X107880952Y-110654819D02*
X107880952Y-109654819D01*
X107880952Y-109654819D02*
X107785714Y-109797676D01*
X107785714Y-109797676D02*
X107690476Y-109892914D01*
X107690476Y-109892914D02*
X107595238Y-109940533D01*
D11*
%TO.C,C6*%
X116840302Y-112685000D02*
X117640302Y-112685000D01*
X117240302Y-112285000D02*
X117240302Y-113085000D01*
X121250000Y-110920000D02*
X121250000Y-119080000D01*
X121290000Y-110920000D02*
X121290000Y-119080000D01*
X121330000Y-110921000D02*
X121330000Y-119079000D01*
X121370000Y-110922000D02*
X121370000Y-119078000D01*
X121410000Y-110923000D02*
X121410000Y-119077000D01*
X121450000Y-110925000D02*
X121450000Y-119075000D01*
X121490000Y-110927000D02*
X121490000Y-113960000D01*
X121490000Y-116040000D02*
X121490000Y-119073000D01*
X121530000Y-110930000D02*
X121530000Y-113960000D01*
X121530000Y-116040000D02*
X121530000Y-119070000D01*
X121570000Y-110932000D02*
X121570000Y-113960000D01*
X121570000Y-116040000D02*
X121570000Y-119068000D01*
X121610000Y-110936000D02*
X121610000Y-113960000D01*
X121610000Y-116040000D02*
X121610000Y-119064000D01*
X121650000Y-110939000D02*
X121650000Y-113960000D01*
X121650000Y-116040000D02*
X121650000Y-119061000D01*
X121690000Y-110944000D02*
X121690000Y-113960000D01*
X121690000Y-116040000D02*
X121690000Y-119056000D01*
X121730000Y-110948000D02*
X121730000Y-113960000D01*
X121730000Y-116040000D02*
X121730000Y-119052000D01*
X121770000Y-110953000D02*
X121770000Y-113960000D01*
X121770000Y-116040000D02*
X121770000Y-119047000D01*
X121810000Y-110958000D02*
X121810000Y-113960000D01*
X121810000Y-116040000D02*
X121810000Y-119042000D01*
X121850000Y-110964000D02*
X121850000Y-113960000D01*
X121850000Y-116040000D02*
X121850000Y-119036000D01*
X121890000Y-110970000D02*
X121890000Y-113960000D01*
X121890000Y-116040000D02*
X121890000Y-119030000D01*
X121930000Y-110977000D02*
X121930000Y-113960000D01*
X121930000Y-116040000D02*
X121930000Y-119023000D01*
X121970000Y-110983000D02*
X121970000Y-113960000D01*
X121970000Y-116040000D02*
X121970000Y-119017000D01*
X122010000Y-110991000D02*
X122010000Y-113960000D01*
X122010000Y-116040000D02*
X122010000Y-119009000D01*
X122050000Y-110998000D02*
X122050000Y-113960000D01*
X122050000Y-116040000D02*
X122050000Y-119002000D01*
X122090000Y-111007000D02*
X122090000Y-113960000D01*
X122090000Y-116040000D02*
X122090000Y-118993000D01*
X122130000Y-111015000D02*
X122130000Y-113960000D01*
X122130000Y-116040000D02*
X122130000Y-118985000D01*
X122170000Y-111024000D02*
X122170000Y-113960000D01*
X122170000Y-116040000D02*
X122170000Y-118976000D01*
X122210000Y-111033000D02*
X122210000Y-113960000D01*
X122210000Y-116040000D02*
X122210000Y-118967000D01*
X122250000Y-111043000D02*
X122250000Y-113960000D01*
X122250000Y-116040000D02*
X122250000Y-118957000D01*
X122290000Y-111053000D02*
X122290000Y-113960000D01*
X122290000Y-116040000D02*
X122290000Y-118947000D01*
X122330000Y-111064000D02*
X122330000Y-113960000D01*
X122330000Y-116040000D02*
X122330000Y-118936000D01*
X122370000Y-111075000D02*
X122370000Y-113960000D01*
X122370000Y-116040000D02*
X122370000Y-118925000D01*
X122410000Y-111087000D02*
X122410000Y-113960000D01*
X122410000Y-116040000D02*
X122410000Y-118913000D01*
X122450000Y-111099000D02*
X122450000Y-113960000D01*
X122450000Y-116040000D02*
X122450000Y-118901000D01*
X122490000Y-111111000D02*
X122490000Y-113960000D01*
X122490000Y-116040000D02*
X122490000Y-118889000D01*
X122530000Y-111124000D02*
X122530000Y-113960000D01*
X122530000Y-116040000D02*
X122530000Y-118876000D01*
X122570000Y-111137000D02*
X122570000Y-113960000D01*
X122570000Y-116040000D02*
X122570000Y-118863000D01*
X122610000Y-111151000D02*
X122610000Y-113960000D01*
X122610000Y-116040000D02*
X122610000Y-118849000D01*
X122650000Y-111165000D02*
X122650000Y-113960000D01*
X122650000Y-116040000D02*
X122650000Y-118835000D01*
X122690000Y-111180000D02*
X122690000Y-113960000D01*
X122690000Y-116040000D02*
X122690000Y-118820000D01*
X122730000Y-111195000D02*
X122730000Y-113960000D01*
X122730000Y-116040000D02*
X122730000Y-118805000D01*
X122770000Y-111211000D02*
X122770000Y-113960000D01*
X122770000Y-116040000D02*
X122770000Y-118789000D01*
X122810000Y-111227000D02*
X122810000Y-113960000D01*
X122810000Y-116040000D02*
X122810000Y-118773000D01*
X122850000Y-111243000D02*
X122850000Y-113960000D01*
X122850000Y-116040000D02*
X122850000Y-118757000D01*
X122890000Y-111260000D02*
X122890000Y-113960000D01*
X122890000Y-116040000D02*
X122890000Y-118740000D01*
X122930000Y-111278000D02*
X122930000Y-113960000D01*
X122930000Y-116040000D02*
X122930000Y-118722000D01*
X122970000Y-111296000D02*
X122970000Y-113960000D01*
X122970000Y-116040000D02*
X122970000Y-118704000D01*
X123010000Y-111315000D02*
X123010000Y-113960000D01*
X123010000Y-116040000D02*
X123010000Y-118685000D01*
X123050000Y-111334000D02*
X123050000Y-113960000D01*
X123050000Y-116040000D02*
X123050000Y-118666000D01*
X123090000Y-111354000D02*
X123090000Y-113960000D01*
X123090000Y-116040000D02*
X123090000Y-118646000D01*
X123130000Y-111374000D02*
X123130000Y-113960000D01*
X123130000Y-116040000D02*
X123130000Y-118626000D01*
X123170000Y-111395000D02*
X123170000Y-113960000D01*
X123170000Y-116040000D02*
X123170000Y-118605000D01*
X123210000Y-111416000D02*
X123210000Y-113960000D01*
X123210000Y-116040000D02*
X123210000Y-118584000D01*
X123250000Y-111438000D02*
X123250000Y-113960000D01*
X123250000Y-116040000D02*
X123250000Y-118562000D01*
X123290000Y-111461000D02*
X123290000Y-113960000D01*
X123290000Y-116040000D02*
X123290000Y-118539000D01*
X123330000Y-111484000D02*
X123330000Y-113960000D01*
X123330000Y-116040000D02*
X123330000Y-118516000D01*
X123370000Y-111507000D02*
X123370000Y-113960000D01*
X123370000Y-116040000D02*
X123370000Y-118493000D01*
X123410000Y-111532000D02*
X123410000Y-113960000D01*
X123410000Y-116040000D02*
X123410000Y-118468000D01*
X123450000Y-111557000D02*
X123450000Y-113960000D01*
X123450000Y-116040000D02*
X123450000Y-118443000D01*
X123490000Y-111582000D02*
X123490000Y-113960000D01*
X123490000Y-116040000D02*
X123490000Y-118418000D01*
X123530000Y-111608000D02*
X123530000Y-113960000D01*
X123530000Y-116040000D02*
X123530000Y-118392000D01*
X123570000Y-111635000D02*
X123570000Y-118365000D01*
X123610000Y-111663000D02*
X123610000Y-118337000D01*
X123650000Y-111691000D02*
X123650000Y-118309000D01*
X123690000Y-111720000D02*
X123690000Y-118280000D01*
X123730000Y-111750000D02*
X123730000Y-118250000D01*
X123770000Y-111781000D02*
X123770000Y-118219000D01*
X123810000Y-111812000D02*
X123810000Y-118188000D01*
X123850000Y-111844000D02*
X123850000Y-118156000D01*
X123890000Y-111877000D02*
X123890000Y-118123000D01*
X123930000Y-111911000D02*
X123930000Y-118089000D01*
X123970000Y-111945000D02*
X123970000Y-118055000D01*
X124010000Y-111981000D02*
X124010000Y-118019000D01*
X124050000Y-112018000D02*
X124050000Y-117982000D01*
X124090000Y-112055000D02*
X124090000Y-117945000D01*
X124130000Y-112094000D02*
X124130000Y-117906000D01*
X124170000Y-112133000D02*
X124170000Y-117867000D01*
X124210000Y-112174000D02*
X124210000Y-117826000D01*
X124250000Y-112216000D02*
X124250000Y-117784000D01*
X124290000Y-112259000D02*
X124290000Y-117741000D01*
X124330000Y-112304000D02*
X124330000Y-117696000D01*
X124370000Y-112349000D02*
X124370000Y-117651000D01*
X124410000Y-112396000D02*
X124410000Y-117604000D01*
X124450000Y-112445000D02*
X124450000Y-117555000D01*
X124490000Y-112495000D02*
X124490000Y-117505000D01*
X124530000Y-112547000D02*
X124530000Y-117453000D01*
X124570000Y-112600000D02*
X124570000Y-117400000D01*
X124610000Y-112656000D02*
X124610000Y-117344000D01*
X124650000Y-112713000D02*
X124650000Y-117287000D01*
X124690000Y-112773000D02*
X124690000Y-117227000D01*
X124730000Y-112835000D02*
X124730000Y-117165000D01*
X124770000Y-112899000D02*
X124770000Y-117101000D01*
X124810000Y-112966000D02*
X124810000Y-117034000D01*
X124850000Y-113036000D02*
X124850000Y-116964000D01*
X124890000Y-113110000D02*
X124890000Y-116890000D01*
X124930000Y-113187000D02*
X124930000Y-116813000D01*
X124970000Y-113269000D02*
X124970000Y-116731000D01*
X125010000Y-113356000D02*
X125010000Y-116644000D01*
X125050000Y-113448000D02*
X125050000Y-116552000D01*
X125090000Y-113547000D02*
X125090000Y-116453000D01*
X125130000Y-113654000D02*
X125130000Y-116346000D01*
X125170000Y-113772000D02*
X125170000Y-116228000D01*
X125210000Y-113903000D02*
X125210000Y-116097000D01*
X125250000Y-114053000D02*
X125250000Y-115947000D01*
X125290000Y-114232000D02*
X125290000Y-115768000D01*
X125330000Y-114467000D02*
X125330000Y-115533000D01*
X125370000Y-115000000D02*
G75*
G02*
X117130000Y-115000000I-4120000J0D01*
G01*
X117130000Y-115000000D02*
G75*
G02*
X125370000Y-115000000I4120000J0D01*
G01*
%TO.C,J4*%
X135380000Y-94770000D02*
X135380000Y-97420000D01*
X132620000Y-97420000D02*
X135380000Y-97420000D01*
X132620000Y-94770000D02*
X135380000Y-94770000D01*
X132620000Y-94770000D02*
X132620000Y-97420000D01*
X132620000Y-93500000D02*
X132620000Y-92120000D01*
X132620000Y-92120000D02*
X134000000Y-92120000D01*
%TO.C,R3*%
X134761252Y-61235000D02*
X134238748Y-61235000D01*
X134761252Y-59765000D02*
X134238748Y-59765000D01*
%TO.C,R2*%
X134711252Y-64235000D02*
X134188748Y-64235000D01*
X134711252Y-62765000D02*
X134188748Y-62765000D01*
%TO.C,J3*%
X138560000Y-58410000D02*
X138560000Y-50590000D01*
X138560000Y-56810000D02*
X137640000Y-56810000D01*
X138560000Y-50590000D02*
X128440000Y-50590000D01*
X137800000Y-54450000D02*
X137800000Y-52850000D01*
X137800000Y-52850000D02*
X136800000Y-52850000D01*
X137640000Y-58410000D02*
X138560000Y-58410000D01*
X137640000Y-56810000D02*
X137640000Y-58410000D01*
X137360000Y-56810000D02*
X137640000Y-56810000D01*
X137360000Y-56810000D02*
X137360000Y-58025000D01*
X137300000Y-52850000D02*
X137300000Y-50590000D01*
X136800000Y-54450000D02*
X137800000Y-54450000D01*
X136800000Y-52850000D02*
X136800000Y-54450000D01*
X136800000Y-52850000D02*
X136800000Y-50590000D01*
X136000000Y-54950000D02*
X131000000Y-54950000D01*
X136000000Y-50590000D02*
X136000000Y-54950000D01*
X131000000Y-54950000D02*
X131000000Y-50590000D01*
X130200000Y-54450000D02*
X129200000Y-54450000D01*
X130200000Y-52850000D02*
X130200000Y-54450000D01*
X129360000Y-58410000D02*
X129360000Y-56810000D01*
X129360000Y-56810000D02*
X129640000Y-56810000D01*
X129200000Y-54450000D02*
X129200000Y-52850000D01*
X129200000Y-52850000D02*
X130200000Y-52850000D01*
X128440000Y-58410000D02*
X129360000Y-58410000D01*
X128440000Y-56810000D02*
X129360000Y-56810000D01*
X128440000Y-50590000D02*
X128440000Y-58410000D01*
%TO.C,J2*%
X128940000Y-116540000D02*
X128940000Y-124360000D01*
X128940000Y-118140000D02*
X129860000Y-118140000D01*
X128940000Y-124360000D02*
X137060000Y-124360000D01*
X129700000Y-120500000D02*
X129700000Y-122100000D01*
X129700000Y-122100000D02*
X130700000Y-122100000D01*
X129860000Y-116540000D02*
X128940000Y-116540000D01*
X129860000Y-118140000D02*
X129860000Y-116540000D01*
X130140000Y-118140000D02*
X129860000Y-118140000D01*
X130140000Y-118140000D02*
X130140000Y-116925000D01*
X130200000Y-122100000D02*
X130200000Y-124360000D01*
X130700000Y-120500000D02*
X129700000Y-120500000D01*
X130700000Y-122100000D02*
X130700000Y-120500000D01*
X130700000Y-122100000D02*
X130700000Y-124360000D01*
X131500000Y-120000000D02*
X134500000Y-120000000D01*
X131500000Y-124360000D02*
X131500000Y-120000000D01*
X134500000Y-120000000D02*
X134500000Y-124360000D01*
X135300000Y-120500000D02*
X136300000Y-120500000D01*
X135300000Y-122100000D02*
X135300000Y-120500000D01*
X136140000Y-116540000D02*
X136140000Y-118140000D01*
X136140000Y-118140000D02*
X135860000Y-118140000D01*
X136300000Y-120500000D02*
X136300000Y-122100000D01*
X136300000Y-122100000D02*
X135300000Y-122100000D01*
X137060000Y-116540000D02*
X136140000Y-116540000D01*
X137060000Y-118140000D02*
X136140000Y-118140000D01*
X137060000Y-124360000D02*
X137060000Y-116540000D01*
%TO.C,A1*%
X104465000Y-54060000D02*
X103985000Y-54060000D01*
X104465000Y-54060000D02*
X104465000Y-54480000D01*
X104465000Y-56600000D02*
X104465000Y-57020000D01*
X104465000Y-59140000D02*
X104465000Y-59560000D01*
X104465000Y-61680000D02*
X104465000Y-62100000D01*
X104465000Y-64220000D02*
X104465000Y-64640000D01*
X104465000Y-66760000D02*
X104465000Y-67180000D01*
X104465000Y-69300000D02*
X104465000Y-69720000D01*
X104465000Y-71840000D02*
X104465000Y-72260000D01*
X104465000Y-74380000D02*
X104465000Y-74800000D01*
X104465000Y-76920000D02*
X104465000Y-77340000D01*
X104465000Y-79460000D02*
X104465000Y-79880000D01*
X104465000Y-82000000D02*
X104465000Y-82420000D01*
X104465000Y-84540000D02*
X104465000Y-84960000D01*
X104465000Y-87080000D02*
X104465000Y-87500000D01*
X104465000Y-89620000D02*
X104465000Y-90040000D01*
X104465000Y-92160000D02*
X104465000Y-92580000D01*
X104465000Y-94700000D02*
X104465000Y-95120000D01*
X104465000Y-97240000D02*
X104465000Y-97660000D01*
X104465000Y-99780000D02*
X104465000Y-100200000D01*
X104495324Y-51940000D02*
X103985000Y-51940000D01*
X105075000Y-51520000D02*
X107565000Y-51520000D01*
X105075000Y-102740000D02*
X108912939Y-102740000D01*
X107565000Y-51520000D02*
X108912940Y-51520000D01*
X109837061Y-51520000D02*
X110840000Y-51520000D01*
X110840000Y-51520000D02*
X119310000Y-51520000D01*
X111175000Y-51520000D02*
X111175000Y-52436000D01*
X111175000Y-54824000D02*
X111175000Y-56040000D01*
X111175000Y-56040000D02*
X111471090Y-56040000D01*
X111475000Y-102740000D02*
X109837061Y-102740000D01*
X113828910Y-56040000D02*
X116321090Y-56040000D01*
X118675000Y-102740000D02*
X111475000Y-102740000D01*
X118678910Y-56040000D02*
X118975000Y-56040000D01*
X118975000Y-51520000D02*
X118975000Y-52436000D01*
X118975000Y-54824000D02*
X118975000Y-56040000D01*
X119310000Y-51520000D02*
X120312939Y-51520000D01*
X120312939Y-102740000D02*
X118675000Y-102740000D01*
X121237061Y-51520000D02*
X122585000Y-51520000D01*
X121237061Y-102740000D02*
X125075000Y-102740000D01*
X125075000Y-51520000D02*
X122585000Y-51520000D01*
X125685000Y-54060000D02*
X125685000Y-54480000D01*
X125685000Y-56600000D02*
X125685000Y-57020000D01*
X125685000Y-59140000D02*
X125685000Y-59560000D01*
X125685000Y-61680000D02*
X125685000Y-62100000D01*
X125685000Y-64220000D02*
X125685000Y-64640000D01*
X125685000Y-66760000D02*
X125685000Y-67180000D01*
X125685000Y-69300000D02*
X125685000Y-69720000D01*
X125685000Y-71840000D02*
X125685000Y-72260000D01*
X125685000Y-74380000D02*
X125685000Y-74800000D01*
X125685000Y-76920000D02*
X125685000Y-77340000D01*
X125685000Y-79460000D02*
X125685000Y-79880000D01*
X125685000Y-82000000D02*
X125685000Y-82420000D01*
X125685000Y-84540000D02*
X125685000Y-84960000D01*
X125685000Y-87080000D02*
X125685000Y-87500000D01*
X125685000Y-89620000D02*
X125685000Y-90040000D01*
X125685000Y-92160000D02*
X125685000Y-92580000D01*
X125685000Y-94700000D02*
X125685000Y-95120000D01*
X125685000Y-97240000D02*
X125685000Y-97660000D01*
X125685000Y-99780000D02*
X125685000Y-100200000D01*
X104495324Y-51940000D02*
G75*
G02*
X105075000Y-51520000I579692J-190051D01*
G01*
X105075000Y-102740000D02*
G75*
G02*
X104495324Y-102319937I1J610002D01*
G01*
X125075000Y-51520000D02*
G75*
G02*
X125654676Y-51940063I0J-610000D01*
G01*
X125654676Y-102319937D02*
G75*
G02*
X125075000Y-102740069I-579676J189837D01*
G01*
%TO.C,R1*%
X133938748Y-86852500D02*
X134461252Y-86852500D01*
X133938748Y-88322500D02*
X134461252Y-88322500D01*
%TO.C,C2*%
X133938748Y-77822500D02*
X134461252Y-77822500D01*
X133938748Y-79292500D02*
X134461252Y-79292500D01*
%TO.C,C4*%
X133938748Y-83842500D02*
X134461252Y-83842500D01*
X133938748Y-85312500D02*
X134461252Y-85312500D01*
%TO.C,U1*%
X131890000Y-67190000D02*
X132365000Y-67190000D01*
X131890000Y-67665000D02*
X131890000Y-67190000D01*
X131890000Y-71410000D02*
X131890000Y-70935000D01*
X132365000Y-71410000D02*
X131890000Y-71410000D01*
X135635000Y-67190000D02*
X136110000Y-67190000D01*
X136110000Y-67190000D02*
X136110000Y-67665000D01*
X136110000Y-70935000D02*
X136110000Y-71410000D01*
X136110000Y-71410000D02*
X135635000Y-71410000D01*
X131360000Y-68050000D02*
X131030000Y-68290000D01*
X131030000Y-67810000D01*
X131360000Y-68050000D01*
G36*
X131360000Y-68050000D02*
G01*
X131030000Y-68290000D01*
X131030000Y-67810000D01*
X131360000Y-68050000D01*
G37*
%TO.C,C1*%
X133938748Y-74812500D02*
X134461252Y-74812500D01*
X133938748Y-76282500D02*
X134461252Y-76282500D01*
%TO.C,C3*%
X133938748Y-80832500D02*
X134461252Y-80832500D01*
X133938748Y-82302500D02*
X134461252Y-82302500D01*
%TO.C,J1*%
X102390000Y-111390000D02*
X105200000Y-111390000D01*
X102390000Y-117450000D02*
X102390000Y-111390000D01*
X102390000Y-124610000D02*
X102390000Y-121550000D01*
X106500000Y-111200000D02*
X108500000Y-111200000D01*
X109800000Y-111390000D02*
X112610000Y-111390000D01*
X112610000Y-111390000D02*
X112610000Y-117450000D01*
X112610000Y-121550000D02*
X112610000Y-124610000D01*
X112610000Y-124610000D02*
X102390000Y-124610000D01*
%TD*%
M02*
