%TF.GenerationSoftware,KiCad,Pcbnew,9.0.6-9.0.6~ubuntu22.04.1*%
%TF.CreationDate,2025-11-25T00:54:22+02:00*%
%TF.ProjectId,pico,7069636f-2e6b-4696-9361-645f70636258,1*%
%TF.SameCoordinates,Original*%
%TF.FileFunction,Legend,Bot*%
%TF.FilePolarity,Positive*%
%FSLAX46Y46*%
G04 Gerber Fmt 4.6, Leading zero omitted, Abs format (unit mm)*
G04 Created by KiCad (PCBNEW 9.0.6-9.0.6~ubuntu22.04.1) date 2025-11-25 00:54:22*
%MOMM*%
%LPD*%
G01*
G04 APERTURE LIST*
%ADD10C,0.300000*%
G04 APERTURE END LIST*
D10*
X137714285Y-59185282D02*
X137214285Y-59185282D01*
X136999999Y-59970996D02*
X137714285Y-59970996D01*
X137714285Y-59970996D02*
X137714285Y-58470996D01*
X137714285Y-58470996D02*
X136999999Y-58470996D01*
X136499999Y-59970996D02*
X135714285Y-58970996D01*
X136499999Y-58970996D02*
X135714285Y-59970996D01*
X135357141Y-58970996D02*
X134785713Y-58970996D01*
X135142856Y-58470996D02*
X135142856Y-59756710D01*
X135142856Y-59756710D02*
X135071427Y-59899568D01*
X135071427Y-59899568D02*
X134928570Y-59970996D01*
X134928570Y-59970996D02*
X134785713Y-59970996D01*
X133714284Y-59899568D02*
X133857141Y-59970996D01*
X133857141Y-59970996D02*
X134142856Y-59970996D01*
X134142856Y-59970996D02*
X134285713Y-59899568D01*
X134285713Y-59899568D02*
X134357141Y-59756710D01*
X134357141Y-59756710D02*
X134357141Y-59185282D01*
X134357141Y-59185282D02*
X134285713Y-59042425D01*
X134285713Y-59042425D02*
X134142856Y-58970996D01*
X134142856Y-58970996D02*
X133857141Y-58970996D01*
X133857141Y-58970996D02*
X133714284Y-59042425D01*
X133714284Y-59042425D02*
X133642856Y-59185282D01*
X133642856Y-59185282D02*
X133642856Y-59328139D01*
X133642856Y-59328139D02*
X134357141Y-59470996D01*
X132999999Y-59970996D02*
X132999999Y-58970996D01*
X132999999Y-59256710D02*
X132928570Y-59113853D01*
X132928570Y-59113853D02*
X132857142Y-59042425D01*
X132857142Y-59042425D02*
X132714284Y-58970996D01*
X132714284Y-58970996D02*
X132571427Y-58970996D01*
X132071428Y-58970996D02*
X132071428Y-59970996D01*
X132071428Y-59113853D02*
X131999999Y-59042425D01*
X131999999Y-59042425D02*
X131857142Y-58970996D01*
X131857142Y-58970996D02*
X131642856Y-58970996D01*
X131642856Y-58970996D02*
X131499999Y-59042425D01*
X131499999Y-59042425D02*
X131428571Y-59185282D01*
X131428571Y-59185282D02*
X131428571Y-59970996D01*
X130071428Y-59970996D02*
X130071428Y-59185282D01*
X130071428Y-59185282D02*
X130142856Y-59042425D01*
X130142856Y-59042425D02*
X130285713Y-58970996D01*
X130285713Y-58970996D02*
X130571428Y-58970996D01*
X130571428Y-58970996D02*
X130714285Y-59042425D01*
X130071428Y-59899568D02*
X130214285Y-59970996D01*
X130214285Y-59970996D02*
X130571428Y-59970996D01*
X130571428Y-59970996D02*
X130714285Y-59899568D01*
X130714285Y-59899568D02*
X130785713Y-59756710D01*
X130785713Y-59756710D02*
X130785713Y-59613853D01*
X130785713Y-59613853D02*
X130714285Y-59470996D01*
X130714285Y-59470996D02*
X130571428Y-59399568D01*
X130571428Y-59399568D02*
X130214285Y-59399568D01*
X130214285Y-59399568D02*
X130071428Y-59328139D01*
X129142856Y-59970996D02*
X129285713Y-59899568D01*
X129285713Y-59899568D02*
X129357142Y-59756710D01*
X129357142Y-59756710D02*
X129357142Y-58470996D01*
X139321428Y-62385912D02*
X139321428Y-60885912D01*
X139321428Y-60885912D02*
X138821428Y-61957341D01*
X138821428Y-61957341D02*
X138321428Y-60885912D01*
X138321428Y-60885912D02*
X138321428Y-62385912D01*
X137607142Y-62385912D02*
X137607142Y-60885912D01*
X137607142Y-60885912D02*
X137035713Y-60885912D01*
X137035713Y-60885912D02*
X136892856Y-60957341D01*
X136892856Y-60957341D02*
X136821427Y-61028769D01*
X136821427Y-61028769D02*
X136749999Y-61171626D01*
X136749999Y-61171626D02*
X136749999Y-61385912D01*
X136749999Y-61385912D02*
X136821427Y-61528769D01*
X136821427Y-61528769D02*
X136892856Y-61600198D01*
X136892856Y-61600198D02*
X137035713Y-61671626D01*
X137035713Y-61671626D02*
X137607142Y-61671626D01*
X136107142Y-60885912D02*
X136107142Y-62100198D01*
X136107142Y-62100198D02*
X136035713Y-62243055D01*
X136035713Y-62243055D02*
X135964285Y-62314484D01*
X135964285Y-62314484D02*
X135821427Y-62385912D01*
X135821427Y-62385912D02*
X135535713Y-62385912D01*
X135535713Y-62385912D02*
X135392856Y-62314484D01*
X135392856Y-62314484D02*
X135321427Y-62243055D01*
X135321427Y-62243055D02*
X135249999Y-62100198D01*
X135249999Y-62100198D02*
X135249999Y-60885912D01*
X134535713Y-61814484D02*
X133392856Y-61814484D01*
X132035713Y-60885912D02*
X132321427Y-60885912D01*
X132321427Y-60885912D02*
X132464284Y-60957341D01*
X132464284Y-60957341D02*
X132535713Y-61028769D01*
X132535713Y-61028769D02*
X132678570Y-61243055D01*
X132678570Y-61243055D02*
X132749998Y-61528769D01*
X132749998Y-61528769D02*
X132749998Y-62100198D01*
X132749998Y-62100198D02*
X132678570Y-62243055D01*
X132678570Y-62243055D02*
X132607141Y-62314484D01*
X132607141Y-62314484D02*
X132464284Y-62385912D01*
X132464284Y-62385912D02*
X132178570Y-62385912D01*
X132178570Y-62385912D02*
X132035713Y-62314484D01*
X132035713Y-62314484D02*
X131964284Y-62243055D01*
X131964284Y-62243055D02*
X131892855Y-62100198D01*
X131892855Y-62100198D02*
X131892855Y-61743055D01*
X131892855Y-61743055D02*
X131964284Y-61600198D01*
X131964284Y-61600198D02*
X132035713Y-61528769D01*
X132035713Y-61528769D02*
X132178570Y-61457341D01*
X132178570Y-61457341D02*
X132464284Y-61457341D01*
X132464284Y-61457341D02*
X132607141Y-61528769D01*
X132607141Y-61528769D02*
X132678570Y-61600198D01*
X132678570Y-61600198D02*
X132749998Y-61743055D01*
X130964284Y-60885912D02*
X130821427Y-60885912D01*
X130821427Y-60885912D02*
X130678570Y-60957341D01*
X130678570Y-60957341D02*
X130607142Y-61028769D01*
X130607142Y-61028769D02*
X130535713Y-61171626D01*
X130535713Y-61171626D02*
X130464284Y-61457341D01*
X130464284Y-61457341D02*
X130464284Y-61814484D01*
X130464284Y-61814484D02*
X130535713Y-62100198D01*
X130535713Y-62100198D02*
X130607142Y-62243055D01*
X130607142Y-62243055D02*
X130678570Y-62314484D01*
X130678570Y-62314484D02*
X130821427Y-62385912D01*
X130821427Y-62385912D02*
X130964284Y-62385912D01*
X130964284Y-62385912D02*
X131107142Y-62314484D01*
X131107142Y-62314484D02*
X131178570Y-62243055D01*
X131178570Y-62243055D02*
X131249999Y-62100198D01*
X131249999Y-62100198D02*
X131321427Y-61814484D01*
X131321427Y-61814484D02*
X131321427Y-61457341D01*
X131321427Y-61457341D02*
X131249999Y-61171626D01*
X131249999Y-61171626D02*
X131178570Y-61028769D01*
X131178570Y-61028769D02*
X131107142Y-60957341D01*
X131107142Y-60957341D02*
X130964284Y-60885912D01*
X129107142Y-60885912D02*
X129821428Y-60885912D01*
X129821428Y-60885912D02*
X129892856Y-61600198D01*
X129892856Y-61600198D02*
X129821428Y-61528769D01*
X129821428Y-61528769D02*
X129678571Y-61457341D01*
X129678571Y-61457341D02*
X129321428Y-61457341D01*
X129321428Y-61457341D02*
X129178571Y-61528769D01*
X129178571Y-61528769D02*
X129107142Y-61600198D01*
X129107142Y-61600198D02*
X129035713Y-61743055D01*
X129035713Y-61743055D02*
X129035713Y-62100198D01*
X129035713Y-62100198D02*
X129107142Y-62243055D01*
X129107142Y-62243055D02*
X129178571Y-62314484D01*
X129178571Y-62314484D02*
X129321428Y-62385912D01*
X129321428Y-62385912D02*
X129678571Y-62385912D01*
X129678571Y-62385912D02*
X129821428Y-62314484D01*
X129821428Y-62314484D02*
X129892856Y-62243055D01*
X128107142Y-60885912D02*
X127964285Y-60885912D01*
X127964285Y-60885912D02*
X127821428Y-60957341D01*
X127821428Y-60957341D02*
X127750000Y-61028769D01*
X127750000Y-61028769D02*
X127678571Y-61171626D01*
X127678571Y-61171626D02*
X127607142Y-61457341D01*
X127607142Y-61457341D02*
X127607142Y-61814484D01*
X127607142Y-61814484D02*
X127678571Y-62100198D01*
X127678571Y-62100198D02*
X127750000Y-62243055D01*
X127750000Y-62243055D02*
X127821428Y-62314484D01*
X127821428Y-62314484D02*
X127964285Y-62385912D01*
X127964285Y-62385912D02*
X128107142Y-62385912D01*
X128107142Y-62385912D02*
X128250000Y-62314484D01*
X128250000Y-62314484D02*
X128321428Y-62243055D01*
X128321428Y-62243055D02*
X128392857Y-62100198D01*
X128392857Y-62100198D02*
X128464285Y-61814484D01*
X128464285Y-61814484D02*
X128464285Y-61457341D01*
X128464285Y-61457341D02*
X128392857Y-61171626D01*
X128392857Y-61171626D02*
X128321428Y-61028769D01*
X128321428Y-61028769D02*
X128250000Y-60957341D01*
X128250000Y-60957341D02*
X128107142Y-60885912D01*
X138500000Y-64657971D02*
X138571428Y-64729400D01*
X138571428Y-64729400D02*
X138785714Y-64800828D01*
X138785714Y-64800828D02*
X138928571Y-64800828D01*
X138928571Y-64800828D02*
X139142857Y-64729400D01*
X139142857Y-64729400D02*
X139285714Y-64586542D01*
X139285714Y-64586542D02*
X139357143Y-64443685D01*
X139357143Y-64443685D02*
X139428571Y-64157971D01*
X139428571Y-64157971D02*
X139428571Y-63943685D01*
X139428571Y-63943685D02*
X139357143Y-63657971D01*
X139357143Y-63657971D02*
X139285714Y-63515114D01*
X139285714Y-63515114D02*
X139142857Y-63372257D01*
X139142857Y-63372257D02*
X138928571Y-63300828D01*
X138928571Y-63300828D02*
X138785714Y-63300828D01*
X138785714Y-63300828D02*
X138571428Y-63372257D01*
X138571428Y-63372257D02*
X138500000Y-63443685D01*
X137642857Y-64800828D02*
X137785714Y-64729400D01*
X137785714Y-64729400D02*
X137857143Y-64657971D01*
X137857143Y-64657971D02*
X137928571Y-64515114D01*
X137928571Y-64515114D02*
X137928571Y-64086542D01*
X137928571Y-64086542D02*
X137857143Y-63943685D01*
X137857143Y-63943685D02*
X137785714Y-63872257D01*
X137785714Y-63872257D02*
X137642857Y-63800828D01*
X137642857Y-63800828D02*
X137428571Y-63800828D01*
X137428571Y-63800828D02*
X137285714Y-63872257D01*
X137285714Y-63872257D02*
X137214286Y-63943685D01*
X137214286Y-63943685D02*
X137142857Y-64086542D01*
X137142857Y-64086542D02*
X137142857Y-64515114D01*
X137142857Y-64515114D02*
X137214286Y-64657971D01*
X137214286Y-64657971D02*
X137285714Y-64729400D01*
X137285714Y-64729400D02*
X137428571Y-64800828D01*
X137428571Y-64800828D02*
X137642857Y-64800828D01*
X136500000Y-63800828D02*
X136500000Y-64800828D01*
X136500000Y-63943685D02*
X136428571Y-63872257D01*
X136428571Y-63872257D02*
X136285714Y-63800828D01*
X136285714Y-63800828D02*
X136071428Y-63800828D01*
X136071428Y-63800828D02*
X135928571Y-63872257D01*
X135928571Y-63872257D02*
X135857143Y-64015114D01*
X135857143Y-64015114D02*
X135857143Y-64800828D01*
X135142857Y-63800828D02*
X135142857Y-64800828D01*
X135142857Y-63943685D02*
X135071428Y-63872257D01*
X135071428Y-63872257D02*
X134928571Y-63800828D01*
X134928571Y-63800828D02*
X134714285Y-63800828D01*
X134714285Y-63800828D02*
X134571428Y-63872257D01*
X134571428Y-63872257D02*
X134500000Y-64015114D01*
X134500000Y-64015114D02*
X134500000Y-64800828D01*
X133214285Y-64729400D02*
X133357142Y-64800828D01*
X133357142Y-64800828D02*
X133642857Y-64800828D01*
X133642857Y-64800828D02*
X133785714Y-64729400D01*
X133785714Y-64729400D02*
X133857142Y-64586542D01*
X133857142Y-64586542D02*
X133857142Y-64015114D01*
X133857142Y-64015114D02*
X133785714Y-63872257D01*
X133785714Y-63872257D02*
X133642857Y-63800828D01*
X133642857Y-63800828D02*
X133357142Y-63800828D01*
X133357142Y-63800828D02*
X133214285Y-63872257D01*
X133214285Y-63872257D02*
X133142857Y-64015114D01*
X133142857Y-64015114D02*
X133142857Y-64157971D01*
X133142857Y-64157971D02*
X133857142Y-64300828D01*
X131857143Y-64729400D02*
X132000000Y-64800828D01*
X132000000Y-64800828D02*
X132285714Y-64800828D01*
X132285714Y-64800828D02*
X132428571Y-64729400D01*
X132428571Y-64729400D02*
X132500000Y-64657971D01*
X132500000Y-64657971D02*
X132571428Y-64515114D01*
X132571428Y-64515114D02*
X132571428Y-64086542D01*
X132571428Y-64086542D02*
X132500000Y-63943685D01*
X132500000Y-63943685D02*
X132428571Y-63872257D01*
X132428571Y-63872257D02*
X132285714Y-63800828D01*
X132285714Y-63800828D02*
X132000000Y-63800828D01*
X132000000Y-63800828D02*
X131857143Y-63872257D01*
X131428571Y-63800828D02*
X130857143Y-63800828D01*
X131214286Y-63300828D02*
X131214286Y-64586542D01*
X131214286Y-64586542D02*
X131142857Y-64729400D01*
X131142857Y-64729400D02*
X131000000Y-64800828D01*
X131000000Y-64800828D02*
X130857143Y-64800828D01*
X130357143Y-64800828D02*
X130357143Y-63800828D01*
X130357143Y-63300828D02*
X130428571Y-63372257D01*
X130428571Y-63372257D02*
X130357143Y-63443685D01*
X130357143Y-63443685D02*
X130285714Y-63372257D01*
X130285714Y-63372257D02*
X130357143Y-63300828D01*
X130357143Y-63300828D02*
X130357143Y-63443685D01*
X129428571Y-64800828D02*
X129571428Y-64729400D01*
X129571428Y-64729400D02*
X129642857Y-64657971D01*
X129642857Y-64657971D02*
X129714285Y-64515114D01*
X129714285Y-64515114D02*
X129714285Y-64086542D01*
X129714285Y-64086542D02*
X129642857Y-63943685D01*
X129642857Y-63943685D02*
X129571428Y-63872257D01*
X129571428Y-63872257D02*
X129428571Y-63800828D01*
X129428571Y-63800828D02*
X129214285Y-63800828D01*
X129214285Y-63800828D02*
X129071428Y-63872257D01*
X129071428Y-63872257D02*
X129000000Y-63943685D01*
X129000000Y-63943685D02*
X128928571Y-64086542D01*
X128928571Y-64086542D02*
X128928571Y-64515114D01*
X128928571Y-64515114D02*
X129000000Y-64657971D01*
X129000000Y-64657971D02*
X129071428Y-64729400D01*
X129071428Y-64729400D02*
X129214285Y-64800828D01*
X129214285Y-64800828D02*
X129428571Y-64800828D01*
X128285714Y-63800828D02*
X128285714Y-64800828D01*
X128285714Y-63943685D02*
X128214285Y-63872257D01*
X128214285Y-63872257D02*
X128071428Y-63800828D01*
X128071428Y-63800828D02*
X127857142Y-63800828D01*
X127857142Y-63800828D02*
X127714285Y-63872257D01*
X127714285Y-63872257D02*
X127642857Y-64015114D01*
X127642857Y-64015114D02*
X127642857Y-64800828D01*
X109000000Y-52385912D02*
X109000000Y-53885912D01*
X109000000Y-52457341D02*
X108857143Y-52385912D01*
X108857143Y-52385912D02*
X108571428Y-52385912D01*
X108571428Y-52385912D02*
X108428571Y-52457341D01*
X108428571Y-52457341D02*
X108357143Y-52528769D01*
X108357143Y-52528769D02*
X108285714Y-52671626D01*
X108285714Y-52671626D02*
X108285714Y-53100198D01*
X108285714Y-53100198D02*
X108357143Y-53243055D01*
X108357143Y-53243055D02*
X108428571Y-53314484D01*
X108428571Y-53314484D02*
X108571428Y-53385912D01*
X108571428Y-53385912D02*
X108857143Y-53385912D01*
X108857143Y-53385912D02*
X109000000Y-53314484D01*
X107642857Y-53385912D02*
X107642857Y-52385912D01*
X107642857Y-51885912D02*
X107714285Y-51957341D01*
X107714285Y-51957341D02*
X107642857Y-52028769D01*
X107642857Y-52028769D02*
X107571428Y-51957341D01*
X107571428Y-51957341D02*
X107642857Y-51885912D01*
X107642857Y-51885912D02*
X107642857Y-52028769D01*
X106285714Y-53314484D02*
X106428571Y-53385912D01*
X106428571Y-53385912D02*
X106714285Y-53385912D01*
X106714285Y-53385912D02*
X106857142Y-53314484D01*
X106857142Y-53314484D02*
X106928571Y-53243055D01*
X106928571Y-53243055D02*
X106999999Y-53100198D01*
X106999999Y-53100198D02*
X106999999Y-52671626D01*
X106999999Y-52671626D02*
X106928571Y-52528769D01*
X106928571Y-52528769D02*
X106857142Y-52457341D01*
X106857142Y-52457341D02*
X106714285Y-52385912D01*
X106714285Y-52385912D02*
X106428571Y-52385912D01*
X106428571Y-52385912D02*
X106285714Y-52457341D01*
X105428571Y-53385912D02*
X105571428Y-53314484D01*
X105571428Y-53314484D02*
X105642857Y-53243055D01*
X105642857Y-53243055D02*
X105714285Y-53100198D01*
X105714285Y-53100198D02*
X105714285Y-52671626D01*
X105714285Y-52671626D02*
X105642857Y-52528769D01*
X105642857Y-52528769D02*
X105571428Y-52457341D01*
X105571428Y-52457341D02*
X105428571Y-52385912D01*
X105428571Y-52385912D02*
X105214285Y-52385912D01*
X105214285Y-52385912D02*
X105071428Y-52457341D01*
X105071428Y-52457341D02*
X105000000Y-52528769D01*
X105000000Y-52528769D02*
X104928571Y-52671626D01*
X104928571Y-52671626D02*
X104928571Y-53100198D01*
X104928571Y-53100198D02*
X105000000Y-53243055D01*
X105000000Y-53243055D02*
X105071428Y-53314484D01*
X105071428Y-53314484D02*
X105214285Y-53385912D01*
X105214285Y-53385912D02*
X105428571Y-53385912D01*
X108892857Y-54300828D02*
X108892857Y-55515114D01*
X108892857Y-55515114D02*
X108821428Y-55657971D01*
X108821428Y-55657971D02*
X108750000Y-55729400D01*
X108750000Y-55729400D02*
X108607142Y-55800828D01*
X108607142Y-55800828D02*
X108321428Y-55800828D01*
X108321428Y-55800828D02*
X108178571Y-55729400D01*
X108178571Y-55729400D02*
X108107142Y-55657971D01*
X108107142Y-55657971D02*
X108035714Y-55515114D01*
X108035714Y-55515114D02*
X108035714Y-54300828D01*
X107392856Y-55729400D02*
X107178571Y-55800828D01*
X107178571Y-55800828D02*
X106821428Y-55800828D01*
X106821428Y-55800828D02*
X106678571Y-55729400D01*
X106678571Y-55729400D02*
X106607142Y-55657971D01*
X106607142Y-55657971D02*
X106535713Y-55515114D01*
X106535713Y-55515114D02*
X106535713Y-55372257D01*
X106535713Y-55372257D02*
X106607142Y-55229400D01*
X106607142Y-55229400D02*
X106678571Y-55157971D01*
X106678571Y-55157971D02*
X106821428Y-55086542D01*
X106821428Y-55086542D02*
X107107142Y-55015114D01*
X107107142Y-55015114D02*
X107249999Y-54943685D01*
X107249999Y-54943685D02*
X107321428Y-54872257D01*
X107321428Y-54872257D02*
X107392856Y-54729400D01*
X107392856Y-54729400D02*
X107392856Y-54586542D01*
X107392856Y-54586542D02*
X107321428Y-54443685D01*
X107321428Y-54443685D02*
X107249999Y-54372257D01*
X107249999Y-54372257D02*
X107107142Y-54300828D01*
X107107142Y-54300828D02*
X106749999Y-54300828D01*
X106749999Y-54300828D02*
X106535713Y-54372257D01*
X105392857Y-55015114D02*
X105178571Y-55086542D01*
X105178571Y-55086542D02*
X105107142Y-55157971D01*
X105107142Y-55157971D02*
X105035714Y-55300828D01*
X105035714Y-55300828D02*
X105035714Y-55515114D01*
X105035714Y-55515114D02*
X105107142Y-55657971D01*
X105107142Y-55657971D02*
X105178571Y-55729400D01*
X105178571Y-55729400D02*
X105321428Y-55800828D01*
X105321428Y-55800828D02*
X105892857Y-55800828D01*
X105892857Y-55800828D02*
X105892857Y-54300828D01*
X105892857Y-54300828D02*
X105392857Y-54300828D01*
X105392857Y-54300828D02*
X105250000Y-54372257D01*
X105250000Y-54372257D02*
X105178571Y-54443685D01*
X105178571Y-54443685D02*
X105107142Y-54586542D01*
X105107142Y-54586542D02*
X105107142Y-54729400D01*
X105107142Y-54729400D02*
X105178571Y-54872257D01*
X105178571Y-54872257D02*
X105250000Y-54943685D01*
X105250000Y-54943685D02*
X105392857Y-55015114D01*
X105392857Y-55015114D02*
X105892857Y-55015114D01*
X133464285Y-121385912D02*
X134178571Y-121385912D01*
X134178571Y-121385912D02*
X134178571Y-119885912D01*
X132964285Y-120600198D02*
X132464285Y-120600198D01*
X132249999Y-121385912D02*
X132964285Y-121385912D01*
X132964285Y-121385912D02*
X132964285Y-119885912D01*
X132964285Y-119885912D02*
X132249999Y-119885912D01*
X131607142Y-121385912D02*
X131607142Y-119885912D01*
X131607142Y-119885912D02*
X131249999Y-119885912D01*
X131249999Y-119885912D02*
X131035713Y-119957341D01*
X131035713Y-119957341D02*
X130892856Y-120100198D01*
X130892856Y-120100198D02*
X130821427Y-120243055D01*
X130821427Y-120243055D02*
X130749999Y-120528769D01*
X130749999Y-120528769D02*
X130749999Y-120743055D01*
X130749999Y-120743055D02*
X130821427Y-121028769D01*
X130821427Y-121028769D02*
X130892856Y-121171626D01*
X130892856Y-121171626D02*
X131035713Y-121314484D01*
X131035713Y-121314484D02*
X131249999Y-121385912D01*
X131249999Y-121385912D02*
X131607142Y-121385912D01*
X137500000Y-123657971D02*
X137571428Y-123729400D01*
X137571428Y-123729400D02*
X137785714Y-123800828D01*
X137785714Y-123800828D02*
X137928571Y-123800828D01*
X137928571Y-123800828D02*
X138142857Y-123729400D01*
X138142857Y-123729400D02*
X138285714Y-123586542D01*
X138285714Y-123586542D02*
X138357143Y-123443685D01*
X138357143Y-123443685D02*
X138428571Y-123157971D01*
X138428571Y-123157971D02*
X138428571Y-122943685D01*
X138428571Y-122943685D02*
X138357143Y-122657971D01*
X138357143Y-122657971D02*
X138285714Y-122515114D01*
X138285714Y-122515114D02*
X138142857Y-122372257D01*
X138142857Y-122372257D02*
X137928571Y-122300828D01*
X137928571Y-122300828D02*
X137785714Y-122300828D01*
X137785714Y-122300828D02*
X137571428Y-122372257D01*
X137571428Y-122372257D02*
X137500000Y-122443685D01*
X136642857Y-123800828D02*
X136785714Y-123729400D01*
X136785714Y-123729400D02*
X136857143Y-123657971D01*
X136857143Y-123657971D02*
X136928571Y-123515114D01*
X136928571Y-123515114D02*
X136928571Y-123086542D01*
X136928571Y-123086542D02*
X136857143Y-122943685D01*
X136857143Y-122943685D02*
X136785714Y-122872257D01*
X136785714Y-122872257D02*
X136642857Y-122800828D01*
X136642857Y-122800828D02*
X136428571Y-122800828D01*
X136428571Y-122800828D02*
X136285714Y-122872257D01*
X136285714Y-122872257D02*
X136214286Y-122943685D01*
X136214286Y-122943685D02*
X136142857Y-123086542D01*
X136142857Y-123086542D02*
X136142857Y-123515114D01*
X136142857Y-123515114D02*
X136214286Y-123657971D01*
X136214286Y-123657971D02*
X136285714Y-123729400D01*
X136285714Y-123729400D02*
X136428571Y-123800828D01*
X136428571Y-123800828D02*
X136642857Y-123800828D01*
X135500000Y-122800828D02*
X135500000Y-123800828D01*
X135500000Y-122943685D02*
X135428571Y-122872257D01*
X135428571Y-122872257D02*
X135285714Y-122800828D01*
X135285714Y-122800828D02*
X135071428Y-122800828D01*
X135071428Y-122800828D02*
X134928571Y-122872257D01*
X134928571Y-122872257D02*
X134857143Y-123015114D01*
X134857143Y-123015114D02*
X134857143Y-123800828D01*
X134142857Y-122800828D02*
X134142857Y-123800828D01*
X134142857Y-122943685D02*
X134071428Y-122872257D01*
X134071428Y-122872257D02*
X133928571Y-122800828D01*
X133928571Y-122800828D02*
X133714285Y-122800828D01*
X133714285Y-122800828D02*
X133571428Y-122872257D01*
X133571428Y-122872257D02*
X133500000Y-123015114D01*
X133500000Y-123015114D02*
X133500000Y-123800828D01*
X132214285Y-123729400D02*
X132357142Y-123800828D01*
X132357142Y-123800828D02*
X132642857Y-123800828D01*
X132642857Y-123800828D02*
X132785714Y-123729400D01*
X132785714Y-123729400D02*
X132857142Y-123586542D01*
X132857142Y-123586542D02*
X132857142Y-123015114D01*
X132857142Y-123015114D02*
X132785714Y-122872257D01*
X132785714Y-122872257D02*
X132642857Y-122800828D01*
X132642857Y-122800828D02*
X132357142Y-122800828D01*
X132357142Y-122800828D02*
X132214285Y-122872257D01*
X132214285Y-122872257D02*
X132142857Y-123015114D01*
X132142857Y-123015114D02*
X132142857Y-123157971D01*
X132142857Y-123157971D02*
X132857142Y-123300828D01*
X130857143Y-123729400D02*
X131000000Y-123800828D01*
X131000000Y-123800828D02*
X131285714Y-123800828D01*
X131285714Y-123800828D02*
X131428571Y-123729400D01*
X131428571Y-123729400D02*
X131500000Y-123657971D01*
X131500000Y-123657971D02*
X131571428Y-123515114D01*
X131571428Y-123515114D02*
X131571428Y-123086542D01*
X131571428Y-123086542D02*
X131500000Y-122943685D01*
X131500000Y-122943685D02*
X131428571Y-122872257D01*
X131428571Y-122872257D02*
X131285714Y-122800828D01*
X131285714Y-122800828D02*
X131000000Y-122800828D01*
X131000000Y-122800828D02*
X130857143Y-122872257D01*
X130428571Y-122800828D02*
X129857143Y-122800828D01*
X130214286Y-122300828D02*
X130214286Y-123586542D01*
X130214286Y-123586542D02*
X130142857Y-123729400D01*
X130142857Y-123729400D02*
X130000000Y-123800828D01*
X130000000Y-123800828D02*
X129857143Y-123800828D01*
X129357143Y-123800828D02*
X129357143Y-122800828D01*
X129357143Y-122300828D02*
X129428571Y-122372257D01*
X129428571Y-122372257D02*
X129357143Y-122443685D01*
X129357143Y-122443685D02*
X129285714Y-122372257D01*
X129285714Y-122372257D02*
X129357143Y-122300828D01*
X129357143Y-122300828D02*
X129357143Y-122443685D01*
X128428571Y-123800828D02*
X128571428Y-123729400D01*
X128571428Y-123729400D02*
X128642857Y-123657971D01*
X128642857Y-123657971D02*
X128714285Y-123515114D01*
X128714285Y-123515114D02*
X128714285Y-123086542D01*
X128714285Y-123086542D02*
X128642857Y-122943685D01*
X128642857Y-122943685D02*
X128571428Y-122872257D01*
X128571428Y-122872257D02*
X128428571Y-122800828D01*
X128428571Y-122800828D02*
X128214285Y-122800828D01*
X128214285Y-122800828D02*
X128071428Y-122872257D01*
X128071428Y-122872257D02*
X128000000Y-122943685D01*
X128000000Y-122943685D02*
X127928571Y-123086542D01*
X127928571Y-123086542D02*
X127928571Y-123515114D01*
X127928571Y-123515114D02*
X128000000Y-123657971D01*
X128000000Y-123657971D02*
X128071428Y-123729400D01*
X128071428Y-123729400D02*
X128214285Y-123800828D01*
X128214285Y-123800828D02*
X128428571Y-123800828D01*
X127285714Y-122800828D02*
X127285714Y-123800828D01*
X127285714Y-122943685D02*
X127214285Y-122872257D01*
X127214285Y-122872257D02*
X127071428Y-122800828D01*
X127071428Y-122800828D02*
X126857142Y-122800828D01*
X126857142Y-122800828D02*
X126714285Y-122872257D01*
X126714285Y-122872257D02*
X126642857Y-123015114D01*
X126642857Y-123015114D02*
X126642857Y-123800828D01*
X110231203Y-122300828D02*
X110945489Y-122300828D01*
X110945489Y-122300828D02*
X111016917Y-123015114D01*
X111016917Y-123015114D02*
X110945489Y-122943685D01*
X110945489Y-122943685D02*
X110802632Y-122872257D01*
X110802632Y-122872257D02*
X110445489Y-122872257D01*
X110445489Y-122872257D02*
X110302632Y-122943685D01*
X110302632Y-122943685D02*
X110231203Y-123015114D01*
X110231203Y-123015114D02*
X110159774Y-123157971D01*
X110159774Y-123157971D02*
X110159774Y-123515114D01*
X110159774Y-123515114D02*
X110231203Y-123657971D01*
X110231203Y-123657971D02*
X110302632Y-123729400D01*
X110302632Y-123729400D02*
X110445489Y-123800828D01*
X110445489Y-123800828D02*
X110802632Y-123800828D01*
X110802632Y-123800828D02*
X110945489Y-123729400D01*
X110945489Y-123729400D02*
X111016917Y-123657971D01*
X109731203Y-122300828D02*
X109231203Y-123800828D01*
X109231203Y-123800828D02*
X108731203Y-122300828D01*
X108231204Y-123800828D02*
X108231204Y-122300828D01*
X108231204Y-122300828D02*
X107874061Y-122300828D01*
X107874061Y-122300828D02*
X107659775Y-122372257D01*
X107659775Y-122372257D02*
X107516918Y-122515114D01*
X107516918Y-122515114D02*
X107445489Y-122657971D01*
X107445489Y-122657971D02*
X107374061Y-122943685D01*
X107374061Y-122943685D02*
X107374061Y-123157971D01*
X107374061Y-123157971D02*
X107445489Y-123443685D01*
X107445489Y-123443685D02*
X107516918Y-123586542D01*
X107516918Y-123586542D02*
X107659775Y-123729400D01*
X107659775Y-123729400D02*
X107874061Y-123800828D01*
X107874061Y-123800828D02*
X108231204Y-123800828D01*
X105874061Y-123657971D02*
X105945489Y-123729400D01*
X105945489Y-123729400D02*
X106159775Y-123800828D01*
X106159775Y-123800828D02*
X106302632Y-123800828D01*
X106302632Y-123800828D02*
X106516918Y-123729400D01*
X106516918Y-123729400D02*
X106659775Y-123586542D01*
X106659775Y-123586542D02*
X106731204Y-123443685D01*
X106731204Y-123443685D02*
X106802632Y-123157971D01*
X106802632Y-123157971D02*
X106802632Y-122943685D01*
X106802632Y-122943685D02*
X106731204Y-122657971D01*
X106731204Y-122657971D02*
X106659775Y-122515114D01*
X106659775Y-122515114D02*
X106516918Y-122372257D01*
X106516918Y-122372257D02*
X106302632Y-122300828D01*
X106302632Y-122300828D02*
X106159775Y-122300828D01*
X106159775Y-122300828D02*
X105945489Y-122372257D01*
X105945489Y-122372257D02*
X105874061Y-122443685D01*
X104088347Y-123800828D02*
X104088347Y-122300828D01*
X103374061Y-122800828D02*
X103374061Y-123800828D01*
X103374061Y-122943685D02*
X103302632Y-122872257D01*
X103302632Y-122872257D02*
X103159775Y-122800828D01*
X103159775Y-122800828D02*
X102945489Y-122800828D01*
X102945489Y-122800828D02*
X102802632Y-122872257D01*
X102802632Y-122872257D02*
X102731204Y-123015114D01*
X102731204Y-123015114D02*
X102731204Y-123800828D01*
M02*
