M48
; DRILL file {KiCad 9.0.6-9.0.6~ubuntu22.04.1} date 2025-11-27T22:46:07+0200
; FORMAT={-:-/ absolute / metric / decimal}
; #@! TF.CreationDate,2025-11-27T22:46:07+02:00
; #@! TF.GenerationSoftware,Kicad,Pcbnew,9.0.6-9.0.6~ubuntu22.04.1
; #@! TF.FileFunction,Plated,1,2,PTH
FMAT,2
METRIC
; #@! TA.AperFunction,Plated,PTH,ViaDrill
T1C0.300
; #@! TA.AperFunction,Plated,PTH,ComponentDrill
T2C0.750
; #@! TA.AperFunction,Plated,PTH,ComponentDrill
T3C0.800
; #@! TA.AperFunction,Plated,PTH,ComponentDrill
T4C1.000
%
G90
G05
T1
X107.751Y-62.906
X109.95Y-60.016
X127.66Y-63.075
X131.253Y-63.452
X132.853Y-86.082
X133.925Y-73.718
X135.724Y-65.882
X136.088Y-71.41
T2
X130.5Y-56.95
X131.0Y-118.0
X132.5Y-56.95
X133.0Y-118.0
X134.5Y-56.95
X135.0Y-118.0
X136.5Y-56.95
T3
X120.0Y-115.0
X122.5Y-115.0
T4
X134.0Y-93.5
X134.0Y-96.04
T4
G00X103.0Y-118.75
M15
G01X103.0Y-120.25
M16
G05
G00X106.5Y-112.5
M15
G01X108.5Y-112.5
M16
G05
G00X106.85Y-118.5
M15
G01X108.15Y-118.5
M16
G05
G00X112.0Y-118.75
M15
G01X112.0Y-120.25
M16
G05
M30
