%TF.GenerationSoftware,KiCad,Pcbnew,9.0.6-9.0.6~ubuntu22.04.1*%
%TF.CreationDate,2025-11-25T00:54:20+02:00*%
%TF.ProjectId,pico,7069636f-2e6b-4696-9361-645f70636258,1*%
%TF.SameCoordinates,Original*%
%TF.FileFunction,Copper,L1,Top*%
%TF.FilePolarity,Positive*%
%FSLAX46Y46*%
G04 Gerber Fmt 4.6, Leading zero omitted, Abs format (unit mm)*
G04 Created by KiCad (PCBNEW 9.0.6-9.0.6~ubuntu22.04.1) date 2025-11-25 00:54:20*
%MOMM*%
%LPD*%
G01*
G04 APERTURE LIST*
G04 Aperture macros list*
%AMRoundRect*
0 Rectangle with rounded corners*
0 $1 Rounding radius*
0 $2 $3 $4 $5 $6 $7 $8 $9 X,Y pos of 4 corners*
0 Add a 4 corners polygon primitive as box body*
4,1,4,$2,$3,$4,$5,$6,$7,$8,$9,$2,$3,0*
0 Add four circle primitives for the rounded corners*
1,1,$1+$1,$2,$3*
1,1,$1+$1,$4,$5*
1,1,$1+$1,$6,$7*
1,1,$1+$1,$8,$9*
0 Add four rect primitives between the rounded corners*
20,1,$1+$1,$2,$3,$4,$5,0*
20,1,$1+$1,$4,$5,$6,$7,0*
20,1,$1+$1,$6,$7,$8,$9,0*
20,1,$1+$1,$8,$9,$2,$3,0*%
%AMFreePoly0*
4,1,37,0.800000,0.796148,0.878414,0.796148,1.032228,0.765552,1.177117,0.705537,1.307515,0.618408,1.418408,0.507515,1.505537,0.377117,1.565552,0.232228,1.596148,0.078414,1.596148,-0.078414,1.565552,-0.232228,1.505537,-0.377117,1.418408,-0.507515,1.307515,-0.618408,1.177117,-0.705537,1.032228,-0.765552,0.878414,-0.796148,0.800000,-0.796148,0.800000,-0.800000,-1.400000,-0.800000,
-1.403843,-0.796157,-1.439018,-0.796157,-1.511114,-0.766294,-1.566294,-0.711114,-1.596157,-0.639018,-1.596157,-0.603843,-1.600000,-0.600000,-1.600000,0.600000,-1.596157,0.603843,-1.596157,0.639018,-1.566294,0.711114,-1.511114,0.766294,-1.439018,0.796157,-1.403843,0.796157,-1.400000,0.800000,0.800000,0.800000,0.800000,0.796148,0.800000,0.796148,$1*%
%AMFreePoly1*
4,1,37,1.403843,0.796157,1.439018,0.796157,1.511114,0.766294,1.566294,0.711114,1.596157,0.639018,1.596157,0.603843,1.600000,0.600000,1.600000,-0.600000,1.596157,-0.603843,1.596157,-0.639018,1.566294,-0.711114,1.511114,-0.766294,1.439018,-0.796157,1.403843,-0.796157,1.400000,-0.800000,-0.800000,-0.800000,-0.800000,-0.796148,-0.878414,-0.796148,-1.032228,-0.765552,-1.177117,-0.705537,
-1.307515,-0.618408,-1.418408,-0.507515,-1.505537,-0.377117,-1.565552,-0.232228,-1.596148,-0.078414,-1.596148,0.078414,-1.565552,0.232228,-1.505537,0.377117,-1.418408,0.507515,-1.307515,0.618408,-1.177117,0.705537,-1.032228,0.765552,-0.878414,0.796148,-0.800000,0.796148,-0.800000,0.800000,1.400000,0.800000,1.403843,0.796157,1.403843,0.796157,$1*%
G04 Aperture macros list end*
%TA.AperFunction,ComponentPad*%
%ADD10RoundRect,0.250000X-0.550000X-0.550000X0.550000X-0.550000X0.550000X0.550000X-0.550000X0.550000X0*%
%TD*%
%TA.AperFunction,ComponentPad*%
%ADD11C,1.600000*%
%TD*%
%TA.AperFunction,ComponentPad*%
%ADD12C,1.700000*%
%TD*%
%TA.AperFunction,ComponentPad*%
%ADD13R,1.700000X1.700000*%
%TD*%
%TA.AperFunction,SMDPad,CuDef*%
%ADD14RoundRect,0.250000X0.250000X0.475000X-0.250000X0.475000X-0.250000X-0.475000X0.250000X-0.475000X0*%
%TD*%
%TA.AperFunction,ComponentPad*%
%ADD15RoundRect,0.250000X0.350000X0.625000X-0.350000X0.625000X-0.350000X-0.625000X0.350000X-0.625000X0*%
%TD*%
%TA.AperFunction,ComponentPad*%
%ADD16O,1.200000X1.750000*%
%TD*%
%TA.AperFunction,ComponentPad*%
%ADD17RoundRect,0.250000X-0.350000X-0.625000X0.350000X-0.625000X0.350000X0.625000X-0.350000X0.625000X0*%
%TD*%
%TA.AperFunction,SMDPad,CuDef*%
%ADD18FreePoly0,0.000000*%
%TD*%
%TA.AperFunction,SMDPad,CuDef*%
%ADD19RoundRect,0.800000X-0.800000X-0.000010X0.800000X-0.000010X0.800000X0.000010X-0.800000X0.000010X0*%
%TD*%
%TA.AperFunction,SMDPad,CuDef*%
%ADD20FreePoly1,0.000000*%
%TD*%
%TA.AperFunction,SMDPad,CuDef*%
%ADD21RoundRect,0.250000X-0.250000X-0.475000X0.250000X-0.475000X0.250000X0.475000X-0.250000X0.475000X0*%
%TD*%
%TA.AperFunction,SMDPad,CuDef*%
%ADD22RoundRect,0.062500X-0.375000X-0.062500X0.375000X-0.062500X0.375000X0.062500X-0.375000X0.062500X0*%
%TD*%
%TA.AperFunction,SMDPad,CuDef*%
%ADD23RoundRect,0.062500X-0.062500X-0.375000X0.062500X-0.375000X0.062500X0.375000X-0.062500X0.375000X0*%
%TD*%
%TA.AperFunction,HeatsinkPad*%
%ADD24R,2.100000X2.100000*%
%TD*%
%TA.AperFunction,ComponentPad*%
%ADD25R,4.000000X2.000000*%
%TD*%
%TA.AperFunction,ComponentPad*%
%ADD26O,3.300000X2.000000*%
%TD*%
%TA.AperFunction,ComponentPad*%
%ADD27O,2.000000X3.500000*%
%TD*%
%TA.AperFunction,ViaPad*%
%ADD28C,0.600000*%
%TD*%
%TA.AperFunction,Conductor*%
%ADD29C,0.200000*%
%TD*%
%TA.AperFunction,Conductor*%
%ADD30C,2.000000*%
%TD*%
G04 APERTURE END LIST*
D10*
%TO.P,C6,1*%
%TO.N,Net-(A1-VBUS)*%
X120000000Y-115000000D03*
D11*
%TO.P,C6,2*%
%TO.N,Net-(J2-Pin_3)*%
X122500000Y-115000000D03*
%TD*%
D12*
%TO.P,J4,2,Pin_2*%
%TO.N,GNDREF*%
X134000000Y-96040000D03*
D13*
%TO.P,J4,1,Pin_1*%
%TO.N,Net-(J4-Pin_1)*%
X134000000Y-93500000D03*
%TD*%
D14*
%TO.P,R3,1*%
%TO.N,3.3VDC*%
X135450000Y-60500000D03*
%TO.P,R3,2*%
%TO.N,Net-(A1-GPIO4)*%
X133550000Y-60500000D03*
%TD*%
%TO.P,R2,1*%
%TO.N,3.3VDC*%
X135400000Y-63500000D03*
%TO.P,R2,2*%
%TO.N,Net-(A1-GPIO3)*%
X133500000Y-63500000D03*
%TD*%
D15*
%TO.P,J3,1,Pin_1*%
%TO.N,3.3VDC*%
X136500000Y-56950000D03*
D16*
%TO.P,J3,2,Pin_2*%
%TO.N,Net-(A1-GPIO4)*%
X134500000Y-56950000D03*
%TO.P,J3,3,Pin_3*%
%TO.N,Net-(A1-GPIO3)*%
X132500000Y-56950000D03*
%TO.P,J3,4,Pin_4*%
%TO.N,Net-(J2-Pin_3)*%
X130500000Y-56950000D03*
%TD*%
D17*
%TO.P,J2,1,Pin_1*%
%TO.N,Net-(A1-VBUS)*%
X131000000Y-118000000D03*
D16*
%TO.P,J2,2,Pin_2*%
%TO.N,Net-(J2-Pin_2)*%
X133000000Y-118000000D03*
%TO.P,J2,3,Pin_3*%
%TO.N,Net-(J2-Pin_3)*%
X135000000Y-118000000D03*
%TD*%
D18*
%TO.P,A1,1,GPIO0*%
%TO.N,unconnected-(A1-GPIO0-Pad1)*%
X105385000Y-53000000D03*
D19*
%TO.P,A1,2,GPIO1*%
%TO.N,unconnected-(A1-GPIO1-Pad2)*%
X105385000Y-55540000D03*
D20*
%TO.P,A1,3,GND*%
%TO.N,Net-(J2-Pin_3)*%
X105385000Y-58080000D03*
D19*
%TO.P,A1,4,GPIO2*%
%TO.N,unconnected-(A1-GPIO2-Pad4)*%
X105385000Y-60620000D03*
%TO.P,A1,5,GPIO3*%
%TO.N,Net-(A1-GPIO3)*%
X105385000Y-63160000D03*
%TO.P,A1,6,GPIO4*%
%TO.N,Net-(A1-GPIO4)*%
X105385000Y-65700000D03*
%TO.P,A1,7,GPIO5*%
%TO.N,unconnected-(A1-GPIO5-Pad7)*%
X105385000Y-68240000D03*
D20*
%TO.P,A1,8,GND*%
%TO.N,Net-(J2-Pin_3)*%
X105385000Y-70780000D03*
D19*
%TO.P,A1,9,GPIO6*%
%TO.N,unconnected-(A1-GPIO6-Pad9)*%
X105385000Y-73320000D03*
%TO.P,A1,10,GPIO7*%
%TO.N,unconnected-(A1-GPIO7-Pad10)*%
X105385000Y-75860000D03*
%TO.P,A1,11,GPIO8*%
%TO.N,unconnected-(A1-GPIO8-Pad11)*%
X105385000Y-78400000D03*
%TO.P,A1,12,GPIO9*%
%TO.N,unconnected-(A1-GPIO9-Pad12)*%
X105385000Y-80940000D03*
D20*
%TO.P,A1,13,GND*%
%TO.N,Net-(J2-Pin_3)*%
X105385000Y-83480000D03*
D19*
%TO.P,A1,14,GPIO10*%
%TO.N,unconnected-(A1-GPIO10-Pad14)*%
X105385000Y-86020000D03*
%TO.P,A1,15,GPIO11*%
%TO.N,unconnected-(A1-GPIO11-Pad15)*%
X105385000Y-88560000D03*
%TO.P,A1,16,GPIO12*%
%TO.N,unconnected-(A1-GPIO12-Pad16)*%
X105385000Y-91100000D03*
%TO.P,A1,17,GPIO13*%
%TO.N,unconnected-(A1-GPIO13-Pad17)*%
X105385000Y-93640000D03*
D20*
%TO.P,A1,18,GND*%
%TO.N,Net-(J2-Pin_3)*%
X105385000Y-96180000D03*
D19*
%TO.P,A1,19,GPIO14*%
%TO.N,unconnected-(A1-GPIO14-Pad19)*%
X105385000Y-98720000D03*
%TO.P,A1,20,GPIO15*%
%TO.N,unconnected-(A1-GPIO15-Pad20)*%
X105385000Y-101260000D03*
%TO.P,A1,21,GPIO16*%
%TO.N,unconnected-(A1-GPIO16-Pad21)*%
X124765000Y-101260000D03*
%TO.P,A1,22,GPIO17*%
%TO.N,unconnected-(A1-GPIO17-Pad22)*%
X124765000Y-98720000D03*
D18*
%TO.P,A1,23,GND*%
%TO.N,Net-(J2-Pin_3)*%
X124765000Y-96180000D03*
D19*
%TO.P,A1,24,GPIO18*%
%TO.N,unconnected-(A1-GPIO18-Pad24)*%
X124765000Y-93640000D03*
%TO.P,A1,25,GPIO19*%
%TO.N,unconnected-(A1-GPIO19-Pad25)*%
X124765000Y-91100000D03*
%TO.P,A1,26,GPIO20*%
%TO.N,unconnected-(A1-GPIO20-Pad26)*%
X124765000Y-88560000D03*
%TO.P,A1,27,GPIO21*%
%TO.N,unconnected-(A1-GPIO21-Pad27)*%
X124765000Y-86020000D03*
D18*
%TO.P,A1,28,GND*%
%TO.N,Net-(J2-Pin_3)*%
X124765000Y-83480000D03*
D19*
%TO.P,A1,29,GPIO22*%
%TO.N,Net-(A1-GPIO22)*%
X124765000Y-80940000D03*
%TO.P,A1,30,RUN*%
%TO.N,unconnected-(A1-RUN-Pad30)*%
X124765000Y-78400000D03*
%TO.P,A1,31,GPIO26_ADC0*%
%TO.N,unconnected-(A1-GPIO26_ADC0-Pad31)*%
X124765000Y-75860000D03*
%TO.P,A1,32,GPIO27_ADC1*%
%TO.N,unconnected-(A1-GPIO27_ADC1-Pad32)*%
X124765000Y-73320000D03*
D18*
%TO.P,A1,33,AGND*%
%TO.N,GNDREF*%
X124765000Y-70780000D03*
D19*
%TO.P,A1,34,GPIO28_ADC2*%
%TO.N,unconnected-(A1-GPIO28_ADC2-Pad34)*%
X124765000Y-68240000D03*
%TO.P,A1,35,ADC_VREF*%
%TO.N,unconnected-(A1-ADC_VREF-Pad35)*%
X124765000Y-65700000D03*
%TO.P,A1,36,3V3*%
%TO.N,3.3VDC*%
X124765000Y-63160000D03*
%TO.P,A1,37,3V3_EN*%
%TO.N,unconnected-(A1-3V3_EN-Pad37)*%
X124765000Y-60620000D03*
D18*
%TO.P,A1,38,GND*%
%TO.N,Net-(J2-Pin_3)*%
X124765000Y-58080000D03*
D19*
%TO.P,A1,39,VSYS*%
%TO.N,unconnected-(A1-VSYS-Pad39)*%
X124765000Y-55540000D03*
%TO.P,A1,40,VBUS*%
%TO.N,Net-(A1-VBUS)*%
X124765000Y-53000000D03*
%TD*%
D21*
%TO.P,R1,1*%
%TO.N,Net-(A1-GPIO22)*%
X133250000Y-87587500D03*
%TO.P,R1,2*%
%TO.N,Net-(J2-Pin_2)*%
X135150000Y-87587500D03*
%TD*%
%TO.P,C2,1*%
%TO.N,GNDREF*%
X133250000Y-78557500D03*
%TO.P,C2,2*%
%TO.N,3.3VDC*%
X135150000Y-78557500D03*
%TD*%
%TO.P,C4,1*%
%TO.N,GNDREF*%
X133250000Y-84577500D03*
%TO.P,C4,2*%
%TO.N,Net-(U1-CPOUT)*%
X135150000Y-84577500D03*
%TD*%
D22*
%TO.P,U1,1,CLKIN*%
%TO.N,GNDREF*%
X132062500Y-68050000D03*
%TO.P,U1,2,NC*%
%TO.N,unconnected-(U1-NC-Pad2)*%
X132062500Y-68550000D03*
%TO.P,U1,3,NC*%
%TO.N,unconnected-(U1-NC-Pad3)*%
X132062500Y-69050000D03*
%TO.P,U1,4,NC*%
%TO.N,unconnected-(U1-NC-Pad4)*%
X132062500Y-69550000D03*
%TO.P,U1,5,NC*%
%TO.N,unconnected-(U1-NC-Pad5)*%
X132062500Y-70050000D03*
%TO.P,U1,6,AUX_DA*%
%TO.N,unconnected-(U1-AUX_DA-Pad6)*%
X132062500Y-70550000D03*
D23*
%TO.P,U1,7,AUX_CL*%
%TO.N,unconnected-(U1-AUX_CL-Pad7)*%
X132750000Y-71237500D03*
%TO.P,U1,8,VLOGIC*%
%TO.N,Net-(U1-VLOGIC)*%
X133250000Y-71237500D03*
%TO.P,U1,9,AD0*%
%TO.N,Net-(J4-Pin_1)*%
X133750000Y-71237500D03*
%TO.P,U1,10,REGOUT*%
%TO.N,Net-(U1-REGOUT)*%
X134250000Y-71237500D03*
%TO.P,U1,11,FSYNC*%
%TO.N,GNDREF*%
X134750000Y-71237500D03*
%TO.P,U1,12,INT*%
%TO.N,unconnected-(U1-INT-Pad12)*%
X135250000Y-71237500D03*
D22*
%TO.P,U1,13,VDD*%
%TO.N,3.3VDC*%
X135937500Y-70550000D03*
%TO.P,U1,14,NC*%
%TO.N,unconnected-(U1-NC-Pad14)*%
X135937500Y-70050000D03*
%TO.P,U1,15,NC*%
%TO.N,unconnected-(U1-NC-Pad15)*%
X135937500Y-69550000D03*
%TO.P,U1,16,NC*%
%TO.N,unconnected-(U1-NC-Pad16)*%
X135937500Y-69050000D03*
%TO.P,U1,17,NC*%
%TO.N,unconnected-(U1-NC-Pad17)*%
X135937500Y-68550000D03*
%TO.P,U1,18,GND*%
%TO.N,GNDREF*%
X135937500Y-68050000D03*
D23*
%TO.P,U1,19,RESV*%
%TO.N,unconnected-(U1-RESV-Pad19)*%
X135250000Y-67362500D03*
%TO.P,U1,20,CPOUT*%
%TO.N,Net-(U1-CPOUT)*%
X134750000Y-67362500D03*
%TO.P,U1,21,RESV*%
%TO.N,unconnected-(U1-RESV-Pad21)*%
X134250000Y-67362500D03*
%TO.P,U1,22,RESV*%
%TO.N,unconnected-(U1-RESV-Pad22)*%
X133750000Y-67362500D03*
%TO.P,U1,23,SCL*%
%TO.N,Net-(A1-GPIO3)*%
X133250000Y-67362500D03*
%TO.P,U1,24,SDA*%
%TO.N,Net-(A1-GPIO4)*%
X132750000Y-67362500D03*
D24*
%TO.P,U1,25*%
%TO.N,N/C*%
X134000000Y-69300000D03*
%TD*%
D21*
%TO.P,C1,1*%
%TO.N,GNDREF*%
X133250000Y-75547500D03*
%TO.P,C1,2*%
%TO.N,Net-(U1-VLOGIC)*%
X135150000Y-75547500D03*
%TD*%
%TO.P,C3,1*%
%TO.N,GNDREF*%
X133250000Y-81567500D03*
%TO.P,C3,2*%
%TO.N,Net-(U1-REGOUT)*%
X135150000Y-81567500D03*
%TD*%
D25*
%TO.P,J1,1*%
%TO.N,Net-(A1-VBUS)*%
X107500000Y-112500000D03*
D26*
%TO.P,J1,2*%
%TO.N,Net-(J2-Pin_3)*%
X107500000Y-118500000D03*
D27*
%TO.P,J1,MP,MountPin*%
%TO.N,unconnected-(J1-MountPin-PadMP)*%
X103000000Y-119500000D03*
X112000000Y-119500000D03*
%TD*%
D28*
%TO.N,Net-(J4-Pin_1)*%
X133924700Y-73718200D03*
%TO.N,Net-(A1-GPIO3)*%
X107751300Y-62906400D03*
%TO.N,3.3VDC*%
X127659900Y-63074800D03*
%TO.N,Net-(A1-GPIO4)*%
X109950300Y-60016000D03*
%TO.N,GNDREF*%
X132853100Y-86082500D03*
X135723600Y-65881700D03*
X131253200Y-63452400D03*
X136087600Y-71410200D03*
%TD*%
D29*
%TO.N,Net-(J2-Pin_2)*%
X133000000Y-118000000D02*
X133901700Y-118000000D01*
X135318000Y-115682000D02*
X135318000Y-91277500D01*
X133901700Y-117098300D02*
X135318000Y-115682000D01*
X133901700Y-118000000D02*
X133901700Y-117098300D01*
X135318000Y-91277500D02*
X135153200Y-91112700D01*
X135318000Y-91277500D02*
X135153200Y-91112700D01*
X135153200Y-87590700D02*
X135150000Y-87587500D01*
X135153200Y-91112700D02*
X135153200Y-87590700D01*
%TO.N,Net-(J2-Pin_3)*%
X103480300Y-68875300D02*
X105385000Y-70780000D01*
X103480300Y-59984700D02*
X103480300Y-68875300D01*
X105385000Y-58080000D02*
X103480300Y-59984700D01*
X103437900Y-72727100D02*
X103437900Y-83480000D01*
X105385000Y-70780000D02*
X103437900Y-72727100D01*
X105385000Y-83480000D02*
X103437900Y-83480000D01*
X128468300Y-58080000D02*
X129598300Y-56950000D01*
X124765000Y-58080000D02*
X128468300Y-58080000D01*
X130500000Y-56950000D02*
X129598300Y-56950000D01*
X107500000Y-118500000D02*
X105548300Y-118500000D01*
X103437900Y-96180000D02*
X105385000Y-96180000D01*
X103437900Y-83480000D02*
X103437900Y-96180000D01*
X103437900Y-116389600D02*
X105548300Y-118500000D01*
X103437900Y-96180000D02*
X103437900Y-116389600D01*
X122860300Y-59984700D02*
X122860300Y-83480000D01*
X124765000Y-58080000D02*
X122860300Y-59984700D01*
X122500000Y-98445000D02*
X124765000Y-96180000D01*
X122500000Y-115000000D02*
X122500000Y-98445000D01*
X122860300Y-83480000D02*
X124765000Y-83480000D01*
X122860300Y-94275300D02*
X124765000Y-96180000D01*
X122860300Y-83480000D02*
X122860300Y-94275300D01*
%TO.N,Net-(U1-VLOGIC)*%
X134903200Y-75547500D02*
X135150000Y-75547500D01*
X133250000Y-73894300D02*
X134903200Y-75547500D01*
X133250000Y-71237500D02*
X133250000Y-73894300D01*
%TO.N,Net-(U1-CPOUT)*%
X137438000Y-82289500D02*
X135150000Y-84577500D01*
X137438000Y-56120900D02*
X137438000Y-82289500D01*
X137043100Y-55726000D02*
X137438000Y-56120900D01*
X135926400Y-55726000D02*
X137043100Y-55726000D01*
X135431700Y-56220700D02*
X135926400Y-55726000D01*
X135431700Y-57694300D02*
X135431700Y-56220700D01*
X134597300Y-58528700D02*
X135431700Y-57694300D01*
X134597300Y-64324500D02*
X134597300Y-58528700D01*
X134750000Y-64477200D02*
X134597300Y-64324500D01*
X134750000Y-67362500D02*
X134750000Y-64477200D01*
%TO.N,Net-(U1-REGOUT)*%
X134250000Y-72569100D02*
X134250000Y-71237500D01*
X135978800Y-74297900D02*
X134250000Y-72569100D01*
X135978800Y-76297100D02*
X135978800Y-74297900D01*
X135456700Y-76819200D02*
X135978800Y-76297100D01*
X135324800Y-76819200D02*
X135456700Y-76819200D01*
X134297400Y-77846600D02*
X135324800Y-76819200D01*
X134297400Y-80714900D02*
X134297400Y-77846600D01*
X135150000Y-81567500D02*
X134297400Y-80714900D01*
%TO.N,Net-(J4-Pin_1)*%
X133750000Y-73543500D02*
X133750000Y-71237500D01*
X133924700Y-73718200D02*
X133750000Y-73543500D01*
X133924700Y-73718200D02*
X133859200Y-73652700D01*
X133859200Y-73652700D02*
X133924700Y-73718200D01*
%TO.N,Net-(A1-GPIO22)*%
X131412500Y-87587500D02*
X133250000Y-87587500D01*
X124765000Y-80940000D02*
X131412500Y-87587500D01*
%TO.N,Net-(A1-GPIO3)*%
X133250000Y-63750000D02*
X133500000Y-63500000D01*
X133250000Y-67362500D02*
X133250000Y-63750000D01*
X107497700Y-63160000D02*
X107751300Y-62906400D01*
X105385000Y-63160000D02*
X107497700Y-63160000D01*
X132500000Y-62500000D02*
X132500000Y-56950000D01*
X133500000Y-63500000D02*
X132500000Y-62500000D01*
D30*
%TO.N,Net-(A1-VBUS)*%
X122200000Y-118000000D02*
X131000000Y-118000000D01*
X120000000Y-115800000D02*
X122200000Y-118000000D01*
X120000000Y-115000000D02*
X120000000Y-115800000D01*
X107500000Y-112500000D02*
X109467500Y-112500000D01*
X117500000Y-112500000D02*
X120000000Y-115000000D01*
X109467500Y-112500000D02*
X117500000Y-112500000D01*
D29*
X120689100Y-57075900D02*
X124765000Y-53000000D01*
X120689100Y-61590000D02*
X120689100Y-57075900D01*
X107658400Y-74620700D02*
X120689100Y-61590000D01*
X107658400Y-110690900D02*
X107658400Y-74620700D01*
X109467500Y-112500000D02*
X107658400Y-110690900D01*
%TO.N,3.3VDC*%
X136500000Y-59450000D02*
X135450000Y-60500000D01*
X136500000Y-56950000D02*
X136500000Y-59450000D01*
X135400100Y-60549900D02*
X135450000Y-60500000D01*
X135400000Y-60549900D02*
X135400100Y-60549900D01*
X135400000Y-63500000D02*
X135400000Y-60549900D01*
X127574700Y-63160000D02*
X127659900Y-63074800D01*
X124765000Y-63160000D02*
X127574700Y-63160000D01*
X135937500Y-70550000D02*
X136379000Y-70550000D01*
X136689300Y-70819000D02*
X136420300Y-70550000D01*
X136689300Y-77018200D02*
X136689300Y-70819000D01*
X135150000Y-78557500D02*
X136689300Y-77018200D01*
X136379000Y-70550000D02*
X136420300Y-70550000D01*
X136697200Y-64797200D02*
X135400000Y-63500000D01*
X136697200Y-70273100D02*
X136697200Y-64797200D01*
X136420300Y-70550000D02*
X136697200Y-70273100D01*
%TO.N,Net-(A1-GPIO4)*%
X109950300Y-61630500D02*
X109950300Y-60016000D01*
X105880800Y-65700000D02*
X109950300Y-61630500D01*
X105385000Y-65700000D02*
X105880800Y-65700000D01*
X134500000Y-56950000D02*
X133598300Y-56950000D01*
X133598300Y-60451700D02*
X133598300Y-56950000D01*
X133550000Y-60500000D02*
X133598300Y-60451700D01*
X133598300Y-56463400D02*
X133598300Y-56950000D01*
X132865300Y-55730400D02*
X133598300Y-56463400D01*
X132139700Y-55730400D02*
X132865300Y-55730400D01*
X131568100Y-56302000D02*
X132139700Y-55730400D01*
X131568100Y-62916400D02*
X131568100Y-56302000D01*
X131854900Y-63203200D02*
X131568100Y-62916400D01*
X131854900Y-66467400D02*
X131854900Y-63203200D01*
X132750000Y-67362500D02*
X131854900Y-66467400D01*
%TO.N,GNDREF*%
X133250000Y-84577500D02*
X133250000Y-81567500D01*
X124765000Y-70780000D02*
X131271800Y-70780000D01*
X131271800Y-73569300D02*
X131271800Y-70780000D01*
X133250000Y-75547500D02*
X131271800Y-73569300D01*
X133250000Y-78557500D02*
X133250000Y-79587300D01*
X133250000Y-79587300D02*
X133250000Y-81567500D01*
X133250000Y-85685600D02*
X133250000Y-84577500D01*
X132853100Y-86082500D02*
X133250000Y-85685600D01*
X133250000Y-76173000D02*
X133250000Y-75547500D01*
X133250000Y-76214300D02*
X133250000Y-76173000D01*
X133250000Y-78557500D02*
X133250000Y-76636500D01*
X133250000Y-76255600D02*
X133250000Y-76214300D01*
X133250000Y-76636500D02*
X133250000Y-76616100D01*
X133250000Y-76616100D02*
X133250000Y-76255600D01*
X135937500Y-66095600D02*
X135723600Y-65881700D01*
X135937500Y-68050000D02*
X135937500Y-66095600D01*
X131271800Y-68320700D02*
X131542500Y-68050000D01*
X131271800Y-70780000D02*
X131271800Y-68320700D01*
X131253200Y-67760700D02*
X131542500Y-68050000D01*
X131253200Y-63452400D02*
X131253200Y-67760700D01*
X131542500Y-68050000D02*
X132062500Y-68050000D01*
X135520900Y-71976900D02*
X136087600Y-71410200D01*
X135022300Y-71976900D02*
X135520900Y-71976900D01*
X134750000Y-71704600D02*
X135022300Y-71976900D01*
X134750000Y-71237500D02*
X134750000Y-71704600D01*
X136087600Y-71410200D02*
X135910500Y-71587300D01*
X135910500Y-71587300D02*
X136087600Y-71410200D01*
%TD*%
M02*
